<svg width="16" height="16" viewBox="0 0 16 16" fill="none" xmlns="http://www.w3.org/2000/svg">
<path fill-rule="evenodd" clip-rule="evenodd" d="M8.88797 1.93696C8.63413 1.68312 8.22257 1.68312 7.96873 1.93696L1.43684 8.46886C1.183 8.7227 1.183 9.13425 1.43684 9.38809C1.69068 9.64194 2.10224 9.64194 2.35608 9.38809L3.42383 8.32035V14.5895C3.42383 14.9485 3.71484 15.2395 4.07383 15.2395H12.783C13.142 15.2395 13.433 14.9485 13.433 14.5895V8.32049L14.5006 9.38809C14.7545 9.64194 15.166 9.64194 15.4199 9.38809C15.6737 9.13425 15.6737 8.7227 15.4199 8.46886L13.2475 6.29645C13.2443 6.29318 13.241 6.28995 13.2378 6.28675L8.88797 1.93696ZM12.133 7.02049L8.42835 3.31582L4.72383 7.02035V13.9395H12.133V7.02049Z" fill="#5F6368"/>
</svg>
