<svg width="16" height="16" viewBox="0 0 16 16" fill="none" xmlns="http://www.w3.org/2000/svg">
<g clip-path="url(#clip0_3372_2263)">
<path d="M14.8596 8.42238C14.8596 7.94654 14.8202 7.46812 14.7363 7H8V9.69557H11.8575C11.6975 10.5649 11.1831 11.334 10.43 11.8227V13.5717H12.7314C14.0828 12.3526 14.8596 10.5521 14.8596 8.42238Z" fill="#4285F4"/>
<path d="M8.14031 15C10.0665 15 11.6908 14.3801 12.8743 13.3101L10.5729 11.561C9.93262 11.988 9.10601 12.2298 8.14293 12.2298C6.27976 12.2298 4.70001 10.9977 4.13318 9.34131H1.7583V11.1444C2.97067 13.5081 5.44003 15 8.14031 15Z" fill="#34A853"/>
<path d="M4.13062 9.34134C3.83146 8.47197 3.83146 7.53058 4.13062 6.6612V4.85815H1.75836C0.745424 6.83611 0.745424 9.16644 1.75836 11.1444L4.13062 9.34134Z" fill="#FBBC04"/>
<path d="M8.14031 3.77015C9.15849 3.75471 10.1426 4.13024 10.88 4.81957L12.9189 2.82104C11.6278 1.63272 9.91425 0.979407 8.14031 0.999983C5.44003 0.999983 2.97067 2.49181 1.7583 4.85815L4.13056 6.6612C4.69476 5.00219 6.27714 3.77015 8.14031 3.77015Z" fill="#EA4335"/>
</g>
<defs>
<clipPath id="clip0_3372_2263">
<rect width="14" height="14" fill="white" transform="translate(1 1)"/>
</clipPath>
</defs>
</svg>
