<svg width="101" height="52" viewBox="0 0 101 52" fill="none" xmlns="http://www.w3.org/2000/svg">
<path fill-rule="evenodd" clip-rule="evenodd" d="M16.5624 10.7913C16.5624 10.8522 16.4052 10.9019 16.213 10.9019C16.0209 10.9019 15.8637 10.9468 15.8637 11.0017C15.8637 11.0566 15.7289 11.1015 15.5642 11.1015C15.3995 11.1015 15.2648 11.1464 15.2648 11.2013C15.2648 11.2562 15.1075 11.3011 14.9154 11.3011C14.7233 11.3011 14.566 11.351 14.566 11.4119C14.566 11.4793 14.4318 11.507 14.2237 11.4826C14.0208 11.4588 13.8885 11.4851 13.8993 11.5467C13.9092 11.6038 13.7713 11.6645 13.5928 11.6817C13.4144 11.6989 13.2684 11.7551 13.2684 11.8065C13.2684 11.8579 13.1337 11.9 12.969 11.9C12.8043 11.9 12.6695 11.945 12.6695 11.9999C12.6695 12.0548 12.5375 12.0997 12.3761 12.0997C12.2146 12.0997 12.0519 12.1488 12.0147 12.209C11.9776 12.2694 11.8193 12.2998 11.6634 12.2768C11.4877 12.2511 11.3602 12.2856 11.329 12.3672C11.301 12.4395 11.1673 12.4989 11.0315 12.4989C10.8958 12.4989 10.757 12.5439 10.7231 12.5988C10.6892 12.6537 10.5544 12.6986 10.4237 12.6986C10.2929 12.6986 10.1581 12.7435 10.1242 12.7984C10.0903 12.8533 9.93306 12.8982 9.77485 12.8982C9.61664 12.8982 9.45943 12.9431 9.4255 12.998C9.39156 13.0529 9.2316 13.0978 9.07015 13.0978C8.9087 13.0978 8.77669 13.1428 8.77669 13.1977C8.77669 13.2525 8.64468 13.2975 8.48323 13.2975C8.32178 13.2975 8.15958 13.3461 8.12289 13.4053C8.08621 13.4647 7.95345 13.4876 7.82794 13.4559C7.67721 13.4182 7.58039 13.4494 7.54246 13.5478C7.47359 13.7277 6.98274 13.7484 6.97376 13.572C6.97026 13.5033 6.92485 13.553 6.87319 13.6825C6.79908 13.8672 6.72771 13.9049 6.54055 13.8577C6.37411 13.816 6.28353 13.8465 6.24061 13.9583C6.19993 14.0641 6.10685 14.0997 5.96761 14.0633C5.84608 14.0316 5.69237 14.0718 5.60652 14.1576C5.52442 14.2397 5.39167 14.2822 5.31206 14.2515C5.23221 14.2208 5.07575 14.2599 4.9642 14.3381C4.85241 14.4162 4.69445 14.4546 4.61285 14.4234C4.53125 14.392 4.42919 14.4234 4.38602 14.4933C4.34285 14.5629 4.1814 14.62 4.02718 14.62C3.87296 14.62 3.6888 14.6777 3.61818 14.7483C3.54781 14.8189 3.39933 14.8531 3.28854 14.8242C3.16926 14.793 3.08716 14.8202 3.08716 14.891C3.08716 15.0415 3.37438 15.0208 7.07981 14.6026C8.24093 14.4716 8.66889 14.3892 8.73352 14.2847C8.76371 14.2357 8.89547 14.1958 9.02623 14.1958C9.15699 14.1958 9.29174 14.1509 9.32568 14.096C9.35962 14.0411 9.47516 13.9962 9.58246 13.9962C9.68976 13.9962 9.85546 13.9553 9.95078 13.9051C10.1013 13.826 13.5437 12.7018 16.4626 11.7785C16.9841 11.6136 17.4889 11.4386 17.5842 11.3897C17.6796 11.3411 17.8453 11.3011 17.9526 11.3011C18.0599 11.3011 18.1754 11.2562 18.2093 11.2013C18.2433 11.1464 18.3718 11.1015 18.4948 11.1015C18.6178 11.1015 18.7611 11.0603 18.8132 11.0102C18.8654 10.9598 19.0203 10.8986 19.1576 10.8739C19.2948 10.8495 18.8382 10.823 18.1427 10.8155C17.4472 10.8083 16.8072 10.7749 16.7203 10.7414C16.6335 10.7082 16.5624 10.7307 16.5624 10.7913ZM26.9932 10.9243C26.8285 10.9797 26.6156 11.0648 26.5203 11.1132C26.425 11.1616 26.256 11.2013 26.1447 11.2013C26.0334 11.2013 25.8645 11.2417 25.7692 11.2914C25.6739 11.3411 25.3936 11.4369 25.1466 11.5045C24.3323 11.7276 24.1047 11.7937 23.4996 11.9844C23.1702 12.0879 22.6986 12.2289 22.4515 12.2976C22.2045 12.3662 21.8901 12.4573 21.7528 12.5002C21.4831 12.5843 20.4654 12.8785 19.507 13.1492C19.1776 13.2423 18.8492 13.3359 18.777 13.3571C18.4634 13.4499 18.8192 13.5969 19.3572 13.5969C19.6801 13.5969 19.9721 13.6418 20.006 13.6967C20.04 13.7516 20.3257 13.7965 20.6409 13.7965C20.956 13.7965 21.2565 13.8375 21.3086 13.8876C21.3608 13.9375 21.6617 14.0049 21.9774 14.0374C22.2931 14.0695 22.8096 14.1225 23.1253 14.1546C23.441 14.1871 23.7419 14.2545 23.7941 14.3044C23.8462 14.3545 24.1467 14.3954 24.4618 14.3954C24.777 14.3954 25.0627 14.4404 25.0967 14.4953C25.1306 14.5502 25.4163 14.5951 25.7315 14.5951C26.0467 14.5951 26.3471 14.636 26.3993 14.6862C26.4514 14.7361 26.7524 14.8034 27.068 14.8359C27.3837 14.8681 27.9003 14.921 28.2159 14.9532C28.5316 14.9856 28.8325 15.053 28.8847 15.1029C28.9368 15.1531 29.2373 15.194 29.5525 15.194C29.8676 15.194 30.1534 15.2389 30.1873 15.2938C30.2212 15.3487 30.4962 15.3936 30.7987 15.3936C31.1009 15.3936 31.424 15.4325 31.5164 15.48C31.6089 15.5276 31.9725 15.5915 32.3246 15.6217L32.9647 15.6771L30.5287 13.2396C27.8494 10.5588 27.927 10.6094 26.9932 10.9243ZM33.0905 12.1224C34.7454 13.7322 34.7289 13.703 34.7289 15.0348V16.0833L35.0533 16.1315C35.2318 16.158 35.9617 16.2717 36.6754 16.3848C37.389 16.4976 38.4182 16.6166 38.9622 16.649C39.5062 16.6817 40.0591 16.7494 40.1914 16.7995C41.0156 17.1129 40.936 16.9086 39.7702 15.72L38.6218 14.5489V12.6756V10.8021H35.1774H31.733L33.0905 12.1224ZM46.0369 14.5322C48.8707 17.3378 49.8886 18.286 50.1294 18.3447C50.3058 18.3874 53.7013 18.4378 57.6752 18.4565L64.9004 18.4904L64.2132 18.0228C63.8351 17.7652 63.2115 17.3238 62.8272 17.0416C59.9518 14.9295 55.1798 12.3984 54.0744 12.3991C53.9815 12.3991 53.881 12.3594 53.851 12.3108C53.8208 12.2621 53.6723 12.1985 53.5206 12.1693C53.3689 12.1401 53.0652 12.0645 52.8456 12.0014C52.626 11.9385 52.2779 11.8449 52.072 11.7935C51.8662 11.7423 51.5068 11.6522 51.2735 11.5936C49.5644 11.1634 47.308 10.9203 44.3612 10.8487L42.2651 10.7978L46.0369 14.5322ZM17.8103 23.4585C17.3714 23.4747 16.9694 23.5309 16.917 23.5833C16.8648 23.6354 16.7266 23.6784 16.6098 23.6784C16.2647 23.6784 14.9848 24.1485 14.2763 24.5355C9.7761 26.9938 7.99288 32.1695 10.0785 36.7196C10.2415 37.0747 10.3371 37.4221 10.3054 37.5431C10.2739 37.6634 10.2981 37.7525 10.362 37.7525C10.4234 37.7525 10.4736 37.8323 10.4736 37.9301C10.4736 38.0277 10.5634 38.1725 10.6732 38.2516C10.783 38.3307 10.8728 38.4577 10.8728 38.5335C10.8728 38.7227 12.823 40.6472 13.0146 40.6472C13.0992 40.6472 13.1686 40.6846 13.1686 40.73C13.1686 40.7757 13.2921 40.8765 13.4431 40.9541C13.5941 41.0314 13.7902 41.1739 13.8791 41.2703C13.9679 41.3668 14.1139 41.4457 14.2035 41.4457C14.293 41.4457 14.3664 41.4906 14.3664 41.5455C14.3664 41.6004 14.4535 41.6453 14.5601 41.6453C14.6666 41.6453 14.7816 41.6902 14.8156 41.7451C14.8495 41.8 14.987 41.8449 15.121 41.8449C15.255 41.8449 15.3646 41.8899 15.3646 41.9448C15.3646 41.9997 15.4741 42.0446 15.6081 42.0446C15.7421 42.0446 15.8796 42.0895 15.9136 42.1444C15.9475 42.1993 16.1272 42.2442 16.3128 42.2442C16.4985 42.2442 16.6782 42.2891 16.7121 42.344C16.7498 42.4052 17.5448 42.4438 18.7643 42.4438C20.0247 42.4438 20.7547 42.4072 20.7547 42.344C20.7547 42.2891 20.9343 42.2442 21.1539 42.2442C21.3735 42.2442 21.5532 42.1993 21.5532 42.1444C21.5532 42.0895 21.6879 42.0446 21.8526 42.0446C22.0173 42.0446 22.1521 41.9997 22.1521 41.9448C22.1521 41.8899 22.2377 41.8449 22.3422 41.8449C22.5089 41.8449 23.3137 41.4821 23.4497 41.3456C23.4771 41.3182 23.6231 41.2321 23.7741 41.1542C23.9251 41.0764 24.0486 40.9753 24.0486 40.9296C24.0486 40.8842 24.1195 40.8468 24.2061 40.8468C24.2929 40.8468 24.5287 40.6783 24.7301 40.4725C24.9317 40.2666 25.2187 40.0353 25.3677 39.9584C25.5169 39.8816 25.6152 39.7805 25.5865 39.7338C25.5576 39.6872 25.604 39.649 25.6896 39.649C25.7752 39.649 25.8453 39.6128 25.8453 39.5686C25.8453 39.5245 26.0065 39.3124 26.2036 39.097C26.4008 38.8819 26.6266 38.5812 26.7052 38.4287C26.7841 38.2765 26.8924 38.1517 26.9458 38.1517C26.9994 38.1517 27.0431 38.0619 27.0431 37.9521C27.0431 37.8423 27.0768 37.7525 27.1179 37.7525C27.1591 37.7525 27.1971 37.6065 27.2023 37.4281C27.2075 37.2497 27.3278 36.8342 27.4693 36.5048C27.7136 35.9361 27.889 35.3027 28.1488 34.0515C28.2578 33.5265 28.2426 32.9059 28.0829 31.3877C28.0467 31.0436 27.9776 30.7376 27.9292 30.7079C27.881 30.6782 27.8416 30.5243 27.8416 30.3661C27.8416 30.2079 27.7967 30.0506 27.7418 30.0167C27.6869 29.9828 27.642 29.848 27.642 29.7173C27.642 29.5865 27.5971 29.4517 27.5422 29.4178C27.4873 29.3839 27.4423 29.2688 27.4423 29.1623C27.4423 29.0557 27.3974 28.9686 27.3425 28.9686C27.2876 28.9686 27.2427 28.8788 27.2427 28.769C27.2427 28.6592 27.1978 28.5694 27.1429 28.5694C27.088 28.5694 27.0431 28.4795 27.0431 28.3697C27.0431 28.2599 26.9982 28.1701 26.9433 28.1701C26.8884 28.1701 26.8435 28.1212 26.8435 28.0616C26.8435 27.8826 26.2333 27.0631 25.5957 26.3864C24.7241 25.4608 23.9331 24.8869 22.751 24.3224C22.449 24.1782 22.1239 24.0192 22.0286 23.9691C21.9332 23.9189 21.7675 23.878 21.6602 23.878C21.5529 23.878 21.4374 23.8331 21.4035 23.7782C21.3695 23.7233 21.2068 23.6784 21.0416 23.6784C20.8767 23.6784 20.6658 23.6392 20.5735 23.5915C20.3721 23.4872 18.9188 23.4173 17.8103 23.4585ZM80.9941 23.4585C80.5551 23.4747 80.1531 23.5309 80.1007 23.5833C80.0486 23.6354 79.9103 23.6784 79.7935 23.6784C78.4118 23.6784 75.463 25.6433 74.1013 27.4714C72.2853 29.9092 71.9352 33.8032 73.2683 36.7428C73.4287 37.0969 73.5355 37.4645 73.5056 37.5591C73.4754 37.6539 73.5086 37.7924 73.579 37.8668C73.6496 37.9411 73.7709 38.1255 73.849 38.2765C73.9268 38.4275 74.0279 38.551 74.0736 38.551C74.119 38.551 74.1564 38.6159 74.1564 38.695C74.1564 38.7743 74.3248 38.9969 74.5307 39.1896C74.7366 39.3822 75.1693 39.789 75.4924 40.0934C75.8154 40.3981 76.1313 40.6472 76.1939 40.6472C76.2568 40.6472 76.3713 40.7345 76.4484 40.8415C76.5253 40.9483 76.6214 41.0152 76.662 40.9903C76.7025 40.9653 76.7953 41.004 76.8684 41.0766C76.9413 41.149 77.1472 41.2727 77.3256 41.3514C77.504 41.43 77.65 41.5283 77.65 41.57C77.65 41.6114 77.7398 41.6453 77.8496 41.6453C77.9594 41.6453 78.0492 41.6902 78.0492 41.7451C78.0492 41.8 78.1363 41.8449 78.2429 41.8449C78.3494 41.8449 78.4645 41.8899 78.4984 41.9448C78.5324 41.9997 78.6671 42.0446 78.7979 42.0446C78.9286 42.0446 79.0634 42.0895 79.0973 42.1444C79.1313 42.1993 79.3109 42.2442 79.4966 42.2442C79.6822 42.2442 79.8619 42.2891 79.8958 42.344C79.9335 42.4052 80.7286 42.4438 81.9481 42.4438C83.2085 42.4438 83.9384 42.4072 83.9384 42.344C83.9384 42.2891 84.1181 42.2442 84.3377 42.2442C84.5573 42.2442 84.7369 42.1993 84.7369 42.1444C84.7369 42.0895 84.8717 42.0446 85.0364 42.0446C85.2011 42.0446 85.3358 41.9997 85.3358 41.9448C85.3358 41.8899 85.4481 41.8449 85.5854 41.8449C85.7226 41.8449 85.8349 41.8 85.8349 41.7451C85.8349 41.6902 85.9248 41.6453 86.0346 41.6453C86.1443 41.6453 86.2342 41.6004 86.2342 41.5455C86.2342 41.4906 86.324 41.4457 86.4338 41.4457C86.5436 41.4457 86.6334 41.4008 86.6334 41.3459C86.6334 41.291 86.7133 41.246 86.8111 41.246C86.9087 41.246 87.0534 41.1562 87.1325 41.0464C87.2116 40.9366 87.3464 40.8468 87.432 40.8468C87.5176 40.8468 87.6523 40.7569 87.7314 40.6472C87.8105 40.5374 87.9328 40.4475 88.0029 40.4475C88.0733 40.4475 88.1307 40.4026 88.1307 40.3477C88.1307 40.2928 88.1789 40.2479 88.2377 40.2479C88.3855 40.2479 88.6343 39.9861 88.5584 39.9105C88.5245 39.8763 88.5512 39.8486 88.6178 39.8486C88.6842 39.8486 88.8509 39.7363 88.9881 39.5991C89.1254 39.4618 89.2167 39.3495 89.191 39.3495C89.1655 39.3495 89.3205 39.1606 89.5359 38.9298C89.7512 38.6987 89.9274 38.4392 89.9274 38.3529C89.9274 38.2665 90.0172 38.131 90.127 38.0519C90.2575 37.9578 90.3267 37.7936 90.3267 37.5768C90.3267 37.3946 90.42 37.0625 90.534 36.8389C91.0019 35.9218 91.3136 34.6532 91.3885 33.3606C91.4384 32.5006 91.1666 30.4966 90.9181 29.8919C90.8672 29.7684 90.7866 29.5663 90.7386 29.4428C90.5565 28.9736 90.1739 28.2188 90.1021 28.1868C90.0609 28.1684 90.0272 28.1092 90.0272 28.0551C90.0272 27.8674 89.3889 27.019 88.7363 26.3397C87.8188 25.3845 87.1497 24.9026 85.9347 24.3224C85.6328 24.1782 85.3076 24.0192 85.2123 23.9691C85.117 23.9189 84.9513 23.878 84.844 23.878C84.7367 23.878 84.6212 23.8331 84.5872 23.7782C84.5533 23.7233 84.3906 23.6784 84.2254 23.6784C84.0604 23.6784 83.8496 23.6387 83.7572 23.5903C83.5574 23.486 82.1135 23.4169 80.9941 23.4585ZM19.9691 28.2425C21.241 28.5966 23.0504 30.1582 23.0504 30.9021C23.0504 30.9852 23.0953 31.0808 23.1502 31.1147C23.2051 31.1486 23.2501 31.2834 23.2501 31.4141C23.2501 31.5449 23.295 31.6796 23.3499 31.7136C23.5298 31.8249 23.4624 33.246 23.2413 33.9986C22.9032 35.15 22.3372 35.981 21.4978 36.5584L21.0741 36.8501L21.089 36.3438C21.106 35.7704 20.7537 35.3584 20.2456 35.3574C18.4796 35.3539 16.1723 32.9875 16.1641 31.1711C16.1624 30.7656 15.7938 30.4659 15.2972 30.4659C14.1313 30.4659 16.2642 28.5379 17.6875 28.3054C17.8947 28.2714 18.0903 28.2013 18.1222 28.1494C18.1921 28.0366 19.4585 28.1002 19.9691 28.2425ZM83.1544 28.2427C85.0828 28.7792 86.6334 30.7536 86.6334 32.6723C86.6334 34.0989 85.778 35.8041 84.6855 36.5557L84.2578 36.8501L84.2728 36.3438C84.2903 35.7557 83.9359 35.3596 83.3894 35.3559C83.0857 35.3539 82.4017 35.151 82.2767 35.026C82.239 34.9883 82.1372 34.9571 82.0501 34.9566C81.5206 34.9534 79.9927 33.373 79.6797 32.5049C79.4414 31.8438 79.3469 31.4863 79.3469 31.2459C79.3469 30.788 78.9935 30.4659 78.4912 30.4659C77.3051 30.4659 79.4242 28.5354 80.8626 28.3054C81.0744 28.2714 81.2741 28.2013 81.306 28.1494C81.3759 28.0364 82.6423 28.1005 83.1544 28.2427Z" fill="#363E2E"/>
<path fill-rule="evenodd" clip-rule="evenodd" d="M24.7977 8.00655C24.7635 8.06195 24.6061 8.10711 24.4479 8.10711C24.2897 8.10711 24.1325 8.15203 24.0985 8.20693C24.0646 8.26183 23.9271 8.30674 23.7931 8.30674C23.6591 8.30674 23.5495 8.35166 23.5495 8.40656C23.5495 8.46146 23.4148 8.50638 23.2501 8.50638C23.0854 8.50638 22.9506 8.5513 22.9506 8.6062C22.9506 8.6611 22.7962 8.70601 22.6073 8.70601C22.4184 8.70601 22.2359 8.75093 22.202 8.80583C22.1681 8.86072 22.0333 8.90564 21.9026 8.90564C21.7718 8.90564 21.637 8.95056 21.6031 9.00546C21.5692 9.06036 21.4092 9.10528 21.2478 9.10528C21.0863 9.10528 20.9543 9.15019 20.9543 9.20509C20.9543 9.25999 20.8223 9.30491 20.6608 9.30491C20.4994 9.30491 20.3394 9.34983 20.3055 9.40473C20.2716 9.45963 20.1116 9.50454 19.9502 9.50454C19.7887 9.50454 19.6567 9.54946 19.6567 9.60436C19.6567 9.65926 19.5219 9.70417 19.3572 9.70417C19.1925 9.70417 19.0578 9.74909 19.0578 9.80399C19.0578 9.85889 18.923 9.90381 18.7583 9.90381C18.5936 9.90381 18.4589 9.94872 18.4589 10.0036C18.4589 10.0585 18.3044 10.1034 18.1155 10.1034C17.9266 10.1034 17.7442 10.1484 17.7103 10.2033C17.6763 10.2582 17.5164 10.3031 17.3549 10.3031C17.1935 10.3031 17.0615 10.348 17.0615 10.4029C17.0615 10.4578 16.9519 10.5027 16.8179 10.5027C16.6839 10.5027 16.5472 10.5466 16.514 10.6C16.476 10.6614 17.0472 10.7076 18.0554 10.7248C19.4878 10.7493 20.2129 10.884 19.4571 10.9853C19.3198 11.0035 19.1648 11.0597 19.1127 11.1101C19.0605 11.1602 18.9173 11.2014 18.7943 11.2014C18.6713 11.2014 18.5427 11.2463 18.5088 11.3012C18.4749 11.3561 18.3593 11.4011 18.252 11.4011C18.1447 11.4011 17.979 11.442 17.8837 11.4921C17.7884 11.542 16.6323 11.9291 15.3147 12.3518C13.9971 12.7745 12.0657 13.4029 11.0226 13.7482C8.38767 14.6204 8.42036 14.6136 4.98369 14.9974C4.46214 15.0558 3.71801 15.1449 3.32998 15.1953C2.61953 15.2879 1.92756 15.237 1.83373 15.0853C1.59717 14.7022 1.49011 15.1784 1.49011 16.6155V18.1152L3.16204 18.077L4.83396 18.0388V22.1812V26.3236L3.16204 26.2854L1.49011 26.2472V29.665C1.49011 32.7403 1.50583 33.0764 1.64807 33.022C1.73491 32.9886 3.43653 32.9614 5.42986 32.9614H9.0537L9.11059 32.2876C9.18371 31.4195 9.41403 30.203 9.58272 29.7922C9.63363 29.6687 9.71423 29.4666 9.76215 29.343C9.94431 28.8739 10.3269 28.119 10.3987 28.0871C10.4399 28.0686 10.4736 27.9985 10.4736 27.9311C10.4736 27.8638 10.5522 27.7215 10.6483 27.615C10.7443 27.5084 10.9564 27.2417 11.1194 27.0223C12.1058 25.6945 13.9005 24.3779 15.4145 23.8711C15.6341 23.7977 15.8564 23.7017 15.9086 23.658C15.9607 23.6143 16.1202 23.5787 16.2629 23.5787C16.4057 23.5787 16.5651 23.538 16.6173 23.4881C16.925 23.1939 20.5932 23.1936 20.8994 23.4876C20.9516 23.5377 21.1173 23.5787 21.2677 23.5787C21.4182 23.5787 21.5692 23.6236 21.6031 23.6785C21.637 23.7334 21.7526 23.7783 21.8599 23.7783C21.9672 23.7783 22.1329 23.8182 22.2282 23.8671C22.3235 23.916 22.6262 24.062 22.9007 24.1915C23.1752 24.321 23.4148 24.4608 23.433 24.502C23.4515 24.5431 23.5101 24.5768 23.5633 24.5768C23.9051 24.5768 25.5513 25.9785 26.2481 26.8624C26.8505 27.6267 27.7418 29.2457 27.7418 29.5756C27.7418 29.6744 27.7867 29.7832 27.8416 29.8172C27.8965 29.8511 27.9415 29.9796 27.9415 30.1026C27.9415 30.2257 27.9819 30.3689 28.031 30.4211C28.1408 30.5373 28.2379 31.1632 28.3053 32.1878L28.3559 32.9614H50.2956H72.2352L72.2976 32.4374C72.3557 31.9463 72.4678 31.2124 72.617 30.3402C72.6525 30.1338 72.7213 29.9404 72.77 29.9103C72.8189 29.8801 72.8588 29.7456 72.8588 29.6116C72.8588 29.4775 72.9037 29.368 72.9586 29.368C73.0135 29.368 73.0584 29.2557 73.0584 29.1185C73.0584 28.9812 73.1034 28.8689 73.1583 28.8689C73.2132 28.8689 73.2581 28.7828 73.2581 28.6775C73.2581 28.5725 73.2918 28.4714 73.3329 28.4529C73.3741 28.4347 73.5169 28.2176 73.6499 27.9706C73.7831 27.7235 73.9179 27.4989 73.9493 27.4715C73.981 27.444 74.1864 27.1972 74.406 26.923C75.5197 25.5326 76.9268 24.5134 78.6482 23.8511C78.7854 23.7982 78.9758 23.7154 79.0711 23.6667C79.1665 23.6183 79.3484 23.5787 79.4754 23.5787C79.6024 23.5787 79.7489 23.538 79.801 23.4881C80.1142 23.1886 83.9105 23.1914 84.0956 23.4911C84.1253 23.5392 84.2793 23.5787 84.4375 23.5787C84.5957 23.5787 84.7529 23.6236 84.7869 23.6785C84.8208 23.7334 84.9363 23.7783 85.0436 23.7783C85.1509 23.7783 85.3167 23.8182 85.412 23.8671C85.5073 23.916 85.81 24.0608 86.0845 24.1885C87.4587 24.8286 89.6237 26.7056 89.9174 27.5117C89.9394 27.5718 89.9843 27.6437 90.0172 27.6711C90.135 27.7694 90.6613 28.7748 90.84 29.2432C90.8872 29.3668 90.9653 29.5689 91.0139 29.6924C91.1058 29.9252 91.2258 30.3746 91.4144 31.1911C91.4751 31.4527 91.5245 31.958 91.5245 32.3141V32.9614H94.4224C97.0932 32.9614 97.3246 32.9477 97.3785 32.7867C97.5224 32.3568 97.6679 32.063 97.7375 32.063C97.779 32.063 97.8129 32.0012 97.8129 31.9255C97.8129 31.8499 97.89 31.6141 97.9846 31.4015C98.0789 31.1889 98.164 30.9701 98.1735 30.9152C98.2187 30.6584 98.3422 30.3662 98.4053 30.3662C98.444 30.3662 98.5366 30.1416 98.6114 29.8671C98.6863 29.5926 98.7841 29.368 98.829 29.368C98.8742 29.368 98.9109 29.2782 98.9109 29.1684C98.9109 29.0586 98.9558 28.9687 99.0107 28.9687C99.1734 28.9687 99.1242 28.5962 98.9526 28.5303C98.8657 28.4969 97.5856 28.4697 96.1078 28.4697H93.421V27.5294V26.5889L95.8083 26.5562C97.9392 26.5267 98.6539 26.4496 98.2202 26.2959C98.1421 26.2682 97.9527 26.1172 97.7992 25.9603C97.6457 25.8033 97.4937 25.6748 97.4615 25.6748C97.3248 25.6748 96.7219 25.2022 96.7821 25.142C96.8182 25.1056 96.7798 25.0759 96.6965 25.0759C96.6131 25.0759 96.404 24.9411 96.2316 24.7764C96.0591 24.6117 95.8777 24.477 95.8281 24.477C95.7784 24.477 95.5962 24.3445 95.4231 24.1828C95.2496 24.0211 95.0914 23.8976 95.071 23.9083C95.0507 23.919 94.9205 23.8294 94.782 23.7087C94.5369 23.4958 93.9765 23.1709 93.8689 23.1796C93.8397 23.1819 93.706 23.0741 93.5717 22.9398C93.4375 22.8056 93.2363 22.6668 93.1248 22.6314C93.0132 22.596 92.9219 22.5251 92.9219 22.4739C92.9219 22.4228 92.8525 22.3809 92.7679 22.3809C92.6833 22.3809 92.5176 22.291 92.3999 22.1812C92.2821 22.0714 92.1266 21.9816 92.0547 21.9816C91.9826 21.9816 91.9237 21.9367 91.9237 21.8818C91.9237 21.8269 91.8339 21.782 91.7241 21.782C91.6143 21.782 91.5245 21.737 91.5245 21.6821C91.5245 21.6272 91.4346 21.5823 91.3248 21.5823C91.215 21.5823 91.1252 21.5374 91.1252 21.4825C91.1252 21.4276 91.0354 21.3827 90.9256 21.3827C90.8158 21.3827 90.726 21.3378 90.726 21.2829C90.726 21.228 90.6361 21.1831 90.5263 21.1831C90.4165 21.1831 90.3267 21.1381 90.3267 21.0832C90.3267 21.0283 90.2144 20.9834 90.0771 20.9834C89.9399 20.9834 89.8276 20.9385 89.8276 20.8836C89.8276 20.8287 89.7153 20.7838 89.5781 20.7838C89.4408 20.7838 89.3285 20.7486 89.3285 20.7057C89.3285 20.6628 89.1264 20.5679 88.8793 20.4951C88.6323 20.4222 88.4302 20.3226 88.4302 20.2737C88.4302 20.2248 88.2954 20.1849 88.1307 20.1849C87.966 20.1849 87.8313 20.14 87.8313 20.0851C87.8313 20.0302 87.7003 19.9853 87.5401 19.9853C87.3801 19.9853 87.2341 19.9423 87.2157 19.8899C87.1974 19.8373 87.014 19.7831 86.8082 19.7697C86.6023 19.7559 86.4338 19.709 86.4338 19.6653C86.4338 19.6217 86.3018 19.586 86.1404 19.586C85.9789 19.586 85.822 19.5458 85.7915 19.4967C85.7613 19.4475 85.5677 19.3821 85.3616 19.3509C85.1552 19.3197 84.717 19.2449 84.3876 19.1845C84.0582 19.1238 83.5781 19.0652 83.3208 19.0537C83.0635 19.0422 82.8215 19.0013 82.7831 18.9629C82.7446 18.9245 79.9233 18.8918 76.5133 18.8903C73.1034 18.8885 69.7765 18.8576 69.1202 18.8212L67.9269 18.7553L66.5749 17.8432C65.8312 17.3414 64.6045 16.5064 63.8489 15.9876C62.4055 14.9967 60.0464 13.3827 57.7526 11.8168C56.167 10.7348 56.1613 10.7023 57.5487 10.7023C58.222 10.7023 58.5748 10.6667 58.5352 10.6025C58.5012 10.5476 58.3837 10.5027 58.2739 10.5027C58.1641 10.5027 58.102 10.4578 58.1359 10.4029C58.1708 10.3465 58.089 10.3031 57.948 10.3031C57.8107 10.3031 57.6708 10.2582 57.6368 10.2033C57.6029 10.1484 57.4878 10.1034 57.3813 10.1034C57.2747 10.1034 57.1876 10.0585 57.1876 10.0036C57.1876 9.94872 57.0754 9.90381 56.9381 9.90381C56.8009 9.90381 56.6886 9.85889 56.6886 9.80399C56.6886 9.74909 56.5763 9.70417 56.439 9.70417C56.3018 9.70417 56.1895 9.65926 56.1895 9.60436C56.1895 9.54946 56.052 9.50454 55.884 9.50454C55.7061 9.50454 55.6046 9.46287 55.6405 9.40473C55.6772 9.34509 55.5564 9.30491 55.341 9.30491C55.1257 9.30491 55.0049 9.26473 55.0416 9.20509C55.0775 9.14695 54.978 9.10528 54.8038 9.10528C54.6391 9.10528 54.4766 9.06036 54.4427 9.00546C54.4088 8.95056 54.2263 8.90564 54.0374 8.90564C53.8485 8.90564 53.6941 8.86072 53.6941 8.80583C53.6941 8.75093 53.5144 8.70601 53.2948 8.70601C53.0752 8.70601 52.8955 8.66958 52.8955 8.62491C52.8955 8.58024 52.6822 8.53283 52.4214 8.51961C52.1606 8.50638 51.9323 8.45323 51.9141 8.40132C51.8956 8.34917 51.685 8.30674 51.4457 8.30674C51.2066 8.30674 50.9831 8.26183 50.9491 8.20693C50.9152 8.15203 50.5756 8.10711 50.1945 8.10711C49.8065 8.10711 49.5018 8.06394 49.5018 8.00879C49.5018 7.87129 24.8826 7.86905 24.7977 8.00655ZM48.4537 10.884C48.8929 10.9429 49.387 11.0173 49.5517 11.0497C49.7164 11.0819 50.0982 11.155 50.4001 11.2122C51.4866 11.4178 52.8816 11.7806 54.0921 12.1721C55.5354 12.6388 57.8217 13.6457 59.1091 14.3813C59.315 14.4989 59.6441 14.6863 59.8405 14.7976C61.5341 15.7568 65.2076 18.4426 64.9576 18.5387C64.6906 18.641 49.8833 18.5175 49.2522 18.4077C48.9229 18.3503 48.3389 18.2547 47.9546 18.1956C47.2776 18.091 46.8277 18.0199 45.3594 17.7843C44.9751 17.7227 44.4136 17.6346 44.1117 17.5884C42.5496 17.3501 42.1191 17.2815 41.6163 17.1912C40.4245 16.977 39.734 16.8745 38.9212 16.7911C38.4546 16.7432 37.7808 16.6579 37.424 16.601C37.0672 16.5443 36.4832 16.454 36.1264 16.4004C35.7695 16.3467 35.2305 16.2559 34.9286 16.1987C34.2696 16.0737 32.7124 15.8132 31.8842 15.6892C30.6118 15.4988 29.8637 15.3835 29.2391 15.2822C28.8822 15.2243 28.3432 15.1392 28.0413 15.093C26.9947 14.9333 26.0919 14.7933 25.496 14.698C25.1666 14.6456 24.5826 14.5543 24.1983 14.4954C23.814 14.4365 23.2301 14.3451 22.9007 14.2927C22.5713 14.2401 22.0099 14.1532 21.653 14.0998C21.2962 14.0464 20.7122 13.9566 20.3554 13.9002C19.9986 13.8438 19.4084 13.7582 19.0441 13.7101C18.1275 13.589 17.851 13.3744 18.4339 13.2364C18.5849 13.2007 19.472 12.9485 20.4053 12.6762C21.3386 12.4037 22.2594 12.1377 22.4515 12.0848C23.1513 11.8924 23.4103 11.818 23.9488 11.6546C24.9475 11.3514 25.6898 11.132 26.1448 11.0055C26.3918 10.9369 26.6838 10.8433 26.7936 10.7974C27.0918 10.6726 47.484 10.7545 48.4537 10.884ZM8.15585 18.4631C8.27288 18.7238 8.44282 19.1169 8.53315 19.3365C8.62324 19.5561 8.80491 19.9728 8.93666 20.2627C9.06817 20.5525 9.17597 20.8097 9.17597 20.8342C9.17597 20.8587 9.30274 21.1603 9.45795 21.505C9.95254 22.6044 10.0054 22.7716 9.90114 22.9049C9.84749 22.9735 9.66907 23.2767 9.50462 23.5787C9.33992 23.8806 9.10885 24.2961 8.99106 24.502C8.76648 24.894 8.48899 25.3831 8.26215 25.7858C7.95272 26.3353 7.8811 26.3735 7.16417 26.3735H6.48093V22.1812V17.9889H7.21184H7.94249L8.15585 18.4631ZM39.9693 20.6812C40.5495 20.7651 41.4818 20.9068 42.6145 21.0832C43.6912 21.2509 44.6704 21.4002 45.3095 21.4935C45.6663 21.5459 46.2278 21.6307 46.5572 21.6821C46.8866 21.7335 47.4481 21.8184 47.8049 21.8708C48.444 21.9641 49.4232 22.1133 50.4999 22.281C50.8019 22.3282 51.3634 22.413 51.7477 22.4702C52.1319 22.5271 53.21 22.689 54.1432 22.8298C55.0765 22.9705 56.7385 23.2198 57.8364 23.3833C58.9344 23.5467 60.2595 23.7476 60.781 23.8292C61.3026 23.911 62.0437 24.0243 62.428 24.0812C62.8123 24.1381 63.4075 24.228 63.7506 24.2809C65.682 24.5791 66.2198 24.6602 67.6684 24.872C69.6964 25.1685 69.7293 25.1879 69.4256 25.9144C69.0326 26.8554 68.3716 26.9879 65.6221 26.6765C64.579 26.5584 63.3438 26.4197 62.8772 26.3685C62.4105 26.3174 61.6469 26.2298 61.1803 26.1739C60.7137 26.118 59.9051 26.0254 59.3836 25.968C58.8621 25.9109 58.0536 25.8198 57.5869 25.7661C57.1203 25.7122 56.3567 25.6266 55.89 25.576C55.4234 25.5253 54.6598 25.4362 54.1932 25.3778C53.7265 25.3197 52.9405 25.2294 52.4464 25.1772C51.4335 25.0702 50.2976 24.9416 48.9029 24.7764C47.7323 24.6377 46.5225 24.4995 45.4093 24.3772C44.9427 24.326 44.1342 24.2352 43.6126 24.1753C43.0911 24.1157 42.305 24.0273 41.8658 23.9792L41.0673 23.8913L39.9444 24.4458C38.7488 25.036 38.6645 25.1385 39.0959 25.4752C39.2469 25.5929 39.8201 26.124 40.3698 26.6552C42.0852 28.3132 41.8938 28.1894 42.885 28.2815C43.7494 28.3619 44.7403 28.4684 46.4075 28.6608C46.8741 28.7145 47.7051 28.8083 48.2541 28.8689C48.8031 28.9296 49.6116 29.0194 50.0508 29.0686C50.49 29.1177 51.2985 29.2075 51.8475 29.2682C52.3965 29.3288 53.2274 29.4214 53.6941 29.4738C54.1607 29.5262 54.9692 29.6148 55.4908 29.6707C56.718 29.8022 57.9238 29.936 58.9843 30.0582C59.8138 30.1538 60.6091 30.2429 62.6276 30.466C69.605 31.2373 69.1699 31.1669 69.6492 31.6014C70.5845 32.4491 70.3756 32.8049 68.9909 32.7228C68.3459 32.6846 67.0994 32.6118 66.221 32.5609C65.3426 32.51 63.8828 32.4211 62.977 32.3635C61.2155 32.2514 58.9769 32.1184 56.2394 31.963C55.3061 31.9101 51.9148 31.7099 48.7033 31.5188C45.4917 31.3274 42.0106 31.124 40.9675 31.0669C38.2894 30.9199 38.4628 30.9658 37.9091 30.2554C37.6117 29.8736 35.2625 26.9098 34.8323 26.3735C34.6783 26.1814 34.0719 25.418 33.485 24.6769L32.418 23.3299L33.1514 22.98C33.5546 22.7879 34.0859 22.5448 34.3317 22.4402C34.5777 22.3357 35.0035 22.1498 35.278 22.0273C35.8292 21.781 36.4895 21.4872 37.3242 21.1167C37.6261 20.9824 38.0528 20.7855 38.2724 20.6787C38.5422 20.5477 38.785 20.5026 39.0211 20.5397C39.2132 20.5699 39.6399 20.6338 39.9693 20.6812Z" fill="#41479B"/>
<path fill-rule="evenodd" clip-rule="evenodd" d="M16.05 10.7489C16.0246 10.7746 15.8469 10.8147 15.6553 10.8387C15.4636 10.8624 15.1347 10.9537 14.9243 11.0416C14.7137 11.1297 14.4764 11.2015 14.3971 11.2015C14.3175 11.2015 14.1889 11.2649 14.1113 11.3423C14.034 11.4199 13.88 11.4596 13.7692 11.4306C13.6559 11.4009 13.5678 11.4266 13.5678 11.4892C13.5678 11.5506 13.4181 11.6008 13.2352 11.6008C13.052 11.6008 12.8714 11.632 12.8332 11.6699C12.7953 11.7078 12.6663 11.754 12.5465 11.7722C12.4267 11.7904 12.3044 11.8399 12.2745 11.882C12.2448 11.9242 12.0856 11.9684 11.9209 11.9801C11.7562 11.9921 11.431 12.0911 11.1982 12.2004C10.9656 12.31 10.6425 12.3993 10.4805 12.3993C10.3186 12.3993 10.1581 12.4442 10.1242 12.4991C10.0902 12.554 9.95274 12.599 9.81874 12.599C9.68474 12.599 9.57519 12.6439 9.57519 12.6988C9.57519 12.7537 9.41798 12.7986 9.22583 12.7986C9.03368 12.7986 8.87647 12.8435 8.87647 12.8984C8.87647 12.9533 8.70803 12.999 8.50216 12.9997C8.22367 13.001 8.16628 13.0262 8.27757 13.098C8.38712 13.1689 8.31376 13.1951 8.00308 13.1964C7.76976 13.1971 7.57886 13.2398 7.57886 13.2909C7.57886 13.3423 7.45883 13.3985 7.3121 13.4157C7.16537 13.4332 7.02688 13.5035 7.00442 13.5722C6.94453 13.7543 7.47231 13.7306 7.54243 13.548C7.58036 13.4496 7.67718 13.4184 7.8279 13.4561C7.95342 13.4878 8.08618 13.4649 8.12286 13.4055C8.15954 13.3463 8.32174 13.2977 8.4832 13.2977C8.64465 13.2977 8.77666 13.2528 8.77666 13.1979C8.77666 13.143 8.90866 13.098 9.07012 13.098C9.23157 13.098 9.39153 13.0531 9.42546 12.9982C9.4594 12.9433 9.61661 12.8984 9.77482 12.8984C9.93303 12.8984 10.0902 12.8535 10.1242 12.7986C10.1581 12.7437 10.2929 12.6988 10.4236 12.6988C10.5544 12.6988 10.6891 12.6539 10.7231 12.599C10.757 12.5441 10.8958 12.4991 11.0315 12.4991C11.1673 12.4991 11.301 12.4397 11.329 12.3674C11.3602 12.2858 11.4877 12.2513 11.6633 12.277C11.8193 12.3 11.9775 12.2696 12.0147 12.2092C12.0519 12.149 12.2146 12.0999 12.376 12.0999C12.5375 12.0999 12.6695 12.055 12.6695 12.0001C12.6695 11.9452 12.8042 11.9002 12.9689 11.9002C13.1336 11.9002 13.2684 11.8553 13.2684 11.8004C13.2684 11.7455 13.4004 11.7006 13.5619 11.7006C13.7233 11.7006 13.8833 11.6557 13.9172 11.6008C13.9511 11.5459 14.1111 11.501 14.2725 11.501C14.434 11.501 14.566 11.4561 14.566 11.4012C14.566 11.3463 14.7232 11.3013 14.9154 11.3013C15.1075 11.3013 15.2647 11.2564 15.2647 11.2015C15.2647 11.1466 15.3995 11.1017 15.5642 11.1017C15.7289 11.1017 15.8636 11.0568 15.8636 11.0019C15.8636 10.947 16.0208 10.9021 16.213 10.9021C16.4051 10.9021 16.5623 10.8572 16.5623 10.8023C16.5623 10.7034 16.1396 10.6595 16.05 10.7489ZM16.8867 10.7713C16.9828 10.7963 17.14 10.7963 17.2361 10.7713C17.3322 10.7461 17.2536 10.7257 17.0614 10.7257C16.8693 10.7257 16.7907 10.7461 16.8867 10.7713ZM17.8849 10.7758C18.1457 10.7963 18.5724 10.7963 18.8332 10.7758C19.0939 10.7553 18.8806 10.7384 18.359 10.7384C17.8375 10.7384 17.6241 10.7553 17.8849 10.7758ZM27.7475 10.7823C28.0639 10.8087 28.3654 11.0753 30.5334 13.2445L32.9647 15.6773L32.3246 15.6219C31.9725 15.5917 31.6089 15.5278 31.5163 15.4802C31.424 15.4327 31.1008 15.3938 30.7986 15.3938C30.4962 15.3938 30.2212 15.3489 30.1873 15.294C30.1533 15.2391 29.8676 15.1942 29.5524 15.1942C29.2373 15.1942 28.9368 15.1533 28.8847 15.1031C28.8325 15.0532 28.5203 14.9851 28.1909 14.9519C26.6807 14.8004 26.4883 14.7717 26.3992 14.6864C26.3471 14.6362 26.0466 14.5953 25.7315 14.5953C25.4163 14.5953 25.1306 14.5504 25.0966 14.4955C25.0627 14.4406 24.777 14.3956 24.4618 14.3956C24.1466 14.3956 23.8462 14.3547 23.794 14.3046C23.7419 14.2547 23.4409 14.1873 23.1253 14.1548C22.8096 14.1227 22.293 14.0697 21.9774 14.0376C21.6617 14.0051 21.3608 13.9377 21.3086 13.8878C21.2564 13.8377 20.9622 13.7967 20.6548 13.7967C20.3474 13.7967 20.0532 13.7543 20.001 13.7024C19.9489 13.6505 19.6367 13.5944 19.3073 13.5777C18.8938 13.5567 18.7161 13.5085 18.7333 13.4224C18.7471 13.3538 18.6685 13.2977 18.5587 13.2977C18.4489 13.2977 18.359 13.3643 18.359 13.4454C18.359 13.6014 18.4995 13.6463 19.3073 13.7481C19.5818 13.7828 20.0534 13.8494 20.3554 13.8963C20.6573 13.9432 21.2412 14.0331 21.653 14.0962C22.0647 14.1593 22.6486 14.2492 22.9506 14.2958C23.2525 14.3425 23.8365 14.4323 24.2482 14.4955C24.6599 14.5586 25.2551 14.6517 25.5708 14.7026C25.8864 14.7532 26.403 14.8366 26.7186 14.8872C27.2447 14.9718 27.8498 15.0657 29.3388 15.2927C29.6408 15.3389 30.191 15.4255 30.5616 15.4851C30.9321 15.5448 31.5161 15.6351 31.8592 15.6863C32.2023 15.7372 32.9322 15.854 33.4812 15.9455C34.6451 16.1399 35.1496 16.2058 34.9036 16.131C34.7516 16.0848 34.7289 15.9413 34.7289 15.0322C34.7289 13.7037 34.7449 13.7319 33.0904 12.1226L31.7329 10.8023H35.1773H38.6217V12.6758V14.5491L39.7701 15.7202C40.9372 16.9103 41.0158 17.1134 40.1876 16.7982C39.9039 16.6904 37.7421 16.5439 37.8372 16.639C37.8724 16.6742 38.344 16.7446 38.8853 16.7957C39.8141 16.8833 40.3191 16.9562 41.6162 17.1908C42.1188 17.2816 42.543 17.3492 44.1116 17.5885C44.4136 17.6347 44.9751 17.7228 45.3594 17.7844C46.8277 18.02 47.2776 18.0911 47.9546 18.1957C48.3389 18.2548 48.9228 18.3504 49.2522 18.4078C49.9644 18.5318 64.7666 18.6349 64.8847 18.5168C64.9279 18.4736 61.6978 18.435 57.7066 18.431C53.7155 18.4272 50.306 18.3886 50.1301 18.3456C49.891 18.287 48.8559 17.3265 46.0496 14.5596L42.2895 10.8522L43.6747 10.8023C44.4366 10.7748 41.0847 10.7524 36.2262 10.7524C31.3676 10.7524 27.5521 10.7658 27.7475 10.7823ZM57.1504 10.7768L56.3649 10.811L57.4 11.5354C57.9694 11.9337 59.5807 13.0414 60.9806 13.9969C62.3805 14.9524 64.4151 16.3426 65.5015 17.0862C66.5883 17.8298 67.5989 18.5136 67.7474 18.6054C68.0873 18.816 71.2617 18.9929 71.2617 18.8015C71.2617 18.7389 71.1916 18.6878 71.106 18.6878C71.0139 18.6878 70.9795 18.6408 71.0217 18.5725C71.0643 18.5036 71.0493 18.4844 70.9842 18.5246C70.9243 18.5615 70.7601 18.4766 70.6194 18.3357C70.4786 18.1949 70.3634 18.1315 70.3634 18.1947C70.3634 18.2578 70.2286 18.1655 70.0639 17.989C69.8992 17.8126 69.7645 17.6981 69.7645 17.734C69.7645 17.7702 69.6142 17.6851 69.4306 17.5449C69.2469 17.4049 69.0548 17.2903 69.0036 17.2903C68.9522 17.2903 68.8454 17.2005 68.7663 17.0907C68.6872 16.9809 68.5624 16.8911 68.4888 16.8911C68.4154 16.8911 68.383 16.8461 68.4169 16.7912C68.4509 16.7363 68.4154 16.6914 68.3386 16.6914C68.2615 16.6914 68.117 16.6016 68.0177 16.4918C67.9184 16.382 67.7766 16.2922 67.7028 16.2922C67.6289 16.2922 67.5685 16.2502 67.5685 16.1991C67.5685 16.1479 67.4789 16.0776 67.3694 16.0429C67.2601 16.0082 67.1081 15.9171 67.0317 15.841C66.8815 15.6908 66.4131 15.3961 65.8966 15.1268C65.7182 15.0337 65.5722 14.9209 65.5722 14.8763C65.5722 14.8316 65.5043 14.7949 65.4214 14.7949C65.3386 14.7949 65.13 14.6602 64.9576 14.4955C64.7851 14.3308 64.5807 14.196 64.5034 14.196C64.426 14.196 64.3903 14.1511 64.4243 14.0962C64.4582 14.0413 64.4165 13.9964 64.3315 13.9964C64.1947 13.9964 64.0273 13.8878 63.6395 13.5472C63.5771 13.4923 63.4032 13.384 63.2532 13.3067C63.103 13.2293 62.8916 13.0833 62.7831 12.9822C62.6748 12.8812 62.5505 12.7986 62.5071 12.7986C62.4636 12.7983 62.2987 12.687 62.1405 12.551C61.9823 12.415 61.8221 12.323 61.7844 12.3462C61.7465 12.3696 61.6526 12.3013 61.5758 12.1944C61.4987 12.0874 61.3557 12.0001 61.2581 12.0001C61.1603 12.0001 61.0804 11.9626 61.0804 11.9172C61.0804 11.8715 60.9569 11.7705 60.8059 11.6926C60.655 11.6148 60.509 11.5287 60.4815 11.5012C60.4157 11.4348 59.2528 10.8661 59.1672 10.8584C59.1308 10.8549 59.0671 10.8185 59.026 10.7773C58.9848 10.7361 58.7228 10.7114 58.4435 10.7224C58.1645 10.7336 57.5826 10.7581 57.1504 10.7768ZM26.7935 10.9021L26.5939 10.9879L26.7935 10.9934C26.9033 10.9964 27.0605 10.9552 27.1429 10.9021C27.3413 10.7738 27.092 10.7738 26.7935 10.9021ZM46.3575 10.9021C46.5222 10.944 47.0388 10.9767 47.5054 10.9749L48.3538 10.9714L47.705 10.8986C46.7947 10.7963 45.9503 10.7985 46.3575 10.9021ZM18.8082 11.0019C18.7353 11.1199 18.8329 11.1199 19.1077 11.0019C19.3 10.9193 19.2995 10.9158 19.0887 10.9091C18.9684 10.9053 18.8421 10.947 18.8082 11.0019ZM26.0948 11.1017C25.9166 11.1783 25.9239 11.1883 26.1637 11.1945C26.3114 11.1983 26.4601 11.1566 26.4941 11.1017C26.5677 10.9824 26.372 10.9824 26.0948 11.1017ZM48.5036 11.0957C48.6381 11.1881 49.6934 11.2542 49.5933 11.1641C49.5704 11.1436 49.2821 11.0967 48.9527 11.0598C48.5295 11.0126 48.3978 11.0234 48.5036 11.0957ZM18.2093 11.2015C18.1364 11.3196 18.234 11.3196 18.5088 11.2015C18.7011 11.1189 18.7006 11.1154 18.4898 11.1087C18.3695 11.105 18.2432 11.1466 18.2093 11.2015ZM24.348 11.616C23.6069 11.8361 22.8657 12.0537 22.701 12.0996C22.5363 12.1455 21.93 12.3255 21.3535 12.4991C20.7771 12.6728 20.156 12.8522 19.9731 12.8979C19.5553 13.0022 19.4001 13.1504 19.8064 13.0576C20.0801 12.995 21.1427 12.6908 21.7528 12.5004C21.89 12.4575 22.2045 12.3664 22.4515 12.2978C22.6985 12.2291 23.1477 12.0951 23.4497 12.0001C23.7516 11.905 24.2008 11.7715 24.4478 11.7036C24.6949 11.6357 25.0001 11.5397 25.1263 11.4905C25.2523 11.4413 25.4408 11.4012 25.5446 11.4012C25.6486 11.4012 25.7614 11.3562 25.7953 11.3013C25.8812 11.1626 25.8592 11.1673 24.348 11.616ZM49.8012 11.2939C49.8835 11.3512 50.1049 11.3989 50.2933 11.3997C50.4814 11.4004 50.7734 11.4431 50.9421 11.4942C51.1105 11.5454 51.4506 11.639 51.6977 11.7021C53.1306 12.0684 53.6067 12.2052 53.8175 12.3117C53.9129 12.3599 54.0504 12.3993 54.123 12.3993C54.1958 12.3993 54.7643 12.6027 55.3862 12.851C56.0083 13.0995 56.5398 13.2802 56.5672 13.2525C56.5947 13.2251 56.5323 13.1741 56.4282 13.1395C56.3244 13.1048 56.0489 12.9915 55.8161 12.8877C55.5835 12.7839 55.347 12.6988 55.2908 12.6988C55.2347 12.6988 55.1107 12.6561 55.0153 12.6037C54.2013 12.157 49.2567 10.9151 49.8012 11.2939ZM17.6104 11.4012C17.5375 11.5192 17.6351 11.5192 17.9099 11.4012C18.1023 11.3186 18.1017 11.3151 17.8909 11.3083C17.7706 11.3046 17.6443 11.3463 17.6104 11.4012ZM16.9616 11.6008C16.8286 11.6869 16.8286 11.6976 16.9616 11.6976C17.0439 11.6976 17.1787 11.6539 17.261 11.6008C17.3941 11.5147 17.3941 11.504 17.261 11.504C17.1787 11.504 17.0439 11.5476 16.9616 11.6008ZM16.3627 11.8004C16.2297 11.8865 16.2297 11.8972 16.3627 11.8972C16.445 11.8972 16.5798 11.8536 16.6621 11.8004C16.7952 11.7143 16.7952 11.7036 16.6621 11.7036C16.5798 11.7036 16.445 11.7473 16.3627 11.8004ZM15.7638 12.0001C15.6308 12.0861 15.6308 12.0969 15.7638 12.0969C15.8462 12.0969 15.9809 12.0532 16.0633 12.0001C16.1963 11.914 16.1963 11.9032 16.0633 11.9032C15.9809 11.9032 15.8462 11.9469 15.7638 12.0001ZM12.7194 12.965C11.292 13.4319 10.0461 13.8551 9.95075 13.9053C9.85542 13.9555 9.68973 13.9964 9.58242 13.9964C9.47512 13.9964 9.35958 14.0413 9.32565 14.0962C9.29171 14.1511 9.15696 14.196 9.0262 14.196C8.89544 14.196 8.76368 14.2359 8.73349 14.2849C8.70329 14.3335 8.5099 14.4036 8.30353 14.4403C7.95167 14.503 7.60107 14.5451 5.33299 14.7992C3.61291 14.9918 3.08712 15.016 3.08712 14.903C3.08712 14.7864 2.66365 14.7527 2.5556 14.8605C2.51942 14.8967 2.54088 14.9876 2.60301 15.0624C2.69235 15.1702 2.68162 15.1854 2.55236 15.1358C2.46202 15.1014 2.38841 15.0297 2.38841 14.9768C2.38841 14.9242 2.29683 14.8952 2.18478 14.9127C2.07274 14.9302 1.9839 14.9896 1.98715 15.0445C1.99788 15.2304 2.53514 15.2942 3.28676 15.1989C3.6985 15.1468 4.46209 15.0564 4.98363 14.998C5.50517 14.9394 6.3586 14.8438 6.88015 14.7852C7.58036 14.7068 8.44227 14.4817 10.1741 13.9258C13.5501 12.8418 15.502 12.1954 15.5529 12.1443C15.678 12.0193 15.0903 12.1895 12.7194 12.965ZM18.9579 13.1979C18.8339 13.278 18.8426 13.2947 19.0078 13.2947C19.1176 13.2947 19.2748 13.251 19.3572 13.1979C19.4812 13.1177 19.4725 13.101 19.3073 13.101C19.1975 13.101 19.0403 13.1447 18.9579 13.1979ZM56.6967 13.3378C56.7197 13.3598 57.2999 13.666 57.9861 14.0181C59.8964 14.9983 60.5062 15.3826 63.1766 17.2893C64.6559 18.3454 64.7736 18.4237 64.7736 18.3496C64.7736 18.2655 61.0942 15.6745 60.1194 15.0722C58.9753 14.3652 56.4183 13.0693 56.6967 13.3378ZM6.28125 13.6969C6.28125 13.7518 6.14924 13.7967 5.98779 13.7967C5.82633 13.7967 5.66638 13.8417 5.63244 13.8966C5.5985 13.9515 5.43855 13.9964 5.27709 13.9964C5.11564 13.9964 4.98363 14.0413 4.98363 14.0962C4.98363 14.1511 4.87409 14.196 4.74008 14.196C4.60608 14.196 4.46858 14.2409 4.43464 14.2958C4.40071 14.3507 4.23526 14.3956 4.06707 14.3956C3.81678 14.3956 3.78234 14.4209 3.87717 14.5351C4.00144 14.6849 4.38474 14.6372 4.38474 14.4723C4.38474 14.4174 4.47158 14.3951 4.57788 14.4228C4.68419 14.4505 4.86385 14.4084 4.9774 14.329C5.09069 14.2494 5.22444 14.2097 5.27435 14.2404C5.41384 14.3268 5.68235 14.1913 5.68235 14.0348C5.68235 13.9195 5.71853 13.9168 5.88797 14.0206C6.05965 14.1254 6.11355 14.1197 6.21287 13.9859C6.2785 13.8976 6.43971 13.8302 6.57096 13.8362C6.70247 13.8419 6.82949 13.7905 6.85344 13.7219C6.88189 13.6398 6.79181 13.5971 6.58893 13.5971C6.41974 13.5971 6.28125 13.642 6.28125 13.6969ZM3.46143 14.5741C3.27927 14.6115 3.22911 14.7475 3.36636 14.8323C3.47616 14.9002 3.71896 14.7388 3.67329 14.6282C3.65283 14.5788 3.55751 14.5544 3.46143 14.5741ZM35.4276 16.2922C35.5649 16.3361 35.8568 16.3713 36.0764 16.3703C36.4562 16.3685 36.4612 16.3645 36.1763 16.2922C35.7421 16.1816 35.0828 16.1816 35.4276 16.2922ZM36.7252 16.4918C36.8625 16.5357 37.132 16.5709 37.3241 16.5699L37.6735 16.5679L37.374 16.4918C36.9346 16.38 36.3761 16.38 36.7252 16.4918ZM17.7102 23.3754C17.4118 23.4141 17.833 23.4408 18.7583 23.4415C19.8268 23.4428 20.1355 23.421 19.7565 23.3711C19.1029 23.2853 18.3937 23.2868 17.7102 23.3754ZM80.8441 23.3759C80.5816 23.4146 81.0382 23.443 81.9421 23.4438C83.0246 23.445 83.3243 23.4233 82.9402 23.3721C82.2789 23.284 81.454 23.2855 80.8441 23.3759ZM16.6122 23.5788C16.4198 23.6614 16.4203 23.6648 16.6312 23.6716C16.7515 23.6753 16.8778 23.6337 16.9117 23.5788C16.9846 23.4607 16.887 23.4607 16.6122 23.5788ZM20.555 23.5788C20.6373 23.6319 20.817 23.6718 20.9543 23.6671L21.2038 23.6586L20.9543 23.5788C20.5695 23.4555 20.3643 23.4555 20.555 23.5788ZM79.796 23.5788C79.6036 23.6614 79.6041 23.6648 79.815 23.6716C79.9353 23.6753 80.0615 23.6337 80.0955 23.5788C80.1683 23.4607 80.0707 23.4607 79.796 23.5788ZM83.7388 23.5788C83.8211 23.6319 84.0008 23.6718 84.138 23.6671L84.3876 23.6586L84.138 23.5788C83.7532 23.4555 83.5481 23.4555 83.7388 23.5788ZM21.4034 23.7784C21.4374 23.8333 21.5636 23.875 21.6839 23.8712C21.8948 23.8645 21.8953 23.861 21.7029 23.7784C21.4281 23.6604 21.3306 23.6604 21.4034 23.7784ZM84.5872 23.7784C84.6211 23.8333 84.7474 23.875 84.8677 23.8712C85.0785 23.8645 85.079 23.861 84.8866 23.7784C84.6119 23.6604 84.5143 23.6604 84.5872 23.7784ZM22.4515 24.1285C22.4515 24.1527 22.6424 24.2645 22.8757 24.3765C23.9003 24.8689 24.7617 25.5007 25.5708 26.3532C25.8864 26.6855 26.1447 26.9261 26.1447 26.8877C26.1447 26.692 24.2692 25.0268 23.7002 24.7174C23.5899 24.6573 23.3424 24.5195 23.1502 24.411C22.7485 24.1844 22.4515 24.0641 22.4515 24.1285ZM85.6353 24.1285C85.6353 24.1527 85.8262 24.2645 86.0595 24.3765C87.1203 24.8863 87.8607 25.4264 88.7046 26.3055C89.0477 26.6628 89.3285 26.9243 89.3285 26.8864C89.3285 26.7874 87.9528 25.4623 87.4819 25.1082C86.9072 24.6757 85.6353 24.001 85.6353 24.1285ZM26.3251 27.2221C26.3875 27.3319 26.5332 27.534 26.6493 27.6712L26.8601 27.9208L26.677 27.5886C26.5764 27.406 26.4307 27.2038 26.3531 27.1395C26.2343 27.0411 26.2298 27.0541 26.3251 27.2221ZM89.6741 27.4466C89.828 27.68 89.973 27.8709 89.9962 27.8709C90.0681 27.8709 89.6861 27.2635 89.5361 27.1395C89.4582 27.0751 89.5201 27.2133 89.6741 27.4466ZM18.1222 28.1496C18.0903 28.2015 17.8946 28.2716 17.6875 28.3056C17.0195 28.4146 16.1159 28.9222 15.4776 29.5468C14.7317 30.2767 14.6945 30.4661 15.2972 30.4661C15.7937 30.4661 16.1623 30.7658 16.1641 31.1713C16.1723 32.9877 18.4796 35.3541 20.2456 35.3576C20.7536 35.3586 21.106 35.7706 21.089 36.344L21.074 36.8503L21.4978 36.5586C22.3372 35.9812 22.9032 35.1502 23.2413 33.9988C23.4624 33.2462 23.5298 31.8251 23.3498 31.7138C23.2949 31.6798 23.25 31.5451 23.25 31.4143C23.25 31.2836 23.2051 31.1488 23.1502 31.1149C23.0953 31.081 23.0504 30.9854 23.0504 30.9023C23.0504 30.4109 21.7535 29.0392 20.8891 28.6165C19.9885 28.1758 18.2839 27.8881 18.1222 28.1496ZM81.306 28.1496C81.274 28.2015 81.0744 28.2716 80.8625 28.3056C80.1743 28.4156 79.1023 29.0307 78.555 29.6291C77.919 30.3253 77.9082 30.4661 78.4912 30.4661C78.9935 30.4661 79.3468 30.7882 79.3468 31.2462C79.3468 31.4865 79.4414 31.844 79.6797 32.5051C79.9926 33.3732 81.5206 34.9536 82.0501 34.9568C82.1372 34.9573 82.239 34.9885 82.2767 35.0262C82.4017 35.1512 83.0857 35.3541 83.3894 35.3561C83.9359 35.3598 84.2902 35.7559 84.2728 36.344L84.2578 36.8503L84.6855 36.5559C85.778 35.8043 86.6334 34.0992 86.6334 32.6725C86.6334 30.7538 85.0828 28.7794 83.1543 28.2429C82.6423 28.1007 81.3758 28.0366 81.306 28.1496ZM20.2555 28.493C22.0979 29.2029 23.1802 30.6782 23.3192 32.6685C23.404 33.8853 22.8355 33.899 22.5443 32.6872C22.0809 30.7585 20.671 29.3873 18.7269 28.9748C18.1429 28.8511 17.9852 28.7078 18.101 28.4061C18.1774 28.2072 19.6701 28.2674 20.2555 28.493ZM83.8675 28.7061C85.4399 29.4622 86.5443 31.173 86.5304 32.831C86.5221 33.8252 85.9741 33.754 85.7211 32.7259C85.2472 30.7977 83.716 29.2658 82.0134 29.0153C81.3764 28.9217 81.0422 28.6622 81.2448 28.4181C81.5009 28.1094 82.9607 28.2699 83.8675 28.7061ZM91.0283 30.3663C91.0283 30.4486 91.072 30.5834 91.1252 30.6657C91.2113 30.7987 91.222 30.7987 91.222 30.6657C91.222 30.5834 91.1783 30.4486 91.1252 30.3663C91.0391 30.2333 91.0283 30.2333 91.0283 30.3663ZM91.2919 31.6639C91.3248 31.9658 91.3682 32.2316 91.3882 32.2545C91.4655 32.3429 91.4059 31.5034 91.3213 31.3145C91.2629 31.1843 91.2529 31.3053 91.2919 31.6639ZM28.0582 31.4642C28.0629 31.876 28.2201 32.3017 28.2239 31.9134C28.2254 31.7487 28.1882 31.5241 28.141 31.4143C28.0629 31.2329 28.0554 31.2374 28.0582 31.4642ZM72.3829 32.662C72.3829 32.8542 72.4034 32.9328 72.4286 32.8367C72.4535 32.7406 72.4535 32.5834 72.4286 32.4874C72.4034 32.3913 72.3829 32.4699 72.3829 32.662Z" fill="#747868"/>
<path fill-rule="evenodd" clip-rule="evenodd" d="M95.6419 26.5483L93.421 26.577V27.5235V28.4697H96.0023C97.4219 28.4697 98.7919 28.4982 99.0467 28.5331L99.5098 28.5967V27.5349V26.4734L98.6863 26.4963C98.2334 26.5091 96.8634 26.5323 95.6419 26.5483ZM18.1011 28.4061C17.9853 28.7078 18.143 28.851 18.727 28.9748C20.6711 29.3873 22.081 30.7585 22.5444 32.6872C22.8356 33.899 23.4041 33.8853 23.3193 32.6685C23.1803 30.6782 22.098 29.2029 20.2556 28.4929C19.6702 28.2673 18.1775 28.2072 18.1011 28.4061ZM81.2449 28.4181C81.0423 28.6621 81.3764 28.9216 82.0135 29.0152C83.7161 29.2658 85.2473 30.7977 85.7212 32.7259C85.9742 33.754 86.5222 33.8251 86.5305 32.8309C86.5444 31.173 85.44 29.4621 83.8676 28.706C82.9608 28.2698 81.501 28.1094 81.2449 28.4181Z" fill="#D1D1BD"/>
<path fill-rule="evenodd" clip-rule="evenodd" d="M19.4071 10.7905L19.6067 10.8751L19.4071 10.932C19.2526 10.9759 19.2639 10.9846 19.457 10.9704C19.5943 10.9602 19.7066 10.907 19.7066 10.8521C19.7066 10.7972 19.5943 10.7418 19.457 10.7291C19.2364 10.7086 19.2307 10.7156 19.4071 10.7905ZM26.8434 10.8037C26.7381 10.8726 26.7973 10.8828 27.0431 10.8377C27.4735 10.7586 27.5549 10.7019 27.2345 10.7039C27.1017 10.7047 26.9258 10.7496 26.8434 10.8037ZM29.1142 10.7768C29.5672 10.7952 30.3083 10.7952 30.7612 10.7768C31.2141 10.7581 30.8436 10.7431 29.9377 10.7431C29.0319 10.7431 28.6613 10.7581 29.1142 10.7768ZM39.595 10.7768C40.0479 10.7952 40.789 10.7952 41.2419 10.7768C41.6948 10.7581 41.3243 10.7431 40.4184 10.7431C39.5126 10.7431 39.142 10.7581 39.595 10.7768ZM45.0599 10.7521C45.1148 10.7708 45.7661 10.8052 46.5072 10.8287C47.2484 10.8521 47.7425 10.8377 47.6052 10.7967C47.3672 10.7256 44.8525 10.6817 45.0599 10.7521ZM56.8133 10.775C57.0192 10.7967 57.356 10.7967 57.5619 10.775C57.7678 10.7536 57.5993 10.7359 57.1876 10.7359C56.7759 10.7359 56.6074 10.7536 56.8133 10.775ZM26.1447 11.0064C26.0354 11.0805 26.0758 11.0897 26.2944 11.0408C26.6615 10.9587 26.7411 10.9015 26.4858 10.9035C26.3805 10.9043 26.2271 10.9507 26.1447 11.0064ZM48.6533 11.0076C48.8729 11.053 49.1424 11.0897 49.2522 11.089L49.4518 11.0877L49.2522 11.0019C49.1424 10.9547 48.8729 10.918 48.6533 10.9205L48.254 10.925L48.6533 11.0076ZM18.8082 11.1017C18.6158 11.1843 18.6163 11.1878 18.8272 11.1945C18.9474 11.1982 19.0737 11.1566 19.1077 11.1017C19.1805 10.9836 19.0829 10.9836 18.8082 11.1017ZM25.446 11.2015C25.2476 11.3298 25.4969 11.3298 25.7954 11.2015L25.995 11.1157L25.7954 11.1102C25.6856 11.1072 25.5283 11.1483 25.446 11.2015ZM49.8511 11.2015C50.0158 11.2434 50.2404 11.2798 50.3502 11.2826L50.5498 11.2873L50.3502 11.2015C50.2404 11.1543 50.0158 11.1179 49.8511 11.1204L49.5516 11.1254L49.8511 11.2015ZM18.2093 11.3013C18.0169 11.3839 18.0174 11.3874 18.2283 11.3941C18.3486 11.3979 18.4748 11.3562 18.5088 11.3013C18.5816 11.1833 18.4841 11.1833 18.2093 11.3013ZM50.9491 11.4011C51.2475 11.5294 51.4968 11.5294 51.2984 11.4011C51.2161 11.348 51.0589 11.3068 50.9491 11.3098L50.7494 11.3153L50.9491 11.4011ZM16.2853 11.9194C15.4466 12.1989 14.7784 12.4452 14.8001 12.4672C14.822 12.4889 15.4501 12.303 16.196 12.0539C16.9419 11.8046 17.6186 11.6008 17.7 11.6008C17.7816 11.6008 17.8759 11.5558 17.9099 11.5009C18.0017 11.3525 17.9393 11.3684 16.2853 11.9194ZM24.0486 11.6008C23.8502 11.729 24.0995 11.729 24.3979 11.6008L24.5976 11.5149L24.3979 11.5094C24.2881 11.5064 24.1309 11.5476 24.0486 11.6008ZM52.5461 11.8004C52.8446 11.9287 53.0939 11.9287 52.8955 11.8004C52.8131 11.7472 52.6559 11.7061 52.5461 11.7091L52.3465 11.7146L52.5461 11.8004ZM22.751 12C22.6179 12.0861 22.6179 12.0968 22.751 12.0968C22.8333 12.0968 22.9681 12.0532 23.0504 12C23.1834 11.9139 23.1834 11.9032 23.0504 11.9032C22.9681 11.9032 22.8333 11.9469 22.751 12ZM53.2449 12C53.5433 12.1283 53.7926 12.1283 53.5942 12C53.5119 11.9469 53.3547 11.9057 53.2449 11.9087L53.0452 11.9142L53.2449 12ZM22.0522 12.1997C21.9192 12.2857 21.9192 12.2965 22.0522 12.2965C22.1346 12.2965 22.2693 12.2528 22.3517 12.1997C22.4847 12.1136 22.4847 12.1028 22.3517 12.1028C22.2693 12.1028 22.1346 12.1465 22.0522 12.1997ZM53.8937 12.1997C53.976 12.2528 54.1108 12.2965 54.1931 12.2965C54.3261 12.2965 54.3261 12.2857 54.1931 12.1997C54.1108 12.1465 53.976 12.1028 53.8937 12.1028C53.7607 12.1028 53.7607 12.1136 53.8937 12.1997ZM21.4034 12.3993C21.2777 12.4534 21.2592 12.4851 21.3535 12.4851C21.4359 12.4851 21.5931 12.4465 21.7029 12.3993C21.8286 12.3451 21.8471 12.3134 21.7528 12.3134C21.6704 12.3134 21.5132 12.3521 21.4034 12.3993ZM54.4926 12.3993C54.5749 12.4524 54.7097 12.4961 54.792 12.4961C54.925 12.4961 54.925 12.4854 54.792 12.3993C54.7097 12.3461 54.5749 12.3025 54.4926 12.3025C54.3596 12.3025 54.3596 12.3132 54.4926 12.3993ZM20.7047 12.5989C20.5789 12.6531 20.5605 12.6848 20.6548 12.6848C20.7372 12.6848 20.8944 12.6461 21.0042 12.5989C21.1299 12.5448 21.1484 12.5131 21.0541 12.5131C20.9717 12.5131 20.8145 12.5518 20.7047 12.5989ZM20.006 12.7986L19.8064 12.8844L20.006 12.8899C20.1158 12.8929 20.273 12.8517 20.3554 12.7986C20.5537 12.6703 20.3045 12.6703 20.006 12.7986ZM19.3073 12.9982L19.1077 13.084L19.3073 13.0895C19.4171 13.0925 19.5743 13.0513 19.6566 12.9982C19.855 12.8699 19.6057 12.8699 19.3073 12.9982ZM18.5786 13.1966C18.1681 13.2936 18.0903 13.3683 18.241 13.519C18.3318 13.6098 18.359 13.5981 18.359 13.4673C18.359 13.3583 18.4394 13.2971 18.5836 13.2961C18.7071 13.2954 18.8756 13.251 18.9579 13.1978C19.1299 13.0868 19.0433 13.0865 18.5786 13.1966ZM56.4964 13.1387C56.5256 13.1681 57.1087 13.4663 57.792 13.8017C58.4752 14.1368 58.9893 14.3662 58.9344 14.311C58.8795 14.2556 58.4158 14.0028 57.904 13.7488C56.9807 13.2909 56.3941 13.0366 56.4964 13.1387ZM9.97445 13.9964C9.84145 14.0824 9.84145 14.0932 9.97445 14.0932C10.0568 14.0932 10.1916 14.0495 10.2739 13.9964C10.4069 13.9103 10.4069 13.8995 10.2739 13.8995C10.1916 13.8995 10.0568 13.9432 9.97445 13.9964ZM9.37556 14.196C9.24255 14.2821 9.24255 14.2928 9.37556 14.2928C9.45791 14.2928 9.59266 14.2491 9.67501 14.196C9.80801 14.1099 9.80801 14.0992 9.67501 14.0992C9.59266 14.0992 9.45791 14.1428 9.37556 14.196ZM59.1839 14.5004C59.53 14.7352 59.7274 14.8036 59.4834 14.6042C59.3461 14.4919 59.1889 14.3999 59.134 14.3994C59.0791 14.3989 59.1016 14.4445 59.1839 14.5004ZM59.7828 14.8348C59.7828 14.857 59.9328 14.9633 60.116 15.0714C60.2991 15.1794 60.5686 15.3464 60.7149 15.4422C60.8611 15.538 60.9806 15.5952 60.9806 15.5692C60.9806 15.5156 59.9136 14.7949 59.8342 14.7949C59.806 14.7949 59.7828 14.8128 59.7828 14.8348ZM61.0804 15.6284C61.0804 15.6528 61.9531 16.2936 63.0194 17.052C64.0859 17.8106 64.9324 18.4734 64.9007 18.525C64.8682 18.5774 64.8967 18.5854 64.9653 18.543C65.1297 18.4414 65.0127 18.3414 63.3762 17.1822C61.6302 15.9455 61.0804 15.5737 61.0804 15.6284ZM3.63387 18.1088C3.60642 18.1804 3.59569 20.058 3.60991 22.2814L3.63612 26.3237H4.23501H4.83391V22.1813V18.0389L4.25872 18.009C3.85596 17.988 3.66856 18.018 3.63387 18.1088ZM6.48088 22.1813V26.3736H7.16412C7.88106 26.3736 7.95267 26.3354 8.26211 25.7859C8.48894 25.3832 8.76643 24.8941 8.99101 24.502C9.1088 24.2962 9.33987 23.8807 9.50457 23.5787C9.66902 23.2768 9.84744 22.9736 9.90109 22.905C10.0054 22.7717 9.9525 22.6045 9.45791 21.505C9.30269 21.1604 9.17592 20.8587 9.17592 20.8343C9.17592 20.8098 9.06812 20.5525 8.93661 20.2628C8.80486 19.9729 8.62319 19.5561 8.53311 19.3365C8.44277 19.1169 8.27284 18.7239 8.1558 18.4631L7.94244 17.989H7.21179H6.48088V22.1813ZM38.2724 20.6788C38.0528 20.7856 37.6261 20.9825 37.3241 21.1168C36.4894 21.4873 35.8291 21.781 35.2779 22.0273C35.0034 22.1499 34.5777 22.3358 34.3316 22.4403C34.0858 22.5449 33.5546 22.7879 33.1513 22.9801L32.4179 23.3299L33.485 24.677C34.0719 25.4181 34.6783 26.1814 34.8322 26.3736C35.2624 26.9098 37.6116 29.8736 37.9091 30.2554C38.4628 30.9659 38.2894 30.92 40.9674 31.0669C42.0105 31.1241 45.4916 31.3275 48.7032 31.5189C51.9148 31.71 55.3061 31.9101 56.2393 31.9631C58.9768 32.1185 61.2154 32.2515 62.9769 32.3636C63.8828 32.4212 65.3426 32.51 66.221 32.5609C67.0994 32.6119 68.3458 32.6847 68.9909 32.7229C70.3756 32.805 70.5845 32.4492 69.6492 31.6015C69.1698 31.167 69.605 31.2374 62.6276 30.4661C60.6091 30.243 59.8138 30.1539 58.9843 30.0583C57.9237 29.936 56.718 29.8023 55.4907 29.6708C54.9692 29.6149 54.1607 29.5263 53.694 29.4739C53.2274 29.4215 52.3964 29.3289 51.8474 29.2683C51.2984 29.2076 50.4899 29.1178 50.0507 29.0686C49.6115 29.0195 48.803 28.9296 48.254 28.869C47.705 28.8084 46.8741 28.7145 46.4074 28.6609C44.7402 28.4685 43.7493 28.3619 42.8849 28.2816C41.8937 28.1895 42.0851 28.3133 40.3698 26.6553C39.82 26.124 39.2469 25.593 39.0959 25.4752C38.6644 25.1386 38.7488 25.036 39.9443 24.4459L41.0673 23.8914L41.8658 23.9792C42.305 24.0274 43.091 24.1157 43.6126 24.1754C44.1341 24.2353 44.9426 24.3261 45.4093 24.3773C46.5225 24.4995 47.7322 24.6378 48.9028 24.7765C50.2975 24.9417 51.4334 25.0702 52.4463 25.1773C52.9404 25.2294 53.7265 25.3198 54.1931 25.3779C54.6598 25.4363 55.4233 25.5254 55.89 25.5761C56.3566 25.6267 57.1202 25.7123 57.5869 25.7662C58.0535 25.8199 58.862 25.9109 59.3836 25.9681C59.9051 26.0255 60.7136 26.1181 61.1803 26.174C61.6469 26.2298 62.4105 26.3174 62.8771 26.3686C63.3438 26.4197 64.579 26.5585 65.6221 26.6765C68.3715 26.988 69.0326 26.8554 69.4256 25.9144C69.7293 25.188 69.6963 25.1686 67.6683 24.8721C66.2197 24.6602 65.682 24.5791 63.7505 24.2809C63.4074 24.228 62.8123 24.1382 62.428 24.0813C62.0437 24.0244 61.3025 23.9111 60.781 23.8293C60.2594 23.7477 58.9344 23.5468 57.8364 23.3833C56.7384 23.2199 55.0765 22.9706 54.1432 22.8299C53.2099 22.6891 52.1319 22.5272 51.7476 22.4703C51.3633 22.4131 50.8018 22.3283 50.4999 22.2811C49.4231 22.1134 48.4439 21.9642 47.8049 21.8709C47.448 21.8185 46.8865 21.7336 46.5572 21.6822C46.2278 21.6308 45.6663 21.546 45.3094 21.4936C44.6704 21.4002 43.6912 21.251 42.6144 21.0833C41.4817 20.9069 40.5495 20.7652 39.9693 20.6813C39.6399 20.6339 39.2132 20.57 39.021 20.5398C38.785 20.5026 38.5421 20.5478 38.2724 20.6788ZM17.7928 23.2571C17.7282 23.298 18.1394 23.3309 18.7064 23.3304C19.2733 23.3297 19.6853 23.2962 19.622 23.2558C19.4712 23.1597 17.944 23.1607 17.7928 23.2571ZM80.9786 23.2558C80.9152 23.2962 81.3519 23.3292 81.9488 23.3294C82.5457 23.3294 82.9567 23.299 82.8624 23.2616C82.6291 23.169 81.1218 23.1645 80.9786 23.2558ZM16.6132 23.4774C16.5753 23.5388 16.6759 23.5523 16.8817 23.5131C17.3232 23.429 17.3611 23.3791 16.9841 23.3791C16.8136 23.3791 16.6467 23.4233 16.6132 23.4774ZM20.2638 23.4148C20.3743 23.5093 20.9585 23.5665 20.9034 23.4774C20.8699 23.4233 20.703 23.3791 20.5325 23.3791C20.3618 23.3791 20.2411 23.3951 20.2638 23.4148ZM79.797 23.4774C79.7591 23.5388 79.8596 23.5523 80.0655 23.5131C80.507 23.429 80.5449 23.3791 80.1678 23.3791C79.9974 23.3791 79.8304 23.4233 79.797 23.4774ZM83.4475 23.4148C83.5581 23.5093 84.1423 23.5665 84.0871 23.4774C84.0537 23.4233 83.8867 23.3791 83.7163 23.3791C83.5456 23.3791 83.4248 23.3951 83.4475 23.4148ZM15.911 23.6825C15.8689 23.7507 15.9442 23.7629 16.1296 23.7185C16.5122 23.6266 16.5484 23.5787 16.2354 23.5787C16.0924 23.5787 15.9465 23.6254 15.911 23.6825ZM79.0973 23.6785C79.0237 23.7978 79.2193 23.7978 79.4966 23.6785C79.6747 23.6019 79.6675 23.592 79.4277 23.5857C79.28 23.582 79.1312 23.6236 79.0973 23.6785ZM15.3645 23.8782C15.2315 23.9643 15.2315 23.975 15.3645 23.975C15.4469 23.975 15.5816 23.9313 15.664 23.8782C15.797 23.7921 15.797 23.7814 15.664 23.7814C15.5816 23.7814 15.4469 23.825 15.3645 23.8782ZM14.4662 24.2585C13.2659 24.8581 11.73 26.1345 11.0752 27.0765C10.9434 27.2664 11.2329 27.0029 11.7187 26.4911C12.642 25.5184 13.344 24.9829 14.5161 24.3565C15.3221 23.9258 15.2837 23.8502 14.4662 24.2585ZM77.4775 24.3663C76.297 24.9929 75.1575 25.9479 74.3533 26.985C74.1671 27.2253 74.4621 26.9675 75.0088 26.4123C76.0472 25.358 76.8452 24.7596 77.789 24.3278C78.3005 24.094 78.4682 23.9737 78.2738 23.9807C78.2326 23.982 77.8743 24.1557 77.4775 24.3663ZM86.4338 24.4247C86.4338 24.4506 86.5798 24.5432 86.7582 24.6303L87.0826 24.7885L86.8331 24.5851C86.5928 24.3892 86.4338 24.3254 86.4338 24.4247ZM24.2432 25.0468C24.4326 25.2 24.9457 25.6624 25.3834 26.0741C25.854 26.5171 26.0726 26.6798 25.9191 26.4729C25.6269 26.0796 24.7964 25.3422 24.2567 24.9969L23.8988 24.768L24.2432 25.0468ZM87.432 25.0458C87.6241 25.198 88.1359 25.6601 88.5691 26.0726C89.0023 26.4851 89.2733 26.6922 89.1713 26.5328C88.9721 26.2214 87.6119 25.0193 87.2822 24.8634C87.1724 24.8112 87.2398 24.8933 87.432 25.0458ZM26.3503 27.1472C26.4826 27.2981 26.6308 27.4666 26.6795 27.5215C26.8062 27.6645 26.5742 27.256 26.41 27.0473C26.3344 26.9513 26.2358 26.8727 26.1911 26.8727C26.1465 26.8727 26.2181 26.9962 26.3503 27.1472ZM89.595 27.2173C89.7462 27.4069 89.8882 27.5439 89.9104 27.5217C89.9638 27.4683 89.5007 26.8854 89.3991 26.8782C89.3557 26.8752 89.4438 27.0279 89.595 27.2173ZM10.5654 27.7461C10.4875 27.897 10.4009 28.043 10.3725 28.0705C10.3156 28.1259 9.90608 28.9775 9.74887 29.3681C9.5173 29.9428 9.4876 30.0306 9.42671 30.3163C9.23731 31.2089 9.1617 31.6798 9.11054 32.2877L9.05365 32.9615L5.39663 32.963C1.83917 32.9645 1.21482 33.0131 1.58988 33.2594C1.72288 33.3468 1.72288 33.3582 1.58988 33.362C1.49955 33.3645 1.54421 33.4306 1.70242 33.5287C1.84666 33.6183 2.0408 33.8641 2.13388 34.0752C2.22696 34.286 2.34474 34.4587 2.3954 34.4587C2.4463 34.4587 2.61424 34.6618 2.76871 34.9099C2.92318 35.1582 3.08064 35.3304 3.11832 35.2927C3.156 35.2547 3.18694 35.2989 3.18694 35.3902C3.18694 35.4818 3.23186 35.5567 3.28676 35.5567C3.34166 35.5567 3.38657 35.654 3.38657 35.773C3.38657 35.8918 3.41502 35.9607 3.44996 35.9258C3.53081 35.8452 4.09851 36.5526 4.03513 36.6552C4.00893 36.6973 4.07705 36.7552 4.1861 36.7837C4.2954 36.8121 4.38474 36.9072 4.38474 36.9948C4.38474 37.0821 4.42441 37.1538 4.47283 37.1538C4.52149 37.1538 4.58462 37.2436 4.61332 37.3534C4.67046 37.5722 10.1861 37.6758 10.3193 37.4604C10.3508 37.4098 10.2462 37.0841 10.0867 36.7368C9.41997 35.2842 9.10855 33.7705 9.21435 32.5003C9.3244 31.1815 9.39078 30.7198 9.48511 30.6208C9.53451 30.5686 9.57519 30.4221 9.57519 30.2951C9.57519 30.1681 9.61661 29.9862 9.66702 29.8909C9.71743 29.7955 9.85368 29.4684 9.96971 29.1639C10.0858 28.8598 10.335 28.3544 10.5237 28.041C10.7123 27.7278 10.8309 27.4716 10.787 27.4716C10.7428 27.4716 10.6432 27.5951 10.5654 27.7461ZM73.6818 27.8878C73.3773 28.4485 73.4494 28.4687 73.7833 27.916C73.9308 27.6714 74.0191 27.4718 73.9792 27.4723C73.9395 27.4728 73.8055 27.6597 73.6818 27.8878ZM26.8334 27.8209C27.0016 28.1466 27.1399 28.327 27.1391 28.2202C27.1386 28.1653 27.0466 28.0081 26.9343 27.8708C26.7988 27.7051 26.7648 27.6884 26.8334 27.8209ZM90.3064 28.3634C90.5098 28.7442 90.6892 29.0187 90.7057 28.9733C90.7219 28.9279 90.6189 28.6951 90.4766 28.4558C90.3344 28.2164 90.1924 27.9419 90.1609 27.8459C90.1295 27.7498 90.0661 27.6712 90.0204 27.6712C89.9745 27.6712 90.1033 27.9826 90.3064 28.3634ZM27.5491 29.2373C27.5716 29.4966 27.7278 29.7164 27.7348 29.4988C27.7385 29.3786 27.6969 29.2523 27.642 29.2183C27.5871 29.1844 27.5454 29.1929 27.5491 29.2373ZM90.8227 29.4409C91.0935 30.3306 91.216 30.767 91.3143 31.1912C91.4586 31.8126 91.4561 33.8259 91.3106 34.4323C91.0743 35.4169 90.7845 36.3208 90.5595 36.7762C90.1457 37.6129 89.8977 37.553 93.7703 37.553H97.214V35.2572V32.9615H94.3692H91.5244V32.3142C91.5244 31.9581 91.475 31.4527 91.4144 31.1912C91.1975 30.2529 91.1042 29.9143 91.0156 29.7436C90.966 29.6483 90.9255 29.5051 90.9255 29.4252C90.9255 29.3454 90.8836 29.254 90.8322 29.2223C90.7753 29.1872 90.7716 29.2725 90.8227 29.4409ZM72.8588 29.6116C72.8588 29.7456 72.8188 29.8801 72.7699 29.9103C72.7213 29.9405 72.6524 30.1339 72.617 30.3403C72.4677 31.2124 72.3557 31.9463 72.2976 32.4374L72.2352 32.9615H50.2955H28.3559L28.3052 32.1879C28.2379 31.1633 28.1408 30.5374 28.031 30.4211C27.9818 30.369 27.9414 30.2257 27.9414 30.1027C27.9414 29.9797 27.9012 29.8542 27.8523 29.8237C27.8024 29.793 27.8059 29.934 27.8598 30.1424C28.1061 31.0944 28.1637 31.4919 28.2097 32.5585C28.273 34.0245 27.9397 35.658 27.3288 36.8753C27.2265 37.0789 27.1429 37.3147 27.1429 37.3993C27.1429 37.5373 29.5212 37.553 50.3502 37.553C63.2717 37.553 73.5575 37.5148 73.5575 37.4669C73.5575 37.4198 73.4277 37.0941 73.269 36.7433C72.2581 34.5084 72.1551 32.2675 72.9449 29.6925C73.0048 29.4971 73.0075 29.3681 72.9516 29.3681C72.9004 29.3681 72.8588 29.4776 72.8588 29.6116Z" fill="#001B39"/>
</svg>
