<svg width="101" height="52" viewBox="0 0 101 52" fill="none" xmlns="http://www.w3.org/2000/svg">
<path fill-rule="evenodd" clip-rule="evenodd" d="M16.8788 11.0128C16.8788 11.0737 16.7216 11.1233 16.5294 11.1233C16.3373 11.1233 16.1801 11.1682 16.1801 11.2231C16.1801 11.278 16.0453 11.3229 15.8806 11.3229C15.7159 11.3229 15.5812 11.3679 15.5812 11.4228C15.5812 11.4777 15.424 11.5226 15.2318 11.5226C15.0397 11.5226 14.8824 11.5725 14.8824 11.6334C14.8824 11.7007 14.7482 11.7284 14.5401 11.704C14.3372 11.6803 14.2049 11.7065 14.2157 11.7681C14.2257 11.8253 14.0877 11.8859 13.9092 11.9031C13.7308 11.9203 13.5848 11.9765 13.5848 12.0279C13.5848 12.0793 13.4501 12.1215 13.2854 12.1215C13.1207 12.1215 12.9859 12.1664 12.9859 12.2213C12.9859 12.2762 12.8539 12.3211 12.6925 12.3211C12.531 12.3211 12.3683 12.3703 12.3311 12.4304C12.294 12.4908 12.1357 12.5212 11.9798 12.4983C11.8041 12.4726 11.6766 12.507 11.6454 12.5886C11.6175 12.661 11.4837 12.7204 11.3479 12.7204C11.2122 12.7204 11.0735 12.7653 11.0395 12.8202C11.0056 12.8751 10.8708 12.92 10.7401 12.92C10.6093 12.92 10.4746 12.9649 10.4406 13.0198C10.4067 13.0747 10.2495 13.1196 10.0913 13.1196C9.93305 13.1196 9.77584 13.1646 9.7419 13.2195C9.70797 13.2744 9.54801 13.3193 9.38656 13.3193C9.2251 13.3193 9.0931 13.3642 9.0931 13.4191C9.0931 13.474 8.96109 13.5189 8.79964 13.5189C8.63818 13.5189 8.47598 13.5676 8.4393 13.6267C8.40262 13.6861 8.26986 13.7091 8.14434 13.6774C7.99362 13.6397 7.8968 13.6709 7.85887 13.7692C7.78999 13.9491 7.29915 13.9698 7.29016 13.7934C7.28667 13.7248 7.24125 13.7744 7.1896 13.9039C7.11549 14.0886 7.04412 14.1263 6.85696 14.0791C6.69052 14.0375 6.59993 14.0679 6.55701 14.1797C6.51634 14.2855 6.42326 14.3212 6.28401 14.2847C6.16249 14.2531 6.00877 14.2932 5.92293 14.3791C5.84083 14.4612 5.70807 14.5036 5.62847 14.4729C5.54862 14.4422 5.39216 14.4814 5.28061 14.5595C5.16882 14.6376 5.01086 14.676 4.92926 14.6448C4.84766 14.6134 4.7456 14.6448 4.70242 14.7147C4.65925 14.7843 4.4978 14.8415 4.34359 14.8415C4.18937 14.8415 4.00521 14.8991 3.93459 14.9697C3.86422 15.0404 3.71574 15.0745 3.60494 15.0456C3.48566 15.0144 3.40356 15.0416 3.40356 15.1125C3.40356 15.2629 3.69079 15.2422 7.39622 14.824C8.55733 14.693 8.98529 14.6106 9.04993 14.5061C9.08012 14.4572 9.21188 14.4173 9.34264 14.4173C9.4734 14.4173 9.60815 14.3723 9.64209 14.3174C9.67602 14.2625 9.79156 14.2176 9.89886 14.2176C10.0062 14.2176 10.1719 14.1767 10.2672 14.1265C10.4177 14.0474 13.8601 12.9232 16.779 11.9999C17.3005 11.835 17.8053 11.6601 17.9006 11.6112C17.996 11.5625 18.1617 11.5226 18.269 11.5226C18.3763 11.5226 18.4918 11.4777 18.5257 11.4228C18.5597 11.3679 18.6882 11.3229 18.8112 11.3229C18.9342 11.3229 19.0775 11.2818 19.1296 11.2316C19.1818 11.1812 19.3368 11.1201 19.474 11.0954C19.6112 11.0709 19.1546 11.0445 18.4591 11.037C17.7636 11.0297 17.1236 10.9963 17.0367 10.9629C16.9499 10.9297 16.8788 10.9521 16.8788 11.0128ZM27.3096 11.1458C27.1449 11.2012 26.932 11.2863 26.8367 11.3347C26.7414 11.3831 26.5724 11.4228 26.4611 11.4228C26.3498 11.4228 26.1809 11.4632 26.0856 11.5128C25.9903 11.5625 25.71 11.6583 25.463 11.726C24.6487 11.949 24.4211 12.0152 23.816 12.2058C23.4866 12.3094 23.015 12.4504 22.7679 12.519C22.5209 12.5876 22.2065 12.6787 22.0692 12.7216C21.7995 12.8057 20.7818 13.0999 19.8234 13.3707C19.494 13.4638 19.1656 13.5573 19.0934 13.5785C18.7798 13.6714 19.1356 13.8184 19.6736 13.8184C19.9965 13.8184 20.2885 13.8633 20.3224 13.9182C20.3564 13.9731 20.6421 14.018 20.9573 14.018C21.2724 14.018 21.5729 14.0589 21.625 14.1091C21.6772 14.159 21.9781 14.2264 22.2938 14.2588C22.6095 14.291 23.126 14.3439 23.4417 14.3761C23.7574 14.4085 24.0583 14.4759 24.1105 14.5258C24.1626 14.576 24.4631 14.6169 24.7782 14.6169C25.0934 14.6169 25.3791 14.6618 25.4131 14.7167C25.447 14.7716 25.7327 14.8165 26.0479 14.8165C26.3631 14.8165 26.6635 14.8574 26.7157 14.9076C26.7678 14.9575 27.0688 15.0249 27.3844 15.0573C27.7001 15.0895 28.2167 15.1424 28.5323 15.1746C28.848 15.207 29.1489 15.2744 29.2011 15.3243C29.2533 15.3745 29.5537 15.4154 29.8689 15.4154C30.184 15.4154 30.4698 15.4603 30.5037 15.5152C30.5376 15.5701 30.8126 15.615 31.1151 15.615C31.4173 15.615 31.7404 15.654 31.8328 15.7014C31.9253 15.749 32.2889 15.8129 32.641 15.8431L33.2811 15.8985L30.8451 13.461C28.1658 10.7802 28.2434 10.8308 27.3096 11.1458ZM33.4069 12.3438C35.0618 13.9536 35.0454 13.9244 35.0454 15.2562V16.3048L35.3698 16.3529C35.5482 16.3794 36.2781 16.4932 36.9918 16.6062C37.7055 16.719 38.7346 16.838 39.2786 16.8705C39.8226 16.9032 40.3755 16.9708 40.5078 17.021C41.332 17.3344 41.2524 17.13 40.0866 15.9414L38.9382 14.7703V12.897V11.0235H35.4938H32.0494L33.4069 12.3438ZM46.3533 14.7536C49.1871 17.5592 50.205 18.5075 50.4458 18.5661C50.6222 18.6088 54.0177 18.6592 57.9916 18.6779L65.2168 18.7119L64.5296 18.2442C64.1516 17.9867 63.5279 17.5452 63.1437 17.263C60.2682 15.1509 55.4962 12.6198 54.3908 12.6206C54.2979 12.6206 54.1974 12.5809 54.1674 12.5322C54.1372 12.4836 53.9887 12.4199 53.837 12.3907C53.6853 12.3615 53.3816 12.2859 53.162 12.2228C52.9424 12.1599 52.5943 12.0663 52.3884 12.0149C52.1826 11.9638 51.8232 11.8737 51.5899 11.815C49.8808 11.3848 47.6245 11.1418 44.6776 11.0702L42.5815 11.0193L46.3533 14.7536ZM18.1267 23.68C17.6878 23.6962 17.2858 23.7523 17.2334 23.8047C17.1812 23.8569 17.043 23.8998 16.9262 23.8998C16.5811 23.8998 15.3012 24.3699 14.5927 24.757C10.0925 27.2152 8.30929 32.3909 10.395 36.9411C10.5579 37.2962 10.6535 37.6435 10.6218 37.7645C10.5903 37.8848 10.6145 37.9739 10.6784 37.9739C10.7398 37.9739 10.79 38.0538 10.79 38.1516C10.79 38.2492 10.8798 38.3939 10.9896 38.473C11.0994 38.5521 11.1892 38.6791 11.1892 38.755C11.1892 38.9441 13.1394 40.8686 13.331 40.8686C13.4156 40.8686 13.485 40.906 13.485 40.9514C13.485 40.9971 13.6085 41.0979 13.7595 41.1755C13.9105 41.2529 14.1066 41.3954 14.1955 41.4917C14.2843 41.5883 14.4303 41.6671 14.5199 41.6671C14.6094 41.6671 14.6828 41.712 14.6828 41.7669C14.6828 41.8218 14.7699 41.8668 14.8765 41.8668C14.983 41.8668 15.098 41.9117 15.132 41.9666C15.1659 42.0215 15.3034 42.0664 15.4374 42.0664C15.5714 42.0664 15.681 42.1113 15.681 42.1662C15.681 42.2211 15.7905 42.266 15.9245 42.266C16.0585 42.266 16.196 42.3109 16.23 42.3658C16.2639 42.4207 16.4436 42.4656 16.6292 42.4656C16.8149 42.4656 16.9946 42.5106 17.0285 42.5655C17.0662 42.6266 17.8612 42.6653 19.0807 42.6653C20.3412 42.6653 21.0711 42.6286 21.0711 42.5655C21.0711 42.5106 21.2507 42.4656 21.4703 42.4656C21.6899 42.4656 21.8696 42.4207 21.8696 42.3658C21.8696 42.3109 22.0043 42.266 22.169 42.266C22.3337 42.266 22.4685 42.2211 22.4685 42.1662C22.4685 42.1113 22.5541 42.0664 22.6586 42.0664C22.8253 42.0664 23.6301 41.7036 23.7661 41.5671C23.7936 41.5396 23.9395 41.4535 24.0905 41.3757C24.2415 41.2978 24.365 41.1967 24.365 41.1511C24.365 41.1056 24.4359 41.0682 24.5225 41.0682C24.6093 41.0682 24.8451 40.8998 25.0465 40.6939C25.2481 40.488 25.5351 40.2567 25.6841 40.1799C25.8333 40.103 25.9316 40.0019 25.9029 39.9553C25.874 39.9086 25.9204 39.8704 26.006 39.8704C26.0916 39.8704 26.1617 39.8342 26.1617 39.7901C26.1617 39.7459 26.3229 39.5338 26.52 39.3184C26.7172 39.1033 26.943 38.8026 27.0216 38.6502C27.1005 38.4979 27.2088 38.3732 27.2622 38.3732C27.3158 38.3732 27.3595 38.2833 27.3595 38.1735C27.3595 38.0637 27.3932 37.9739 27.4344 37.9739C27.4755 37.9739 27.5135 37.8279 27.5187 37.6495C27.5239 37.4711 27.6442 37.0556 27.7857 36.7262C28.03 36.1575 28.2054 35.5242 28.4652 34.273C28.5743 33.7479 28.559 33.1273 28.3993 31.6091C28.3631 31.265 28.294 30.9591 28.2456 30.9294C28.1974 30.8997 28.158 30.7457 28.158 30.5875C28.158 30.4293 28.1131 30.2721 28.0582 30.2381C28.0033 30.2042 27.9584 30.0695 27.9584 29.9387C27.9584 29.8079 27.9135 29.6732 27.8586 29.6392C27.8037 29.6053 27.7588 29.4903 27.7588 29.3837C27.7588 29.2772 27.7138 29.1901 27.6589 29.1901C27.604 29.1901 27.5591 29.1002 27.5591 28.9904C27.5591 28.8806 27.5142 28.7908 27.4593 28.7908C27.4044 28.7908 27.3595 28.701 27.3595 28.5912C27.3595 28.4814 27.3146 28.3915 27.2597 28.3915C27.2048 28.3915 27.1599 28.3426 27.1599 28.283C27.1599 28.1041 26.5497 27.2846 25.9122 26.6078C25.0405 25.6823 24.2495 25.1083 23.0674 24.5439C22.7654 24.3996 22.4403 24.2407 22.345 24.1905C22.2496 24.1404 22.0839 24.0994 21.9766 24.0994C21.8693 24.0994 21.7538 24.0545 21.7199 23.9996C21.6859 23.9447 21.5232 23.8998 21.358 23.8998C21.1931 23.8998 20.9822 23.8606 20.8899 23.813C20.6885 23.7087 19.2352 23.6388 18.1267 23.68ZM81.3105 23.68C80.8715 23.6962 80.4695 23.7523 80.4171 23.8047C80.365 23.8569 80.2267 23.8998 80.1099 23.8998C78.7282 23.8998 75.7794 25.8647 74.4177 27.6928C72.6018 30.1306 72.2516 34.0247 73.5847 36.9643C73.7451 37.3184 73.852 37.6859 73.822 37.7805C73.7918 37.8753 73.825 38.0138 73.8954 38.0882C73.966 38.1626 74.0873 38.347 74.1654 38.4979C74.2432 38.6489 74.3443 38.7724 74.39 38.7724C74.4354 38.7724 74.4728 38.8373 74.4728 38.9164C74.4728 38.9958 74.6413 39.2184 74.8471 39.411C75.053 39.6037 75.4857 40.0104 75.8089 40.3149C76.1318 40.6195 76.4477 40.8686 76.5103 40.8686C76.5732 40.8686 76.6877 40.9559 76.7648 41.063C76.8417 41.1698 76.9378 41.2367 76.9785 41.2117C77.0189 41.1868 77.1117 41.2254 77.1848 41.298C77.2577 41.3704 77.4636 41.4942 77.642 41.5728C77.8204 41.6514 77.9664 41.7497 77.9664 41.7914C77.9664 41.8328 78.0562 41.8668 78.166 41.8668C78.2758 41.8668 78.3656 41.9117 78.3656 41.9666C78.3656 42.0215 78.4527 42.0664 78.5593 42.0664C78.6658 42.0664 78.7809 42.1113 78.8148 42.1662C78.8488 42.2211 78.9835 42.266 79.1143 42.266C79.245 42.266 79.3798 42.3109 79.4137 42.3658C79.4477 42.4207 79.6273 42.4656 79.813 42.4656C79.9986 42.4656 80.1783 42.5106 80.2122 42.5655C80.2499 42.6266 81.045 42.6653 82.2645 42.6653C83.5249 42.6653 84.2548 42.6286 84.2548 42.5655C84.2548 42.5106 84.4345 42.4656 84.6541 42.4656C84.8737 42.4656 85.0533 42.4207 85.0533 42.3658C85.0533 42.3109 85.1881 42.266 85.3528 42.266C85.5175 42.266 85.6522 42.2211 85.6522 42.1662C85.6522 42.1113 85.7645 42.0664 85.9018 42.0664C86.039 42.0664 86.1513 42.0215 86.1513 41.9666C86.1513 41.9117 86.2412 41.8668 86.351 41.8668C86.4608 41.8668 86.5506 41.8218 86.5506 41.7669C86.5506 41.712 86.6404 41.6671 86.7502 41.6671C86.86 41.6671 86.9499 41.6222 86.9499 41.5673C86.9499 41.5124 87.0297 41.4675 87.1275 41.4675C87.2251 41.4675 87.3698 41.3777 87.4489 41.2679C87.528 41.1581 87.6628 41.0682 87.7484 41.0682C87.834 41.0682 87.9687 40.9784 88.0478 40.8686C88.1269 40.7588 88.2492 40.669 88.3193 40.669C88.3897 40.669 88.4471 40.624 88.4471 40.5691C88.4471 40.5142 88.4953 40.4693 88.5542 40.4693C88.7019 40.4693 88.9507 40.2076 88.8748 40.1319C88.8409 40.0978 88.8676 40.0701 88.9342 40.0701C89.0006 40.0701 89.1673 39.9578 89.3045 39.8205C89.4418 39.6833 89.5331 39.571 89.5074 39.571C89.4819 39.571 89.6369 39.3821 89.8523 39.1512C90.0676 38.9202 90.2438 38.6606 90.2438 38.5743C90.2438 38.488 90.3336 38.3525 90.4434 38.2734C90.5739 38.1793 90.6431 38.0151 90.6431 37.7982C90.6431 37.6161 90.7364 37.2839 90.8504 37.0603C91.3183 36.1433 91.63 34.8746 91.7049 33.582C91.7548 32.7221 91.483 30.718 91.2345 30.1134C91.1836 29.9898 91.103 29.7877 91.0551 29.6642C90.8729 29.1951 90.4903 28.4402 90.4185 28.4083C90.3773 28.3898 90.3436 28.3307 90.3436 28.2765C90.3436 28.0888 89.7053 27.2404 89.0527 26.5612C88.1352 25.6059 87.4662 25.1241 86.2511 24.5439C85.9492 24.3996 85.624 24.2407 85.5287 24.1905C85.4334 24.1404 85.2677 24.0994 85.1604 24.0994C85.0531 24.0994 84.9376 24.0545 84.9036 23.9996C84.8697 23.9447 84.707 23.8998 84.5418 23.8998C84.3768 23.8998 84.166 23.8601 84.0736 23.8117C83.8738 23.7074 82.4299 23.6383 81.3105 23.68ZM20.2855 28.4639C21.5574 28.818 23.3668 30.3796 23.3668 31.1235C23.3668 31.2066 23.4118 31.3022 23.4667 31.3361C23.5216 31.3701 23.5665 31.5048 23.5665 31.6356C23.5665 31.7663 23.6114 31.9011 23.6663 31.935C23.8462 32.0463 23.7788 33.4675 23.5577 34.2201C23.2196 35.3714 22.6536 36.2024 21.8142 36.7799L21.3905 37.0716L21.4054 36.5653C21.4224 35.9918 21.0701 35.5798 20.562 35.5788C18.796 35.5753 16.4887 33.2089 16.4805 31.3925C16.4788 30.987 16.1102 30.6873 15.6136 30.6873C14.4477 30.6873 16.5806 28.7594 18.004 28.5268C18.2111 28.4929 18.4067 28.4227 18.4387 28.3708C18.5085 28.258 19.7749 28.3217 20.2855 28.4639ZM83.4708 28.4642C85.3992 29.0007 86.9499 30.975 86.9499 32.8938C86.9499 34.3204 86.0944 36.0255 85.0019 36.7771L84.5742 37.0716L84.5892 36.5653C84.6067 35.9771 84.2523 35.5811 83.7058 35.5773C83.4021 35.5753 82.7181 35.3724 82.5931 35.2474C82.5554 35.2097 82.4536 35.1786 82.3665 35.1781C81.837 35.1748 80.3091 33.5945 79.9961 32.7263C79.7578 32.0653 79.6633 31.7077 79.6633 31.4674C79.6633 31.0095 79.3099 30.6873 78.8076 30.6873C77.6215 30.6873 79.7406 28.7569 81.179 28.5268C81.3908 28.4929 81.5905 28.4227 81.6224 28.3708C81.6923 28.2578 82.9587 28.3219 83.4708 28.4642Z" fill="#363E2E"/>
<path fill-rule="evenodd" clip-rule="evenodd" d="M25.1143 8.22798C25.0801 8.28338 24.9226 8.32855 24.7644 8.32855C24.6062 8.32855 24.449 8.37347 24.415 8.42836C24.3811 8.48326 24.2436 8.52818 24.1096 8.52818C23.9756 8.52818 23.8661 8.5731 23.8661 8.628C23.8661 8.6829 23.7313 8.72781 23.5666 8.72781C23.4019 8.72781 23.2672 8.77273 23.2672 8.82763C23.2672 8.88253 23.1127 8.92745 22.9238 8.92745C22.7349 8.92745 22.5525 8.97236 22.5185 9.02726C22.4846 9.08216 22.3498 9.12708 22.2191 9.12708C22.0883 9.12708 21.9536 9.172 21.9196 9.22689C21.8857 9.28179 21.7257 9.32671 21.5643 9.32671C21.4028 9.32671 21.2708 9.37163 21.2708 9.42653C21.2708 9.48143 21.1388 9.52634 20.9774 9.52634C20.8159 9.52634 20.656 9.57126 20.622 9.62616C20.5881 9.68106 20.4281 9.72598 20.2667 9.72598C20.1052 9.72598 19.9732 9.7709 19.9732 9.8258C19.9732 9.88069 19.8385 9.92561 19.6738 9.92561C19.5091 9.92561 19.3743 9.97053 19.3743 10.0254C19.3743 10.0803 19.2396 10.1252 19.0749 10.1252C18.9102 10.1252 18.7754 10.1702 18.7754 10.2251C18.7754 10.28 18.621 10.3249 18.4321 10.3249C18.2432 10.3249 18.0607 10.3698 18.0268 10.4247C17.9929 10.4796 17.8329 10.5245 17.6715 10.5245C17.51 10.5245 17.378 10.5694 17.378 10.6243C17.378 10.6792 17.2684 10.7241 17.1344 10.7241C17.0004 10.7241 16.8637 10.7681 16.8305 10.8215C16.7926 10.8828 17.3638 10.929 18.3719 10.9462C19.8043 10.9707 20.5294 11.1054 19.7736 11.2068C19.6363 11.225 19.4814 11.2811 19.4292 11.3315C19.3771 11.3817 19.2338 11.4229 19.1108 11.4229C18.9878 11.4229 18.8593 11.4678 18.8253 11.5227C18.7914 11.5776 18.6759 11.6225 18.5686 11.6225C18.4613 11.6225 18.2956 11.6634 18.2002 11.7136C18.1049 11.7635 16.9488 12.1505 15.6312 12.5732C14.3136 12.996 12.3822 13.6243 11.3391 13.9697C8.7042 14.8418 8.73689 14.8351 5.30021 15.2189C4.77867 15.2773 4.03454 15.3664 3.64651 15.4168C2.93606 15.5093 2.24409 15.4584 2.15026 15.3067C1.91369 14.9237 1.80664 15.3998 1.80664 16.8369V18.3366L3.47856 18.2985L5.15049 18.2603V22.4027V26.545L3.47856 26.5069L1.80664 26.4687V29.8864C1.80664 32.9617 1.82236 33.2979 1.9646 33.2435C2.05144 33.21 3.75306 33.1828 5.74639 33.1828H9.37023L9.42712 32.5091C9.50024 31.6409 9.73056 30.4244 9.89925 30.0137C9.95016 29.8901 10.0308 29.688 10.0787 29.5645C10.2608 29.0953 10.6434 28.3405 10.7153 28.3085C10.7564 28.2901 10.7901 28.22 10.7901 28.1526C10.7901 28.0852 10.8687 27.943 10.9648 27.8364C11.0609 27.7299 11.273 27.4631 11.4359 27.2437C12.4224 25.9159 14.2171 24.5994 15.731 24.0925C15.9506 24.0192 16.173 23.9231 16.2251 23.8794C16.2773 23.8358 16.4367 23.8001 16.5795 23.8001C16.7222 23.8001 16.8817 23.7594 16.9338 23.7095C17.2415 23.4153 20.9097 23.415 21.2159 23.709C21.2681 23.7592 21.4338 23.8001 21.5843 23.8001C21.7347 23.8001 21.8857 23.845 21.9196 23.8999C21.9536 23.9548 22.0691 23.9997 22.1764 23.9997C22.2837 23.9997 22.4494 24.0396 22.5447 24.0886C22.6401 24.1375 22.9428 24.2834 23.2173 24.413C23.4917 24.5425 23.7313 24.6822 23.7495 24.7234C23.768 24.7646 23.8266 24.7983 23.8798 24.7983C24.2217 24.7983 25.8679 26.1999 26.5646 27.0838C27.167 27.8481 28.0583 29.4672 28.0583 29.7971C28.0583 29.8959 28.1033 30.0047 28.1582 30.0386C28.2131 30.0725 28.258 30.2011 28.258 30.3241C28.258 30.4471 28.2984 30.5903 28.3476 30.6425C28.4574 30.7588 28.5544 31.3846 28.6218 32.4092L28.6725 33.1828H50.6121H72.5517L72.6141 32.6588C72.6723 32.1677 72.7843 31.4338 72.9335 30.5616C72.969 30.3553 73.0378 30.1619 73.0865 30.1317C73.1354 30.1015 73.1753 29.967 73.1753 29.833C73.1753 29.699 73.2203 29.5894 73.2752 29.5894C73.3301 29.5894 73.375 29.4771 73.375 29.3399C73.375 29.2026 73.4199 29.0904 73.4748 29.0904C73.5297 29.0904 73.5746 29.0043 73.5746 28.899C73.5746 28.7939 73.6083 28.6928 73.6495 28.6744C73.6906 28.6562 73.8334 28.4391 73.9664 28.192C74.0996 27.945 74.2344 27.7204 74.2658 27.6929C74.2975 27.6655 74.5029 27.4187 74.7225 27.1444C75.8362 25.754 77.2434 24.7349 78.9647 24.0726C79.1019 24.0197 79.2923 23.9368 79.3877 23.8882C79.483 23.8398 79.6649 23.8001 79.7919 23.8001C79.9189 23.8001 80.0654 23.7594 80.1176 23.7095C80.4307 23.4101 84.227 23.4128 84.4122 23.7125C84.4419 23.7607 84.5958 23.8001 84.754 23.8001C84.9123 23.8001 85.0695 23.845 85.1034 23.8999C85.1373 23.9548 85.2529 23.9997 85.3602 23.9997C85.4675 23.9997 85.6332 24.0396 85.7285 24.0886C85.8238 24.1375 86.1265 24.2822 86.401 24.41C87.7752 25.05 89.9402 26.9271 90.234 27.7331C90.2559 27.7932 90.3008 27.8651 90.3338 27.8926C90.4516 27.9909 90.9778 28.9963 91.1565 29.4647C91.2037 29.5882 91.2818 29.7903 91.3304 29.9138C91.4223 30.1467 91.5423 30.5961 91.731 31.4126C91.7916 31.6741 91.841 32.1794 91.841 32.5355V33.1828H94.7389C97.4098 33.1828 97.6411 33.1691 97.695 33.0081C97.839 32.5782 97.9845 32.2845 98.0541 32.2845C98.0955 32.2845 98.1294 32.2226 98.1294 32.147C98.1294 32.0714 98.2065 31.8356 98.3011 31.6229C98.3954 31.4103 98.4805 31.1915 98.49 31.1366C98.5352 30.8798 98.6587 30.5876 98.7218 30.5876C98.7605 30.5876 98.8531 30.363 98.928 30.0885C99.0028 29.814 99.1006 29.5894 99.1456 29.5894C99.1907 29.5894 99.2274 29.4996 99.2274 29.3898C99.2274 29.28 99.2723 29.1902 99.3272 29.1902C99.4899 29.1902 99.4408 28.8176 99.2691 28.7517C99.1823 28.7183 97.9021 28.6911 96.4243 28.6911H93.7375V27.7508V26.8103L96.1249 26.7776C98.2557 26.7482 98.9704 26.6711 98.5367 26.5173C98.4586 26.4896 98.2692 26.3387 98.1157 26.1817C97.9622 26.0247 97.8103 25.8962 97.7781 25.8962C97.6413 25.8962 97.0384 25.4236 97.0986 25.3635C97.1348 25.327 97.0963 25.2973 97.013 25.2973C96.9296 25.2973 96.7205 25.1626 96.5481 24.9979C96.3757 24.8332 96.1942 24.6984 96.1446 24.6984C96.0949 24.6984 95.9128 24.5659 95.7396 24.4042C95.5662 24.2425 95.4079 24.119 95.3875 24.1297C95.3673 24.1405 95.237 24.0509 95.0985 23.9301C94.8535 23.7172 94.293 23.3923 94.1854 23.4011C94.1562 23.4033 94.0225 23.2955 93.8882 23.1613C93.754 23.027 93.5529 22.8883 93.4413 22.8528C93.3298 22.8174 93.2384 22.7465 93.2384 22.6954C93.2384 22.6442 93.1691 22.6023 93.0845 22.6023C92.9999 22.6023 92.8342 22.5125 92.7164 22.4027C92.5986 22.2929 92.4431 22.203 92.3713 22.203C92.2992 22.203 92.2403 22.1581 92.2403 22.1032C92.2403 22.0483 92.1504 22.0034 92.0406 22.0034C91.9308 22.0034 91.841 21.9585 91.841 21.9036C91.841 21.8487 91.7512 21.8038 91.6414 21.8038C91.5316 21.8038 91.4417 21.7588 91.4417 21.7039C91.4417 21.649 91.3519 21.6041 91.2421 21.6041C91.1323 21.6041 91.0425 21.5592 91.0425 21.5043C91.0425 21.4494 90.9526 21.4045 90.8428 21.4045C90.733 21.4045 90.6432 21.3596 90.6432 21.3047C90.6432 21.2498 90.5309 21.2049 90.3937 21.2049C90.2564 21.2049 90.1441 21.1599 90.1441 21.105C90.1441 21.0501 90.0318 21.0052 89.8946 21.0052C89.7573 21.0052 89.6451 20.97 89.6451 20.9271C89.6451 20.8842 89.4429 20.7894 89.1959 20.7165C88.9488 20.6436 88.7467 20.5441 88.7467 20.4952C88.7467 20.4463 88.6119 20.4063 88.4472 20.4063C88.2825 20.4063 88.1478 20.3614 88.1478 20.3065C88.1478 20.2516 88.0168 20.2067 87.8566 20.2067C87.6966 20.2067 87.5506 20.1638 87.5322 20.1114C87.514 20.0587 87.3306 20.0046 87.1247 19.9911C86.9188 19.9774 86.7504 19.9305 86.7504 19.8868C86.7504 19.8431 86.6184 19.8074 86.4569 19.8074C86.2955 19.8074 86.1385 19.7673 86.108 19.7181C86.0779 19.6689 85.8842 19.6036 85.6781 19.5724C85.4717 19.5412 85.0335 19.4663 84.7041 19.4059C84.3747 19.3453 83.8946 19.2866 83.6373 19.2752C83.3801 19.2637 83.138 19.2228 83.0996 19.1843C83.0612 19.1459 80.2398 19.1132 76.8299 19.1117C73.4199 19.11 70.093 19.079 69.4367 19.0426L68.2434 18.9767L66.8914 18.0646C66.1478 17.5628 64.921 16.7278 64.1654 16.209C62.7221 15.2181 60.3629 13.6041 58.0691 12.0382C56.4836 10.9562 56.4778 10.9238 57.8653 10.9238C58.5385 10.9238 58.8914 10.8881 58.8517 10.824C58.8178 10.7691 58.7002 10.7241 58.5904 10.7241C58.4806 10.7241 58.4185 10.6792 58.4524 10.6243C58.4874 10.5679 58.4055 10.5245 58.2645 10.5245C58.1273 10.5245 57.9873 10.4796 57.9534 10.4247C57.9194 10.3698 57.8044 10.3249 57.6978 10.3249C57.5913 10.3249 57.5042 10.28 57.5042 10.2251C57.5042 10.1702 57.3919 10.1252 57.2546 10.1252C57.1174 10.1252 57.0051 10.0803 57.0051 10.0254C57.0051 9.97053 56.8928 9.92561 56.7556 9.92561C56.6183 9.92561 56.506 9.88069 56.506 9.8258C56.506 9.7709 56.3685 9.72598 56.2006 9.72598C56.0227 9.72598 55.9211 9.6843 55.957 9.62616C55.9937 9.56652 55.8729 9.52634 55.6576 9.52634C55.4422 9.52634 55.3214 9.48617 55.3581 9.42653C55.3941 9.36839 55.2945 9.32671 55.1203 9.32671C54.9556 9.32671 54.7932 9.28179 54.7592 9.22689C54.7253 9.172 54.5429 9.12708 54.354 9.12708C54.1651 9.12708 54.0106 9.08216 54.0106 9.02726C54.0106 8.97236 53.8309 8.92745 53.6113 8.92745C53.3917 8.92745 53.2121 8.89101 53.2121 8.84635C53.2121 8.80168 52.9987 8.75427 52.7379 8.74104C52.4772 8.72782 52.2488 8.67466 52.2306 8.62276C52.2122 8.5706 52.0015 8.52818 51.7622 8.52818C51.5232 8.52818 51.2996 8.48326 51.2657 8.42836C51.2317 8.37347 50.8921 8.32855 50.511 8.32855C50.123 8.32855 49.8183 8.28538 49.8183 8.23023C49.8183 8.09273 25.1991 8.09049 25.1143 8.22798ZM48.7702 11.1054C49.2094 11.1643 49.7035 11.2387 49.8682 11.2711C50.0329 11.3033 50.4147 11.3764 50.7167 11.4336C51.8032 11.6392 53.1981 12.002 54.4086 12.3936C55.852 12.8602 58.1383 13.8671 59.4256 14.6028C59.6315 14.7203 59.9607 14.9077 60.157 15.019C61.8507 15.9782 65.5242 18.664 65.2741 18.7601C65.0071 18.8624 50.1999 18.7389 49.5688 18.6291C49.2394 18.5717 48.6555 18.4761 48.2712 18.417C47.5942 18.3124 47.1442 18.2413 45.6759 18.0057C45.2916 17.9441 44.7302 17.856 44.4282 17.8099C42.8661 17.5715 42.4356 17.5029 41.9328 17.4126C40.741 17.1985 40.0505 17.0959 39.2378 17.0126C38.7711 16.9647 38.0974 16.8793 37.7405 16.8224C37.3837 16.7658 36.7998 16.6754 36.4429 16.6218C36.0861 16.5681 35.5471 16.4773 35.2451 16.4202C34.5861 16.2951 33.029 16.0346 32.2007 15.9106C30.9283 15.7202 30.1802 15.6049 29.5556 15.5036C29.1987 15.4457 28.6597 15.3606 28.3578 15.3144C27.3112 15.1547 26.4084 15.0147 25.8125 14.9194C25.4831 14.867 24.8992 14.7757 24.5149 14.7168C24.1306 14.6579 23.5466 14.5666 23.2173 14.5142C22.8879 14.4615 22.3264 14.3747 21.9695 14.3213C21.6127 14.2679 21.0288 14.178 20.6719 14.1216C20.3151 14.0652 19.7249 13.9797 19.3606 13.9315C18.444 13.8105 18.1675 13.5959 18.7505 13.4579C18.9014 13.4222 19.7886 13.1699 20.7218 12.8976C21.6551 12.6251 22.5759 12.3591 22.7681 12.3062C23.4678 12.1138 23.7268 12.0395 24.2653 11.876C25.264 11.5728 26.0064 11.3535 26.4613 11.227C26.7083 11.1583 27.0003 11.0648 27.1101 11.0188C27.4083 10.8941 47.8005 10.9759 48.7702 11.1054ZM8.47238 18.6845C8.58941 18.9453 8.75935 19.3383 8.84968 19.5579C8.93977 19.7775 9.12143 20.1942 9.25319 20.4842C9.3847 20.7739 9.4925 21.0312 9.4925 21.0556C9.4925 21.0801 9.61927 21.3818 9.77448 21.7264C10.2691 22.8259 10.322 22.9931 10.2177 23.1263C10.164 23.1949 9.98559 23.4981 9.82115 23.8001C9.65645 24.102 9.42537 24.5175 9.30759 24.7234C9.083 25.1154 8.80552 25.6045 8.57868 26.0073C8.26925 26.5568 8.19763 26.5949 7.4807 26.5949H6.79746V22.4027V18.2104H7.52836H8.25902L8.47238 18.6845ZM40.2859 20.9027C40.866 20.9865 41.7983 21.1283 42.931 21.3047C44.0078 21.4724 44.9869 21.6216 45.626 21.7149C45.9829 21.7673 46.5443 21.8522 46.8737 21.9036C47.2031 21.955 47.7646 22.0398 48.1214 22.0922C48.7605 22.1856 49.7397 22.3348 50.8165 22.5025C51.1184 22.5496 51.6799 22.6345 52.0642 22.6916C52.4485 22.7485 53.5265 22.9105 54.4598 23.0512C55.3931 23.192 57.055 23.4412 58.153 23.6047C59.251 23.7681 60.576 23.969 61.0976 24.0506C61.6191 24.1325 62.3602 24.2458 62.7445 24.3027C63.1288 24.3596 63.724 24.4494 64.0671 24.5023C65.9986 24.8005 66.5363 24.8816 67.9849 25.0935C70.0129 25.3899 70.0459 25.4094 69.7422 26.1358C69.3491 27.0768 68.6881 27.2093 65.9387 26.8979C64.8956 26.7799 63.6604 26.6411 63.1937 26.59C62.7271 26.5388 61.9635 26.4512 61.4968 26.3953C61.0302 26.3394 60.2217 26.2468 59.7001 26.1894C59.1786 26.1323 58.3701 26.0412 57.9034 25.9876C57.4368 25.9337 56.6732 25.8481 56.2066 25.7974C55.7399 25.7468 54.9763 25.6577 54.5097 25.5993C54.043 25.5411 53.257 25.4508 52.7629 25.3986C51.75 25.2916 50.6141 25.1631 49.2194 24.9979C48.0488 24.8591 46.839 24.7209 45.7258 24.5986C45.2592 24.5475 44.4507 24.4566 43.9291 24.3967C43.4076 24.3371 42.6216 24.2488 42.1824 24.2006L41.3838 24.1128L40.2609 24.6672C39.0653 25.2574 38.981 25.36 39.4125 25.6966C39.5634 25.8144 40.1366 26.3454 40.6864 26.8767C42.4017 28.5346 42.2103 28.4109 43.2015 28.5029C44.0659 28.5833 45.0568 28.6898 46.724 28.8822C47.1906 28.9359 48.0216 29.0297 48.5706 29.0904C49.1196 29.151 49.9281 29.2408 50.3673 29.29C50.8065 29.3391 51.615 29.429 52.164 29.4896C52.713 29.5503 53.544 29.6428 54.0106 29.6952C54.4772 29.7476 55.2858 29.8362 55.8073 29.8921C57.0345 30.0236 58.2403 30.1574 59.3009 30.2797C60.1303 30.3752 60.9256 30.4643 62.9442 30.6874C69.9216 31.4587 69.4864 31.3884 69.9658 31.8228C70.901 32.6705 70.6922 33.0264 69.3075 32.9443C68.6624 32.9061 67.4159 32.8332 66.5376 32.7823C65.6592 32.7314 64.1994 32.6426 63.2935 32.5849C61.532 32.4729 59.2934 32.3399 56.5559 32.1844C55.6226 32.1315 52.2314 31.9314 49.0198 31.7402C45.8082 31.5488 42.3271 31.3455 41.284 31.2883C38.6059 31.1413 38.7794 31.1872 38.2256 30.4768C37.9282 30.095 35.579 27.1312 35.1488 26.5949C34.9948 26.4028 34.3885 25.6395 33.8015 24.8983L32.7345 23.5513L33.4679 23.2014C33.8712 23.0093 34.4024 22.7662 34.6482 22.6617C34.8943 22.5571 35.32 22.3712 35.5945 22.2487C36.1457 22.0024 36.806 21.7087 37.6407 21.3381C37.9427 21.2039 38.3694 21.007 38.589 20.9002C38.8587 20.7692 39.1015 20.724 39.3376 20.7612C39.5297 20.7914 39.9565 20.8553 40.2859 20.9027Z" fill="#41479B"/>
<path fill-rule="evenodd" clip-rule="evenodd" d="M16.3664 10.9703C16.341 10.996 16.1633 11.0362 15.9717 11.0601C15.78 11.0838 15.4511 11.1752 15.2408 11.263C15.0301 11.3511 14.7928 11.423 14.7135 11.423C14.6339 11.423 14.5054 11.4863 14.4277 11.5637C14.3504 11.6413 14.1964 11.681 14.0856 11.652C13.9723 11.6223 13.8842 11.648 13.8842 11.7107C13.8842 11.7721 13.7345 11.8222 13.5516 11.8222C13.3684 11.8222 13.1878 11.8534 13.1496 11.8913C13.1117 11.9293 12.9827 11.9754 12.8629 11.9937C12.7431 12.0119 12.6208 12.0613 12.5909 12.1035C12.5612 12.1456 12.402 12.1898 12.2373 12.2015C12.0726 12.2135 11.7474 12.3126 11.5146 12.4219C11.282 12.5314 10.9589 12.6208 10.7969 12.6208C10.635 12.6208 10.4745 12.6657 10.4406 12.7206C10.4066 12.7755 10.2691 12.8204 10.1351 12.8204C10.0011 12.8204 9.89159 12.8653 9.89159 12.9202C9.89159 12.9751 9.73438 13.02 9.54224 13.02C9.35009 13.02 9.19288 13.0649 9.19288 13.1198C9.19288 13.1747 9.02444 13.2204 8.81857 13.2212C8.54008 13.2224 8.48269 13.2476 8.59398 13.3195C8.70353 13.3903 8.63016 13.4165 8.31949 13.4178C8.08616 13.4185 7.89527 13.4612 7.89527 13.5124C7.89527 13.5638 7.77524 13.6199 7.62851 13.6371C7.48178 13.6546 7.34328 13.725 7.32082 13.7936C7.26093 13.9758 7.78871 13.9521 7.85883 13.7694C7.89676 13.6711 7.99358 13.6399 8.14431 13.6776C8.26983 13.7093 8.40258 13.6863 8.43927 13.6269C8.47595 13.5678 8.63815 13.5191 8.7996 13.5191C8.96106 13.5191 9.09306 13.4742 9.09306 13.4193C9.09306 13.3644 9.22507 13.3195 9.38652 13.3195C9.54798 13.3195 9.70793 13.2746 9.74187 13.2197C9.77581 13.1648 9.93302 13.1198 10.0912 13.1198C10.2494 13.1198 10.4066 13.0749 10.4406 13.02C10.4745 12.9651 10.6093 12.9202 10.74 12.9202C10.8708 12.9202 11.0055 12.8753 11.0395 12.8204C11.0734 12.7655 11.2122 12.7206 11.3479 12.7206C11.4837 12.7206 11.6174 12.6612 11.6454 12.5888C11.6766 12.5072 11.8041 12.4728 11.9798 12.4985C12.1357 12.5214 12.2939 12.491 12.3311 12.4306C12.3683 12.3705 12.531 12.3213 12.6924 12.3213C12.8539 12.3213 12.9859 12.2764 12.9859 12.2215C12.9859 12.1666 13.1207 12.1217 13.2853 12.1217C13.45 12.1217 13.5848 12.0768 13.5848 12.0219C13.5848 11.967 13.7168 11.922 13.8783 11.922C14.0397 11.922 14.1997 11.8771 14.2336 11.8222C14.2675 11.7673 14.4275 11.7224 14.589 11.7224C14.7504 11.7224 14.8824 11.6775 14.8824 11.6226C14.8824 11.5677 15.0396 11.5228 15.2318 11.5228C15.4239 11.5228 15.5811 11.4779 15.5811 11.423C15.5811 11.3681 15.7159 11.3231 15.8806 11.3231C16.0453 11.3231 16.18 11.2782 16.18 11.2233C16.18 11.1684 16.3372 11.1235 16.5294 11.1235C16.7215 11.1235 16.8787 11.0786 16.8787 11.0237C16.8787 10.9249 16.456 10.881 16.3664 10.9703ZM17.2031 10.9928C17.2992 11.0177 17.4564 11.0177 17.5525 10.9928C17.6486 10.9675 17.57 10.9471 17.3778 10.9471C17.1857 10.9471 17.1071 10.9675 17.2031 10.9928ZM18.2013 10.9972C18.4621 11.0177 18.8888 11.0177 19.1496 10.9972C19.4103 10.9768 19.197 10.9598 18.6754 10.9598C18.1539 10.9598 17.9405 10.9768 18.2013 10.9972ZM28.0639 11.0037C28.3803 11.0302 28.6818 11.2967 30.8498 13.466L33.2811 15.8987L32.641 15.8433C32.2889 15.8131 31.9253 15.7493 31.8327 15.7016C31.7404 15.6542 31.4172 15.6152 31.1151 15.6152C30.8126 15.6152 30.5376 15.5703 30.5037 15.5154C30.4697 15.4605 30.184 15.4156 29.8688 15.4156C29.5537 15.4156 29.2532 15.3747 29.2011 15.3245C29.1489 15.2746 28.8367 15.2065 28.5073 15.1733C26.9971 15.0218 26.8047 14.9931 26.7156 14.9078C26.6635 14.8576 26.363 14.8167 26.0479 14.8167C25.7327 14.8167 25.447 14.7718 25.413 14.7169C25.3791 14.662 25.0934 14.6171 24.7782 14.6171C24.463 14.6171 24.1626 14.5762 24.1104 14.526C24.0583 14.4761 23.7573 14.4087 23.4417 14.3763C23.126 14.3441 22.6094 14.2912 22.2938 14.259C21.9781 14.2266 21.6772 14.1592 21.625 14.1093C21.5729 14.0591 21.2786 14.0182 20.9712 14.0182C20.6638 14.0182 20.3696 13.9758 20.3174 13.9239C20.2653 13.872 19.9531 13.8158 19.6237 13.7991C19.2102 13.7781 19.0325 13.73 19.0497 13.6439C19.0635 13.5752 18.9849 13.5191 18.8751 13.5191C18.7653 13.5191 18.6754 13.5857 18.6754 13.6668C18.6754 13.8228 18.8159 13.8677 19.6237 13.9695C19.8982 14.0042 20.3698 14.0708 20.6718 14.1178C20.9737 14.1647 21.5576 14.2545 21.9694 14.3176C22.3811 14.3808 22.965 14.4706 23.267 14.5173C23.5689 14.5639 24.1529 14.6538 24.5646 14.7169C24.9763 14.78 25.5715 14.8731 25.8872 14.924C26.2028 14.9747 26.7194 15.058 27.0351 15.1087C27.5611 15.1933 28.1662 15.2871 29.6552 15.5142C29.9572 15.5604 30.5074 15.6469 30.878 15.7066C31.2486 15.7662 31.8325 15.8566 32.1756 15.9077C32.5187 15.9586 33.2486 16.0754 33.7976 16.167C34.9615 16.3614 35.466 16.4273 35.22 16.3524C35.068 16.3062 35.0453 16.1627 35.0453 15.2537C35.0453 13.9251 35.0613 13.9533 33.4068 12.344L32.0493 11.0237H35.4937H38.9382V12.8972V14.7706L40.0865 15.9416C41.2536 17.1317 41.3323 17.3348 40.504 17.0197C40.2203 16.9119 38.0585 16.7654 38.1536 16.8605C38.1888 16.8956 38.6604 16.966 39.2017 17.0172C40.1305 17.1048 40.6355 17.1776 41.9326 17.4122C42.4352 17.503 42.8594 17.5707 44.4281 17.81C44.73 17.8561 45.2915 17.9442 45.6758 18.0059C47.1441 18.2414 47.594 18.3125 48.271 18.4171C48.6553 18.4762 49.2392 18.5718 49.5686 18.6292C50.2808 18.7532 65.0831 18.8563 65.2011 18.7383C65.2443 18.6951 62.0142 18.6564 58.023 18.6524C54.0319 18.6487 50.6224 18.61 50.4465 18.5671C50.2074 18.5084 49.1723 17.5479 46.366 14.781L42.6059 11.0736L43.9911 11.0237C44.753 10.9962 41.4011 10.9738 36.5426 10.9738C31.684 10.9738 27.8685 10.9873 28.0639 11.0037ZM57.4668 10.9982L56.6813 11.0324L57.7164 11.7568C58.2858 12.1551 59.8971 13.2628 61.297 14.2183C62.6969 15.1738 64.7315 16.564 65.818 17.3076C66.9047 18.0513 67.9154 18.735 68.0638 18.8268C68.4037 19.0375 71.5781 19.2144 71.5781 19.023C71.5781 18.9603 71.508 18.9092 71.4224 18.9092C71.3303 18.9092 71.2959 18.8623 71.3381 18.7939C71.3807 18.725 71.3658 18.7058 71.3006 18.746C71.2407 18.7829 71.0765 18.6981 70.9358 18.5571C70.7951 18.4163 70.6798 18.353 70.6798 18.4161C70.6798 18.4792 70.545 18.3869 70.3803 18.2105C70.2156 18.034 70.0809 17.9195 70.0809 17.9554C70.0809 17.9916 69.9306 17.9065 69.747 17.7663C69.5633 17.6263 69.3712 17.5118 69.32 17.5118C69.2686 17.5118 69.1618 17.4219 69.0827 17.3121C69.0036 17.2023 68.8788 17.1125 68.8052 17.1125C68.7318 17.1125 68.6994 17.0676 68.7333 17.0127C68.7673 16.9578 68.7318 16.9129 68.655 16.9129C68.5779 16.9129 68.4334 16.823 68.3341 16.7132C68.2348 16.6034 68.093 16.5136 68.0192 16.5136C67.9453 16.5136 67.8849 16.4717 67.8849 16.4205C67.8849 16.3694 67.7953 16.299 67.6858 16.2643C67.5765 16.2296 67.4245 16.1385 67.3481 16.0624C67.1979 15.9122 66.7295 15.6175 66.213 15.3482C66.0346 15.2552 65.8886 15.1424 65.8886 15.0977C65.8886 15.053 65.8207 15.0163 65.7379 15.0163C65.655 15.0163 65.4464 14.8816 65.274 14.7169C65.1015 14.5522 64.8972 14.4175 64.8198 14.4175C64.7424 14.4175 64.7067 14.3725 64.7407 14.3176C64.7746 14.2627 64.7329 14.2178 64.6479 14.2178C64.5111 14.2178 64.3437 14.1093 63.9559 13.7686C63.8935 13.7137 63.7196 13.6054 63.5696 13.5281C63.4194 13.4507 63.208 13.3047 63.0995 13.2037C62.9912 13.1026 62.8669 13.02 62.8235 13.02C62.78 13.0198 62.6151 12.9085 62.4569 12.7725C62.2987 12.6365 62.1385 12.5444 62.1008 12.5676C62.0629 12.5911 61.969 12.5227 61.8922 12.4159C61.8151 12.3088 61.6721 12.2215 61.5745 12.2215C61.4767 12.2215 61.3968 12.1841 61.3968 12.1386C61.3968 12.093 61.2733 11.9919 61.1223 11.9141C60.9714 11.8362 60.8254 11.7501 60.7979 11.7227C60.7321 11.6563 59.5692 11.0876 59.4836 11.0798C59.4472 11.0763 59.3835 11.0399 59.3424 10.9987C59.3012 10.9576 59.0392 10.9329 58.7599 10.9438C58.481 10.9551 57.899 10.9795 57.4668 10.9982ZM27.1099 11.1235L26.9103 11.2094L27.1099 11.2148C27.2197 11.2178 27.3769 11.1767 27.4593 11.1235C27.6577 10.9952 27.4084 10.9952 27.1099 11.1235ZM46.6739 11.1235C46.8386 11.1654 47.3552 11.1981 47.8218 11.1964L48.6702 11.1929L48.0214 11.12C47.1111 11.0177 46.2667 11.02 46.6739 11.1235ZM19.1246 11.2233C19.0517 11.3414 19.1493 11.3414 19.4241 11.2233C19.6165 11.1407 19.616 11.1372 19.4051 11.1305C19.2848 11.1268 19.1585 11.1684 19.1246 11.2233ZM26.4112 11.3231C26.233 11.3998 26.2403 11.4097 26.4801 11.416C26.6278 11.4197 26.7765 11.378 26.8105 11.3231C26.8841 11.2039 26.6884 11.2039 26.4112 11.3231ZM48.82 11.3172C48.9545 11.4095 50.0098 11.4756 49.9097 11.3855C49.8868 11.3651 49.5985 11.3182 49.2691 11.2812C48.8459 11.2341 48.7142 11.2448 48.82 11.3172ZM18.5257 11.423C18.4528 11.541 18.5504 11.541 18.8252 11.423C19.0176 11.3404 19.0171 11.3369 18.8062 11.3301C18.6859 11.3264 18.5596 11.3681 18.5257 11.423ZM24.6644 11.8374C23.9233 12.0575 23.1821 12.2751 23.0174 12.3211C22.8527 12.367 22.2464 12.5469 21.6699 12.7206C21.0935 12.8943 20.4724 13.0737 20.2895 13.1193C19.8717 13.2236 19.7165 13.3719 20.1228 13.279C20.3965 13.2164 21.4591 12.9122 22.0692 12.7218C22.2064 12.6789 22.5209 12.5878 22.7679 12.5192C23.015 12.4506 23.4641 12.3166 23.7661 12.2215C24.068 12.1264 24.5172 11.9929 24.7642 11.925C25.0113 11.8572 25.3165 11.7611 25.4427 11.7119C25.5688 11.6628 25.7572 11.6226 25.861 11.6226C25.965 11.6226 26.0778 11.5777 26.1118 11.5228C26.1976 11.384 26.1756 11.3888 24.6644 11.8374ZM50.1176 11.5153C50.1999 11.5727 50.4213 11.6203 50.6097 11.6211C50.7978 11.6218 51.0898 11.6645 51.2585 11.7157C51.4269 11.7668 51.7671 11.8604 52.0141 11.9235C53.447 12.2899 53.9231 12.4266 54.1339 12.5332C54.2293 12.5813 54.3668 12.6208 54.4394 12.6208C54.5123 12.6208 55.0807 12.8241 55.7026 13.0724C56.3247 13.321 56.8562 13.5016 56.8836 13.4739C56.9111 13.4465 56.8487 13.3956 56.7446 13.3609C56.6408 13.3262 56.3653 13.2129 56.1325 13.1091C55.9 13.0053 55.6634 12.9202 55.6072 12.9202C55.5511 12.9202 55.4271 12.8775 55.3317 12.8251C54.5177 12.3785 49.5731 11.1365 50.1176 11.5153ZM17.9268 11.6226C17.8539 11.7406 17.9515 11.7406 18.2263 11.6226C18.4187 11.54 18.4182 11.5365 18.2073 11.5298C18.087 11.526 17.9607 11.5677 17.9268 11.6226ZM17.278 11.8222C17.145 11.9083 17.145 11.919 17.278 11.919C17.3604 11.919 17.4951 11.8754 17.5775 11.8222C17.7105 11.7361 17.7105 11.7254 17.5775 11.7254C17.4951 11.7254 17.3604 11.7691 17.278 11.8222ZM16.6791 12.0219C16.5461 12.1079 16.5461 12.1187 16.6791 12.1187C16.7615 12.1187 16.8962 12.075 16.9786 12.0219C17.1116 11.9358 17.1116 11.925 16.9786 11.925C16.8962 11.925 16.7615 11.9687 16.6791 12.0219ZM16.0802 12.2215C15.9472 12.3076 15.9472 12.3183 16.0802 12.3183C16.1626 12.3183 16.2973 12.2746 16.3797 12.2215C16.5127 12.1354 16.5127 12.1247 16.3797 12.1247C16.2973 12.1247 16.1626 12.1683 16.0802 12.2215ZM13.0358 13.1865C11.6084 13.6534 10.3625 14.0766 10.2672 14.1267C10.1718 14.1769 10.0061 14.2178 9.89883 14.2178C9.79153 14.2178 9.67599 14.2627 9.64205 14.3176C9.60811 14.3725 9.47336 14.4175 9.3426 14.4175C9.21184 14.4175 9.08009 14.4574 9.04989 14.5063C9.0197 14.5549 8.8263 14.6251 8.61993 14.6618C8.26808 14.7244 7.91748 14.7666 5.6494 15.0206C3.92931 15.2132 3.40353 15.2374 3.40353 15.1244C3.40353 15.0079 2.98006 14.9742 2.87201 15.082C2.83582 15.1182 2.85728 15.209 2.91942 15.2839C3.00876 15.3917 2.99803 15.4069 2.86876 15.3572C2.77843 15.3228 2.70481 15.2512 2.70481 15.1983C2.70481 15.1456 2.61323 15.1167 2.50119 15.1341C2.38915 15.1516 2.30031 15.211 2.30355 15.2659C2.31428 15.4518 2.85154 15.5157 3.60316 15.4204C4.0149 15.3682 4.7785 15.2779 5.30004 15.2195C5.82158 15.1608 6.67501 15.0653 7.19655 15.0066C7.89676 14.9283 8.75868 14.7032 10.4905 14.1472C13.8665 13.0632 15.8184 12.4169 15.8693 12.3657C15.9944 12.2407 15.4067 12.4109 13.0358 13.1865ZM19.2743 13.4193C19.1503 13.4994 19.159 13.5161 19.3242 13.5161C19.434 13.5161 19.5912 13.4724 19.6736 13.4193C19.7976 13.3392 19.7889 13.3225 19.6237 13.3225C19.5139 13.3225 19.3567 13.3661 19.2743 13.4193ZM57.0132 13.5593C57.0361 13.5812 57.6163 13.8874 58.3025 14.2395C60.2128 15.2197 60.8226 15.604 63.493 17.5108C64.9723 18.5668 65.09 18.6452 65.09 18.5711C65.09 18.487 61.4106 15.896 60.4359 15.2936C59.2917 14.5866 56.7347 13.2908 57.0132 13.5593ZM6.59765 13.9184C6.59765 13.9733 6.46565 14.0182 6.30419 14.0182C6.14274 14.0182 5.98278 14.0631 5.94885 14.118C5.91491 14.1729 5.75495 14.2178 5.5935 14.2178C5.43205 14.2178 5.30004 14.2627 5.30004 14.3176C5.30004 14.3725 5.19049 14.4175 5.05649 14.4175C4.92249 14.4175 4.78499 14.4624 4.75105 14.5173C4.71711 14.5722 4.55167 14.6171 4.38348 14.6171C4.13319 14.6171 4.09875 14.6423 4.19358 14.7566C4.31785 14.9063 4.70114 14.8586 4.70114 14.6937C4.70114 14.6388 4.78798 14.6166 4.89429 14.6443C5.00059 14.672 5.18026 14.6298 5.2938 14.5505C5.40709 14.4709 5.54085 14.4312 5.59076 14.4619C5.73025 14.5482 5.99875 14.4127 5.99875 14.2562C5.99875 14.141 6.03494 14.1382 6.20438 14.242C6.37606 14.3468 6.42996 14.3411 6.52928 14.2073C6.59491 14.119 6.75611 14.0516 6.88737 14.0576C7.01888 14.0634 7.14589 14.0119 7.16985 13.9433C7.1983 13.8612 7.10821 13.8186 6.90534 13.8186C6.73615 13.8186 6.59765 13.8635 6.59765 13.9184ZM3.77784 14.7955C3.59568 14.8329 3.54552 14.9689 3.68277 15.0538C3.79256 15.1217 4.03537 14.9602 3.9897 14.8497C3.96924 14.8002 3.87391 14.7758 3.77784 14.7955ZM35.744 16.5136C35.8813 16.5575 36.1732 16.5927 36.3928 16.5917C36.7726 16.59 36.7776 16.586 36.4927 16.5136C36.0585 16.403 35.3992 16.403 35.744 16.5136ZM37.0416 16.7132C37.1789 16.7571 37.4484 16.7923 37.6405 16.7913L37.9899 16.7893L37.6904 16.7132C37.251 16.6014 36.6925 16.6014 37.0416 16.7132ZM18.0266 23.5968C17.7282 23.6355 18.1494 23.6622 19.0747 23.6629C20.1432 23.6642 20.4519 23.6425 20.0729 23.5926C19.4193 23.5067 18.7101 23.5082 18.0266 23.5968ZM81.1605 23.5973C80.898 23.636 81.3546 23.6644 82.2585 23.6652C83.341 23.6664 83.6407 23.6447 83.2566 23.5936C82.5953 23.5055 81.7704 23.507 81.1605 23.5973ZM16.9286 23.8002C16.7363 23.8828 16.7368 23.8863 16.9476 23.893C17.0679 23.8968 17.1942 23.8551 17.2281 23.8002C17.301 23.6822 17.2034 23.6822 16.9286 23.8002ZM20.8714 23.8002C20.9537 23.8533 21.1334 23.8933 21.2707 23.8885L21.5202 23.88L21.2707 23.8002C20.8859 23.6769 20.6807 23.6769 20.8714 23.8002ZM80.1124 23.8002C79.92 23.8828 79.9205 23.8863 80.1314 23.893C80.2517 23.8968 80.3779 23.8551 80.4119 23.8002C80.4847 23.6822 80.3872 23.6822 80.1124 23.8002ZM84.0552 23.8002C84.1375 23.8533 84.3172 23.8933 84.4544 23.8885L84.704 23.88L84.4544 23.8002C84.0696 23.6769 83.8645 23.6769 84.0552 23.8002ZM21.7198 23.9998C21.7538 24.0547 21.88 24.0964 22.0003 24.0927C22.2112 24.0859 22.2117 24.0824 22.0193 23.9998C21.7445 23.8818 21.647 23.8818 21.7198 23.9998ZM84.9036 23.9998C84.9375 24.0547 85.0638 24.0964 85.1841 24.0927C85.3949 24.0859 85.3954 24.0824 85.203 23.9998C84.9283 23.8818 84.8307 23.8818 84.9036 23.9998ZM22.7679 24.3499C22.7679 24.3741 22.9588 24.4859 23.1921 24.598C24.2167 25.0903 25.0782 25.7222 25.8872 26.5746C26.2028 26.907 26.4611 27.1475 26.4611 27.1091C26.4611 26.9135 24.5856 25.2483 24.0166 24.9388C23.9063 24.8787 23.6588 24.741 23.4666 24.6324C23.0649 24.4058 22.7679 24.2855 22.7679 24.3499ZM85.9517 24.3499C85.9517 24.3741 86.1426 24.4859 86.3759 24.598C87.4367 25.1078 88.1771 25.6478 89.021 26.5269C89.3641 26.8843 89.6449 27.1458 89.6449 27.1079C89.6449 27.0088 88.2692 25.6837 87.7983 25.3296C87.2236 24.8972 85.9517 24.2224 85.9517 24.3499ZM26.6415 27.4435C26.7039 27.5533 26.8496 27.7554 26.9657 27.8927L27.1765 28.1422L26.9934 27.8101C26.8928 27.6274 26.7471 27.4253 26.6695 27.3609C26.5507 27.2626 26.5462 27.2755 26.6415 27.4435ZM89.9905 27.6681C90.1445 27.9014 90.2894 28.0923 90.3126 28.0923C90.3845 28.0923 90.0025 27.4849 89.8525 27.3609C89.7746 27.2965 89.8365 27.4348 89.9905 27.6681ZM18.4386 28.371C18.4067 28.4229 18.211 28.4931 18.0039 28.527C17.3359 28.636 16.4323 29.1436 15.794 29.7682C15.0481 30.4981 15.0109 30.6875 15.6136 30.6875C16.1102 30.6875 16.4787 30.9872 16.4805 31.3927C16.4887 33.2091 18.796 35.5755 20.562 35.579C21.07 35.58 21.4224 35.992 21.4054 36.5655L21.3904 37.0718L21.8142 36.7801C22.6536 36.2026 23.2196 35.3717 23.5577 34.2203C23.7788 33.4677 23.8462 32.0465 23.6663 31.9352C23.6114 31.9013 23.5664 31.7665 23.5664 31.6358C23.5664 31.505 23.5215 31.3703 23.4666 31.3363C23.4117 31.3024 23.3668 31.2068 23.3668 31.1237C23.3668 30.6324 22.0699 29.2606 21.2055 28.8379C20.3049 28.3972 18.6003 28.1095 18.4386 28.371ZM81.6224 28.371C81.5904 28.4229 81.3908 28.4931 81.179 28.527C80.4907 28.637 79.4187 29.2522 78.8714 29.8506C78.2354 30.5468 78.2246 30.6875 78.8076 30.6875C79.3099 30.6875 79.6632 31.0097 79.6632 31.4676C79.6632 31.7079 79.7578 32.0655 79.9961 32.7265C80.3091 33.5947 81.837 35.175 82.3665 35.1783C82.4536 35.1788 82.5554 35.2099 82.5931 35.2476C82.7181 35.3727 83.4021 35.5755 83.7058 35.5775C84.2523 35.5813 84.6066 35.9773 84.5892 36.5655L84.5742 37.0718L85.0019 36.7773C86.0944 36.0257 86.9498 34.3206 86.9498 32.894C86.9498 30.9752 85.3992 29.0009 83.4707 28.4644C82.9587 28.3221 81.6923 28.258 81.6224 28.371ZM20.5719 28.7144C22.4143 29.4243 23.4966 30.8996 23.6356 32.89C23.7204 34.1067 23.1519 34.1205 22.8607 32.9087C22.3973 30.98 20.9874 29.6088 19.0433 29.1963C18.4593 29.0725 18.3016 28.9293 18.4174 28.6276C18.4938 28.4287 19.9865 28.4888 20.5719 28.7144ZM84.1839 28.9275C85.7563 29.6836 86.8607 31.3945 86.8468 33.0524C86.8385 34.0466 86.2906 33.9755 86.0375 32.9474C85.5636 31.0192 84.0325 29.4872 82.3298 29.2367C81.6928 29.1431 81.3586 28.8836 81.5612 28.6395C81.8173 28.3309 83.2771 28.4913 84.1839 28.9275ZM91.3447 30.5877C91.3447 30.6701 91.3884 30.8048 91.4416 30.8872C91.5277 31.0202 91.5384 31.0202 91.5384 30.8872C91.5384 30.8048 91.4947 30.6701 91.4416 30.5877C91.3555 30.4547 91.3447 30.4547 91.3447 30.5877ZM91.6083 31.8853C91.6412 32.1873 91.6846 32.453 91.7046 32.476C91.7819 32.5643 91.7223 31.7249 91.6377 31.536C91.5793 31.4057 91.5693 31.5267 91.6083 31.8853ZM28.3746 31.6857C28.3793 32.0974 28.5365 32.5231 28.5403 32.1349C28.5418 31.9702 28.5046 31.7456 28.4574 31.6358C28.3793 31.4544 28.3718 31.4589 28.3746 31.6857ZM72.6993 32.8835C72.6993 33.0756 72.7198 33.1542 72.745 33.0582C72.7699 32.9621 72.7699 32.8049 72.745 32.7088C72.7198 32.6127 72.6993 32.6913 72.6993 32.8835Z" fill="#747868"/>
<path fill-rule="evenodd" clip-rule="evenodd" d="M95.9584 26.7697L93.7374 26.7984V27.7449V28.6912H96.3187C97.7383 28.6912 99.1083 28.7196 99.3631 28.7545L99.8262 28.8182V27.7564V26.6948L99.0028 26.7178C98.5498 26.7305 97.1799 26.7537 95.9584 26.7697ZM18.4175 28.6275C18.3017 28.9292 18.4594 29.0725 19.0434 29.1962C20.9875 29.6087 22.3974 30.9799 22.8608 32.9086C23.1521 34.1204 23.7205 34.1067 23.6357 32.8899C23.4967 30.8996 22.4144 29.4243 20.572 28.7144C19.9866 28.4888 18.4939 28.4286 18.4175 28.6275ZM81.5613 28.6395C81.3587 28.8835 81.6929 29.1431 82.3299 29.2366C84.0325 29.4872 85.5637 31.0191 86.0376 32.9473C86.2906 33.9754 86.8386 34.0465 86.8469 33.0524C86.8608 31.3944 85.7564 29.6836 84.184 28.9275C83.2772 28.4913 81.8174 28.3308 81.5613 28.6395Z" fill="#D1D1BD"/>
<path fill-rule="evenodd" clip-rule="evenodd" d="M19.7236 11.0119L19.9233 11.0965L19.7236 11.1534C19.5692 11.1973 19.5804 11.2061 19.7735 11.1919C19.9108 11.1816 20.0231 11.1285 20.0231 11.0736C20.0231 11.0187 19.9108 10.9633 19.7735 10.9505C19.5529 10.9301 19.5472 10.9371 19.7236 11.0119ZM27.16 11.0252C27.0546 11.094 27.1138 11.1043 27.3596 11.0591C27.79 10.98 27.8714 10.9233 27.551 10.9253C27.4182 10.9261 27.2423 10.971 27.16 11.0252ZM29.4308 10.9982C29.8837 11.0167 30.6248 11.0167 31.0777 10.9982C31.5307 10.9795 31.1601 10.9645 30.2543 10.9645C29.3484 10.9645 28.9779 10.9795 29.4308 10.9982ZM39.9115 10.9982C40.3644 11.0167 41.1055 11.0167 41.5585 10.9982C42.0114 10.9795 41.6408 10.9645 40.735 10.9645C39.8291 10.9645 39.4586 10.9795 39.9115 10.9982ZM45.3764 10.9735C45.4313 10.9922 46.0826 11.0267 46.8238 11.0501C47.5649 11.0736 48.059 11.0591 47.9218 11.0182C47.6837 10.9471 45.1691 10.9031 45.3764 10.9735ZM57.1298 10.9965C57.3357 11.0182 57.6726 11.0182 57.8784 10.9965C58.0843 10.975 57.9159 10.9573 57.5041 10.9573C57.0924 10.9573 56.9239 10.975 57.1298 10.9965ZM26.4612 11.2278C26.3519 11.3019 26.3924 11.3111 26.611 11.2622C26.978 11.1801 27.0576 11.123 26.8024 11.125C26.6971 11.1257 26.5436 11.1721 26.4612 11.2278ZM48.9698 11.229C49.1894 11.2745 49.4589 11.3111 49.5687 11.3104L49.7684 11.3091L49.5687 11.2233C49.4589 11.1761 49.1894 11.1394 48.9698 11.1419L48.5706 11.1464L48.9698 11.229ZM19.1247 11.3231C18.9323 11.4057 18.9328 11.4092 19.1437 11.4159C19.264 11.4197 19.3902 11.378 19.4242 11.3231C19.497 11.2051 19.3995 11.2051 19.1247 11.3231ZM25.7625 11.4229C25.5641 11.5512 25.8134 11.5512 26.1119 11.4229L26.3115 11.3371L26.1119 11.3316C26.0021 11.3286 25.8449 11.3698 25.7625 11.4229ZM50.1676 11.4229C50.3323 11.4649 50.5569 11.5013 50.6667 11.504L50.8663 11.5088L50.6667 11.4229C50.5569 11.3758 50.3323 11.3393 50.1676 11.3418L49.8682 11.3468L50.1676 11.4229ZM18.5258 11.5227C18.3334 11.6053 18.3339 11.6088 18.5448 11.6156C18.6651 11.6193 18.7913 11.5776 18.8253 11.5227C18.8982 11.4047 18.8006 11.4047 18.5258 11.5227ZM51.2656 11.6226C51.5641 11.7508 51.8133 11.7508 51.615 11.6226C51.5326 11.5694 51.3754 11.5282 51.2656 11.5312L51.066 11.5367L51.2656 11.6226ZM16.6019 12.1409C15.7632 12.4203 15.0949 12.6666 15.1166 12.6886C15.1386 12.7103 15.7667 12.5244 16.5125 12.2754C17.2584 12.0261 17.9352 11.8222 18.0165 11.8222C18.0981 11.8222 18.1924 11.7773 18.2264 11.7224C18.3182 11.5739 18.2558 11.5899 16.6019 12.1409ZM24.3651 11.8222C24.1667 11.9505 24.416 11.9505 24.7145 11.8222L24.9141 11.7364L24.7145 11.7309C24.6047 11.7279 24.4474 11.769 24.3651 11.8222ZM52.8627 12.0218C53.1611 12.1501 53.4104 12.1501 53.212 12.0218C53.1297 11.9687 52.9725 11.9275 52.8627 11.9305L52.663 11.936L52.8627 12.0218ZM23.0675 12.2215C22.9345 12.3076 22.9345 12.3183 23.0675 12.3183C23.1498 12.3183 23.2846 12.2746 23.3669 12.2215C23.4999 12.1354 23.4999 12.1246 23.3669 12.1246C23.2846 12.1246 23.1498 12.1683 23.0675 12.2215ZM53.5614 12.2215C53.8598 12.3497 54.1091 12.3497 53.9107 12.2215C53.8284 12.1683 53.6712 12.1271 53.5614 12.1301L53.3617 12.1356L53.5614 12.2215ZM22.3688 12.4211C22.2358 12.5072 22.2358 12.5179 22.3688 12.5179C22.4511 12.5179 22.5859 12.4742 22.6682 12.4211C22.8012 12.335 22.8012 12.3243 22.6682 12.3243C22.5859 12.3243 22.4511 12.3679 22.3688 12.4211ZM54.2102 12.4211C54.2925 12.4742 54.4273 12.5179 54.5096 12.5179C54.6426 12.5179 54.6426 12.5072 54.5096 12.4211C54.4273 12.3679 54.2925 12.3243 54.2102 12.3243C54.0772 12.3243 54.0772 12.335 54.2102 12.4211ZM21.72 12.6207C21.5942 12.6749 21.5757 12.7066 21.67 12.7066C21.7524 12.7066 21.9096 12.6679 22.0194 12.6207C22.1452 12.5666 22.1636 12.5349 22.0693 12.5349C21.987 12.5349 21.8298 12.5736 21.72 12.6207ZM54.8091 12.6207C54.8914 12.6739 55.0262 12.7175 55.1085 12.7175C55.2415 12.7175 55.2415 12.7068 55.1085 12.6207C55.0262 12.5676 54.8914 12.5239 54.8091 12.5239C54.6761 12.5239 54.6761 12.5346 54.8091 12.6207ZM21.0212 12.8204C20.8955 12.8745 20.877 12.9062 20.9713 12.9062C21.0537 12.9062 21.2109 12.8675 21.3207 12.8204C21.4465 12.7662 21.4649 12.7345 21.3706 12.7345C21.2883 12.7345 21.131 12.7732 21.0212 12.8204ZM20.3225 13.02L20.1229 13.1058L20.3225 13.1113C20.4323 13.1143 20.5895 13.0731 20.6719 13.02C20.8703 12.8917 20.621 12.8917 20.3225 13.02ZM19.6238 13.2196L19.4242 13.3055L19.6238 13.311C19.7336 13.3139 19.8908 13.2728 19.9732 13.2196C20.1716 13.0914 19.9223 13.0914 19.6238 13.2196ZM18.8952 13.418C18.4847 13.5151 18.4068 13.5897 18.5575 13.7404C18.6484 13.8312 18.6756 13.8195 18.6756 13.6888C18.6756 13.5797 18.7559 13.5186 18.9001 13.5176C19.0237 13.5168 19.1921 13.4724 19.2745 13.4193C19.4464 13.3082 19.3598 13.308 18.8952 13.418ZM56.8129 13.3601C56.8421 13.3896 57.4253 13.6878 58.1085 14.0231C58.7918 14.3583 59.3058 14.5876 59.2509 14.5325C59.196 14.4771 58.7324 14.2243 58.2206 13.9702C57.2973 13.5123 56.7106 13.2581 56.8129 13.3601ZM10.291 14.2178C10.158 14.3039 10.158 14.3146 10.291 14.3146C10.3733 14.3146 10.5081 14.2709 10.5904 14.2178C10.7234 14.1317 10.7234 14.121 10.5904 14.121C10.5081 14.121 10.3733 14.1646 10.291 14.2178ZM9.69209 14.4174C9.55908 14.5035 9.55908 14.5142 9.69209 14.5142C9.77443 14.5142 9.90919 14.4706 9.99153 14.4174C10.1245 14.3313 10.1245 14.3206 9.99153 14.3206C9.90919 14.3206 9.77443 14.3643 9.69209 14.4174ZM59.5005 14.7219C59.8466 14.9567 60.044 15.0251 59.7999 14.8257C59.6627 14.7134 59.5054 14.6213 59.4506 14.6208C59.3956 14.6203 59.4181 14.666 59.5005 14.7219ZM60.0994 15.0562C60.0994 15.0785 60.2493 15.1848 60.4325 15.2928C60.6157 15.4009 60.8852 15.5678 61.0314 15.6636C61.1776 15.7595 61.2971 15.8166 61.2971 15.7906C61.2971 15.737 60.2301 15.0163 60.1508 15.0163C60.1226 15.0163 60.0994 15.0343 60.0994 15.0562ZM61.397 15.8498C61.397 15.8742 62.2696 16.5151 63.3359 17.2734C64.4024 18.032 65.2489 18.6948 65.2172 18.7465C65.1848 18.7989 65.2132 18.8068 65.2818 18.7644C65.4463 18.6629 65.3292 18.5628 63.6927 17.4037C61.9467 16.167 61.397 15.7951 61.397 15.8498ZM3.9504 18.3302C3.92295 18.4018 3.91222 20.2794 3.92644 22.5028L3.95264 26.5451H4.55154H5.15044V22.4027V18.2603L4.57525 18.2304C4.17249 18.2094 3.98508 18.2394 3.9504 18.3302ZM6.79741 22.4027V26.595H7.48065C8.19758 26.595 8.2692 26.5568 8.57863 26.0074C8.80547 25.6046 9.08296 25.1155 9.30754 24.7235C9.42533 24.5176 9.6564 24.1021 9.8211 23.8002C9.98554 23.4982 10.164 23.195 10.2176 23.1264C10.3219 22.9931 10.269 22.826 9.77443 21.7265C9.61922 21.3819 9.49245 21.0802 9.49245 21.0557C9.49245 21.0313 9.38465 20.774 9.25314 20.4843C9.12139 20.1943 8.93972 19.7776 8.84963 19.558C8.7593 19.3384 8.58936 18.9453 8.47233 18.6846L8.25897 18.2104H7.52832H6.79741V22.4027ZM38.5889 20.9002C38.3693 21.007 37.9426 21.2039 37.6407 21.3382C36.806 21.7088 36.1457 22.0025 35.5944 22.2488C35.3199 22.3713 34.8942 22.5572 34.6482 22.6618C34.4024 22.7663 33.8711 23.0094 33.4678 23.2015L32.7344 23.5514L33.8015 24.8984C34.3884 25.6395 34.9948 26.4029 35.1488 26.595C35.579 27.1313 37.9281 30.0951 38.2256 30.4769C38.7793 31.1873 38.6059 31.1414 41.284 31.2884C42.327 31.3455 45.8081 31.5489 49.0197 31.7403C52.2313 31.9315 55.6226 32.1316 56.5559 32.1845C59.2933 32.34 61.532 32.473 63.2935 32.585C64.1993 32.6426 65.6591 32.7315 66.5375 32.7824C67.4159 32.8333 68.6624 32.9062 69.3074 32.9443C70.6921 33.0264 70.901 32.6706 69.9657 31.8229C69.4863 31.3884 69.9215 31.4588 62.9441 30.6875C60.9256 30.4644 60.1303 30.3753 59.3008 30.2797C58.2403 30.1575 57.0345 30.0237 55.8073 29.8922C55.2857 29.8363 54.4772 29.7477 54.0106 29.6953C53.5439 29.6429 52.7129 29.5503 52.164 29.4897C51.615 29.4291 50.8064 29.3392 50.3673 29.2901C49.9281 29.2409 49.1196 29.1511 48.5706 29.0904C48.0216 29.0298 47.1906 28.936 46.724 28.8823C45.0568 28.6899 44.0658 28.5834 43.2014 28.503C42.2103 28.4109 42.4017 28.5347 40.6863 26.8767C40.1366 26.3455 39.5634 25.8145 39.4124 25.6967C38.981 25.36 39.0653 25.2575 40.2608 24.6673L41.3838 24.1128L42.1823 24.2007C42.6215 24.2488 43.4076 24.3372 43.9291 24.3968C44.4506 24.4567 45.2592 24.5475 45.7258 24.5987C46.839 24.721 48.0488 24.8592 49.2194 24.998C50.6141 25.1632 51.75 25.2917 52.7629 25.3987C53.2569 25.4509 54.043 25.5412 54.5096 25.5993C54.9763 25.6577 55.7399 25.7468 56.2065 25.7975C56.6732 25.8481 57.4367 25.9337 57.9034 25.9876C58.37 26.0413 59.1786 26.1324 59.7001 26.1895C60.2216 26.2469 61.0301 26.3395 61.4968 26.3954C61.9634 26.4513 62.727 26.5389 63.1937 26.59C63.6603 26.6412 64.8955 26.7799 65.9386 26.898C68.6881 27.2094 69.3491 27.0769 69.7421 26.1359C70.0458 25.4095 70.0129 25.39 67.9848 25.0935C66.5363 24.8817 65.9985 24.8006 64.0671 24.5024C63.7239 24.4495 63.1288 24.3596 62.7445 24.3027C62.3602 24.2458 61.6191 24.1325 61.0975 24.0507C60.576 23.9691 59.2509 23.7682 58.1529 23.6048C57.055 23.4413 55.393 23.192 54.4597 23.0513C53.5264 22.9105 52.4484 22.7486 52.0641 22.6917C51.6798 22.6346 51.1184 22.5497 50.8164 22.5025C49.7397 22.3349 48.7605 22.1856 48.1214 22.0923C47.7645 22.0399 47.2031 21.9551 46.8737 21.9036C46.5443 21.8522 45.9828 21.7674 45.626 21.715C44.9869 21.6217 44.0077 21.4724 42.9309 21.3048C41.7983 21.1283 40.866 20.9866 40.2858 20.9027C39.9564 20.8553 39.5297 20.7914 39.3375 20.7612C39.1015 20.7241 38.8587 20.7692 38.5889 20.9002ZM18.1094 23.4785C18.0447 23.5194 18.456 23.5524 19.0229 23.5519C19.5899 23.5511 20.0019 23.5177 19.9385 23.4773C19.7878 23.3812 18.2606 23.3822 18.1094 23.4785ZM81.2951 23.4773C81.2317 23.5177 81.6684 23.5506 82.2653 23.5509C82.8622 23.5509 83.2732 23.5204 83.1789 23.483C82.9456 23.3904 81.4384 23.3859 81.2951 23.4773ZM16.9298 23.6988C16.8918 23.7602 16.9924 23.7737 17.1983 23.7345C17.6397 23.6504 17.6776 23.6005 17.3006 23.6005C17.1302 23.6005 16.9632 23.6447 16.9298 23.6988ZM20.5803 23.6362C20.6909 23.7308 21.275 23.7879 21.2199 23.6988C21.1864 23.6447 21.0195 23.6005 20.8491 23.6005C20.6784 23.6005 20.5576 23.6165 20.5803 23.6362ZM80.1135 23.6988C80.0756 23.7602 80.1762 23.7737 80.382 23.7345C80.8235 23.6504 80.8614 23.6005 80.4844 23.6005C80.3139 23.6005 80.147 23.6447 80.1135 23.6988ZM83.7641 23.6362C83.8746 23.7308 84.4588 23.7879 84.4036 23.6988C84.3702 23.6447 84.2033 23.6005 84.0328 23.6005C83.8621 23.6005 83.7414 23.6165 83.7641 23.6362ZM16.2276 23.904C16.1854 23.9721 16.2608 23.9843 16.4462 23.9399C16.8287 23.8481 16.8649 23.8002 16.552 23.8002C16.409 23.8002 16.263 23.8468 16.2276 23.904ZM79.4138 23.9C79.3402 24.0193 79.5359 24.0193 79.8131 23.9C79.9913 23.8234 79.984 23.8134 79.7442 23.8071C79.5965 23.8034 79.4478 23.8451 79.4138 23.9ZM15.6811 24.0996C15.5481 24.1857 15.5481 24.1964 15.6811 24.1964C15.7634 24.1964 15.8982 24.1528 15.9805 24.0996C16.1135 24.0135 16.1135 24.0028 15.9805 24.0028C15.8982 24.0028 15.7634 24.0465 15.6811 24.0996ZM14.7827 24.4799C13.5824 25.0796 12.0465 26.356 11.3917 27.298C11.26 27.4879 11.5494 27.2244 12.0353 26.7126C12.9586 25.7398 13.6605 25.2043 14.8326 24.578C15.6386 24.1473 15.6002 24.0717 14.7827 24.4799ZM77.7941 24.5877C76.6135 25.2143 75.4741 26.1693 74.6698 27.2064C74.4836 27.4467 74.7786 27.1889 75.3253 26.6337C76.3637 25.5794 77.1617 24.981 78.1055 24.5493C78.617 24.3155 78.7847 24.1952 78.5903 24.2022C78.5492 24.2034 78.1908 24.3771 77.7941 24.5877ZM86.7503 24.6461C86.7503 24.6721 86.8963 24.7646 87.0747 24.8517L87.3991 25.0099L87.1496 24.8066C86.9093 24.6107 86.7503 24.5468 86.7503 24.6461ZM24.5597 25.2682C24.7491 25.4214 25.2622 25.8838 25.6999 26.2956C26.1705 26.7385 26.3891 26.9012 26.2357 26.6943C25.9434 26.3011 25.113 25.5637 24.5732 25.2183L24.2154 24.9895L24.5597 25.2682ZM87.7485 25.2672C87.9406 25.4194 88.4525 25.8816 88.8857 26.2941C89.3189 26.7066 89.5899 26.9137 89.4878 26.7542C89.2887 26.4428 87.9284 25.2408 87.5988 25.0848C87.489 25.0326 87.5564 25.1147 87.7485 25.2672ZM26.6669 27.3686C26.7991 27.5196 26.9473 27.688 26.996 27.7429C27.1228 27.8859 26.8907 27.4774 26.7265 27.2688C26.6509 27.1727 26.5523 27.0941 26.5077 27.0941C26.463 27.0941 26.5346 27.2176 26.6669 27.3686ZM89.9115 27.4387C90.0627 27.6284 90.2047 27.7654 90.2269 27.7432C90.2803 27.6898 89.8172 27.1068 89.7156 27.0996C89.6722 27.0966 89.7603 27.2493 89.9115 27.4387ZM10.8819 27.9675C10.804 28.1185 10.7174 28.2644 10.689 28.2919C10.6321 28.3473 10.2226 29.199 10.0654 29.5895C9.83382 30.1642 9.80413 30.252 9.74324 30.5378C9.55384 31.4304 9.47823 31.9013 9.42707 32.5091L9.37018 33.1829L5.71315 33.1844C2.1557 33.1859 1.53135 33.2346 1.90641 33.4809C2.03941 33.5682 2.03941 33.5797 1.90641 33.5834C1.81607 33.5859 1.86074 33.652 2.01895 33.7501C2.16319 33.8397 2.35733 34.0855 2.45041 34.2966C2.54349 34.5075 2.66127 34.6801 2.71193 34.6801C2.76283 34.6801 2.93077 34.8833 3.08524 35.1313C3.2397 35.3796 3.39717 35.5518 3.43485 35.5141C3.47253 35.4762 3.50347 35.5203 3.50347 35.6117C3.50347 35.7033 3.54839 35.7781 3.60329 35.7781C3.65819 35.7781 3.7031 35.8754 3.7031 35.9945C3.7031 36.1133 3.73155 36.1821 3.76649 36.1472C3.84734 36.0666 4.41504 36.774 4.35166 36.8766C4.32546 36.9188 4.39358 36.9767 4.50263 37.0051C4.61193 37.0336 4.70127 37.1286 4.70127 37.2162C4.70127 37.3036 4.74094 37.3752 4.78935 37.3752C4.83801 37.3752 4.90115 37.465 4.92985 37.5748C4.98699 37.7937 10.5026 37.8972 10.6358 37.6819C10.6673 37.6312 10.5627 37.3056 10.4033 36.9582C9.7365 35.5056 9.42508 33.9919 9.53088 32.7217C9.64093 31.4029 9.70731 30.9413 9.80163 30.8422C9.85104 30.7901 9.89172 30.6436 9.89172 30.5166C9.89172 30.3895 9.93314 30.2076 9.98355 30.1123C10.034 30.017 10.1702 29.6898 10.2862 29.3854C10.4023 29.0812 10.6516 28.5759 10.8402 28.2624C11.0289 27.9493 11.1474 27.693 11.1035 27.693C11.0593 27.693 10.9598 27.8165 10.8819 27.9675ZM73.9983 28.1092C73.6938 28.67 73.766 28.6902 74.0999 28.1374C74.2473 27.8929 74.3357 27.6932 74.2957 27.6937C74.2561 27.6942 74.1221 27.8812 73.9983 28.1092ZM27.15 28.0424C27.3182 28.368 27.4564 28.5484 27.4557 28.4416C27.4552 28.3867 27.3631 28.2295 27.2508 28.0923C27.1153 27.9266 27.0813 27.9099 27.15 28.0424ZM90.623 28.5849C90.8263 28.9657 91.0057 29.2402 91.0222 29.1947C91.0384 29.1493 90.9354 28.9165 90.7931 28.6772C90.6509 28.4379 90.5089 28.1634 90.4775 28.0673C90.446 27.9712 90.3826 27.8926 90.337 27.8926C90.2911 27.8926 90.4198 28.2041 90.623 28.5849ZM27.8657 29.4587C27.8881 29.718 28.0443 29.9379 28.0513 29.7203C28.0551 29.6 28.0134 29.4737 27.9585 29.4398C27.9036 29.4058 27.8619 29.4143 27.8657 29.4587ZM91.1393 29.6624C91.41 30.552 91.5325 30.9884 91.6309 31.4127C91.7751 32.034 91.7726 34.0473 91.6271 34.6537C91.3908 35.6384 91.1011 36.5422 90.876 36.9976C90.4622 37.8343 90.2142 37.7745 94.0868 37.7745H97.5305V35.4787V33.1829H94.6857H91.841V32.5356C91.841 32.1795 91.7916 31.6742 91.7309 31.4127C91.5141 30.4744 91.4207 30.1358 91.3321 29.9651C91.2825 29.8697 91.2421 29.7265 91.2421 29.6467C91.2421 29.5668 91.2001 29.4755 91.1487 29.4438C91.0918 29.4086 91.0881 29.4939 91.1393 29.6624ZM73.1753 29.8331C73.1753 29.9671 73.1354 30.1016 73.0865 30.1318C73.0378 30.162 72.9689 30.3554 72.9335 30.5617C72.7843 31.4339 72.6722 32.1678 72.6141 32.6589L72.5517 33.1829H50.6121H28.6724L28.6218 32.4093C28.5544 31.3847 28.4573 30.7589 28.3475 30.6426C28.2984 30.5904 28.2579 30.4472 28.2579 30.3242C28.2579 30.2011 28.2178 30.0756 28.1688 30.0452C28.1189 30.0145 28.1224 30.1555 28.1763 30.3638C28.4226 31.3158 28.4803 31.7134 28.5262 32.7799C28.5896 34.2459 28.2562 35.8794 27.6453 37.0967C27.543 37.3003 27.4594 37.5361 27.4594 37.6207C27.4594 37.7587 29.8378 37.7745 50.6667 37.7745C63.5882 37.7745 73.874 37.7363 73.874 37.6884C73.874 37.6412 73.7443 37.3155 73.5855 36.9647C72.5747 34.7298 72.4716 32.4889 73.2614 29.9139C73.3213 29.7185 73.324 29.5895 73.2681 29.5895C73.217 29.5895 73.1753 29.6991 73.1753 29.8331Z" fill="#001B39"/>
</svg>
