<svg width="101" height="52" viewBox="0 0 101 52" fill="none" xmlns="http://www.w3.org/2000/svg">
<g clip-path="url(#clip0_22_571)">
<path fill-rule="evenodd" clip-rule="evenodd" d="M16.8788 3.79133C16.8788 3.85221 16.7216 3.90188 16.5294 3.90188C16.3373 3.90188 16.1801 3.94679 16.1801 4.00169C16.1801 4.05659 16.0453 4.10151 15.8806 4.10151C15.7159 4.10151 15.5812 4.14642 15.5812 4.20132C15.5812 4.25622 15.424 4.30114 15.2318 4.30114C15.0397 4.30114 14.8824 4.35105 14.8824 4.41193C14.8824 4.47931 14.7482 4.50701 14.5401 4.48256C14.3372 4.45885 14.2049 4.48505 14.2157 4.54669C14.2257 4.60383 14.0877 4.66447 13.9092 4.68169C13.7308 4.69891 13.5848 4.75506 13.5848 4.80646C13.5848 4.85787 13.4501 4.90004 13.2854 4.90004C13.1207 4.90004 12.9859 4.94495 12.9859 4.99985C12.9859 5.05475 12.8539 5.09967 12.6925 5.09967C12.531 5.09967 12.3683 5.14883 12.3311 5.20897C12.294 5.26936 12.1357 5.2998 11.9798 5.27684C11.8041 5.25114 11.6766 5.28558 11.6454 5.36718C11.6175 5.43955 11.4837 5.49894 11.3479 5.49894C11.2122 5.49894 11.0735 5.54386 11.0395 5.59875C11.0056 5.65365 10.8708 5.69857 10.7401 5.69857C10.6093 5.69857 10.4746 5.74348 10.4406 5.79838C10.4067 5.85328 10.2495 5.8982 10.0913 5.8982C9.93305 5.8982 9.77584 5.94312 9.7419 5.99802C9.70797 6.05292 9.54801 6.09784 9.38656 6.09784C9.2251 6.09784 9.0931 6.14275 9.0931 6.19765C9.0931 6.25255 8.96109 6.29747 8.79964 6.29747C8.63818 6.29747 8.47598 6.34613 8.4393 6.40527C8.40262 6.46466 8.26986 6.48762 8.14434 6.45593C7.99362 6.41825 7.8968 6.44944 7.85887 6.54776C7.78999 6.72768 7.29915 6.74839 7.29016 6.57196C7.28667 6.50334 7.24125 6.553 7.1896 6.68251C7.11549 6.86717 7.04412 6.90485 6.85696 6.85769C6.69052 6.81601 6.59993 6.84646 6.55701 6.95825C6.51634 7.06406 6.42326 7.09974 6.28401 7.06331C6.16249 7.03162 6.00877 7.07179 5.92293 7.15763C5.84083 7.23973 5.70807 7.28216 5.62847 7.25146C5.54862 7.22077 5.39216 7.25995 5.28061 7.33805C5.16882 7.41616 5.01086 7.45459 4.92926 7.4234C4.84766 7.39195 4.7456 7.4234 4.70242 7.49327C4.65925 7.56289 4.4978 7.62003 4.34359 7.62003C4.18937 7.62003 4.00521 7.67768 3.93459 7.7483C3.86422 7.81892 3.71574 7.85311 3.60494 7.82416C3.48566 7.79297 3.40356 7.82016 3.40356 7.89103C3.40356 8.04151 3.69079 8.0208 7.39622 7.60257C8.55733 7.47156 8.98529 7.38921 9.04993 7.28465C9.08012 7.23574 9.21188 7.19581 9.34264 7.19581C9.4734 7.19581 9.60815 7.1509 9.64209 7.096C9.67602 7.0411 9.79156 6.99618 9.89886 6.99618C10.0062 6.99618 10.1719 6.95526 10.2672 6.9051C10.4177 6.826 13.8601 5.70181 16.779 4.77851C17.3005 4.61357 17.8053 4.43864 17.9006 4.38973C17.996 4.34107 18.1617 4.30114 18.269 4.30114C18.3763 4.30114 18.4918 4.25622 18.5257 4.20132C18.5597 4.14642 18.6882 4.10151 18.8112 4.10151C18.9342 4.10151 19.0775 4.06033 19.1296 4.01017C19.1818 3.95977 19.3368 3.89863 19.474 3.87393C19.6112 3.84947 19.1546 3.82302 18.4591 3.81553C17.7636 3.8083 17.1236 3.77486 17.0367 3.74142C16.9499 3.70823 16.8788 3.73069 16.8788 3.79133ZM27.3096 3.92433C27.1449 3.97973 26.932 4.06483 26.8367 4.11324C26.7414 4.16165 26.5724 4.20132 26.4611 4.20132C26.3498 4.20132 26.1809 4.24175 26.0856 4.29141C25.9903 4.34106 25.71 4.43689 25.463 4.50452C24.6487 4.7276 24.4211 4.79373 23.816 4.98438C23.4866 5.08794 23.015 5.22893 22.7679 5.29756C22.5209 5.36618 22.2065 5.45726 22.0692 5.50018C21.7995 5.58428 20.7818 5.87849 19.8234 6.14924C19.494 6.24232 19.1656 6.3359 19.0934 6.35711C18.7798 6.44994 19.1356 6.59692 19.6736 6.59692C19.9965 6.59692 20.2885 6.64183 20.3224 6.69673C20.3564 6.75163 20.6421 6.79655 20.9573 6.79655C21.2724 6.79655 21.5729 6.83747 21.625 6.88763C21.6772 6.93754 21.9781 7.00492 22.2938 7.03736C22.6095 7.06955 23.126 7.12245 23.4417 7.15464C23.7574 7.18708 24.0583 7.25446 24.1105 7.30436C24.1626 7.35452 24.4631 7.39545 24.7782 7.39545C25.0934 7.39545 25.3791 7.44036 25.4131 7.49526C25.447 7.55016 25.7327 7.59508 26.0479 7.59508C26.3631 7.59508 26.6635 7.636 26.7157 7.68616C26.7678 7.73607 27.0688 7.80345 27.3844 7.83589C27.7001 7.86808 28.2167 7.92098 28.5323 7.95317C28.848 7.98561 29.1489 8.05299 29.2011 8.10289C29.2533 8.15305 29.5537 8.19398 29.8689 8.19398C30.184 8.19398 30.4698 8.23889 30.5037 8.29379C30.5376 8.34869 30.8126 8.39361 31.1151 8.39361C31.4173 8.39361 31.7404 8.43254 31.8328 8.47995C31.9253 8.52761 32.2889 8.5915 32.641 8.62169L33.2811 8.67709L30.8451 6.23957C28.1658 3.55876 28.2434 3.60941 27.3096 3.92433ZM33.4069 5.12238C35.0618 6.73217 35.0454 6.70297 35.0454 8.03477V9.08334L35.3698 9.1315C35.5482 9.15796 36.2781 9.27175 36.9918 9.38479C37.7055 9.49758 38.7346 9.61661 39.2786 9.64905C39.8226 9.68174 40.3755 9.74937 40.5078 9.79953C41.332 10.1129 41.2524 9.90857 40.0866 8.72001L38.9382 7.54891V5.67561V3.80206H35.4938H32.0494L33.4069 5.12238ZM46.3533 7.5322C49.1871 10.3378 50.205 11.286 50.4458 11.3447C50.6222 11.3874 54.0177 11.4378 57.9916 11.4565L65.2168 11.4904L64.5296 11.0228C64.1516 10.7652 63.5279 10.3238 63.1437 10.0416C60.2682 7.92947 55.4962 5.39837 54.3908 5.39912C54.2979 5.39912 54.1974 5.35944 54.1674 5.31078C54.1372 5.26212 53.9887 5.19849 53.837 5.16929C53.6853 5.1401 53.3816 5.06448 53.162 5.00135C52.9424 4.93847 52.5943 4.84489 52.3884 4.79348C52.1826 4.74233 51.8232 4.65225 51.5899 4.5936C49.8808 4.1634 47.6245 3.92034 44.6776 3.84872L42.5815 3.79782L46.3533 7.5322ZM18.1267 16.4585C17.6878 16.4747 17.2858 16.5309 17.2334 16.5833C17.1812 16.6354 17.043 16.6784 16.9262 16.6784C16.5811 16.6784 15.3012 17.1485 14.5927 17.5355C10.0925 19.9938 8.30929 25.1695 10.395 29.7196C10.5579 30.0747 10.6535 30.4221 10.6218 30.5431C10.5903 30.6634 10.6145 30.7525 10.6784 30.7525C10.7398 30.7525 10.79 30.8323 10.79 30.9301C10.79 31.0277 10.8798 31.1725 10.9896 31.2516C11.0994 31.3307 11.1892 31.4577 11.1892 31.5335C11.1892 31.7227 13.1394 33.6472 13.331 33.6472C13.4156 33.6472 13.485 33.6846 13.485 33.73C13.485 33.7757 13.6085 33.8765 13.7595 33.9541C13.9105 34.0314 14.1066 34.1739 14.1955 34.2703C14.2843 34.3668 14.4303 34.4457 14.5199 34.4457C14.6094 34.4457 14.6828 34.4906 14.6828 34.5455C14.6828 34.6004 14.7699 34.6453 14.8765 34.6453C14.983 34.6453 15.098 34.6902 15.132 34.7451C15.1659 34.8 15.3034 34.8449 15.4374 34.8449C15.5714 34.8449 15.681 34.8899 15.681 34.9448C15.681 34.9997 15.7905 35.0446 15.9245 35.0446C16.0585 35.0446 16.196 35.0895 16.23 35.1444C16.2639 35.1993 16.4436 35.2442 16.6292 35.2442C16.8149 35.2442 16.9946 35.2891 17.0285 35.344C17.0662 35.4052 17.8612 35.4438 19.0807 35.4438C20.3412 35.4438 21.0711 35.4072 21.0711 35.344C21.0711 35.2891 21.2507 35.2442 21.4703 35.2442C21.6899 35.2442 21.8696 35.1993 21.8696 35.1444C21.8696 35.0895 22.0043 35.0446 22.169 35.0446C22.3337 35.0446 22.4685 34.9997 22.4685 34.9448C22.4685 34.8899 22.5541 34.8449 22.6586 34.8449C22.8253 34.8449 23.6301 34.4821 23.7661 34.3456C23.7936 34.3182 23.9395 34.2321 24.0905 34.1542C24.2415 34.0764 24.365 33.9753 24.365 33.9296C24.365 33.8842 24.4359 33.8468 24.5225 33.8468C24.6093 33.8468 24.8451 33.6783 25.0465 33.4725C25.2481 33.2666 25.5351 33.0353 25.6841 32.9584C25.8333 32.8816 25.9316 32.7805 25.9029 32.7338C25.874 32.6872 25.9204 32.649 26.006 32.649C26.0916 32.649 26.1617 32.6128 26.1617 32.5686C26.1617 32.5245 26.3229 32.3124 26.52 32.097C26.7172 31.8819 26.943 31.5812 27.0216 31.4287C27.1005 31.2765 27.2088 31.1517 27.2622 31.1517C27.3158 31.1517 27.3595 31.0619 27.3595 30.9521C27.3595 30.8423 27.3932 30.7525 27.4344 30.7525C27.4755 30.7525 27.5135 30.6065 27.5187 30.4281C27.5239 30.2497 27.6442 29.8342 27.7857 29.5048C28.03 28.9361 28.2054 28.3027 28.4652 27.0515C28.5743 26.5265 28.559 25.9059 28.3993 24.3877C28.3631 24.0436 28.294 23.7376 28.2456 23.7079C28.1974 23.6782 28.158 23.5243 28.158 23.3661C28.158 23.2079 28.1131 23.0506 28.0582 23.0167C28.0033 22.9828 27.9584 22.848 27.9584 22.7173C27.9584 22.5865 27.9135 22.4517 27.8586 22.4178C27.8037 22.3839 27.7588 22.2688 27.7588 22.1623C27.7588 22.0557 27.7138 21.9686 27.6589 21.9686C27.604 21.9686 27.5591 21.8788 27.5591 21.769C27.5591 21.6592 27.5142 21.5694 27.4593 21.5694C27.4044 21.5694 27.3595 21.4795 27.3595 21.3697C27.3595 21.2599 27.3146 21.1701 27.2597 21.1701C27.2048 21.1701 27.1599 21.1212 27.1599 21.0616C27.1599 20.8826 26.5497 20.0631 25.9122 19.3864C25.0405 18.4608 24.2495 17.8869 23.0674 17.3224C22.7654 17.1782 22.4403 17.0192 22.345 16.9691C22.2496 16.9189 22.0839 16.878 21.9766 16.878C21.8693 16.878 21.7538 16.8331 21.7199 16.7782C21.6859 16.7233 21.5232 16.6784 21.358 16.6784C21.1931 16.6784 20.9822 16.6392 20.8899 16.5915C20.6885 16.4872 19.2352 16.4173 18.1267 16.4585ZM81.3105 16.4585C80.8715 16.4747 80.4695 16.5309 80.4171 16.5833C80.365 16.6354 80.2267 16.6784 80.1099 16.6784C78.7282 16.6784 75.7794 18.6433 74.4177 20.4714C72.6018 22.9092 72.2516 26.8032 73.5847 29.7428C73.7451 30.0969 73.852 30.4645 73.822 30.5591C73.7918 30.6539 73.825 30.7924 73.8954 30.8668C73.966 30.9411 74.0873 31.1255 74.1654 31.2765C74.2432 31.4275 74.3443 31.551 74.39 31.551C74.4354 31.551 74.4728 31.6159 74.4728 31.695C74.4728 31.7743 74.6413 31.9969 74.8471 32.1896C75.053 32.3822 75.4857 32.789 75.8089 33.0934C76.1318 33.3981 76.4477 33.6472 76.5103 33.6472C76.5732 33.6472 76.6877 33.7345 76.7648 33.8415C76.8417 33.9483 76.9378 34.0152 76.9785 33.9903C77.0189 33.9653 77.1117 34.004 77.1848 34.0766C77.2577 34.149 77.4636 34.2727 77.642 34.3514C77.8204 34.43 77.9664 34.5283 77.9664 34.57C77.9664 34.6114 78.0562 34.6453 78.166 34.6453C78.2758 34.6453 78.3656 34.6902 78.3656 34.7451C78.3656 34.8 78.4527 34.8449 78.5593 34.8449C78.6658 34.8449 78.7809 34.8899 78.8148 34.9448C78.8488 34.9997 78.9835 35.0446 79.1143 35.0446C79.245 35.0446 79.3798 35.0895 79.4137 35.1444C79.4477 35.1993 79.6273 35.2442 79.813 35.2442C79.9986 35.2442 80.1783 35.2891 80.2122 35.344C80.2499 35.4052 81.045 35.4438 82.2645 35.4438C83.5249 35.4438 84.2548 35.4072 84.2548 35.344C84.2548 35.2891 84.4345 35.2442 84.6541 35.2442C84.8737 35.2442 85.0533 35.1993 85.0533 35.1444C85.0533 35.0895 85.1881 35.0446 85.3528 35.0446C85.5175 35.0446 85.6522 34.9997 85.6522 34.9448C85.6522 34.8899 85.7645 34.8449 85.9018 34.8449C86.039 34.8449 86.1513 34.8 86.1513 34.7451C86.1513 34.6902 86.2412 34.6453 86.351 34.6453C86.4608 34.6453 86.5506 34.6004 86.5506 34.5455C86.5506 34.4906 86.6404 34.4457 86.7502 34.4457C86.86 34.4457 86.9499 34.4008 86.9499 34.3459C86.9499 34.291 87.0297 34.246 87.1275 34.246C87.2251 34.246 87.3698 34.1562 87.4489 34.0464C87.528 33.9366 87.6628 33.8468 87.7484 33.8468C87.834 33.8468 87.9687 33.7569 88.0478 33.6472C88.1269 33.5374 88.2492 33.4475 88.3193 33.4475C88.3897 33.4475 88.4471 33.4026 88.4471 33.3477C88.4471 33.2928 88.4953 33.2479 88.5542 33.2479C88.7019 33.2479 88.9507 32.9861 88.8748 32.9105C88.8409 32.8763 88.8676 32.8486 88.9342 32.8486C89.0006 32.8486 89.1673 32.7363 89.3045 32.5991C89.4418 32.4618 89.5331 32.3495 89.5074 32.3495C89.4819 32.3495 89.6369 32.1606 89.8523 31.9298C90.0676 31.6987 90.2438 31.4392 90.2438 31.3529C90.2438 31.2665 90.3336 31.131 90.4434 31.0519C90.5739 30.9578 90.6431 30.7936 90.6431 30.5768C90.6431 30.3946 90.7364 30.0625 90.8504 29.8389C91.3183 28.9218 91.63 27.6532 91.7049 26.3606C91.7548 25.5006 91.483 23.4966 91.2345 22.8919C91.1836 22.7684 91.103 22.5663 91.0551 22.4428C90.8729 21.9736 90.4903 21.2188 90.4185 21.1868C90.3773 21.1684 90.3436 21.1092 90.3436 21.0551C90.3436 20.8674 89.7053 20.019 89.0527 19.3397C88.1352 18.3845 87.4662 17.9026 86.2511 17.3224C85.9492 17.1782 85.624 17.0192 85.5287 16.9691C85.4334 16.9189 85.2677 16.878 85.1604 16.878C85.0531 16.878 84.9376 16.8331 84.9036 16.7782C84.8697 16.7233 84.707 16.6784 84.5418 16.6784C84.3768 16.6784 84.166 16.6387 84.0736 16.5903C83.8738 16.486 82.4299 16.4169 81.3105 16.4585ZM20.2855 21.2425C21.5574 21.5966 23.3668 23.1582 23.3668 23.9021C23.3668 23.9852 23.4118 24.0808 23.4667 24.1147C23.5216 24.1486 23.5665 24.2834 23.5665 24.4141C23.5665 24.5449 23.6114 24.6796 23.6663 24.7136C23.8462 24.8249 23.7788 26.246 23.5577 26.9986C23.2196 28.15 22.6536 28.981 21.8142 29.5584L21.3905 29.8501L21.4054 29.3438C21.4224 28.7704 21.0701 28.3584 20.562 28.3574C18.796 28.3539 16.4887 25.9875 16.4805 24.1711C16.4788 23.7656 16.1102 23.4659 15.6136 23.4659C14.4477 23.4659 16.5806 21.5379 18.004 21.3054C18.2111 21.2714 18.4067 21.2013 18.4387 21.1494C18.5085 21.0366 19.7749 21.1002 20.2855 21.2425ZM83.4708 21.2427C85.3992 21.7792 86.9499 23.7536 86.9499 25.6723C86.9499 27.0989 86.0944 28.8041 85.0019 29.5557L84.5742 29.8501L84.5892 29.3438C84.6067 28.7557 84.2523 28.3596 83.7058 28.3559C83.4021 28.3539 82.7181 28.151 82.5931 28.026C82.5554 27.9883 82.4536 27.9571 82.3665 27.9566C81.837 27.9534 80.3091 26.373 79.9961 25.5049C79.7578 24.8438 79.6633 24.4863 79.6633 24.2459C79.6633 23.788 79.3099 23.4659 78.8076 23.4659C77.6215 23.4659 79.7406 21.5354 81.179 21.3054C81.3908 21.2714 81.5905 21.2013 81.6224 21.1494C81.6923 21.0364 82.9587 21.1005 83.4708 21.2427Z" fill="#363E2E"/>
<path fill-rule="evenodd" clip-rule="evenodd" d="M25.1143 1.00655C25.0801 1.06195 24.9226 1.10711 24.7644 1.10711C24.6062 1.10711 24.449 1.15203 24.415 1.20693C24.3811 1.26183 24.2436 1.30674 24.1096 1.30674C23.9756 1.30674 23.8661 1.35166 23.8661 1.40656C23.8661 1.46146 23.7313 1.50638 23.5666 1.50638C23.4019 1.50638 23.2672 1.5513 23.2672 1.6062C23.2672 1.6611 23.1127 1.70601 22.9238 1.70601C22.7349 1.70601 22.5525 1.75093 22.5185 1.80583C22.4846 1.86072 22.3498 1.90564 22.2191 1.90564C22.0883 1.90564 21.9536 1.95056 21.9196 2.00546C21.8857 2.06036 21.7257 2.10528 21.5643 2.10528C21.4028 2.10528 21.2708 2.15019 21.2708 2.20509C21.2708 2.25999 21.1388 2.30491 20.9774 2.30491C20.8159 2.30491 20.656 2.34983 20.622 2.40473C20.5881 2.45963 20.4281 2.50454 20.2667 2.50454C20.1052 2.50454 19.9732 2.54946 19.9732 2.60436C19.9732 2.65926 19.8385 2.70417 19.6738 2.70417C19.5091 2.70417 19.3743 2.74909 19.3743 2.80399C19.3743 2.85889 19.2396 2.90381 19.0749 2.90381C18.9102 2.90381 18.7754 2.94872 18.7754 3.00362C18.7754 3.05852 18.621 3.10344 18.4321 3.10344C18.2432 3.10344 18.0607 3.14836 18.0268 3.20326C17.9929 3.25816 17.8329 3.30307 17.6715 3.30307C17.51 3.30307 17.378 3.34799 17.378 3.40289C17.378 3.45779 17.2684 3.5027 17.1344 3.5027C17.0004 3.5027 16.8637 3.54662 16.8305 3.60003C16.7926 3.66141 17.3638 3.70758 18.3719 3.7248C19.8043 3.74925 20.5294 3.884 19.7736 3.98532C19.6363 4.00354 19.4814 4.05968 19.4292 4.11009C19.3771 4.16025 19.2338 4.20142 19.1108 4.20142C18.9878 4.20142 18.8593 4.24634 18.8253 4.30124C18.7914 4.35613 18.6759 4.40105 18.5686 4.40105C18.4613 4.40105 18.2956 4.44198 18.2002 4.49213C18.1049 4.54204 16.9488 4.92908 15.6312 5.3518C14.3136 5.77453 12.3822 6.40287 11.3391 6.74823C8.7042 7.62038 8.73689 7.61364 5.30021 7.99744C4.77867 8.05583 4.03454 8.14492 3.64651 8.19532C2.93606 8.2879 2.24409 8.23699 2.15026 8.08527C1.91369 7.70223 1.80664 8.17835 1.80664 9.61546V11.1152L3.47856 11.077L5.15049 11.0388V15.1812V19.3236L3.47856 19.2854L1.80664 19.2472V22.665C1.80664 25.7403 1.82236 26.0764 1.9646 26.022C2.05144 25.9886 3.75306 25.9614 5.74639 25.9614H9.37023L9.42712 25.2876C9.50024 24.4195 9.73056 23.203 9.89925 22.7922C9.95016 22.6687 10.0308 22.4666 10.0787 22.343C10.2608 21.8739 10.6434 21.119 10.7153 21.0871C10.7564 21.0686 10.7901 20.9985 10.7901 20.9311C10.7901 20.8638 10.8687 20.7215 10.9648 20.615C11.0609 20.5084 11.273 20.2417 11.4359 20.0223C12.4224 18.6945 14.2171 17.3779 15.731 16.8711C15.9506 16.7977 16.173 16.7017 16.2251 16.658C16.2773 16.6143 16.4367 16.5787 16.5795 16.5787C16.7222 16.5787 16.8817 16.538 16.9338 16.4881C17.2415 16.1939 20.9097 16.1936 21.2159 16.4876C21.2681 16.5377 21.4338 16.5787 21.5843 16.5787C21.7347 16.5787 21.8857 16.6236 21.9196 16.6785C21.9536 16.7334 22.0691 16.7783 22.1764 16.7783C22.2837 16.7783 22.4494 16.8182 22.5447 16.8671C22.6401 16.916 22.9428 17.062 23.2173 17.1915C23.4917 17.321 23.7313 17.4608 23.7495 17.502C23.768 17.5431 23.8266 17.5768 23.8798 17.5768C24.2217 17.5768 25.8679 18.9785 26.5646 19.8624C27.167 20.6267 28.0583 22.2457 28.0583 22.5756C28.0583 22.6744 28.1033 22.7832 28.1582 22.8172C28.2131 22.8511 28.258 22.9796 28.258 23.1026C28.258 23.2257 28.2984 23.3689 28.3476 23.4211C28.4574 23.5373 28.5544 24.1632 28.6218 25.1878L28.6725 25.9614H50.6121H72.5517L72.6141 25.4374C72.6723 24.9463 72.7843 24.2124 72.9335 23.3402C72.969 23.1338 73.0378 22.9404 73.0865 22.9103C73.1354 22.8801 73.1753 22.7456 73.1753 22.6116C73.1753 22.4775 73.2203 22.368 73.2752 22.368C73.3301 22.368 73.375 22.2557 73.375 22.1185C73.375 21.9812 73.4199 21.8689 73.4748 21.8689C73.5297 21.8689 73.5746 21.7828 73.5746 21.6775C73.5746 21.5725 73.6083 21.4714 73.6495 21.4529C73.6906 21.4347 73.8334 21.2176 73.9664 20.9706C74.0996 20.7235 74.2344 20.4989 74.2658 20.4715C74.2975 20.444 74.5029 20.1972 74.7225 19.923C75.8362 18.5326 77.2434 17.5134 78.9647 16.8511C79.1019 16.7982 79.2923 16.7154 79.3877 16.6667C79.483 16.6183 79.6649 16.5787 79.7919 16.5787C79.9189 16.5787 80.0654 16.538 80.1176 16.4881C80.4307 16.1886 84.227 16.1914 84.4122 16.4911C84.4419 16.5392 84.5958 16.5787 84.754 16.5787C84.9123 16.5787 85.0695 16.6236 85.1034 16.6785C85.1373 16.7334 85.2529 16.7783 85.3602 16.7783C85.4675 16.7783 85.6332 16.8182 85.7285 16.8671C85.8238 16.916 86.1265 17.0608 86.401 17.1885C87.7752 17.8286 89.9402 19.7056 90.234 20.5117C90.2559 20.5718 90.3008 20.6437 90.3338 20.6711C90.4516 20.7694 90.9778 21.7748 91.1565 22.2432C91.2037 22.3668 91.2818 22.5689 91.3304 22.6924C91.4223 22.9252 91.5423 23.3746 91.731 24.1911C91.7916 24.4527 91.841 24.958 91.841 25.3141V25.9614H94.7389C97.4098 25.9614 97.6411 25.9477 97.695 25.7867C97.839 25.3568 97.9845 25.063 98.0541 25.063C98.0955 25.063 98.1294 25.0012 98.1294 24.9255C98.1294 24.8499 98.2065 24.6141 98.3011 24.4015C98.3954 24.1889 98.4805 23.9701 98.49 23.9152C98.5352 23.6584 98.6587 23.3662 98.7218 23.3662C98.7605 23.3662 98.8531 23.1416 98.928 22.8671C99.0028 22.5926 99.1006 22.368 99.1456 22.368C99.1907 22.368 99.2274 22.2782 99.2274 22.1684C99.2274 22.0586 99.2723 21.9687 99.3272 21.9687C99.4899 21.9687 99.4408 21.5962 99.2691 21.5303C99.1823 21.4969 97.9021 21.4697 96.4243 21.4697H93.7375V20.5294V19.5889L96.1249 19.5562C98.2557 19.5267 98.9704 19.4496 98.5367 19.2959C98.4586 19.2682 98.2692 19.1172 98.1157 18.9603C97.9622 18.8033 97.8103 18.6748 97.7781 18.6748C97.6413 18.6748 97.0384 18.2022 97.0986 18.142C97.1348 18.1056 97.0963 18.0759 97.013 18.0759C96.9296 18.0759 96.7205 17.9411 96.5481 17.7764C96.3757 17.6117 96.1942 17.477 96.1446 17.477C96.0949 17.477 95.9128 17.3445 95.7396 17.1828C95.5662 17.0211 95.4079 16.8976 95.3875 16.9083C95.3673 16.919 95.237 16.8294 95.0985 16.7087C94.8535 16.4958 94.293 16.1709 94.1854 16.1796C94.1562 16.1819 94.0225 16.0741 93.8882 15.9398C93.754 15.8056 93.5529 15.6668 93.4413 15.6314C93.3298 15.596 93.2384 15.5251 93.2384 15.4739C93.2384 15.4228 93.1691 15.3809 93.0845 15.3809C92.9999 15.3809 92.8342 15.291 92.7164 15.1812C92.5986 15.0714 92.4431 14.9816 92.3713 14.9816C92.2992 14.9816 92.2403 14.9367 92.2403 14.8818C92.2403 14.8269 92.1504 14.782 92.0406 14.782C91.9308 14.782 91.841 14.737 91.841 14.6821C91.841 14.6272 91.7512 14.5823 91.6414 14.5823C91.5316 14.5823 91.4417 14.5374 91.4417 14.4825C91.4417 14.4276 91.3519 14.3827 91.2421 14.3827C91.1323 14.3827 91.0425 14.3378 91.0425 14.2829C91.0425 14.228 90.9526 14.1831 90.8428 14.1831C90.733 14.1831 90.6432 14.1381 90.6432 14.0832C90.6432 14.0283 90.5309 13.9834 90.3937 13.9834C90.2564 13.9834 90.1441 13.9385 90.1441 13.8836C90.1441 13.8287 90.0318 13.7838 89.8946 13.7838C89.7573 13.7838 89.6451 13.7486 89.6451 13.7057C89.6451 13.6628 89.4429 13.5679 89.1959 13.4951C88.9488 13.4222 88.7467 13.3226 88.7467 13.2737C88.7467 13.2248 88.6119 13.1849 88.4472 13.1849C88.2825 13.1849 88.1478 13.14 88.1478 13.0851C88.1478 13.0302 88.0168 12.9853 87.8566 12.9853C87.6966 12.9853 87.5506 12.9423 87.5322 12.8899C87.514 12.8373 87.3306 12.7831 87.1247 12.7697C86.9188 12.7559 86.7504 12.709 86.7504 12.6653C86.7504 12.6217 86.6184 12.586 86.4569 12.586C86.2955 12.586 86.1385 12.5458 86.108 12.4967C86.0779 12.4475 85.8842 12.3821 85.6781 12.3509C85.4717 12.3197 85.0335 12.2449 84.7041 12.1845C84.3747 12.1238 83.8946 12.0652 83.6373 12.0537C83.3801 12.0422 83.138 12.0013 83.0996 11.9629C83.0612 11.9245 80.2398 11.8918 76.8299 11.8903C73.4199 11.8885 70.093 11.8576 69.4367 11.8212L68.2434 11.7553L66.8914 10.8432C66.1478 10.3414 64.921 9.50641 64.1654 8.98761C62.7221 7.99669 60.3629 6.38266 58.0691 4.81679C56.4836 3.73478 56.4778 3.70234 57.8653 3.70234C58.5385 3.70234 58.8914 3.66666 58.8517 3.60252C58.8178 3.54762 58.7002 3.5027 58.5904 3.5027C58.4806 3.5027 58.4185 3.45779 58.4524 3.40289C58.4874 3.34649 58.4055 3.30307 58.2645 3.30307C58.1273 3.30307 57.9873 3.25816 57.9534 3.20326C57.9194 3.14836 57.8044 3.10344 57.6978 3.10344C57.5913 3.10344 57.5042 3.05852 57.5042 3.00362C57.5042 2.94872 57.3919 2.90381 57.2546 2.90381C57.1174 2.90381 57.0051 2.85889 57.0051 2.80399C57.0051 2.74909 56.8928 2.70417 56.7556 2.70417C56.6183 2.70417 56.506 2.65926 56.506 2.60436C56.506 2.54946 56.3685 2.50454 56.2006 2.50454C56.0227 2.50454 55.9211 2.46287 55.957 2.40473C55.9937 2.34509 55.8729 2.30491 55.6576 2.30491C55.4422 2.30491 55.3214 2.26473 55.3581 2.20509C55.3941 2.14695 55.2945 2.10528 55.1203 2.10528C54.9556 2.10528 54.7932 2.06036 54.7592 2.00546C54.7253 1.95056 54.5429 1.90564 54.354 1.90564C54.1651 1.90564 54.0106 1.86072 54.0106 1.80583C54.0106 1.75093 53.8309 1.70601 53.6113 1.70601C53.3917 1.70601 53.2121 1.66958 53.2121 1.62491C53.2121 1.58024 52.9987 1.53283 52.7379 1.51961C52.4772 1.50638 52.2488 1.45323 52.2306 1.40132C52.2122 1.34917 52.0015 1.30674 51.7622 1.30674C51.5232 1.30674 51.2996 1.26183 51.2657 1.20693C51.2317 1.15203 50.8921 1.10711 50.511 1.10711C50.123 1.10711 49.8183 1.06394 49.8183 1.00879C49.8183 0.871295 25.1991 0.869052 25.1143 1.00655ZM48.7702 3.884C49.2094 3.94289 49.7035 4.01726 49.8682 4.0497C50.0329 4.08189 50.4147 4.15501 50.7167 4.21215C51.8032 4.41777 53.1981 4.7806 54.4086 5.17213C55.852 5.63878 58.1383 6.64567 59.4256 7.38132C59.6315 7.49885 59.9607 7.68626 60.157 7.79755C61.8507 8.75679 65.5242 11.4426 65.2741 11.5387C65.0071 11.641 50.1999 11.5175 49.5688 11.4077C49.2394 11.3503 48.6555 11.2547 48.2712 11.1956C47.5942 11.091 47.1442 11.0199 45.6759 10.7843C45.2916 10.7227 44.7302 10.6346 44.4282 10.5884C42.8661 10.3501 42.4356 10.2815 41.9328 10.1912C40.741 9.97705 40.0505 9.87448 39.2378 9.79113C38.7711 9.74322 38.0974 9.65788 37.7405 9.60099C37.3837 9.54434 36.7998 9.45401 36.4429 9.40036C36.0861 9.3467 35.5471 9.25587 35.2451 9.19873C34.5861 9.07371 33.029 8.81318 32.2007 8.68916C30.9283 8.49876 30.1802 8.38348 29.5556 8.28216C29.1987 8.22427 28.6597 8.13918 28.3578 8.09301C27.3112 7.9333 26.4084 7.79331 25.8125 7.69799C25.4831 7.64558 24.8992 7.55425 24.5149 7.49536C24.1306 7.43647 23.5466 7.34514 23.2173 7.29273C22.8879 7.24008 22.3264 7.15324 21.9695 7.09984C21.6127 7.04644 21.0288 6.9566 20.6719 6.90021C20.3151 6.84381 19.7249 6.75821 19.3606 6.71005C18.444 6.58903 18.1675 6.37442 18.7505 6.23643C18.9014 6.20074 19.7886 5.94846 20.7218 5.67621C21.6551 5.40371 22.5759 5.1377 22.7681 5.08479C23.4678 4.8924 23.7268 4.81803 24.2653 4.65459C25.264 4.35139 26.0064 4.13205 26.4613 4.00553C26.7083 3.93691 27.0003 3.84333 27.1101 3.79741C27.4083 3.67264 47.8005 3.75449 48.7702 3.884ZM8.47238 11.4631C8.58941 11.7238 8.75935 12.1169 8.84968 12.3365C8.93977 12.5561 9.12143 12.9728 9.25319 13.2627C9.3847 13.5525 9.4925 13.8097 9.4925 13.8342C9.4925 13.8587 9.61927 14.1603 9.77448 14.505C10.2691 15.6044 10.322 15.7716 10.2177 15.9049C10.164 15.9735 9.98559 16.2767 9.82115 16.5787C9.65645 16.8806 9.42537 17.2961 9.30759 17.502C9.083 17.894 8.80552 18.3831 8.57868 18.7858C8.26925 19.3353 8.19763 19.3735 7.4807 19.3735H6.79746V15.1812V10.9889H7.52836H8.25902L8.47238 11.4631ZM40.2859 13.6812C40.866 13.7651 41.7983 13.9068 42.931 14.0832C44.0078 14.2509 44.9869 14.4002 45.626 14.4935C45.9829 14.5459 46.5443 14.6307 46.8737 14.6821C47.2031 14.7335 47.7646 14.8184 48.1214 14.8708C48.7605 14.9641 49.7397 15.1133 50.8165 15.281C51.1184 15.3282 51.6799 15.413 52.0642 15.4702C52.4485 15.5271 53.5265 15.689 54.4598 15.8298C55.3931 15.9705 57.055 16.2198 58.153 16.3833C59.251 16.5467 60.576 16.7476 61.0976 16.8292C61.6191 16.911 62.3602 17.0243 62.7445 17.0812C63.1288 17.1381 63.724 17.228 64.0671 17.2809C65.9986 17.5791 66.5363 17.6602 67.9849 17.872C70.0129 18.1685 70.0459 18.1879 69.7422 18.9144C69.3491 19.8554 68.6881 19.9879 65.9387 19.6765C64.8956 19.5584 63.6604 19.4197 63.1937 19.3685C62.7271 19.3174 61.9635 19.2298 61.4968 19.1739C61.0302 19.118 60.2217 19.0254 59.7001 18.968C59.1786 18.9109 58.3701 18.8198 57.9034 18.7661C57.4368 18.7122 56.6732 18.6266 56.2066 18.576C55.7399 18.5253 54.9763 18.4362 54.5097 18.3778C54.043 18.3197 53.257 18.2294 52.7629 18.1772C51.75 18.0702 50.6141 17.9416 49.2194 17.7764C48.0488 17.6377 46.839 17.4995 45.7258 17.3772C45.2592 17.326 44.4507 17.2352 43.9291 17.1753C43.4076 17.1157 42.6216 17.0273 42.1824 16.9792L41.3838 16.8913L40.2609 17.4458C39.0653 18.036 38.981 18.1385 39.4125 18.4752C39.5634 18.5929 40.1366 19.124 40.6864 19.6552C42.4017 21.3132 42.2103 21.1894 43.2015 21.2815C44.0659 21.3619 45.0568 21.4684 46.724 21.6608C47.1906 21.7145 48.0216 21.8083 48.5706 21.8689C49.1196 21.9296 49.9281 22.0194 50.3673 22.0686C50.8065 22.1177 51.615 22.2075 52.164 22.2682C52.713 22.3288 53.544 22.4214 54.0106 22.4738C54.4772 22.5262 55.2858 22.6148 55.8073 22.6707C57.0345 22.8022 58.2403 22.936 59.3009 23.0582C60.1303 23.1538 60.9256 23.2429 62.9442 23.466C69.9216 24.2373 69.4864 24.1669 69.9658 24.6014C70.901 25.4491 70.6922 25.8049 69.3075 25.7228C68.6624 25.6846 67.4159 25.6118 66.5376 25.5609C65.6592 25.51 64.1994 25.4211 63.2935 25.3635C61.532 25.2514 59.2934 25.1184 56.5559 24.963C55.6226 24.9101 52.2314 24.7099 49.0198 24.5188C45.8082 24.3274 42.3271 24.124 41.284 24.0669C38.6059 23.9199 38.7794 23.9658 38.2256 23.2554C37.9282 22.8736 35.579 19.9098 35.1488 19.3735C34.9948 19.1814 34.3885 18.418 33.8015 17.6769L32.7345 16.3299L33.4679 15.98C33.8712 15.7879 34.4024 15.5448 34.6482 15.4402C34.8943 15.3357 35.32 15.1498 35.5945 15.0273C36.1457 14.781 36.806 14.4872 37.6407 14.1167C37.9427 13.9824 38.3694 13.7855 38.589 13.6787C38.8587 13.5477 39.1015 13.5026 39.3376 13.5397C39.5297 13.5699 39.9565 13.6338 40.2859 13.6812Z" fill="#41479B"/>
<path fill-rule="evenodd" clip-rule="evenodd" d="M16.3664 3.74886C16.341 3.77456 16.1633 3.81474 15.9717 3.83869C15.78 3.8624 15.4511 3.95373 15.2408 4.04157C15.0301 4.12966 14.7928 4.20153 14.7135 4.20153C14.6339 4.20153 14.5054 4.26491 14.4277 4.34227C14.3504 4.41987 14.1964 4.45955 14.0856 4.4306C13.9723 4.40091 13.8842 4.42661 13.8842 4.48925C13.8842 4.55063 13.7345 4.60079 13.5516 4.60079C13.3684 4.60079 13.1878 4.63198 13.1496 4.66991C13.1117 4.70784 12.9827 4.75401 12.8629 4.77223C12.7431 4.79044 12.6208 4.83985 12.5909 4.88202C12.5612 4.9242 12.402 4.96836 12.2373 4.98009C12.0726 4.99207 11.7474 5.09114 11.5146 5.20044C11.282 5.30999 10.9589 5.39932 10.7969 5.39932C10.635 5.39932 10.4745 5.44424 10.4406 5.49914C10.4066 5.55404 10.2691 5.59896 10.1351 5.59896C10.0011 5.59896 9.89159 5.64387 9.89159 5.69877C9.89159 5.75367 9.73438 5.79859 9.54224 5.79859C9.35009 5.79859 9.19288 5.84351 9.19288 5.8984C9.19288 5.9533 9.02444 5.99897 8.81857 5.99972C8.54008 6.00096 8.48269 6.02617 8.59398 6.09804C8.70353 6.16891 8.63016 6.19511 8.31949 6.19636C8.08616 6.1971 7.89527 6.23978 7.89527 6.29093C7.89527 6.34234 7.77524 6.39848 7.62851 6.4157C7.48178 6.43317 7.34328 6.50354 7.32082 6.57216C7.26093 6.75433 7.78871 6.73062 7.85883 6.54796C7.89676 6.44964 7.99358 6.41845 8.14431 6.45613C8.26983 6.48782 8.40258 6.46486 8.43927 6.40547C8.47595 6.34633 8.63815 6.29767 8.7996 6.29767C8.96106 6.29767 9.09306 6.25275 9.09306 6.19785C9.09306 6.14295 9.22507 6.09804 9.38652 6.09804C9.54798 6.09804 9.70793 6.05312 9.74187 5.99822C9.77581 5.94332 9.93302 5.8984 10.0912 5.8984C10.2494 5.8984 10.4066 5.85348 10.4406 5.79859C10.4745 5.74369 10.6093 5.69877 10.74 5.69877C10.8708 5.69877 11.0055 5.65385 11.0395 5.59896C11.0734 5.54406 11.2122 5.49914 11.3479 5.49914C11.4837 5.49914 11.6174 5.43975 11.6454 5.36738C11.6766 5.28578 11.8041 5.25134 11.9798 5.27705C12.1357 5.3 12.2939 5.26956 12.3311 5.20917C12.3683 5.14903 12.531 5.09987 12.6924 5.09987C12.8539 5.09987 12.9859 5.05495 12.9859 5.00006C12.9859 4.94516 13.1207 4.90024 13.2853 4.90024C13.45 4.90024 13.5848 4.85532 13.5848 4.80042C13.5848 4.74552 13.7168 4.70061 13.8783 4.70061C14.0397 4.70061 14.1997 4.65569 14.2336 4.60079C14.2675 4.54589 14.4275 4.50097 14.589 4.50097C14.7504 4.50097 14.8824 4.45606 14.8824 4.40116C14.8824 4.34626 15.0396 4.30134 15.2318 4.30134C15.4239 4.30134 15.5811 4.25642 15.5811 4.20153C15.5811 4.14663 15.7159 4.10171 15.8806 4.10171C16.0453 4.10171 16.18 4.05679 16.18 4.00189C16.18 3.94699 16.3372 3.90208 16.5294 3.90208C16.7215 3.90208 16.8787 3.85716 16.8787 3.80226C16.8787 3.70344 16.456 3.65952 16.3664 3.74886ZM17.2031 3.77132C17.2992 3.79627 17.4564 3.79627 17.5525 3.77132C17.6486 3.74611 17.57 3.72565 17.3778 3.72565C17.1857 3.72565 17.1071 3.74611 17.2031 3.77132ZM18.2013 3.77581C18.4621 3.79627 18.8888 3.79627 19.1496 3.77581C19.4103 3.75535 19.197 3.73838 18.6754 3.73838C18.1539 3.73838 17.9405 3.75535 18.2013 3.77581ZM28.0639 3.7823C28.3803 3.80875 28.6818 4.07526 30.8498 6.24452L33.2811 8.67729L32.641 8.62189C32.2889 8.5917 31.9253 8.52782 31.8327 8.48015C31.7404 8.43274 31.4172 8.39381 31.1151 8.39381C30.8126 8.39381 30.5376 8.34889 30.5037 8.29399C30.4697 8.2391 30.184 8.19418 29.8688 8.19418C29.5537 8.19418 29.2532 8.15325 29.2011 8.1031C29.1489 8.05319 28.8367 7.98507 28.5073 7.95188C26.9971 7.80041 26.8047 7.77171 26.7156 7.68636C26.6635 7.63621 26.363 7.59528 26.0479 7.59528C25.7327 7.59528 25.447 7.55036 25.413 7.49546C25.3791 7.44057 25.0934 7.39565 24.7782 7.39565C24.463 7.39565 24.1626 7.35472 24.1104 7.30457C24.0583 7.25466 23.7573 7.18728 23.4417 7.15484C23.126 7.12265 22.6094 7.06975 22.2938 7.03756C21.9781 7.00512 21.6772 6.93774 21.625 6.88783C21.5729 6.83768 21.2786 6.79675 20.9712 6.79675C20.6638 6.79675 20.3696 6.75433 20.3174 6.70243C20.2653 6.65052 19.9531 6.59437 19.6237 6.57765C19.2102 6.55669 19.0325 6.50853 19.0497 6.42244C19.0635 6.35381 18.9849 6.29767 18.8751 6.29767C18.7653 6.29767 18.6754 6.3643 18.6754 6.4454C18.6754 6.60136 18.8159 6.64628 19.6237 6.74809C19.8982 6.78278 20.3698 6.8494 20.6718 6.89632C20.9737 6.94323 21.5576 7.03307 21.9694 7.0962C22.3811 7.15934 22.965 7.24917 23.267 7.29583C23.5689 7.3425 24.1529 7.43233 24.5646 7.49546C24.9763 7.5586 25.5715 7.65168 25.8872 7.70258C26.2028 7.75324 26.7194 7.83659 27.0351 7.88725C27.5611 7.97184 28.1662 8.06567 29.6552 8.29275C29.9572 8.33891 30.5074 8.4255 30.878 8.48515C31.2486 8.54479 31.8325 8.63512 32.1756 8.68628C32.5187 8.73718 33.2486 8.85397 33.7976 8.94555C34.9615 9.13994 35.466 9.20582 35.22 9.13096C35.068 9.08479 35.0453 8.94131 35.0453 8.03223C35.0453 6.70367 35.0613 6.73187 33.4068 5.12258L32.0493 3.80226H35.4937H38.9382V5.67581V7.54911L40.0865 8.72021C41.2536 9.91027 41.3323 10.1134 40.504 9.79823C40.2203 9.69043 38.0585 9.54395 38.1536 9.63902C38.1888 9.67421 38.6604 9.74458 39.2017 9.79573C40.1305 9.88332 40.6355 9.95619 41.9326 10.1908C42.4352 10.2816 42.8594 10.3492 44.4281 10.5885C44.73 10.6347 45.2915 10.7228 45.6758 10.7844C47.1441 11.02 47.594 11.0911 48.271 11.1957C48.6553 11.2548 49.2392 11.3504 49.5686 11.4078C50.2808 11.5318 65.0831 11.6349 65.2011 11.5168C65.2443 11.4736 62.0142 11.435 58.023 11.431C54.0319 11.4272 50.6224 11.3886 50.4465 11.3456C50.2074 11.287 49.1723 10.3265 46.366 7.5596L42.6059 3.85217L43.9911 3.80226C44.753 3.77481 41.4011 3.75235 36.5426 3.75235C31.684 3.75235 27.8685 3.76583 28.0639 3.7823ZM57.4668 3.77681L56.6813 3.81099L57.7164 4.53541C58.2858 4.93368 59.8971 6.04139 61.297 6.99688C62.6969 7.95237 64.7315 9.34257 65.818 10.0862C66.9047 10.8298 67.9154 11.5136 68.0638 11.6054C68.4037 11.816 71.5781 11.9929 71.5781 11.8015C71.5781 11.7389 71.508 11.6878 71.4224 11.6878C71.3303 11.6878 71.2959 11.6408 71.3381 11.5725C71.3807 11.5036 71.3658 11.4844 71.3006 11.5246C71.2407 11.5615 71.0765 11.4766 70.9358 11.3357C70.7951 11.1949 70.6798 11.1315 70.6798 11.1947C70.6798 11.2578 70.545 11.1655 70.3803 10.989C70.2156 10.8126 70.0809 10.6981 70.0809 10.734C70.0809 10.7702 69.9306 10.6851 69.747 10.5449C69.5633 10.4049 69.3712 10.2903 69.32 10.2903C69.2686 10.2903 69.1618 10.2005 69.0827 10.0907C69.0036 9.98089 68.8788 9.89106 68.8052 9.89106C68.7318 9.89106 68.6994 9.84614 68.7333 9.79124C68.7673 9.73634 68.7318 9.69143 68.655 9.69143C68.5779 9.69143 68.4334 9.60159 68.3341 9.49179C68.2348 9.38199 68.093 9.29216 68.0192 9.29216C67.9453 9.29216 67.8849 9.25024 67.8849 9.19908C67.8849 9.14792 67.7953 9.07756 67.6858 9.04287C67.5765 9.00818 67.4245 8.9171 67.3481 8.84099C67.1979 8.69077 66.7295 8.39606 66.213 8.1268C66.0346 8.03372 65.8886 7.92093 65.8886 7.87626C65.8886 7.8316 65.8207 7.79491 65.7379 7.79491C65.655 7.79491 65.4464 7.66016 65.274 7.49546C65.1015 7.33077 64.8972 7.19602 64.8198 7.19602C64.7424 7.19602 64.7067 7.1511 64.7407 7.0962C64.7746 7.0413 64.7329 6.99638 64.6479 6.99638C64.5111 6.99638 64.3437 6.88783 63.9559 6.54721C63.8935 6.49231 63.7196 6.38401 63.5696 6.30665C63.4194 6.2293 63.208 6.08331 63.0995 5.98225C62.9912 5.88119 62.8669 5.79859 62.8235 5.79859C62.78 5.79834 62.6151 5.68704 62.4569 5.55104C62.2987 5.41504 62.1385 5.32296 62.1008 5.34617C62.0629 5.36963 61.969 5.30125 61.8922 5.19445C61.8151 5.0874 61.6721 5.00006 61.5745 5.00006C61.4767 5.00006 61.3968 4.96262 61.3968 4.91721C61.3968 4.87154 61.2733 4.77048 61.1223 4.69262C60.9714 4.61477 60.8254 4.52867 60.7979 4.50122C60.7321 4.43485 59.5692 3.86614 59.4836 3.85841C59.4472 3.85491 59.3835 3.81848 59.3424 3.77731C59.3012 3.73613 59.0392 3.71143 58.7599 3.72241C58.481 3.73364 57.899 3.75809 57.4668 3.77681ZM27.1099 3.90208L26.9103 3.98792L27.1099 3.99341C27.2197 3.9964 27.3769 3.95523 27.4593 3.90208C27.6577 3.77381 27.4084 3.77381 27.1099 3.90208ZM46.6739 3.90208C46.8386 3.944 47.3552 3.97669 47.8218 3.97494L48.6702 3.97145L48.0214 3.89858C47.1111 3.79627 46.2667 3.79852 46.6739 3.90208ZM19.1246 4.00189C19.0517 4.11992 19.1493 4.11992 19.4241 4.00189C19.6165 3.91929 19.616 3.9158 19.4051 3.90906C19.2848 3.90532 19.1585 3.94699 19.1246 4.00189ZM26.4112 4.10171C26.233 4.17832 26.2403 4.1883 26.4801 4.19454C26.6278 4.19828 26.7765 4.15661 26.8105 4.10171C26.8841 3.98243 26.6884 3.98243 26.4112 4.10171ZM48.82 4.09572C48.9545 4.18805 50.0098 4.25418 49.9097 4.1641C49.8868 4.14363 49.5985 4.09672 49.2691 4.05979C48.8459 4.01262 48.7142 4.02335 48.82 4.09572ZM18.5257 4.20153C18.4528 4.31956 18.5504 4.31956 18.8252 4.20153C19.0176 4.11893 19.0171 4.11544 18.8062 4.1087C18.6859 4.10495 18.5596 4.14663 18.5257 4.20153ZM24.6644 4.61601C23.9233 4.83611 23.1821 5.05371 23.0174 5.09962C22.8527 5.14554 22.2464 5.32546 21.6699 5.49914C21.0935 5.67282 20.4724 5.85224 20.2895 5.89791C19.8717 6.00221 19.7165 6.15044 20.1228 6.05761C20.3965 5.99498 21.4591 5.69079 22.0692 5.50039C22.2064 5.45747 22.5209 5.36638 22.7679 5.29776C23.015 5.22914 23.4641 5.09513 23.7661 5.00006C24.068 4.90498 24.5172 4.77148 24.7642 4.7036C25.0113 4.63572 25.3165 4.53965 25.4427 4.49049C25.5688 4.44134 25.7572 4.40116 25.861 4.40116C25.965 4.40116 26.0778 4.35624 26.1118 4.30134C26.1976 4.1626 26.1756 4.16734 24.6644 4.61601ZM50.1176 4.29385C50.1999 4.35125 50.4213 4.39891 50.6097 4.39966C50.7978 4.40041 51.0898 4.44308 51.2585 4.49424C51.4269 4.54539 51.7671 4.63897 52.0141 4.7021C53.447 5.06843 53.9231 5.20518 54.1339 5.31173C54.2293 5.3599 54.3668 5.39932 54.4394 5.39932C54.5123 5.39932 55.0807 5.6027 55.7026 5.85099C56.3247 6.09953 56.8562 6.2802 56.8836 6.2525C56.9111 6.22505 56.8487 6.17415 56.7446 6.13946C56.6408 6.10478 56.3653 5.99148 56.1325 5.88767C55.9 5.78387 55.6634 5.69877 55.6072 5.69877C55.5511 5.69877 55.4271 5.6561 55.3317 5.6037C54.5177 5.15702 49.5731 3.91505 50.1176 4.29385ZM17.9268 4.40116C17.8539 4.51919 17.9515 4.51919 18.2263 4.40116C18.4187 4.31856 18.4182 4.31506 18.2073 4.30833C18.087 4.30458 17.9607 4.34626 17.9268 4.40116ZM17.278 4.60079C17.145 4.68688 17.145 4.69761 17.278 4.69761C17.3604 4.69761 17.4951 4.65394 17.5775 4.60079C17.7105 4.5147 17.7105 4.50397 17.5775 4.50397C17.4951 4.50397 17.3604 4.54764 17.278 4.60079ZM16.6791 4.80042C16.5461 4.88651 16.5461 4.89724 16.6791 4.89724C16.7615 4.89724 16.8962 4.85357 16.9786 4.80042C17.1116 4.71433 17.1116 4.7036 16.9786 4.7036C16.8962 4.7036 16.7615 4.74727 16.6791 4.80042ZM16.0802 5.00006C15.9472 5.08615 15.9472 5.09688 16.0802 5.09688C16.1626 5.09688 16.2973 5.05321 16.3797 5.00006C16.5127 4.91396 16.5127 4.90323 16.3797 4.90323C16.2973 4.90323 16.1626 4.9469 16.0802 5.00006ZM13.0358 5.96503C11.6084 6.43192 10.3625 6.85514 10.2672 6.9053C10.1718 6.95546 10.0061 6.99638 9.89883 6.99638C9.79153 6.99638 9.67599 7.0413 9.64205 7.0962C9.60811 7.1511 9.47336 7.19602 9.3426 7.19602C9.21184 7.19602 9.08009 7.23594 9.04989 7.28485C9.0197 7.33351 8.8263 7.40364 8.61993 7.44032C8.26808 7.50295 7.91748 7.54513 5.6494 7.79916C3.92931 7.9918 3.40353 8.01601 3.40353 7.90296C3.40353 7.78643 2.98006 7.75274 2.87201 7.86054C2.83582 7.89673 2.85728 7.98756 2.91942 8.06242C3.00876 8.17022 2.99803 8.18545 2.86876 8.13579C2.77843 8.10135 2.70481 8.02973 2.70481 7.97683C2.70481 7.92418 2.61323 7.89523 2.50119 7.9127C2.38915 7.93016 2.30031 7.98955 2.30355 8.04445C2.31428 8.23036 2.85154 8.29425 3.60316 8.19892C4.0149 8.14677 4.7785 8.05643 5.30004 7.99804C5.82158 7.9394 6.67501 7.84382 7.19655 7.78518C7.89676 7.70682 8.75868 7.48174 10.4905 6.92577C13.8665 5.84176 15.8184 5.19545 15.8693 5.14429C15.9944 5.01927 15.4067 5.18946 13.0358 5.96503ZM19.2743 6.19785C19.1503 6.27796 19.159 6.29467 19.3242 6.29467C19.434 6.29467 19.5912 6.251 19.6736 6.19785C19.7976 6.11775 19.7889 6.10103 19.6237 6.10103C19.5139 6.10103 19.3567 6.1447 19.2743 6.19785ZM57.0132 6.33785C57.0361 6.35981 57.6163 6.66599 58.3025 7.01809C60.2128 7.99829 60.8226 8.38258 63.493 10.2893C64.9723 11.3454 65.09 11.4237 65.09 11.3496C65.09 11.2655 61.4106 8.67455 60.4359 8.07215C59.2917 7.36521 56.7347 6.06934 57.0132 6.33785ZM6.59765 6.69693C6.59765 6.75183 6.46565 6.79675 6.30419 6.79675C6.14274 6.79675 5.98278 6.84167 5.94885 6.89657C5.91491 6.95147 5.75495 6.99638 5.5935 6.99638C5.43205 6.99638 5.30004 7.0413 5.30004 7.0962C5.30004 7.1511 5.19049 7.19602 5.05649 7.19602C4.92249 7.19602 4.78499 7.24093 4.75105 7.29583C4.71711 7.35073 4.55167 7.39565 4.38348 7.39565C4.13319 7.39565 4.09875 7.42085 4.19358 7.53514C4.31785 7.68487 4.70114 7.6372 4.70114 7.47226C4.70114 7.41736 4.78798 7.39515 4.89429 7.42285C5.00059 7.45055 5.18026 7.40838 5.2938 7.32902C5.40709 7.24942 5.54085 7.20974 5.59076 7.24043C5.73025 7.32677 5.99875 7.19128 5.99875 7.03481C5.99875 6.91953 6.03494 6.91678 6.20438 7.02059C6.37606 7.1254 6.42996 7.11966 6.52928 6.9859C6.59491 6.89757 6.75611 6.83019 6.88737 6.83618C7.01888 6.84192 7.14589 6.79051 7.16985 6.72189C7.1983 6.63979 7.10821 6.59712 6.90534 6.59712C6.73615 6.59712 6.59765 6.64204 6.59765 6.69693ZM3.77784 7.57407C3.59568 7.6115 3.54552 7.7475 3.68277 7.83235C3.79256 7.90022 4.03537 7.73877 3.9897 7.62822C3.96924 7.57881 3.87391 7.55436 3.77784 7.57407ZM35.744 9.29216C35.8813 9.33608 36.1732 9.37126 36.3928 9.37027C36.7726 9.36852 36.7776 9.36453 36.4927 9.29216C36.0585 9.18161 35.3992 9.18161 35.744 9.29216ZM37.0416 9.49179C37.1789 9.53571 37.4484 9.5709 37.6405 9.5699L37.9899 9.5679L37.6904 9.49179C37.251 9.38 36.6925 9.38 37.0416 9.49179ZM18.0266 16.3754C17.7282 16.4141 18.1494 16.4408 19.0747 16.4415C20.1432 16.4428 20.4519 16.421 20.0729 16.3711C19.4193 16.2853 18.7101 16.2868 18.0266 16.3754ZM81.1605 16.3759C80.898 16.4146 81.3546 16.443 82.2585 16.4438C83.341 16.445 83.6407 16.4233 83.2566 16.3721C82.5953 16.284 81.7704 16.2855 81.1605 16.3759ZM16.9286 16.5788C16.7363 16.6614 16.7368 16.6648 16.9476 16.6716C17.0679 16.6753 17.1942 16.6337 17.2281 16.5788C17.301 16.4607 17.2034 16.4607 16.9286 16.5788ZM20.8714 16.5788C20.9537 16.6319 21.1334 16.6718 21.2707 16.6671L21.5202 16.6586L21.2707 16.5788C20.8859 16.4555 20.6807 16.4555 20.8714 16.5788ZM80.1124 16.5788C79.92 16.6614 79.9205 16.6648 80.1314 16.6716C80.2517 16.6753 80.3779 16.6337 80.4119 16.5788C80.4847 16.4607 80.3872 16.4607 80.1124 16.5788ZM84.0552 16.5788C84.1375 16.6319 84.3172 16.6718 84.4544 16.6671L84.704 16.6586L84.4544 16.5788C84.0696 16.4555 83.8645 16.4555 84.0552 16.5788ZM21.7198 16.7784C21.7538 16.8333 21.88 16.875 22.0003 16.8712C22.2112 16.8645 22.2117 16.861 22.0193 16.7784C21.7445 16.6604 21.647 16.6604 21.7198 16.7784ZM84.9036 16.7784C84.9375 16.8333 85.0638 16.875 85.1841 16.8712C85.3949 16.8645 85.3954 16.861 85.203 16.7784C84.9283 16.6604 84.8307 16.6604 84.9036 16.7784ZM22.7679 17.1285C22.7679 17.1527 22.9588 17.2645 23.1921 17.3765C24.2167 17.8689 25.0782 18.5007 25.8872 19.3532C26.2028 19.6855 26.4611 19.9261 26.4611 19.8877C26.4611 19.692 24.5856 18.0268 24.0166 17.7174C23.9063 17.6573 23.6588 17.5195 23.4666 17.411C23.0649 17.1844 22.7679 17.0641 22.7679 17.1285ZM85.9517 17.1285C85.9517 17.1527 86.1426 17.2645 86.3759 17.3765C87.4367 17.8863 88.1771 18.4264 89.021 19.3055C89.3641 19.6628 89.6449 19.9243 89.6449 19.8864C89.6449 19.7874 88.2692 18.4623 87.7983 18.1082C87.2236 17.6757 85.9517 17.001 85.9517 17.1285ZM26.6415 20.2221C26.7039 20.3319 26.8496 20.534 26.9657 20.6712L27.1765 20.9208L26.9934 20.5886C26.8928 20.406 26.7471 20.2038 26.6695 20.1395C26.5507 20.0411 26.5462 20.0541 26.6415 20.2221ZM89.9905 20.4466C90.1445 20.68 90.2894 20.8709 90.3126 20.8709C90.3845 20.8709 90.0025 20.2635 89.8525 20.1395C89.7746 20.0751 89.8365 20.2133 89.9905 20.4466ZM18.4386 21.1496C18.4067 21.2015 18.211 21.2716 18.0039 21.3056C17.3359 21.4146 16.4323 21.9222 15.794 22.5468C15.0481 23.2767 15.0109 23.4661 15.6136 23.4661C16.1102 23.4661 16.4787 23.7658 16.4805 24.1713C16.4887 25.9877 18.796 28.3541 20.562 28.3576C21.07 28.3586 21.4224 28.7706 21.4054 29.344L21.3904 29.8503L21.8142 29.5586C22.6536 28.9812 23.2196 28.1502 23.5577 26.9988C23.7788 26.2462 23.8462 24.8251 23.6663 24.7138C23.6114 24.6798 23.5664 24.5451 23.5664 24.4143C23.5664 24.2836 23.5215 24.1488 23.4666 24.1149C23.4117 24.081 23.3668 23.9854 23.3668 23.9023C23.3668 23.4109 22.0699 22.0392 21.2055 21.6165C20.3049 21.1758 18.6003 20.8881 18.4386 21.1496ZM81.6224 21.1496C81.5904 21.2015 81.3908 21.2716 81.179 21.3056C80.4907 21.4156 79.4187 22.0307 78.8714 22.6291C78.2354 23.3253 78.2246 23.4661 78.8076 23.4661C79.3099 23.4661 79.6632 23.7882 79.6632 24.2462C79.6632 24.4865 79.7578 24.844 79.9961 25.5051C80.3091 26.3732 81.837 27.9536 82.3665 27.9568C82.4536 27.9573 82.5554 27.9885 82.5931 28.0262C82.7181 28.1512 83.4021 28.3541 83.7058 28.3561C84.2523 28.3598 84.6066 28.7559 84.5892 29.344L84.5742 29.8503L85.0019 29.5559C86.0944 28.8043 86.9498 27.0992 86.9498 25.6725C86.9498 23.7538 85.3992 21.7794 83.4707 21.2429C82.9587 21.1007 81.6923 21.0366 81.6224 21.1496ZM20.5719 21.493C22.4143 22.2029 23.4966 23.6782 23.6356 25.6685C23.7204 26.8853 23.1519 26.899 22.8607 25.6872C22.3973 23.7585 20.9874 22.3873 19.0433 21.9748C18.4593 21.8511 18.3016 21.7078 18.4174 21.4061C18.4938 21.2072 19.9865 21.2674 20.5719 21.493ZM84.1839 21.7061C85.7563 22.4622 86.8607 24.173 86.8468 25.831C86.8385 26.8252 86.2906 26.754 86.0375 25.7259C85.5636 23.7977 84.0325 22.2658 82.3298 22.0153C81.6928 21.9217 81.3586 21.6622 81.5612 21.4181C81.8173 21.1094 83.2771 21.2699 84.1839 21.7061ZM91.3447 23.3663C91.3447 23.4486 91.3884 23.5834 91.4416 23.6657C91.5277 23.7987 91.5384 23.7987 91.5384 23.6657C91.5384 23.5834 91.4947 23.4486 91.4416 23.3663C91.3555 23.2333 91.3447 23.2333 91.3447 23.3663ZM91.6083 24.6639C91.6412 24.9658 91.6846 25.2316 91.7046 25.2545C91.7819 25.3429 91.7223 24.5034 91.6377 24.3145C91.5793 24.1843 91.5693 24.3053 91.6083 24.6639ZM28.3746 24.4642C28.3793 24.876 28.5365 25.3017 28.5403 24.9134C28.5418 24.7487 28.5046 24.5241 28.4574 24.4143C28.3793 24.2329 28.3718 24.2374 28.3746 24.4642ZM72.6993 25.662C72.6993 25.8542 72.7198 25.9328 72.745 25.8367C72.7699 25.7406 72.7699 25.5834 72.745 25.4874C72.7198 25.3913 72.6993 25.4699 72.6993 25.662Z" fill="#747868"/>
<path fill-rule="evenodd" clip-rule="evenodd" d="M95.9584 19.5483L93.7374 19.577V20.5235V21.4697H96.3187C97.7383 21.4697 99.1083 21.4982 99.3631 21.5331L99.8262 21.5967V20.5349V19.4734L99.0028 19.4963C98.5498 19.5091 97.1799 19.5323 95.9584 19.5483ZM18.4175 21.4061C18.3017 21.7078 18.4594 21.851 19.0434 21.9748C20.9875 22.3873 22.3974 23.7585 22.8608 25.6872C23.1521 26.899 23.7205 26.8853 23.6357 25.6685C23.4967 23.6782 22.4144 22.2029 20.572 21.4929C19.9866 21.2673 18.4939 21.2072 18.4175 21.4061ZM81.5613 21.4181C81.3587 21.6621 81.6929 21.9216 82.3299 22.0152C84.0325 22.2658 85.5637 23.7977 86.0376 25.7259C86.2906 26.754 86.8386 26.8251 86.8469 25.8309C86.8608 24.173 85.7564 22.4621 84.184 21.706C83.2772 21.2698 81.8174 21.1094 81.5613 21.4181Z" fill="#D1D1BD"/>
<path fill-rule="evenodd" clip-rule="evenodd" d="M19.7236 3.7905L19.9233 3.87509L19.7236 3.93199C19.5692 3.97591 19.5804 3.98464 19.7735 3.97042C19.9108 3.96019 20.0231 3.90704 20.0231 3.85214C20.0231 3.79724 19.9108 3.74184 19.7735 3.72911C19.5529 3.70865 19.5472 3.71564 19.7236 3.7905ZM27.16 3.80373C27.0546 3.8726 27.1138 3.88283 27.3596 3.83767C27.79 3.75856 27.8714 3.70191 27.551 3.70391C27.4182 3.70466 27.2423 3.74958 27.16 3.80373ZM29.4308 3.77678C29.8837 3.79524 30.6248 3.79524 31.0777 3.77678C31.5307 3.75806 31.1601 3.74309 30.2543 3.74309C29.3484 3.74309 28.9779 3.75806 29.4308 3.77678ZM39.9115 3.77678C40.3644 3.79524 41.1055 3.79524 41.5585 3.77678C42.0114 3.75806 41.6408 3.74309 40.735 3.74309C39.8291 3.74309 39.4586 3.75806 39.9115 3.77678ZM45.3764 3.75207C45.4313 3.77079 46.0826 3.80522 46.8238 3.82868C47.5649 3.85214 48.059 3.83766 47.9218 3.79674C47.6837 3.72562 45.1691 3.6817 45.3764 3.75207ZM57.1298 3.77503C57.3357 3.79674 57.6726 3.79674 57.8784 3.77503C58.0843 3.75357 57.9159 3.73585 57.5041 3.73585C57.0924 3.73585 56.9239 3.75357 57.1298 3.77503ZM26.4612 4.00635C26.3519 4.08047 26.3924 4.0897 26.611 4.04079C26.978 3.95869 27.0576 3.90155 26.8024 3.90354C26.6971 3.90429 26.5436 3.95071 26.4612 4.00635ZM48.9698 4.0076C49.1894 4.05302 49.4589 4.0897 49.5687 4.08895L49.7684 4.0877L49.5687 4.00186C49.4589 3.9547 49.1894 3.91801 48.9698 3.92051L48.5706 3.925L48.9698 4.0076ZM19.1247 4.10168C18.9323 4.18428 18.9328 4.18777 19.1437 4.19451C19.264 4.19825 19.3902 4.15658 19.4242 4.10168C19.497 3.98365 19.3995 3.98365 19.1247 4.10168ZM25.7625 4.20149C25.5641 4.32976 25.8134 4.32976 26.1119 4.20149L26.3115 4.11565L26.1119 4.11016C26.0021 4.10717 25.8449 4.14834 25.7625 4.20149ZM50.1676 4.20149C50.3323 4.24342 50.5569 4.27985 50.6667 4.28259L50.8663 4.28733L50.6667 4.20149C50.5569 4.15433 50.3323 4.1179 50.1676 4.12039L49.8682 4.12539L50.1676 4.20149ZM18.5258 4.30131C18.3334 4.38391 18.3339 4.3874 18.5448 4.39414C18.6651 4.39788 18.7913 4.35621 18.8253 4.30131C18.8982 4.18328 18.8006 4.18328 18.5258 4.30131ZM51.2656 4.40113C51.5641 4.52939 51.8133 4.52939 51.615 4.40113C51.5326 4.34798 51.3754 4.3068 51.2656 4.3098L51.066 4.31528L51.2656 4.40113ZM16.6019 4.91942C15.7632 5.19891 15.0949 5.44521 15.1166 5.46717C15.1386 5.48888 15.7667 5.30297 16.5125 5.05393C17.2584 4.80463 17.9352 4.60076 18.0165 4.60076C18.0981 4.60076 18.1924 4.55584 18.2264 4.50094C18.3182 4.35247 18.2558 4.36844 16.6019 4.91942ZM24.3651 4.60076C24.1667 4.72903 24.416 4.72903 24.7145 4.60076L24.9141 4.51492L24.7145 4.50943C24.6047 4.50643 24.4474 4.54761 24.3651 4.60076ZM52.8627 4.80039C53.1611 4.92865 53.4104 4.92865 53.212 4.80039C53.1297 4.74724 52.9725 4.70606 52.8627 4.70906L52.663 4.71455L52.8627 4.80039ZM23.0675 5.00002C22.9345 5.08612 22.9345 5.09685 23.0675 5.09685C23.1498 5.09685 23.2846 5.05318 23.3669 5.00002C23.4999 4.91393 23.4999 4.9032 23.3669 4.9032C23.2846 4.9032 23.1498 4.94687 23.0675 5.00002ZM53.5614 5.00002C53.8598 5.12829 54.1091 5.12829 53.9107 5.00002C53.8284 4.94687 53.6712 4.9057 53.5614 4.90869L53.3617 4.91418L53.5614 5.00002ZM22.3688 5.19966C22.2358 5.28575 22.2358 5.29648 22.3688 5.29648C22.4511 5.29648 22.5859 5.25281 22.6682 5.19966C22.8012 5.11357 22.8012 5.10284 22.6682 5.10284C22.5859 5.10284 22.4511 5.14651 22.3688 5.19966ZM54.2102 5.19966C54.2925 5.25281 54.4273 5.29648 54.5096 5.29648C54.6426 5.29648 54.6426 5.28575 54.5096 5.19966C54.4273 5.14651 54.2925 5.10284 54.2102 5.10284C54.0772 5.10284 54.0772 5.11357 54.2102 5.19966ZM21.72 5.39929C21.5942 5.45344 21.5757 5.48513 21.67 5.48513C21.7524 5.48513 21.9096 5.44645 22.0194 5.39929C22.1452 5.34514 22.1636 5.31345 22.0693 5.31345C21.987 5.31345 21.8298 5.35213 21.72 5.39929ZM54.8091 5.39929C54.8914 5.45244 55.0262 5.49611 55.1085 5.49611C55.2415 5.49611 55.2415 5.48538 55.1085 5.39929C55.0262 5.34614 54.8914 5.30247 54.8091 5.30247C54.6761 5.30247 54.6761 5.3132 54.8091 5.39929ZM21.0212 5.59892C20.8955 5.65308 20.877 5.68477 20.9713 5.68477C21.0537 5.68477 21.2109 5.64609 21.3207 5.59892C21.4465 5.54477 21.4649 5.51308 21.3706 5.51308C21.2883 5.51308 21.131 5.55176 21.0212 5.59892ZM20.3225 5.79855L20.1229 5.8844L20.3225 5.88989C20.4323 5.89288 20.5895 5.85171 20.6719 5.79855C20.8703 5.67029 20.621 5.67029 20.3225 5.79855ZM19.6238 5.99819L19.4242 6.08403L19.6238 6.08952C19.7336 6.09251 19.8908 6.05134 19.9732 5.99819C20.1716 5.86992 19.9223 5.86992 19.6238 5.99819ZM18.8952 6.19657C18.4847 6.29364 18.4068 6.36826 18.5575 6.51898C18.6484 6.60981 18.6756 6.59809 18.6756 6.46733C18.6756 6.35828 18.7559 6.29714 18.9001 6.29614C19.0237 6.29539 19.1921 6.25097 19.2745 6.19782C19.4464 6.08678 19.3598 6.08652 18.8952 6.19657ZM56.8129 6.13868C56.8421 6.16813 57.4253 6.46633 58.1085 6.80171C58.7918 7.13684 59.3058 7.36617 59.2509 7.31102C59.196 7.25563 58.7324 7.00284 58.2206 6.74881C57.2973 6.2909 56.7106 6.03662 56.8129 6.13868ZM10.291 6.99635C10.158 7.08244 10.158 7.09317 10.291 7.09317C10.3733 7.09317 10.5081 7.0495 10.5904 6.99635C10.7234 6.91026 10.7234 6.89953 10.5904 6.89953C10.5081 6.89953 10.3733 6.9432 10.291 6.99635ZM9.69209 7.19599C9.55908 7.28208 9.55908 7.29281 9.69209 7.29281C9.77443 7.29281 9.90919 7.24914 9.99153 7.19599C10.1245 7.10989 10.1245 7.09916 9.99153 7.09916C9.90919 7.09916 9.77443 7.14283 9.69209 7.19599ZM59.5005 7.50043C59.8466 7.73524 60.044 7.80362 59.7999 7.60423C59.6627 7.49194 59.5054 7.39986 59.4506 7.39936C59.3956 7.39886 59.4181 7.44453 59.5005 7.50043ZM60.0994 7.83481C60.0994 7.85702 60.2493 7.96332 60.4325 8.07137C60.6157 8.17942 60.8852 8.34637 61.0314 8.44219C61.1776 8.53802 61.2971 8.59516 61.2971 8.56921C61.2971 8.51556 60.2301 7.79488 60.1508 7.79488C60.1226 7.79488 60.0994 7.81285 60.0994 7.83481ZM61.397 8.62835C61.397 8.65281 62.2696 9.29363 63.3359 10.052C64.4024 10.8106 65.2489 11.4734 65.2172 11.525C65.1848 11.5774 65.2132 11.5854 65.2818 11.543C65.4463 11.4414 65.3292 11.3414 63.6927 10.1822C61.9467 8.94552 61.397 8.5737 61.397 8.62835ZM3.9504 11.1088C3.92295 11.1804 3.91222 13.058 3.92644 15.2814L3.95264 19.3237H4.55154H5.15044V15.1813V11.0389L4.57525 11.009C4.17249 10.988 3.98508 11.018 3.9504 11.1088ZM6.79741 15.1813V19.3736H7.48065C8.19758 19.3736 8.2692 19.3354 8.57863 18.7859C8.80547 18.3832 9.08296 17.8941 9.30754 17.502C9.42533 17.2962 9.6564 16.8807 9.8211 16.5787C9.98554 16.2768 10.164 15.9736 10.2176 15.905C10.3219 15.7717 10.269 15.6045 9.77443 14.505C9.61922 14.1604 9.49245 13.8587 9.49245 13.8343C9.49245 13.8098 9.38465 13.5525 9.25314 13.2628C9.12139 12.9729 8.93972 12.5561 8.84963 12.3365C8.7593 12.1169 8.58936 11.7239 8.47233 11.4631L8.25897 10.989H7.52832H6.79741V15.1813ZM38.5889 13.6788C38.3693 13.7856 37.9426 13.9825 37.6407 14.1168C36.806 14.4873 36.1457 14.781 35.5944 15.0273C35.3199 15.1499 34.8942 15.3358 34.6482 15.4403C34.4024 15.5449 33.8711 15.7879 33.4678 15.9801L32.7344 16.3299L33.8015 17.677C34.3884 18.4181 34.9948 19.1814 35.1488 19.3736C35.579 19.9098 37.9281 22.8736 38.2256 23.2554C38.7793 23.9659 38.6059 23.92 41.284 24.0669C42.327 24.1241 45.8081 24.3275 49.0197 24.5189C52.2313 24.71 55.6226 24.9101 56.5559 24.9631C59.2933 25.1185 61.532 25.2515 63.2935 25.3636C64.1993 25.4212 65.6591 25.51 66.5375 25.5609C67.4159 25.6119 68.6624 25.6847 69.3074 25.7229C70.6921 25.805 70.901 25.4492 69.9657 24.6015C69.4863 24.167 69.9215 24.2374 62.9441 23.4661C60.9256 23.243 60.1303 23.1539 59.3008 23.0583C58.2403 22.936 57.0345 22.8023 55.8073 22.6708C55.2857 22.6149 54.4772 22.5263 54.0106 22.4739C53.5439 22.4215 52.7129 22.3289 52.164 22.2683C51.615 22.2076 50.8064 22.1178 50.3673 22.0686C49.9281 22.0195 49.1196 21.9296 48.5706 21.869C48.0216 21.8084 47.1906 21.7145 46.724 21.6609C45.0568 21.4685 44.0658 21.3619 43.2014 21.2816C42.2103 21.1895 42.4017 21.3133 40.6863 19.6553C40.1366 19.124 39.5634 18.593 39.4124 18.4752C38.981 18.1386 39.0653 18.036 40.2608 17.4459L41.3838 16.8914L42.1823 16.9792C42.6215 17.0274 43.4076 17.1157 43.9291 17.1754C44.4506 17.2353 45.2592 17.3261 45.7258 17.3773C46.839 17.4995 48.0488 17.6378 49.2194 17.7765C50.6141 17.9417 51.75 18.0702 52.7629 18.1773C53.2569 18.2294 54.043 18.3198 54.5096 18.3779C54.9763 18.4363 55.7399 18.5254 56.2065 18.5761C56.6732 18.6267 57.4367 18.7123 57.9034 18.7662C58.37 18.8199 59.1786 18.9109 59.7001 18.9681C60.2216 19.0255 61.0301 19.1181 61.4968 19.174C61.9634 19.2298 62.727 19.3174 63.1937 19.3686C63.6603 19.4197 64.8955 19.5585 65.9386 19.6765C68.6881 19.988 69.3491 19.8554 69.7421 18.9144C70.0458 18.188 70.0129 18.1686 67.9848 17.8721C66.5363 17.6602 65.9985 17.5791 64.0671 17.2809C63.7239 17.228 63.1288 17.1382 62.7445 17.0813C62.3602 17.0244 61.6191 16.9111 61.0975 16.8293C60.576 16.7477 59.2509 16.5468 58.1529 16.3833C57.055 16.2199 55.393 15.9706 54.4597 15.8299C53.5264 15.6891 52.4484 15.5272 52.0641 15.4703C51.6798 15.4131 51.1184 15.3283 50.8164 15.2811C49.7397 15.1134 48.7605 14.9642 48.1214 14.8709C47.7645 14.8185 47.2031 14.7336 46.8737 14.6822C46.5443 14.6308 45.9828 14.546 45.626 14.4936C44.9869 14.4002 44.0077 14.251 42.9309 14.0833C41.7983 13.9069 40.866 13.7652 40.2858 13.6813C39.9564 13.6339 39.5297 13.57 39.3375 13.5398C39.1015 13.5026 38.8587 13.5478 38.5889 13.6788ZM18.1094 16.2571C18.0447 16.298 18.456 16.3309 19.0229 16.3304C19.5899 16.3297 20.0019 16.2962 19.9385 16.2558C19.7878 16.1597 18.2606 16.1607 18.1094 16.2571ZM81.2951 16.2558C81.2317 16.2962 81.6684 16.3292 82.2653 16.3294C82.8622 16.3294 83.2732 16.299 83.1789 16.2616C82.9456 16.169 81.4384 16.1645 81.2951 16.2558ZM16.9298 16.4774C16.8918 16.5388 16.9924 16.5523 17.1983 16.5131C17.6397 16.429 17.6776 16.3791 17.3006 16.3791C17.1302 16.3791 16.9632 16.4233 16.9298 16.4774ZM20.5803 16.4148C20.6909 16.5093 21.275 16.5665 21.2199 16.4774C21.1864 16.4233 21.0195 16.3791 20.8491 16.3791C20.6784 16.3791 20.5576 16.3951 20.5803 16.4148ZM80.1135 16.4774C80.0756 16.5388 80.1762 16.5523 80.382 16.5131C80.8235 16.429 80.8614 16.3791 80.4844 16.3791C80.3139 16.3791 80.147 16.4233 80.1135 16.4774ZM83.7641 16.4148C83.8746 16.5093 84.4588 16.5665 84.4036 16.4774C84.3702 16.4233 84.2033 16.3791 84.0328 16.3791C83.8621 16.3791 83.7414 16.3951 83.7641 16.4148ZM16.2276 16.6825C16.1854 16.7507 16.2608 16.7629 16.4462 16.7185C16.8287 16.6266 16.8649 16.5787 16.552 16.5787C16.409 16.5787 16.263 16.6254 16.2276 16.6825ZM79.4138 16.6785C79.3402 16.7978 79.5359 16.7978 79.8131 16.6785C79.9913 16.6019 79.984 16.592 79.7442 16.5857C79.5965 16.582 79.4478 16.6236 79.4138 16.6785ZM15.6811 16.8782C15.5481 16.9643 15.5481 16.975 15.6811 16.975C15.7634 16.975 15.8982 16.9313 15.9805 16.8782C16.1135 16.7921 16.1135 16.7814 15.9805 16.7814C15.8982 16.7814 15.7634 16.825 15.6811 16.8782ZM14.7827 17.2585C13.5824 17.8581 12.0465 19.1345 11.3917 20.0765C11.26 20.2664 11.5494 20.0029 12.0353 19.4911C12.9586 18.5184 13.6605 17.9829 14.8326 17.3565C15.6386 16.9258 15.6002 16.8502 14.7827 17.2585ZM77.7941 17.3663C76.6135 17.9929 75.4741 18.9479 74.6698 19.985C74.4836 20.2253 74.7786 19.9675 75.3253 19.4123C76.3637 18.358 77.1617 17.7596 78.1055 17.3278C78.617 17.094 78.7847 16.9737 78.5903 16.9807C78.5492 16.982 78.1908 17.1557 77.7941 17.3663ZM86.7503 17.4247C86.7503 17.4506 86.8963 17.5432 87.0747 17.6303L87.3991 17.7885L87.1496 17.5851C86.9093 17.3892 86.7503 17.3254 86.7503 17.4247ZM24.5597 18.0468C24.7491 18.2 25.2622 18.6624 25.6999 19.0741C26.1705 19.5171 26.3891 19.6798 26.2357 19.4729C25.9434 19.0796 25.113 18.3422 24.5732 17.9969L24.2154 17.768L24.5597 18.0468ZM87.7485 18.0458C87.9406 18.198 88.4525 18.6601 88.8857 19.0726C89.3189 19.4851 89.5899 19.6922 89.4878 19.5328C89.2887 19.2214 87.9284 18.0193 87.5988 17.8634C87.489 17.8112 87.5564 17.8933 87.7485 18.0458ZM26.6669 20.1472C26.7991 20.2981 26.9473 20.4666 26.996 20.5215C27.1228 20.6645 26.8907 20.256 26.7265 20.0473C26.6509 19.9513 26.5523 19.8727 26.5077 19.8727C26.463 19.8727 26.5346 19.9962 26.6669 20.1472ZM89.9115 20.2173C90.0627 20.4069 90.2047 20.5439 90.2269 20.5217C90.2803 20.4683 89.8172 19.8854 89.7156 19.8782C89.6722 19.8752 89.7603 20.0279 89.9115 20.2173ZM10.8819 20.7461C10.804 20.897 10.7174 21.043 10.689 21.0705C10.6321 21.1259 10.2226 21.9775 10.0654 22.3681C9.83382 22.9428 9.80413 23.0306 9.74324 23.3163C9.55384 24.2089 9.47823 24.6798 9.42707 25.2877L9.37018 25.9615L5.71315 25.963C2.1557 25.9645 1.53135 26.0131 1.90641 26.2594C2.03941 26.3468 2.03941 26.3582 1.90641 26.362C1.81607 26.3645 1.86074 26.4306 2.01895 26.5287C2.16319 26.6183 2.35733 26.8641 2.45041 27.0752C2.54349 27.286 2.66127 27.4587 2.71193 27.4587C2.76283 27.4587 2.93077 27.6618 3.08524 27.9099C3.2397 28.1582 3.39717 28.3304 3.43485 28.2927C3.47253 28.2547 3.50347 28.2989 3.50347 28.3902C3.50347 28.4818 3.54839 28.5567 3.60329 28.5567C3.65819 28.5567 3.7031 28.654 3.7031 28.773C3.7031 28.8918 3.73155 28.9607 3.76649 28.9258C3.84734 28.8452 4.41504 29.5526 4.35166 29.6552C4.32546 29.6973 4.39358 29.7552 4.50263 29.7837C4.61193 29.8121 4.70127 29.9072 4.70127 29.9948C4.70127 30.0821 4.74094 30.1538 4.78935 30.1538C4.83801 30.1538 4.90115 30.2436 4.92985 30.3534C4.98699 30.5722 10.5026 30.6758 10.6358 30.4604C10.6673 30.4098 10.5627 30.0841 10.4033 29.7368C9.7365 28.2842 9.42508 26.7705 9.53088 25.5003C9.64093 24.1815 9.70731 23.7198 9.80163 23.6208C9.85104 23.5686 9.89172 23.4221 9.89172 23.2951C9.89172 23.1681 9.93314 22.9862 9.98355 22.8909C10.034 22.7955 10.1702 22.4684 10.2862 22.1639C10.4023 21.8598 10.6516 21.3544 10.8402 21.041C11.0289 20.7278 11.1474 20.4716 11.1035 20.4716C11.0593 20.4716 10.9598 20.5951 10.8819 20.7461ZM73.9983 20.8878C73.6938 21.4485 73.766 21.4687 74.0999 20.916C74.2473 20.6714 74.3357 20.4718 74.2957 20.4723C74.2561 20.4728 74.1221 20.6597 73.9983 20.8878ZM27.15 20.8209C27.3182 21.1466 27.4564 21.327 27.4557 21.2202C27.4552 21.1653 27.3631 21.0081 27.2508 20.8708C27.1153 20.7051 27.0813 20.6884 27.15 20.8209ZM90.623 21.3634C90.8263 21.7442 91.0057 22.0187 91.0222 21.9733C91.0384 21.9279 90.9354 21.6951 90.7931 21.4558C90.6509 21.2164 90.5089 20.9419 90.4775 20.8459C90.446 20.7498 90.3826 20.6712 90.337 20.6712C90.2911 20.6712 90.4198 20.9826 90.623 21.3634ZM27.8657 22.2373C27.8881 22.4966 28.0443 22.7164 28.0513 22.4988C28.0551 22.3786 28.0134 22.2523 27.9585 22.2183C27.9036 22.1844 27.8619 22.1929 27.8657 22.2373ZM91.1393 22.4409C91.41 23.3306 91.5325 23.767 91.6309 24.1912C91.7751 24.8126 91.7726 26.8259 91.6271 27.4323C91.3908 28.4169 91.1011 29.3208 90.876 29.7762C90.4622 30.6129 90.2142 30.553 94.0868 30.553H97.5305V28.2572V25.9615H94.6857H91.841V25.3142C91.841 24.9581 91.7916 24.4527 91.7309 24.1912C91.5141 23.2529 91.4207 22.9143 91.3321 22.7436C91.2825 22.6483 91.2421 22.5051 91.2421 22.4252C91.2421 22.3454 91.2001 22.254 91.1487 22.2223C91.0918 22.1872 91.0881 22.2725 91.1393 22.4409ZM73.1753 22.6116C73.1753 22.7456 73.1354 22.8801 73.0865 22.9103C73.0378 22.9405 72.9689 23.1339 72.9335 23.3403C72.7843 24.2124 72.6722 24.9463 72.6141 25.4374L72.5517 25.9615H50.6121H28.6724L28.6218 25.1879C28.5544 24.1633 28.4573 23.5374 28.3475 23.4211C28.2984 23.369 28.2579 23.2257 28.2579 23.1027C28.2579 22.9797 28.2178 22.8542 28.1688 22.8237C28.1189 22.793 28.1224 22.934 28.1763 23.1424C28.4226 24.0944 28.4803 24.4919 28.5262 25.5585C28.5896 27.0245 28.2562 28.658 27.6453 29.8753C27.543 30.0789 27.4594 30.3147 27.4594 30.3993C27.4594 30.5373 29.8378 30.553 50.6667 30.553C63.5882 30.553 73.874 30.5148 73.874 30.4669C73.874 30.4198 73.7443 30.0941 73.5855 29.7433C72.5747 27.5084 72.4716 25.2675 73.2614 22.6925C73.3213 22.4971 73.324 22.3681 73.2681 22.3681C73.217 22.3681 73.1753 22.4776 73.1753 22.6116Z" fill="#001B39"/>
</g>
<defs>
<clipPath id="clip0_22_571">
<rect width="99.8164" height="51.2216" fill="white" transform="translate(0.908203 0.22168)"/>
</clipPath>
</defs>
</svg>
