<svg width="100" height="52" viewBox="0 0 100 52" fill="none" xmlns="http://www.w3.org/2000/svg">
<path fill-rule="evenodd" clip-rule="evenodd" d="M15.9706 10.5696C15.9706 10.6305 15.8134 10.6802 15.6212 10.6802C15.4291 10.6802 15.2719 10.7251 15.2719 10.78C15.2719 10.8349 15.1371 10.8798 14.9724 10.8798C14.8077 10.8798 14.673 10.9247 14.673 10.9796C14.673 11.0345 14.5157 11.0795 14.3236 11.0795C14.1315 11.0795 13.9742 11.1294 13.9742 11.1903C13.9742 11.2576 13.84 11.2853 13.6319 11.2609C13.429 11.2372 13.2967 11.2634 13.3075 11.325C13.3175 11.3822 13.1795 11.4428 13.001 11.46C12.8226 11.4772 12.6766 11.5334 12.6766 11.5848C12.6766 11.6362 12.5419 11.6784 12.3772 11.6784C12.2125 11.6784 12.0777 11.7233 12.0777 11.7782C12.0777 11.8331 11.9457 11.878 11.7843 11.878C11.6228 11.878 11.4601 11.9271 11.4229 11.9873C11.3858 12.0477 11.2275 12.0781 11.0716 12.0552C10.8959 12.0295 10.7684 12.0639 10.7372 12.1455C10.7092 12.2179 10.5755 12.2773 10.4397 12.2773C10.304 12.2773 10.1652 12.3222 10.1313 12.3771C10.0974 12.432 9.96262 12.4769 9.83186 12.4769C9.7011 12.4769 9.56635 12.5218 9.53241 12.5767C9.49848 12.6316 9.34127 12.6765 9.18306 12.6765C9.02485 12.6765 8.86764 12.7214 8.8337 12.7763C8.79976 12.8312 8.63981 12.8762 8.47835 12.8762C8.3169 12.8762 8.18489 12.9211 8.18489 12.976C8.18489 13.0309 8.05289 13.0758 7.89143 13.0758C7.72998 13.0758 7.56778 13.1244 7.5311 13.1836C7.49441 13.243 7.36166 13.2659 7.23614 13.2342C7.08542 13.1966 6.98859 13.2278 6.95066 13.3261C6.88179 13.506 6.39094 13.5267 6.38196 13.3503C6.37847 13.2817 6.33305 13.3313 6.2814 13.4608C6.20728 13.6455 6.13591 13.6832 5.94876 13.636C5.78231 13.5943 5.69173 13.6248 5.64881 13.7366C5.60813 13.8424 5.51506 13.8781 5.37581 13.8416C5.25429 13.8099 5.10057 13.8501 5.01473 13.936C4.93263 14.0181 4.79987 14.0605 4.72027 14.0298C4.64041 13.9991 4.48395 14.0383 4.37241 14.1164C4.26061 14.1945 4.10265 14.2329 4.02105 14.2017C3.93945 14.1703 3.83739 14.2017 3.79422 14.2716C3.75105 14.3412 3.5896 14.3984 3.43538 14.3984C3.28117 14.3984 3.097 14.456 3.02638 14.5266C2.95601 14.5972 2.80754 14.6314 2.69674 14.6025C2.57746 14.5713 2.49536 14.5985 2.49536 14.6694C2.49536 14.8198 2.78258 14.7991 6.48802 14.3809C7.64913 14.2499 8.07709 14.1675 8.14172 14.063C8.17192 14.0141 8.30368 13.9741 8.43443 13.9741C8.56519 13.9741 8.69995 13.9292 8.73388 13.8743C8.76782 13.8194 8.88336 13.7745 8.99066 13.7745C9.09796 13.7745 9.26366 13.7336 9.35898 13.6834C9.50946 13.6043 12.9519 12.4801 15.8708 11.5568C16.3923 11.3919 16.8971 11.217 16.9924 11.168C17.0878 11.1194 17.2535 11.0795 17.3608 11.0795C17.4681 11.0795 17.5836 11.0345 17.6175 10.9796C17.6515 10.9247 17.78 10.8798 17.903 10.8798C18.026 10.8798 18.1693 10.8387 18.2214 10.7885C18.2736 10.7381 18.4285 10.677 18.5658 10.6522C18.703 10.6278 18.2464 10.6013 17.5509 10.5939C16.8554 10.5866 16.2154 10.5532 16.1285 10.5197C16.0417 10.4866 15.9706 10.509 15.9706 10.5696ZM26.4014 10.7027C26.2367 10.7581 26.0238 10.8431 25.9285 10.8916C25.8332 10.94 25.6642 10.9796 25.5529 10.9796C25.4416 10.9796 25.2727 11.0201 25.1774 11.0697C25.0821 11.1194 24.8018 11.2152 24.5548 11.2828C23.7405 11.5059 23.5129 11.5721 22.9078 11.7627C22.5784 11.8663 22.1068 12.0073 21.8597 12.0759C21.6127 12.1445 21.2983 12.2356 21.161 12.2785C20.8913 12.3626 19.8736 12.6568 18.9152 12.9276C18.5858 13.0206 18.2574 13.1142 18.1852 13.1354C17.8716 13.2283 18.2274 13.3752 18.7654 13.3752C19.0883 13.3752 19.3803 13.4202 19.4142 13.4751C19.4482 13.53 19.7339 13.5749 20.0491 13.5749C20.3642 13.5749 20.6647 13.6158 20.7168 13.666C20.769 13.7159 21.0699 13.7832 21.3856 13.8157C21.7013 13.8479 22.2178 13.9008 22.5335 13.933C22.8492 13.9654 23.1501 14.0328 23.2023 14.0827C23.2544 14.1328 23.5549 14.1738 23.87 14.1738C24.1852 14.1738 24.4709 14.2187 24.5049 14.2736C24.5388 14.3285 24.8245 14.3734 25.1397 14.3734C25.4549 14.3734 25.7553 14.4143 25.8075 14.4645C25.8596 14.5144 26.1606 14.5818 26.4762 14.6142C26.7919 14.6464 27.3085 14.6993 27.6241 14.7315C27.9398 14.7639 28.2407 14.8313 28.2929 14.8812C28.3451 14.9314 28.6455 14.9723 28.9607 14.9723C29.2758 14.9723 29.5616 15.0172 29.5955 15.0721C29.6294 15.127 29.9044 15.1719 30.2069 15.1719C30.5091 15.1719 30.8322 15.2109 30.9246 15.2583C31.0171 15.3059 31.3807 15.3698 31.7328 15.4L32.3729 15.4554L29.9369 13.0179C27.2576 10.3371 27.3352 10.3877 26.4014 10.7027ZM32.4987 11.9007C34.1536 13.5105 34.1371 13.4813 34.1371 14.8131V15.8617L34.4616 15.9098C34.64 15.9363 35.3699 16.0501 36.0836 16.1631C36.7973 16.2759 37.8264 16.3949 38.3704 16.4274C38.9144 16.4601 39.4673 16.5277 39.5996 16.5778C40.4238 16.8913 40.3442 16.6869 39.1784 15.4983L38.03 14.3272V12.4539V10.5804H34.5856H31.1412L32.4987 11.9007ZM45.4451 14.3105C48.2789 17.1161 49.2968 18.0644 49.5376 18.123C49.714 18.1657 53.1095 18.2161 57.0834 18.2348L64.3086 18.2687L63.6214 17.8011C63.2433 17.5436 62.6197 17.1021 62.2355 16.8199C59.36 14.7078 54.588 12.1767 53.4826 12.1774C53.3897 12.1774 53.2892 12.1378 53.2592 12.0891C53.229 12.0404 53.0805 11.9768 52.9288 11.9476C52.7771 11.9184 52.4734 11.8428 52.2538 11.7797C52.0342 11.7168 51.6861 11.6232 51.4802 11.5718C51.2744 11.5206 50.915 11.4306 50.6817 11.3719C48.9726 10.9417 46.7163 10.6987 43.7694 10.627L41.6733 10.5761L45.4451 14.3105ZM17.2185 23.2368C16.7796 23.2531 16.3776 23.3092 16.3252 23.3616C16.273 23.4138 16.1348 23.4567 16.018 23.4567C15.6729 23.4567 14.393 23.9268 13.6845 24.3139C9.18431 26.7721 7.40109 31.9478 9.48675 36.4979C9.6497 36.853 9.74527 37.2004 9.71358 37.3214C9.68214 37.4417 9.70634 37.5308 9.77023 37.5308C9.83161 37.5308 9.88177 37.6106 9.88177 37.7085C9.88177 37.806 9.97161 37.9508 10.0814 38.0299C10.1912 38.109 10.281 38.236 10.281 38.3119C10.281 38.501 12.2312 40.4255 12.4228 40.4255C12.5074 40.4255 12.5768 40.4629 12.5768 40.5083C12.5768 40.554 12.7003 40.6548 12.8513 40.7324C13.0023 40.8098 13.1984 40.9523 13.2873 41.0486C13.3761 41.1451 13.5221 41.224 13.6117 41.224C13.7012 41.224 13.7746 41.2689 13.7746 41.3238C13.7746 41.3787 13.8617 41.4236 13.9683 41.4236C14.0748 41.4236 14.1898 41.4686 14.2238 41.5234C14.2577 41.5783 14.3952 41.6233 14.5292 41.6233C14.6632 41.6233 14.7728 41.6682 14.7728 41.7231C14.7728 41.778 14.8823 41.8229 15.0163 41.8229C15.1503 41.8229 15.2878 41.8678 15.3218 41.9227C15.3557 41.9776 15.5354 42.0225 15.721 42.0225C15.9067 42.0225 16.0864 42.0674 16.1203 42.1223C16.158 42.1835 16.953 42.2222 18.1725 42.2222C19.4329 42.2222 20.1629 42.1855 20.1629 42.1223C20.1629 42.0674 20.3425 42.0225 20.5621 42.0225C20.7817 42.0225 20.9614 41.9776 20.9614 41.9227C20.9614 41.8678 21.0961 41.8229 21.2608 41.8229C21.4255 41.8229 21.5603 41.778 21.5603 41.7231C21.5603 41.6682 21.6459 41.6233 21.7504 41.6233C21.9171 41.6233 22.7219 41.2604 22.8579 41.1239C22.8853 41.0965 23.0313 41.0104 23.1823 40.9325C23.3333 40.8547 23.4568 40.7536 23.4568 40.7079C23.4568 40.6625 23.5277 40.6251 23.6143 40.6251C23.7011 40.6251 23.9369 40.4567 24.1383 40.2508C24.3399 40.0449 24.6269 39.8136 24.7759 39.7367C24.9251 39.6599 25.0234 39.5588 24.9947 39.5121C24.9658 39.4655 25.0122 39.4273 25.0978 39.4273C25.1834 39.4273 25.2535 39.3911 25.2535 39.347C25.2535 39.3028 25.4147 39.0907 25.6118 38.8753C25.809 38.6602 26.0348 38.3595 26.1134 38.2071C26.1923 38.0548 26.3006 37.9301 26.354 37.9301C26.4076 37.9301 26.4513 37.8402 26.4513 37.7304C26.4513 37.6206 26.485 37.5308 26.5261 37.5308C26.5673 37.5308 26.6053 37.3848 26.6105 37.2064C26.6157 37.028 26.736 36.6125 26.8775 36.2831C27.1218 35.7144 27.2972 35.0811 27.557 33.8299C27.6661 33.3048 27.6508 32.6842 27.4911 31.166C27.4549 30.8219 27.3858 30.516 27.3374 30.4863C27.2892 30.4566 27.2498 30.3026 27.2498 30.1444C27.2498 29.9862 27.2049 29.829 27.15 29.795C27.0951 29.7611 27.0502 29.6263 27.0502 29.4956C27.0502 29.3648 27.0053 29.2301 26.9504 29.1961C26.8955 29.1622 26.8506 29.0472 26.8506 28.9406C26.8506 28.834 26.8056 28.747 26.7507 28.747C26.6958 28.747 26.6509 28.6571 26.6509 28.5473C26.6509 28.4375 26.606 28.3477 26.5511 28.3477C26.4962 28.3477 26.4513 28.2579 26.4513 28.1481C26.4513 28.0383 26.4064 27.9484 26.3515 27.9484C26.2966 27.9484 26.2517 27.8995 26.2517 27.8399C26.2517 27.661 25.6415 26.8415 25.004 26.1647C24.1323 25.2392 23.3413 24.6652 22.1592 24.1008C21.8572 23.9565 21.5321 23.7976 21.4368 23.7474C21.3414 23.6972 21.1757 23.6563 21.0684 23.6563C20.9611 23.6563 20.8456 23.6114 20.8117 23.5565C20.7777 23.5016 20.615 23.4567 20.4498 23.4567C20.2849 23.4567 20.074 23.4175 19.9817 23.3698C19.7803 23.2655 18.327 23.1957 17.2185 23.2368ZM80.4023 23.2368C79.9633 23.2531 79.5613 23.3092 79.5089 23.3616C79.4568 23.4138 79.3185 23.4567 79.2017 23.4567C77.82 23.4567 74.8712 25.4216 73.5095 27.2497C71.6936 29.6875 71.3434 33.5816 72.6765 36.5212C72.8369 36.8753 72.9437 37.2428 72.9138 37.3374C72.8836 37.4322 72.9168 37.5707 72.9872 37.6451C73.0578 37.7194 73.1791 37.9039 73.2572 38.0548C73.335 38.2058 73.4361 38.3293 73.4818 38.3293C73.5272 38.3293 73.5646 38.3942 73.5646 38.4733C73.5646 38.5527 73.733 38.7753 73.9389 38.9679C74.1448 39.1605 74.5775 39.5673 74.9007 39.8717C75.2236 40.1764 75.5395 40.4255 75.6021 40.4255C75.665 40.4255 75.7795 40.5128 75.8566 40.6199C75.9335 40.7267 76.0296 40.7935 76.0703 40.7686C76.1107 40.7436 76.2035 40.7823 76.2766 40.8549C76.3495 40.9273 76.5554 41.0511 76.7338 41.1297C76.9122 41.2083 77.0582 41.3066 77.0582 41.3483C77.0582 41.3897 77.148 41.4236 77.2578 41.4236C77.3676 41.4236 77.4574 41.4686 77.4574 41.5234C77.4574 41.5783 77.5445 41.6233 77.6511 41.6233C77.7576 41.6233 77.8727 41.6682 77.9066 41.7231C77.9406 41.778 78.0753 41.8229 78.2061 41.8229C78.3368 41.8229 78.4716 41.8678 78.5055 41.9227C78.5395 41.9776 78.7191 42.0225 78.9048 42.0225C79.0904 42.0225 79.2701 42.0674 79.304 42.1223C79.3417 42.1835 80.1368 42.2222 81.3563 42.2222C82.6167 42.2222 83.3466 42.1855 83.3466 42.1223C83.3466 42.0674 83.5263 42.0225 83.7459 42.0225C83.9655 42.0225 84.1451 41.9776 84.1451 41.9227C84.1451 41.8678 84.2799 41.8229 84.4446 41.8229C84.6093 41.8229 84.744 41.778 84.744 41.7231C84.744 41.6682 84.8563 41.6233 84.9936 41.6233C85.1308 41.6233 85.2431 41.5783 85.2431 41.5234C85.2431 41.4686 85.333 41.4236 85.4428 41.4236C85.5526 41.4236 85.6424 41.3787 85.6424 41.3238C85.6424 41.2689 85.7322 41.224 85.842 41.224C85.9518 41.224 86.0416 41.1791 86.0416 41.1242C86.0416 41.0693 86.1215 41.0244 86.2193 41.0244C86.3169 41.0244 86.4616 40.9345 86.5407 40.8247C86.6198 40.7149 86.7546 40.6251 86.8402 40.6251C86.9258 40.6251 87.0605 40.5353 87.1396 40.4255C87.2187 40.3157 87.341 40.2258 87.4111 40.2258C87.4815 40.2258 87.5389 40.1809 87.5389 40.126C87.5389 40.0711 87.5871 40.0262 87.646 40.0262C87.7937 40.0262 88.0425 39.7644 87.9666 39.6888C87.9327 39.6546 87.9594 39.6269 88.026 39.6269C88.0924 39.6269 88.2591 39.5146 88.3963 39.3774C88.5336 39.2401 88.6249 39.1279 88.5992 39.1279C88.5737 39.1279 88.7287 38.939 88.9441 38.7081C89.1594 38.4771 89.3356 38.2175 89.3356 38.1312C89.3356 38.0449 89.4254 37.9094 89.5352 37.8302C89.6657 37.7362 89.7349 37.572 89.7349 37.3551C89.7349 37.173 89.8282 36.8408 89.9422 36.6172C90.4101 35.7002 90.7218 34.4315 90.7967 33.1389C90.8466 32.279 90.5748 30.2749 90.3263 29.6703C90.2754 29.5467 90.1948 29.3446 90.1469 29.2211C89.9647 28.7519 89.5821 27.9971 89.5103 27.9651C89.4691 27.9467 89.4354 27.8875 89.4354 27.8334C89.4354 27.6457 88.7971 26.7973 88.1445 26.118C87.227 25.1628 86.558 24.6809 85.3429 24.1008C85.041 23.9565 84.7158 23.7976 84.6205 23.7474C84.5252 23.6972 84.3595 23.6563 84.2522 23.6563C84.1449 23.6563 84.0294 23.6114 83.9954 23.5565C83.9615 23.5016 83.7988 23.4567 83.6336 23.4567C83.4686 23.4567 83.2578 23.417 83.1654 23.3686C82.9656 23.2643 81.5217 23.1952 80.4023 23.2368ZM19.3773 28.0208C20.6492 28.3749 22.4586 29.9365 22.4586 30.6804C22.4586 30.7635 22.5036 30.8591 22.5584 30.893C22.6133 30.9269 22.6583 31.0617 22.6583 31.1925C22.6583 31.3232 22.7032 31.458 22.7581 31.4919C22.938 31.6032 22.8706 33.0243 22.6495 33.777C22.3114 34.9283 21.7454 35.7593 20.906 36.3367L20.4823 36.6285L20.4972 36.1221C20.5142 35.5487 20.1619 35.1367 19.6538 35.1357C17.8878 35.1322 15.5805 32.7658 15.5723 30.9494C15.5706 30.5439 15.202 30.2442 14.7054 30.2442C13.5395 30.2442 15.6724 28.3163 17.0957 28.0837C17.3029 28.0497 17.4985 27.9796 17.5304 27.9277C17.6003 27.8149 18.8667 27.8786 19.3773 28.0208ZM82.5626 28.021C84.491 28.5576 86.0416 30.5319 86.0416 32.4506C86.0416 33.8773 85.1862 35.5824 84.0937 36.334L83.666 36.6285L83.681 36.1221C83.6985 35.534 83.3441 35.138 82.7976 35.1342C82.4939 35.1322 81.8099 34.9293 81.6849 34.8043C81.6472 34.7666 81.5454 34.7354 81.4583 34.7349C80.9288 34.7317 79.4009 33.1514 79.0879 32.2832C78.8496 31.6222 78.7551 31.2646 78.7551 31.0243C78.7551 30.5664 78.4017 30.2442 77.8994 30.2442C76.7133 30.2442 78.8324 28.3138 80.2708 28.0837C80.4826 28.0497 80.6823 27.9796 80.7142 27.9277C80.7841 27.8147 82.0505 27.8788 82.5626 28.021Z" fill="#363E2E"/>
<path fill-rule="evenodd" clip-rule="evenodd" d="M24.2059 7.78487C24.1717 7.84027 24.0143 7.88543 23.8561 7.88543C23.6979 7.88543 23.5407 7.93035 23.5067 7.98525C23.4728 8.04015 23.3353 8.08506 23.2013 8.08506C23.0673 8.08506 22.9577 8.12998 22.9577 8.18488C22.9577 8.23978 22.823 8.2847 22.6583 8.2847C22.4936 8.2847 22.3588 8.32962 22.3588 8.38452C22.3588 8.43942 22.2044 8.48433 22.0155 8.48433C21.8266 8.48433 21.6441 8.52925 21.6102 8.58415C21.5763 8.63905 21.4415 8.68396 21.3108 8.68396C21.18 8.68396 21.0453 8.72888 21.0113 8.78378C20.9774 8.83868 20.8174 8.8836 20.656 8.8836C20.4945 8.8836 20.3625 8.92851 20.3625 8.98341C20.3625 9.03831 20.2305 9.08323 20.069 9.08323C19.9076 9.08323 19.7476 9.12815 19.7137 9.18305C19.6798 9.23795 19.5198 9.28286 19.3584 9.28286C19.1969 9.28286 19.0649 9.32778 19.0649 9.38268C19.0649 9.43758 18.9301 9.48249 18.7654 9.48249C18.6007 9.48249 18.466 9.52741 18.466 9.58231C18.466 9.63721 18.3312 9.68213 18.1665 9.68213C18.0019 9.68213 17.8671 9.72704 17.8671 9.78194C17.8671 9.83684 17.7126 9.88176 17.5237 9.88176C17.3348 9.88176 17.1524 9.92668 17.1185 9.98158C17.0845 10.0365 16.9246 10.0814 16.7631 10.0814C16.6017 10.0814 16.4697 10.1263 16.4697 10.1812C16.4697 10.2361 16.3601 10.281 16.2261 10.281C16.0921 10.281 15.9554 10.3249 15.9222 10.3783C15.8842 10.4397 16.4554 10.4859 17.4636 10.5031C18.896 10.5276 19.6211 10.6623 18.8653 10.7636C18.728 10.7819 18.573 10.838 18.5209 10.8884C18.4687 10.9386 18.3255 10.9797 18.2025 10.9797C18.0795 10.9797 17.9509 11.0247 17.917 11.0796C17.8831 11.1345 17.7675 11.1794 17.6602 11.1794C17.5529 11.1794 17.3872 11.2203 17.2919 11.2705C17.1966 11.3204 16.0405 11.7074 14.7229 12.1301C13.4053 12.5528 11.4739 13.1812 10.4308 13.5266C7.79588 14.3987 7.82857 14.392 4.39189 14.7758C3.87035 14.8342 3.12622 14.9232 2.73818 14.9736C2.02774 15.0662 1.33576 15.0153 1.24193 14.8636C1.00537 14.4805 0.898315 14.9567 0.898315 16.3938V17.8935L2.57024 17.8553L4.24216 17.8172V21.9595V26.1019L2.57024 26.0637L0.898315 26.0256V29.4433C0.898315 32.5186 0.914036 32.8547 1.05627 32.8003C1.14312 32.7669 2.84473 32.7397 4.83807 32.7397H8.4619L8.5188 32.0659C8.59191 31.1978 8.82224 29.9813 8.99093 29.5705C9.04183 29.447 9.12244 29.2449 9.17035 29.1214C9.35251 28.6522 9.73506 27.8974 9.80693 27.8654C9.8481 27.847 9.88179 27.7768 9.88179 27.7095C9.88179 27.6421 9.96039 27.4998 10.0565 27.3933C10.1525 27.2867 10.3647 27.02 10.5276 26.8006C11.514 25.4728 13.3087 24.1562 14.8227 23.6494C15.0423 23.5761 15.2646 23.48 15.3168 23.4363C15.3689 23.3927 15.5284 23.357 15.6711 23.357C15.8139 23.357 15.9733 23.3163 16.0255 23.2664C16.3332 22.9722 20.0014 22.9719 20.3076 23.2659C20.3598 23.316 20.5255 23.357 20.6759 23.357C20.8264 23.357 20.9774 23.4019 21.0113 23.4568C21.0453 23.5117 21.1608 23.5566 21.2681 23.5566C21.3754 23.5566 21.5411 23.5965 21.6364 23.6454C21.7317 23.6943 22.0344 23.8403 22.3089 23.9698C22.5834 24.0994 22.823 24.2391 22.8412 24.2803C22.8597 24.3214 22.9183 24.3551 22.9715 24.3551C23.3133 24.3551 24.9596 25.7568 25.6563 26.6407C26.2587 27.405 27.15 29.024 27.15 29.3539C27.15 29.4528 27.1949 29.5616 27.2498 29.5955C27.3047 29.6294 27.3497 29.7579 27.3497 29.881C27.3497 30.004 27.3901 30.1472 27.4392 30.1994C27.549 30.3157 27.6461 30.9415 27.7135 31.9661L27.7641 32.7397H49.7038H71.6434L71.7058 32.2157C71.7639 31.7246 71.876 30.9907 72.0252 30.1185C72.0607 29.9122 72.1295 29.7188 72.1782 29.6886C72.2271 29.6584 72.267 29.5239 72.267 29.3899C72.267 29.2559 72.3119 29.1463 72.3668 29.1463C72.4217 29.1463 72.4667 29.034 72.4667 28.8968C72.4667 28.7595 72.5116 28.6472 72.5665 28.6472C72.6214 28.6472 72.6663 28.5611 72.6663 28.4558C72.6663 28.3508 72.7 28.2497 72.7411 28.2313C72.7823 28.213 72.9251 27.9959 73.0581 27.7489C73.1913 27.5018 73.3261 27.2773 73.3575 27.2498C73.3892 27.2224 73.5946 26.9756 73.8142 26.7013C74.9279 25.3109 76.335 24.2917 78.0564 23.6295C78.1936 23.5766 78.384 23.4937 78.4793 23.4451C78.5747 23.3966 78.7566 23.357 78.8836 23.357C79.0106 23.357 79.1571 23.3163 79.2093 23.2664C79.5224 22.9669 83.3187 22.9697 83.5038 23.2694C83.5335 23.3175 83.6875 23.357 83.8457 23.357C84.0039 23.357 84.1611 23.4019 84.1951 23.4568C84.229 23.5117 84.3445 23.5566 84.4519 23.5566C84.5592 23.5566 84.7249 23.5965 84.8202 23.6454C84.9155 23.6943 85.2182 23.8391 85.4927 23.9669C86.8669 24.6069 89.0319 26.484 89.3256 27.29C89.3476 27.3501 89.3925 27.422 89.4254 27.4494C89.5432 27.5478 90.0695 28.5532 90.2482 29.0215C90.2954 29.1451 90.3735 29.3472 90.4221 29.4707C90.514 29.7035 90.634 30.153 90.8226 30.9695C90.8833 31.231 90.9327 31.7363 90.9327 32.0924V32.7397H93.8306C96.5014 32.7397 96.7328 32.726 96.7867 32.565C96.9306 32.1351 97.0761 31.8414 97.1458 31.8414C97.1872 31.8414 97.2211 31.7795 97.2211 31.7039C97.2211 31.6283 97.2982 31.3924 97.3928 31.1798C97.4871 30.9672 97.5722 30.7484 97.5817 30.6935C97.6269 30.4367 97.7504 30.1445 97.8135 30.1445C97.8522 30.1445 97.9448 29.9199 98.0196 29.6454C98.0945 29.3709 98.1923 29.1463 98.2372 29.1463C98.2824 29.1463 98.3191 29.0565 98.3191 28.9467C98.3191 28.8369 98.364 28.7471 98.4189 28.7471C98.5816 28.7471 98.5324 28.3745 98.3608 28.3086C98.2739 28.2752 96.9938 28.248 95.516 28.248H92.8292V27.3077V26.3672L95.2165 26.3345C97.3474 26.305 98.0621 26.2279 97.6284 26.0742C97.5503 26.0465 97.3609 25.8955 97.2074 25.7386C97.0539 25.5816 96.9019 25.4531 96.8698 25.4531C96.733 25.4531 96.1301 24.9805 96.1903 24.9203C96.2264 24.8839 96.188 24.8542 96.1047 24.8542C96.0213 24.8542 95.8122 24.7195 95.6398 24.5548C95.4673 24.3901 95.2859 24.2553 95.2363 24.2553C95.1866 24.2553 95.0044 24.1228 94.8313 23.9611C94.6578 23.7994 94.4996 23.6759 94.4792 23.6866C94.4589 23.6973 94.3287 23.6078 94.1902 23.487C93.9451 23.2741 93.3847 22.9492 93.2771 22.958C93.2479 22.9602 93.1142 22.8524 92.9799 22.7181C92.8457 22.5839 92.6445 22.4451 92.533 22.4097C92.4214 22.3743 92.3301 22.3034 92.3301 22.2523C92.3301 22.2011 92.2607 22.1592 92.1761 22.1592C92.0915 22.1592 91.9258 22.0693 91.8081 21.9595C91.6903 21.8497 91.5348 21.7599 91.463 21.7599C91.3908 21.7599 91.3319 21.715 91.3319 21.6601C91.3319 21.6052 91.2421 21.5603 91.1323 21.5603C91.0225 21.5603 90.9327 21.5154 90.9327 21.4605C90.9327 21.4056 90.8428 21.3606 90.733 21.3606C90.6233 21.3606 90.5334 21.3157 90.5334 21.2608C90.5334 21.2059 90.4436 21.161 90.3338 21.161C90.224 21.161 90.1342 21.1161 90.1342 21.0612C90.1342 21.0063 90.0443 20.9614 89.9345 20.9614C89.8247 20.9614 89.7349 20.9165 89.7349 20.8616C89.7349 20.8067 89.6226 20.7617 89.4853 20.7617C89.3481 20.7617 89.2358 20.7168 89.2358 20.6619C89.2358 20.607 89.1235 20.5621 88.9863 20.5621C88.849 20.5621 88.7367 20.5269 88.7367 20.484C88.7367 20.4411 88.5346 20.3463 88.2875 20.2734C88.0405 20.2005 87.8384 20.101 87.8384 20.0521C87.8384 20.0031 87.7036 19.9632 87.5389 19.9632C87.3742 19.9632 87.2395 19.9183 87.2395 19.8634C87.2395 19.8085 87.1085 19.7636 86.9483 19.7636C86.7883 19.7636 86.6423 19.7207 86.6239 19.6683C86.6056 19.6156 86.4222 19.5615 86.2164 19.548C86.0105 19.5343 85.842 19.4873 85.842 19.4437C85.842 19.4 85.71 19.3643 85.5486 19.3643C85.3871 19.3643 85.2302 19.3241 85.1997 19.275C85.1695 19.2258 84.9759 19.1604 84.7698 19.1292C84.5634 19.0981 84.1252 19.0232 83.7958 18.9628C83.4664 18.9022 82.9863 18.8435 82.729 18.832C82.4717 18.8206 82.2297 18.7796 82.1913 18.7412C82.1528 18.7028 79.3315 18.6701 75.9215 18.6686C72.5116 18.6668 69.1847 18.6359 68.5284 18.5995L67.3351 18.5336L65.9831 17.6215C65.2394 17.1197 64.0127 16.2847 63.2571 15.7659C61.8138 14.775 59.4546 13.161 57.1608 11.5951C55.5752 10.5131 55.5695 10.4807 56.9569 10.4807C57.6302 10.4807 57.983 10.445 57.9434 10.3808C57.9094 10.3259 57.7919 10.281 57.6821 10.281C57.5723 10.281 57.5102 10.2361 57.5441 10.1812C57.579 10.1248 57.4972 10.0814 57.3562 10.0814C57.219 10.0814 57.079 10.0365 57.045 9.98158C57.0111 9.92668 56.896 9.88176 56.7895 9.88176C56.6829 9.88176 56.5958 9.83684 56.5958 9.78194C56.5958 9.72704 56.4836 9.68213 56.3463 9.68213C56.2091 9.68213 56.0968 9.63721 56.0968 9.58231C56.0968 9.52741 55.9845 9.48249 55.8472 9.48249C55.71 9.48249 55.5977 9.43758 55.5977 9.38268C55.5977 9.32778 55.4602 9.28286 55.2922 9.28286C55.1143 9.28286 55.0128 9.24119 55.0487 9.18305C55.0854 9.12341 54.9646 9.08323 54.7492 9.08323C54.5339 9.08323 54.4131 9.04305 54.4498 8.98341C54.4857 8.92527 54.3862 8.8836 54.212 8.8836C54.0473 8.8836 53.8848 8.83868 53.8509 8.78378C53.817 8.72888 53.6345 8.68396 53.4456 8.68396C53.2567 8.68396 53.1023 8.63905 53.1023 8.58415C53.1023 8.52925 52.9226 8.48433 52.703 8.48433C52.4834 8.48433 52.3037 8.4479 52.3037 8.40323C52.3037 8.35856 52.0904 8.31115 51.8296 8.29793C51.5688 8.2847 51.3405 8.23155 51.3223 8.17964C51.3038 8.12749 51.0932 8.08506 50.8539 8.08506C50.6148 8.08506 50.3913 8.04015 50.3573 7.98525C50.3234 7.93035 49.9838 7.88543 49.6027 7.88543C49.2147 7.88543 48.91 7.84226 48.91 7.78711C48.91 7.64962 24.2908 7.64737 24.2059 7.78487ZM47.8619 10.6623C48.3011 10.7212 48.7952 10.7956 48.9599 10.828C49.1246 10.8602 49.5064 10.9333 49.8083 10.9905C50.8948 11.1961 52.2898 11.5589 53.5003 11.9505C54.9436 12.4171 57.2299 13.424 58.5173 14.1596C58.7232 14.2772 59.0523 14.4646 59.2487 14.5759C60.9424 15.5351 64.6158 18.2209 64.3658 18.317C64.0988 18.4193 49.2915 18.2958 48.6604 18.186C48.3311 18.1286 47.7471 18.033 47.3628 17.9739C46.6858 17.8693 46.2359 17.7982 44.7676 17.5626C44.3833 17.501 43.8218 17.4129 43.5199 17.3667C41.9578 17.1284 41.5273 17.0598 41.0245 16.9695C39.8327 16.7554 39.1422 16.6528 38.3295 16.5695C37.8628 16.5215 37.1891 16.4362 36.8322 16.3793C36.4754 16.3227 35.8914 16.2323 35.5346 16.1787C35.1777 16.125 34.6387 16.0342 34.3368 15.977C33.6778 15.852 32.1206 15.5915 31.2924 15.4675C30.02 15.2771 29.2719 15.1618 28.6473 15.0605C28.2904 15.0026 27.7514 14.9175 27.4495 14.8713C26.4029 14.7116 25.5001 14.5716 24.9042 14.4763C24.5748 14.4239 23.9908 14.3326 23.6065 14.2737C23.2222 14.2148 22.6383 14.1235 22.3089 14.0711C21.9795 14.0184 21.4181 13.9316 21.0612 13.8782C20.7044 13.8248 20.1205 13.7349 19.7636 13.6785C19.4068 13.6221 18.8166 13.5365 18.4523 13.4884C17.5357 13.3673 17.2592 13.1527 17.8421 13.0147C17.9931 12.9791 18.8802 12.7268 19.8135 12.4545C20.7468 12.182 21.6676 11.916 21.8598 11.8631C22.5595 11.6707 22.8185 11.5964 23.357 11.4329C24.3557 11.1297 25.098 10.9104 25.553 10.7838C25.8 10.7152 26.092 10.6216 26.2018 10.5757C26.5 10.451 46.8922 10.5328 47.8619 10.6623ZM7.56405 18.2414C7.68109 18.5022 7.85102 18.8952 7.94136 19.1148C8.03144 19.3344 8.21311 19.7511 8.34487 20.0411C8.47637 20.3308 8.58418 20.5881 8.58418 20.6125C8.58418 20.637 8.71094 20.9387 8.86616 21.2833C9.36075 22.3828 9.41365 22.55 9.30934 22.6832C9.25569 22.7518 9.07727 23.055 8.91282 23.357C8.74812 23.6589 8.51705 24.0744 8.39927 24.2803C8.17468 24.6723 7.89719 25.1614 7.67036 25.5642C7.36093 26.1137 7.28931 26.1518 6.57238 26.1518H5.88913V21.9595V17.7673H6.62004H7.3507L7.56405 18.2414ZM39.3775 20.4595C39.9577 20.5434 40.89 20.6851 42.0227 20.8616C43.0994 21.0293 44.0786 21.1785 44.7177 21.2718C45.0745 21.3242 45.636 21.4091 45.9654 21.4605C46.2948 21.5119 46.8563 21.5967 47.2131 21.6491C47.8522 21.7424 48.8314 21.8917 49.9081 22.0594C50.2101 22.1065 50.7716 22.1914 51.1559 22.2485C51.5401 22.3054 52.6182 22.4674 53.5514 22.6081C54.4847 22.7488 56.1467 22.9981 57.2447 23.1616C58.3426 23.325 59.6677 23.5259 60.1892 23.6075C60.7108 23.6894 61.4519 23.8027 61.8362 23.8595C62.2205 23.9164 62.8157 24.0063 63.1588 24.0592C65.0902 24.3574 65.628 24.4385 67.0766 24.6503C69.1046 24.9468 69.1375 24.9663 68.8338 25.6927C68.4408 26.6337 67.7798 26.7662 65.0303 26.4548C63.9873 26.3367 62.752 26.198 62.2854 26.1468C61.8187 26.0957 61.0551 26.0081 60.5885 25.9522C60.1219 25.8963 59.3134 25.8037 58.7918 25.7463C58.2703 25.6892 57.4618 25.5981 56.9951 25.5444C56.5285 25.4905 55.7649 25.405 55.2982 25.3543C54.8316 25.3036 54.068 25.2146 53.6014 25.1562C53.1347 25.098 52.3487 25.0077 51.8546 24.9555C50.8417 24.8485 49.7058 24.72 48.3111 24.5548C47.1405 24.416 45.9307 24.2778 44.8175 24.1555C44.3509 24.1043 43.5424 24.0135 43.0208 23.9536C42.4993 23.894 41.7132 23.8056 41.274 23.7575L40.4755 23.6696L39.3526 24.2241C38.157 24.8143 38.0727 24.9168 38.5041 25.2535C38.6551 25.3713 39.2283 25.9023 39.778 26.4336C41.4934 28.0915 41.302 27.9677 42.2932 28.0598C43.1576 28.1402 44.1485 28.2467 45.8157 28.4391C46.2823 28.4928 47.1133 28.5866 47.6623 28.6472C48.2113 28.7079 49.0198 28.7977 49.459 28.8469C49.8982 28.896 50.7067 28.9859 51.2557 29.0465C51.8047 29.1071 52.6356 29.1997 53.1023 29.2521C53.5689 29.3045 54.3774 29.3931 54.899 29.449C56.1262 29.5805 57.332 29.7143 58.3925 29.8365C59.222 29.9321 60.0173 30.0212 62.0358 30.2443C69.0133 31.0156 68.5781 30.9453 69.0574 31.3797C69.9927 32.2274 69.7838 32.5832 68.3991 32.5011C67.7541 32.463 66.5076 32.3901 65.6292 32.3392C64.7508 32.2883 63.291 32.1995 62.3852 32.1418C60.6237 32.0298 58.3851 31.8968 55.6476 31.7413C54.7143 31.6884 51.323 31.4883 48.1115 31.2971C44.8999 31.1057 41.4188 30.9023 40.3757 30.8452C37.6976 30.6982 37.871 30.7441 37.3173 30.0337C37.0199 29.6519 34.6707 26.6881 34.2405 26.1518C34.0865 25.9597 33.4801 25.1963 32.8932 24.4552L31.8262 23.1082L32.5596 22.7583C32.9628 22.5662 33.4941 22.3231 33.7399 22.2186C33.9859 22.114 34.4117 21.9281 34.6862 21.8056C35.2374 21.5593 35.8977 21.2656 36.7324 20.895C37.0343 20.7607 37.4611 20.5639 37.6806 20.4571C37.9504 20.326 38.1932 20.2809 38.4293 20.3181C38.6214 20.3483 39.0481 20.4121 39.3775 20.4595Z" fill="#41479B"/>
<path fill-rule="evenodd" clip-rule="evenodd" d="M15.4582 10.5272C15.4328 10.5529 15.2551 10.5931 15.0635 10.617C14.8718 10.6407 14.5429 10.732 14.3325 10.8199C14.1219 10.908 13.8846 10.9798 13.8053 10.9798C13.7257 10.9798 13.5972 11.0432 13.5195 11.1206C13.4422 11.1982 13.2882 11.2379 13.1774 11.2089C13.0641 11.1792 12.976 11.2049 12.976 11.2676C12.976 11.329 12.8263 11.3791 12.6434 11.3791C12.4602 11.3791 12.2796 11.4103 12.2414 11.4482C12.2035 11.4862 12.0745 11.5323 11.9547 11.5505C11.8349 11.5688 11.7126 11.6182 11.6827 11.6603C11.653 11.7025 11.4938 11.7467 11.3291 11.7584C11.1644 11.7704 10.8392 11.8695 10.6064 11.9788C10.3738 12.0883 10.0507 12.1776 9.88872 12.1776C9.72677 12.1776 9.56632 12.2226 9.53238 12.2775C9.49844 12.3324 9.36095 12.3773 9.22694 12.3773C9.09294 12.3773 8.98339 12.4222 8.98339 12.4771C8.98339 12.532 8.82618 12.5769 8.63403 12.5769C8.44189 12.5769 8.28468 12.6218 8.28468 12.6767C8.28468 12.7316 8.11624 12.7773 7.91036 12.778C7.63188 12.7793 7.57448 12.8045 7.68578 12.8764C7.79533 12.9472 7.72196 12.9734 7.41128 12.9747C7.17796 12.9754 6.98706 13.0181 6.98706 13.0693C6.98706 13.1207 6.86703 13.1768 6.7203 13.194C6.57357 13.2115 6.43508 13.2819 6.41262 13.3505C6.35273 13.5326 6.88051 13.5089 6.95063 13.3263C6.98856 13.228 7.08538 13.1968 7.2361 13.2344C7.36162 13.2661 7.49438 13.2432 7.53106 13.1838C7.56774 13.1247 7.72995 13.076 7.8914 13.076C8.05285 13.076 8.18486 13.0311 8.18486 12.9762C8.18486 12.9213 8.31687 12.8764 8.47832 12.8764C8.63977 12.8764 8.79973 12.8314 8.83367 12.7765C8.8676 12.7216 9.02481 12.6767 9.18302 12.6767C9.34123 12.6767 9.49844 12.6318 9.53238 12.5769C9.56632 12.522 9.70107 12.4771 9.83183 12.4771C9.96259 12.4771 10.0973 12.4322 10.1313 12.3773C10.1652 12.3224 10.304 12.2775 10.4397 12.2775C10.5755 12.2775 10.7092 12.2181 10.7372 12.1457C10.7684 12.0641 10.8959 12.0297 11.0715 12.0554C11.2275 12.0783 11.3857 12.0479 11.4229 11.9875C11.4601 11.9274 11.6228 11.8782 11.7842 11.8782C11.9457 11.8782 12.0777 11.8333 12.0777 11.7784C12.0777 11.7235 12.2124 11.6786 12.3771 11.6786C12.5418 11.6786 12.6766 11.6336 12.6766 11.5787C12.6766 11.5238 12.8086 11.4789 12.9701 11.4789C13.1315 11.4789 13.2915 11.434 13.3254 11.3791C13.3593 11.3242 13.5193 11.2793 13.6807 11.2793C13.8422 11.2793 13.9742 11.2344 13.9742 11.1795C13.9742 11.1246 14.1314 11.0797 14.3236 11.0797C14.5157 11.0797 14.6729 11.0347 14.6729 10.9798C14.6729 10.9249 14.8077 10.88 14.9724 10.88C15.1371 10.88 15.2718 10.8351 15.2718 10.7802C15.2718 10.7253 15.429 10.6804 15.6212 10.6804C15.8133 10.6804 15.9705 10.6355 15.9705 10.5806C15.9705 10.4818 15.5478 10.4378 15.4582 10.5272ZM16.2949 10.5496C16.391 10.5746 16.5482 10.5746 16.6443 10.5496C16.7404 10.5244 16.6618 10.504 16.4696 10.504C16.2775 10.504 16.1989 10.5244 16.2949 10.5496ZM17.2931 10.5541C17.5539 10.5746 17.9806 10.5746 18.2414 10.5541C18.5021 10.5337 18.2888 10.5167 17.7672 10.5167C17.2457 10.5167 17.0323 10.5337 17.2931 10.5541ZM27.1557 10.5606C27.4721 10.5871 27.7736 10.8536 29.9416 13.0228L32.3729 15.4556L31.7328 15.4002C31.3807 15.37 31.0171 15.3061 30.9245 15.2585C30.8322 15.2111 30.509 15.1721 30.2068 15.1721C29.9044 15.1721 29.6294 15.1272 29.5955 15.0723C29.5615 15.0174 29.2758 14.9725 28.9606 14.9725C28.6455 14.9725 28.345 14.9316 28.2929 14.8814C28.2407 14.8315 27.9285 14.7634 27.5991 14.7302C26.0889 14.5787 25.8965 14.55 25.8074 14.4647C25.7553 14.4145 25.4548 14.3736 25.1397 14.3736C24.8245 14.3736 24.5388 14.3287 24.5048 14.2738C24.4709 14.2189 24.1852 14.174 23.87 14.174C23.5548 14.174 23.2544 14.133 23.2022 14.0829C23.1501 14.033 22.8491 13.9656 22.5335 13.9332C22.2178 13.901 21.7012 13.8481 21.3856 13.8159C21.0699 13.7834 20.769 13.7161 20.7168 13.6662C20.6646 13.616 20.3704 13.5751 20.063 13.5751C19.7556 13.5751 19.4614 13.5326 19.4092 13.4807C19.3571 13.4288 19.0449 13.3727 18.7155 13.356C18.302 13.335 18.1243 13.2868 18.1415 13.2008C18.1553 13.1321 18.0767 13.076 17.9669 13.076C17.8571 13.076 17.7672 13.1426 17.7672 13.2237C17.7672 13.3797 17.9077 13.4246 18.7155 13.5264C18.99 13.5611 19.4616 13.6277 19.7636 13.6746C20.0655 13.7216 20.6494 13.8114 21.0612 13.8745C21.4729 13.9377 22.0568 14.0275 22.3588 14.0742C22.6607 14.1208 23.2447 14.2107 23.6564 14.2738C24.0681 14.3369 24.6633 14.43 24.979 14.4809C25.2946 14.5316 25.8112 14.6149 26.1269 14.6656C26.6529 14.7502 27.258 14.844 28.747 15.0711C29.049 15.1172 29.5992 15.2038 29.9698 15.2635C30.3404 15.3231 30.9243 15.4134 31.2674 15.4646C31.6105 15.5155 32.3404 15.6323 32.8894 15.7239C34.0533 15.9183 34.5578 15.9841 34.3118 15.9093C34.1598 15.8631 34.1371 15.7196 34.1371 14.8105C34.1371 13.482 34.1531 13.5102 32.4986 11.9009L31.1411 10.5806H34.5855H38.03V12.4541V14.3274L39.1783 15.4985C40.3454 16.6886 40.424 16.8917 39.5958 16.5765C39.3121 16.4687 37.1503 16.3223 37.2454 16.4173C37.2806 16.4525 37.7522 16.5229 38.2935 16.5741C39.2223 16.6616 39.7273 16.7345 41.0244 16.9691C41.527 17.0599 41.9512 17.1275 43.5199 17.3668C43.8218 17.413 44.3833 17.5011 44.7676 17.5627C46.2359 17.7983 46.6858 17.8694 47.3628 17.974C47.7471 18.0331 48.331 18.1287 48.6604 18.1861C49.3726 18.3101 64.1749 18.4132 64.2929 18.2951C64.3361 18.252 61.106 18.2133 57.1148 18.2093C53.1237 18.2056 49.7142 18.1669 49.5383 18.124C49.2992 18.0653 48.2641 17.1048 45.4578 14.3379L41.6977 10.6305L43.0829 10.5806C43.8448 10.5531 40.4929 10.5307 35.6344 10.5307C30.7758 10.5307 26.9603 10.5441 27.1557 10.5606ZM56.5586 10.5551L55.7731 10.5893L56.8082 11.3137C57.3776 11.712 58.9889 12.8197 60.3888 13.7752C61.7887 14.7307 63.8233 16.1209 64.9098 16.8645C65.9965 17.6082 67.0071 18.2919 67.1556 18.3837C67.4955 18.5943 70.6699 18.7713 70.6699 18.5799C70.6699 18.5172 70.5998 18.4661 70.5142 18.4661C70.4221 18.4661 70.3877 18.4192 70.4299 18.3508C70.4725 18.2819 70.4576 18.2627 70.3924 18.3029C70.3325 18.3398 70.1683 18.255 70.0276 18.114C69.8868 17.9732 69.7716 17.9098 69.7716 17.973C69.7716 18.0361 69.6368 17.9438 69.4721 17.7674C69.3074 17.5909 69.1727 17.4764 69.1727 17.5123C69.1727 17.5485 69.0224 17.4634 68.8388 17.3232C68.6551 17.1832 68.463 17.0686 68.4118 17.0686C68.3604 17.0686 68.2536 16.9788 68.1745 16.869C68.0954 16.7592 67.9706 16.6694 67.897 16.6694C67.8236 16.6694 67.7912 16.6245 67.8251 16.5696C67.8591 16.5147 67.8236 16.4697 67.7468 16.4697C67.6697 16.4697 67.5252 16.3799 67.4259 16.2701C67.3266 16.1603 67.1848 16.0705 67.111 16.0705C67.0371 16.0705 66.9767 16.0286 66.9767 15.9774C66.9767 15.9262 66.8871 15.8559 66.7776 15.8212C66.6683 15.7865 66.5163 15.6954 66.4399 15.6193C66.2897 15.4691 65.8213 15.1744 65.3048 14.9051C65.1264 14.812 64.9804 14.6993 64.9804 14.6546C64.9804 14.6099 64.9125 14.5732 64.8296 14.5732C64.7468 14.5732 64.5382 14.4385 64.3658 14.2738C64.1933 14.1091 63.9889 13.9743 63.9116 13.9743C63.8342 13.9743 63.7985 13.9294 63.8325 13.8745C63.8664 13.8196 63.8247 13.7747 63.7397 13.7747C63.6029 13.7747 63.4355 13.6662 63.0477 13.3255C62.9853 13.2706 62.8114 13.1623 62.6614 13.085C62.5112 13.0076 62.2998 12.8616 62.1913 12.7606C62.083 12.6595 61.9587 12.5769 61.9153 12.5769C61.8718 12.5767 61.7069 12.4654 61.5487 12.3294C61.3905 12.1934 61.2303 12.1013 61.1926 12.1245C61.1547 12.1479 61.0608 12.0796 60.984 11.9728C60.9069 11.8657 60.7639 11.7784 60.6663 11.7784C60.5685 11.7784 60.4886 11.7409 60.4886 11.6955C60.4886 11.6499 60.3651 11.5488 60.2141 11.4709C60.0632 11.3931 59.9172 11.307 59.8897 11.2795C59.8239 11.2132 58.661 10.6445 58.5754 10.6367C58.539 10.6332 58.4753 10.5968 58.4342 10.5556C58.393 10.5145 58.131 10.4897 57.8517 10.5007C57.5728 10.512 56.9908 10.5364 56.5586 10.5551ZM26.2017 10.6804L26.0021 10.7662L26.2017 10.7717C26.3115 10.7747 26.4687 10.7335 26.5511 10.6804C26.7495 10.5521 26.5002 10.5521 26.2017 10.6804ZM45.7657 10.6804C45.9304 10.7223 46.447 10.755 46.9136 10.7533L47.762 10.7498L47.1132 10.6769C46.2029 10.5746 45.3585 10.5768 45.7657 10.6804ZM18.2164 10.7802C18.1435 10.8982 18.2411 10.8982 18.5159 10.7802C18.7083 10.6976 18.7078 10.6941 18.4969 10.6874C18.3766 10.6836 18.2503 10.7253 18.2164 10.7802ZM25.503 10.88C25.3248 10.9566 25.3321 10.9666 25.5719 10.9729C25.7196 10.9766 25.8683 10.9349 25.9023 10.88C25.9759 10.7608 25.7802 10.7608 25.503 10.88ZM47.9118 10.874C48.0463 10.9664 49.1016 11.0325 49.0015 10.9424C48.9786 10.922 48.6903 10.875 48.3609 10.8381C47.9377 10.7909 47.806 10.8017 47.9118 10.874ZM17.6175 10.9798C17.5446 11.0979 17.6422 11.0979 17.917 10.9798C18.1094 10.8972 18.1089 10.8938 17.898 10.887C17.7777 10.8833 17.6514 10.9249 17.6175 10.9798ZM23.7562 11.3943C23.0151 11.6144 22.2739 11.832 22.1092 11.8779C21.9445 11.9239 21.3382 12.1038 20.7617 12.2775C20.1853 12.4511 19.5642 12.6306 19.3813 12.6762C18.9635 12.7805 18.8083 12.9288 19.2146 12.8359C19.4883 12.7733 20.5509 12.4691 21.161 12.2787C21.2982 12.2358 21.6127 12.1447 21.8597 12.0761C22.1067 12.0075 22.5559 11.8735 22.8579 11.7784C23.1598 11.6833 23.609 11.5498 23.856 11.4819C24.1031 11.414 24.4083 11.318 24.5345 11.2688C24.6605 11.2197 24.849 11.1795 24.9528 11.1795C25.0568 11.1795 25.1696 11.1346 25.2036 11.0797C25.2894 10.9409 25.2674 10.9457 23.7562 11.3943ZM49.2094 11.0722C49.2917 11.1296 49.5131 11.1772 49.7015 11.178C49.8896 11.1787 50.1816 11.2214 50.3503 11.2726C50.5187 11.3237 50.8589 11.4173 51.1059 11.4804C52.5388 11.8467 53.0149 11.9835 53.2257 12.0901C53.3211 12.1382 53.4586 12.1776 53.5312 12.1776C53.604 12.1776 54.1725 12.381 54.7944 12.6293C55.4165 12.8779 55.948 13.0585 55.9754 13.0308C56.0029 13.0034 55.9405 12.9525 55.8364 12.9178C55.7326 12.8831 55.4571 12.7698 55.2243 12.666C54.9917 12.5622 54.7552 12.4771 54.699 12.4771C54.6429 12.4771 54.5189 12.4344 54.4235 12.382C53.6095 11.9353 48.6649 10.6934 49.2094 11.0722ZM17.0186 11.1795C16.9457 11.2975 17.0433 11.2975 17.3181 11.1795C17.5105 11.0969 17.51 11.0934 17.2991 11.0866C17.1788 11.0829 17.0525 11.1246 17.0186 11.1795ZM16.3698 11.3791C16.2368 11.4652 16.2368 11.4759 16.3698 11.4759C16.4521 11.4759 16.5869 11.4323 16.6693 11.3791C16.8023 11.293 16.8023 11.2823 16.6693 11.2823C16.5869 11.2823 16.4521 11.326 16.3698 11.3791ZM15.7709 11.5787C15.6379 11.6648 15.6379 11.6756 15.7709 11.6756C15.8533 11.6756 15.988 11.6319 16.0704 11.5787C16.2034 11.4927 16.2034 11.4819 16.0704 11.4819C15.988 11.4819 15.8533 11.5256 15.7709 11.5787ZM15.172 11.7784C15.039 11.8645 15.039 11.8752 15.172 11.8752C15.2544 11.8752 15.3891 11.8315 15.4715 11.7784C15.6045 11.6923 15.6045 11.6816 15.4715 11.6816C15.3891 11.6816 15.2544 11.7252 15.172 11.7784ZM12.1276 12.7434C10.7002 13.2102 9.45427 13.6335 9.35895 13.6836C9.26362 13.7338 9.09793 13.7747 8.99063 13.7747C8.88332 13.7747 8.76779 13.8196 8.73385 13.8745C8.69991 13.9294 8.56516 13.9743 8.4344 13.9743C8.30364 13.9743 8.17188 14.0143 8.14169 14.0632C8.11149 14.1118 7.9181 14.182 7.71173 14.2186C7.35988 14.2813 7.00927 14.3234 4.74119 14.5775C3.02111 14.7701 2.49533 14.7943 2.49533 14.6813C2.49533 14.5647 2.07186 14.5311 1.9638 14.6389C1.92762 14.675 1.94908 14.7659 2.01122 14.8407C2.10055 14.9485 2.08982 14.9638 1.96056 14.9141C1.87023 14.8797 1.79661 14.8081 1.79661 14.7551C1.79661 14.7025 1.70503 14.6735 1.59299 14.691C1.48094 14.7085 1.39211 14.7679 1.39535 14.8228C1.40608 15.0087 1.94334 15.0726 2.69496 14.9772C3.1067 14.9251 3.8703 14.8348 4.39184 14.7764C4.91338 14.7177 5.76681 14.6221 6.28835 14.5635C6.98856 14.4851 7.85047 14.2601 9.58229 13.7041C12.9583 12.6201 14.9102 11.9738 14.9611 11.9226C15.0862 11.7976 14.4985 11.9678 12.1276 12.7434ZM18.3661 12.9762C18.2421 13.0563 18.2508 13.073 18.416 13.073C18.5258 13.073 18.683 13.0293 18.7654 12.9762C18.8894 12.8961 18.8807 12.8794 18.7155 12.8794C18.6057 12.8794 18.4485 12.923 18.3661 12.9762ZM56.1049 13.1162C56.1279 13.1381 56.7081 13.4443 57.3943 13.7964C59.3046 14.7766 59.9144 15.1609 62.5848 17.0676C64.0641 18.1237 64.1818 18.2021 64.1818 18.1279C64.1818 18.0439 60.5024 15.4529 59.5277 14.8505C58.3835 14.1435 55.8265 12.8477 56.1049 13.1162ZM5.68945 13.4753C5.68945 13.5302 5.55744 13.5751 5.39599 13.5751C5.23454 13.5751 5.07458 13.62 5.04064 13.6749C5.00671 13.7298 4.84675 13.7747 4.6853 13.7747C4.52384 13.7747 4.39184 13.8196 4.39184 13.8745C4.39184 13.9294 4.28229 13.9743 4.14829 13.9743C4.01428 13.9743 3.87678 14.0193 3.84285 14.0742C3.80891 14.1291 3.64346 14.174 3.47527 14.174C3.22498 14.174 3.19055 14.1992 3.28537 14.3135C3.40964 14.4632 3.79294 14.4155 3.79294 14.2506C3.79294 14.1957 3.87978 14.1735 3.98608 14.2012C4.09239 14.2289 4.27206 14.1867 4.3856 14.1073C4.49889 14.0277 4.63264 13.9881 4.68255 14.0188C4.82205 14.1051 5.09055 13.9696 5.09055 13.8131C5.09055 13.6978 5.12674 13.6951 5.29617 13.7989C5.46786 13.9037 5.52176 13.898 5.62108 13.7642C5.6867 13.6759 5.84791 13.6085 5.97917 13.6145C6.11067 13.6202 6.23769 13.5688 6.26165 13.5002C6.29009 13.4181 6.20001 13.3754 5.99713 13.3754C5.82795 13.3754 5.68945 13.4204 5.68945 13.4753ZM2.86964 14.3524C2.68747 14.3898 2.63732 14.5258 2.77456 14.6107C2.88436 14.6785 3.12716 14.5171 3.0815 14.4065C3.06104 14.3571 2.96571 14.3327 2.86964 14.3524ZM34.8358 16.0705C34.9731 16.1144 35.265 16.1496 35.4846 16.1486C35.8644 16.1468 35.8694 16.1428 35.5845 16.0705C35.1503 15.9599 34.491 15.9599 34.8358 16.0705ZM36.1334 16.2701C36.2707 16.314 36.5402 16.3492 36.7323 16.3482L37.0817 16.3462L36.7822 16.2701C36.3428 16.1583 35.7843 16.1583 36.1334 16.2701ZM17.1184 23.1537C16.82 23.1924 17.2412 23.2191 18.1665 23.2198C19.235 23.2211 19.5437 23.1994 19.1647 23.1495C18.5111 23.0636 17.8019 23.0651 17.1184 23.1537ZM80.2523 23.1542C79.9898 23.1929 80.4464 23.2213 81.3503 23.2221C82.4328 23.2233 82.7325 23.2016 82.3484 23.1505C81.6871 23.0624 80.8622 23.0639 80.2523 23.1542ZM16.0204 23.3571C15.828 23.4397 15.8285 23.4432 16.0394 23.4499C16.1597 23.4536 16.286 23.412 16.3199 23.3571C16.3928 23.239 16.2952 23.239 16.0204 23.3571ZM19.9632 23.3571C20.0455 23.4102 20.2252 23.4502 20.3625 23.4454L20.612 23.4369L20.3625 23.3571C19.9777 23.2338 19.7725 23.2338 19.9632 23.3571ZM79.2042 23.3571C79.0118 23.4397 79.0123 23.4432 79.2232 23.4499C79.3435 23.4536 79.4697 23.412 79.5037 23.3571C79.5765 23.239 79.479 23.239 79.2042 23.3571ZM83.147 23.3571C83.2293 23.4102 83.409 23.4502 83.5462 23.4454L83.7958 23.4369L83.5462 23.3571C83.1614 23.2338 82.9563 23.2338 83.147 23.3571ZM20.8116 23.5567C20.8456 23.6116 20.9718 23.6533 21.0921 23.6495C21.303 23.6428 21.3035 23.6393 21.1111 23.5567C20.8363 23.4387 20.7388 23.4387 20.8116 23.5567ZM83.9954 23.5567C84.0293 23.6116 84.1556 23.6533 84.2759 23.6495C84.4867 23.6428 84.4872 23.6393 84.2948 23.5567C84.0201 23.4387 83.9225 23.4387 83.9954 23.5567ZM21.8597 23.9068C21.8597 23.931 22.0506 24.0428 22.2839 24.1549C23.3085 24.6472 24.17 25.279 24.979 26.1315C25.2946 26.4639 25.5529 26.7044 25.5529 26.666C25.5529 26.4703 23.6774 24.8052 23.1084 24.4957C22.9981 24.4356 22.7506 24.2978 22.5584 24.1893C22.1567 23.9627 21.8597 23.8424 21.8597 23.9068ZM85.0435 23.9068C85.0435 23.931 85.2344 24.0428 85.4677 24.1549C86.5285 24.6647 87.2689 25.2047 88.1128 26.0838C88.4559 26.4411 88.7367 26.7027 88.7367 26.6647C88.7367 26.5657 87.361 25.2406 86.8901 24.8865C86.3154 24.4541 85.0435 23.7793 85.0435 23.9068ZM25.7333 27.0004C25.7957 27.1102 25.9414 27.3123 26.0575 27.4495L26.2683 27.6991L26.0852 27.3669C25.9846 27.1843 25.8389 26.9822 25.7613 26.9178C25.6425 26.8195 25.638 26.8324 25.7333 27.0004ZM89.0823 27.225C89.2363 27.4583 89.3812 27.6492 89.4044 27.6492C89.4763 27.6492 89.0943 27.0418 88.9443 26.9178C88.8664 26.8534 88.9283 26.9916 89.0823 27.225ZM17.5304 27.9279C17.4985 27.9798 17.3028 28.0499 17.0957 28.0839C16.4277 28.1929 15.5241 28.7005 14.8858 29.3251C14.1399 30.055 14.1027 30.2444 14.7054 30.2444C15.202 30.2444 15.5705 30.5441 15.5723 30.9496C15.5805 32.766 17.8878 35.1324 19.6538 35.1359C20.1618 35.1369 20.5142 35.5489 20.4972 36.1223L20.4822 36.6287L20.906 36.3369C21.7454 35.7595 22.3114 34.9285 22.6495 33.7772C22.8706 33.0245 22.938 31.6034 22.758 31.4921C22.7031 31.4582 22.6582 31.3234 22.6582 31.1927C22.6582 31.0619 22.6133 30.9271 22.5584 30.8932C22.5035 30.8593 22.4586 30.7637 22.4586 30.6806C22.4586 30.1893 21.1617 28.8175 20.2973 28.3948C19.3967 27.9541 17.6921 27.6664 17.5304 27.9279ZM80.7142 27.9279C80.6822 27.9798 80.4826 28.0499 80.2708 28.0839C79.5825 28.1939 78.5105 28.809 77.9632 29.4074C77.3272 30.1037 77.3164 30.2444 77.8994 30.2444C78.4017 30.2444 78.755 30.5666 78.755 31.0245C78.755 31.2648 78.8496 31.6224 79.0879 32.2834C79.4008 33.1516 80.9288 34.7319 81.4583 34.7351C81.5454 34.7356 81.6472 34.7668 81.6849 34.8045C81.8099 34.9295 82.4939 35.1324 82.7976 35.1344C83.3441 35.1382 83.6984 35.5342 83.681 36.1223L83.666 36.6287L84.0937 36.3342C85.1862 35.5826 86.0416 33.8775 86.0416 32.4508C86.0416 30.5321 84.491 28.5578 82.5625 28.0212C82.0505 27.879 80.784 27.8149 80.7142 27.9279ZM19.6637 28.2713C21.5061 28.9812 22.5884 30.4565 22.7274 32.4469C22.8122 33.6636 22.2437 33.6773 21.9525 32.4656C21.4891 30.5369 20.0792 29.1656 18.1351 28.7531C17.5511 28.6294 17.3934 28.4861 17.5092 28.1844C17.5856 27.9856 19.0783 28.0457 19.6637 28.2713ZM83.2757 28.4844C84.8481 29.2405 85.9525 30.9514 85.9386 32.6093C85.9303 33.6035 85.3823 33.5324 85.1293 32.5042C84.6554 30.576 83.1243 29.0441 81.4216 28.7936C80.7846 28.7 80.4504 28.4405 80.653 28.1964C80.9091 27.8877 82.3689 28.0482 83.2757 28.4844ZM90.4365 30.1446C90.4365 30.2269 90.4802 30.3617 90.5334 30.444C90.6195 30.577 90.6302 30.577 90.6302 30.444C90.6302 30.3617 90.5865 30.2269 90.5334 30.1446C90.4473 30.0116 90.4365 30.0116 90.4365 30.1446ZM90.7001 31.4422C90.733 31.7441 90.7764 32.0099 90.7964 32.0329C90.8737 32.1212 90.8141 31.2817 90.7295 31.0928C90.6711 30.9626 90.6611 31.0836 90.7001 31.4422ZM27.4664 31.2426C27.4711 31.6543 27.6283 32.08 27.6321 31.6917C27.6336 31.527 27.5964 31.3025 27.5492 31.1927C27.4711 31.0112 27.4636 31.0157 27.4664 31.2426ZM71.7911 32.4404C71.7911 32.6325 71.8116 32.7111 71.8368 32.615C71.8617 32.519 71.8617 32.3618 71.8368 32.2657C71.8116 32.1696 71.7911 32.2482 71.7911 32.4404Z" fill="#747868"/>
<path fill-rule="evenodd" clip-rule="evenodd" d="M95.0501 26.3266L92.8292 26.3553V27.3018V28.248H95.4105C96.8301 28.248 98.2001 28.2765 98.4549 28.3114L98.918 28.3751V27.3133V26.2517L98.0946 26.2747C97.6416 26.2874 96.2717 26.3106 95.0501 26.3266ZM17.5093 28.1844C17.3935 28.4861 17.5512 28.6293 18.1352 28.7531C20.0793 29.1656 21.4892 30.5368 21.9526 32.4655C22.2438 33.6773 22.8123 33.6636 22.7275 32.4468C22.5885 30.4565 21.5062 28.9812 19.6638 28.2712C19.0784 28.0457 17.5857 27.9855 17.5093 28.1844ZM80.6531 28.1964C80.4505 28.4404 80.7846 28.7 81.4217 28.7935C83.1243 29.0441 84.6555 30.576 85.1294 32.5042C85.3824 33.5323 85.9304 33.6034 85.9387 32.6093C85.9526 30.9513 84.8482 29.2405 83.2758 28.4844C82.369 28.0482 80.9092 27.8877 80.6531 28.1964Z" fill="#D1D1BD"/>
<path fill-rule="evenodd" clip-rule="evenodd" d="M18.8153 10.5688L19.0149 10.6534L18.8153 10.7103C18.6608 10.7542 18.6721 10.763 18.8652 10.7487C19.0025 10.7385 19.1148 10.6854 19.1148 10.6305C19.1148 10.5756 19.0025 10.5202 18.8652 10.5074C18.6446 10.487 18.6389 10.494 18.8153 10.5688ZM26.2516 10.582C26.1463 10.6509 26.2055 10.6612 26.4513 10.616C26.8817 10.5369 26.9631 10.4802 26.6427 10.4822C26.5099 10.483 26.334 10.5279 26.2516 10.582ZM28.5224 10.5551C28.9754 10.5736 29.7165 10.5736 30.1694 10.5551C30.6223 10.5364 30.2518 10.5214 29.3459 10.5214C28.4401 10.5214 28.0695 10.5364 28.5224 10.5551ZM39.0032 10.5551C39.4561 10.5736 40.1972 10.5736 40.6501 10.5551C41.1031 10.5364 40.7325 10.5214 39.8267 10.5214C38.9208 10.5214 38.5503 10.5364 39.0032 10.5551ZM44.4681 10.5304C44.523 10.5491 45.1743 10.5835 45.9155 10.607C46.6566 10.6305 47.1507 10.616 47.0134 10.5751C46.7754 10.5039 44.2607 10.46 44.4681 10.5304ZM56.2215 10.5533C56.4274 10.5751 56.7642 10.5751 56.9701 10.5533C57.176 10.5319 57.0075 10.5142 56.5958 10.5142C56.1841 10.5142 56.0156 10.5319 56.2215 10.5533ZM25.5529 10.7847C25.4436 10.8588 25.484 10.868 25.7026 10.8191C26.0697 10.737 26.1493 10.6799 25.894 10.6819C25.7887 10.6826 25.6353 10.729 25.5529 10.7847ZM48.0615 10.7859C48.2811 10.8313 48.5506 10.868 48.6604 10.8673L48.86 10.866L48.6604 10.7802C48.5506 10.733 48.2811 10.6963 48.0615 10.6988L47.6622 10.7033L48.0615 10.7859ZM18.2164 10.88C18.024 10.9626 18.0245 10.9661 18.2354 10.9728C18.3557 10.9766 18.4819 10.9349 18.5159 10.88C18.5887 10.762 18.4912 10.762 18.2164 10.88ZM24.8542 10.9798C24.6558 11.1081 24.9051 11.1081 25.2036 10.9798L25.4032 10.894L25.2036 10.8885C25.0938 10.8855 24.9365 10.9267 24.8542 10.9798ZM49.2593 10.9798C49.424 11.0217 49.6486 11.0582 49.7584 11.0609L49.958 11.0657L49.7584 10.9798C49.6486 10.9327 49.424 10.8962 49.2593 10.8987L48.9599 10.9037L49.2593 10.9798ZM17.6175 11.0796C17.4251 11.1622 17.4256 11.1657 17.6365 11.1725C17.7568 11.1762 17.883 11.1345 17.917 11.0796C17.9898 10.9616 17.8923 10.9616 17.6175 11.0796ZM50.3573 11.1794C50.6557 11.3077 50.905 11.3077 50.7066 11.1794C50.6243 11.1263 50.4671 11.0851 50.3573 11.0881L50.1576 11.0936L50.3573 11.1794ZM15.6935 11.6977C14.8548 11.9772 14.1866 12.2235 14.2083 12.2455C14.2302 12.2672 14.8583 12.0813 15.6042 11.8322C16.3501 11.583 17.0268 11.3791 17.1082 11.3791C17.1898 11.3791 17.2841 11.3342 17.3181 11.2793C17.4099 11.1308 17.3475 11.1468 15.6935 11.6977ZM23.4568 11.3791C23.2584 11.5073 23.5077 11.5073 23.8061 11.3791L24.0058 11.2932L23.8061 11.2877C23.6963 11.2848 23.5391 11.3259 23.4568 11.3791ZM51.9543 11.5787C52.2528 11.707 52.5021 11.707 52.3037 11.5787C52.2214 11.5256 52.0641 11.4844 51.9543 11.4874L51.7547 11.4929L51.9543 11.5787ZM22.1592 11.7783C22.0261 11.8644 22.0261 11.8752 22.1592 11.8752C22.2415 11.8752 22.3763 11.8315 22.4586 11.7783C22.5916 11.6923 22.5916 11.6815 22.4586 11.6815C22.3763 11.6815 22.2415 11.7252 22.1592 11.7783ZM52.6531 11.7783C52.9515 11.9066 53.2008 11.9066 53.0024 11.7783C52.9201 11.7252 52.7629 11.684 52.6531 11.687L52.4534 11.6925L52.6531 11.7783ZM21.4604 11.978C21.3274 12.0641 21.3274 12.0748 21.4604 12.0748C21.5428 12.0748 21.6775 12.0311 21.7599 11.978C21.8929 11.8919 21.8929 11.8812 21.7599 11.8812C21.6775 11.8812 21.5428 11.9248 21.4604 11.978ZM53.3019 11.978C53.3842 12.0311 53.519 12.0748 53.6013 12.0748C53.7343 12.0748 53.7343 12.0641 53.6013 11.978C53.519 11.9248 53.3842 11.8812 53.3019 11.8812C53.1689 11.8812 53.1689 11.8919 53.3019 11.978ZM20.8116 12.1776C20.6859 12.2318 20.6674 12.2635 20.7617 12.2635C20.8441 12.2635 21.0013 12.2248 21.1111 12.1776C21.2369 12.1235 21.2553 12.0918 21.161 12.0918C21.0786 12.0918 20.9214 12.1304 20.8116 12.1776ZM53.9008 12.1776C53.9831 12.2308 54.1179 12.2744 54.2002 12.2744C54.3332 12.2744 54.3332 12.2637 54.2002 12.1776C54.1179 12.1245 53.9831 12.0808 53.9008 12.0808C53.7678 12.0808 53.7678 12.0915 53.9008 12.1776ZM20.1129 12.3772C19.9872 12.4314 19.9687 12.4631 20.063 12.4631C20.1454 12.4631 20.3026 12.4244 20.4124 12.3772C20.5381 12.3231 20.5566 12.2914 20.4623 12.2914C20.3799 12.2914 20.2227 12.3301 20.1129 12.3772ZM19.4142 12.5769L19.2146 12.6627L19.4142 12.6682C19.524 12.6712 19.6812 12.63 19.7636 12.5769C19.9619 12.4486 19.7127 12.4486 19.4142 12.5769ZM18.7155 12.7765L18.5159 12.8624L18.7155 12.8678C18.8253 12.8708 18.9825 12.8297 19.0648 12.7765C19.2632 12.6482 19.0139 12.6482 18.7155 12.7765ZM17.9868 12.9749C17.5763 13.072 17.4985 13.1466 17.6492 13.2973C17.74 13.3881 17.7672 13.3764 17.7672 13.2456C17.7672 13.1366 17.8476 13.0755 17.9918 13.0745C18.1153 13.0737 18.2838 13.0293 18.3661 12.9761C18.5381 12.8651 18.4515 12.8648 17.9868 12.9749ZM55.9046 12.917C55.9338 12.9464 56.5169 13.2446 57.2002 13.58C57.8834 13.9152 58.3975 14.1445 58.3426 14.0893C58.2877 14.0339 57.824 13.7812 57.3122 13.5271C56.3889 13.0692 55.8023 12.8149 55.9046 12.917ZM9.38266 13.7747C9.24965 13.8608 9.24965 13.8715 9.38266 13.8715C9.46501 13.8715 9.59976 13.8278 9.68211 13.7747C9.81511 13.6886 9.81511 13.6779 9.68211 13.6779C9.59976 13.6779 9.46501 13.7215 9.38266 13.7747ZM8.78376 13.9743C8.65075 14.0604 8.65075 14.0711 8.78376 14.0711C8.86611 14.0711 9.00086 14.0275 9.08321 13.9743C9.21621 13.8882 9.21621 13.8775 9.08321 13.8775C9.00086 13.8775 8.86611 13.9212 8.78376 13.9743ZM58.5921 14.2787C58.9382 14.5136 59.1356 14.5819 58.8916 14.3826C58.7543 14.2703 58.5971 14.1782 58.5422 14.1777C58.4873 14.1772 58.5098 14.2228 58.5921 14.2787ZM59.191 14.6131C59.191 14.6353 59.341 14.7416 59.5242 14.8497C59.7073 14.9577 59.9768 15.1247 60.1231 15.2205C60.2693 15.3163 60.3888 15.3735 60.3888 15.3475C60.3888 15.2939 59.3218 14.5732 59.2424 14.5732C59.2142 14.5732 59.191 14.5912 59.191 14.6131ZM60.4886 15.4067C60.4886 15.4311 61.3613 16.0719 62.4276 16.8303C63.4941 17.5889 64.3406 18.2517 64.3089 18.3033C64.2764 18.3557 64.3049 18.3637 64.3735 18.3213C64.5379 18.2197 64.4209 18.1197 62.7844 16.9606C61.0384 15.7238 60.4886 15.352 60.4886 15.4067ZM3.04207 17.8871C3.01462 17.9587 3.00389 19.8363 3.01812 22.0597L3.04432 26.102H3.64322H4.24211V21.9596V17.8172L3.66692 17.7873C3.26416 17.7663 3.07676 17.7963 3.04207 17.8871ZM5.88909 21.9596V26.1519H6.57233C7.28926 26.1519 7.36088 26.1137 7.67031 25.5642C7.89714 25.1615 8.17463 24.6724 8.39922 24.2803C8.517 24.0745 8.74808 23.659 8.91277 23.357C9.07722 23.0551 9.25564 22.7519 9.30929 22.6833C9.4136 22.55 9.3607 22.3828 8.86611 21.2834C8.71089 20.9387 8.58413 20.637 8.58413 20.6126C8.58413 20.5881 8.47633 20.3309 8.34482 20.0411C8.21306 19.7512 8.03139 19.3344 7.94131 19.1149C7.85098 18.8953 7.68104 18.5022 7.564 18.2415L7.35065 17.7673H6.61999H5.88909V21.9596ZM37.6806 20.4571C37.461 20.5639 37.0343 20.7608 36.7323 20.8951C35.8976 21.2656 35.2373 21.5594 34.6861 21.8056C34.4116 21.9282 33.9859 22.1141 33.7398 22.2186C33.494 22.3232 32.9628 22.5662 32.5595 22.7584L31.8261 23.1083L32.8932 24.4553C33.4801 25.1964 34.0865 25.9598 34.2404 26.1519C34.6706 26.6882 37.0198 29.652 37.3173 30.0338C37.871 30.7442 37.6976 30.6983 40.3756 30.8453C41.4187 30.9024 44.8998 31.1058 48.1114 31.2972C51.323 31.4883 54.7143 31.6885 55.6475 31.7414C58.385 31.8968 60.6236 32.0298 62.3852 32.1419C63.291 32.1995 64.7508 32.2884 65.6292 32.3393C66.5076 32.3902 67.754 32.463 68.3991 32.5012C69.7838 32.5833 69.9927 32.2275 69.0574 31.3798C68.578 30.9453 69.0132 31.0157 62.0358 30.2444C60.0173 30.0213 59.222 29.9322 58.3925 29.8366C57.3319 29.7143 56.1262 29.5806 54.8989 29.4491C54.3774 29.3932 53.5689 29.3046 53.1022 29.2522C52.6356 29.1998 51.8046 29.1072 51.2556 29.0466C50.7066 28.9859 49.8981 28.8961 49.4589 28.8469C49.0197 28.7978 48.2112 28.708 47.6622 28.6473C47.1132 28.5867 46.2823 28.4928 45.8156 28.4392C44.1485 28.2468 43.1575 28.1402 42.2931 28.0599C41.3019 27.9678 41.4933 28.0916 39.778 26.4336C39.2283 25.9024 38.6551 25.3713 38.5041 25.2536C38.0726 24.9169 38.157 24.8144 39.3525 24.2242L40.4755 23.6697L41.274 23.7576C41.7132 23.8057 42.4992 23.8941 43.0208 23.9537C43.5423 24.0136 44.3508 24.1044 44.8175 24.1556C45.9307 24.2779 47.1404 24.4161 48.311 24.5548C49.7057 24.72 50.8416 24.8485 51.8545 24.9556C52.3486 25.0078 53.1347 25.0981 53.6013 25.1562C54.068 25.2146 54.8316 25.3037 55.2982 25.3544C55.7648 25.405 56.5284 25.4906 56.9951 25.5445C57.4617 25.5982 58.2702 25.6893 58.7918 25.7464C59.3133 25.8038 60.1218 25.8964 60.5885 25.9523C61.0551 26.0082 61.8187 26.0958 62.2853 26.1469C62.752 26.1981 63.9872 26.3368 65.0303 26.4548C67.7797 26.7663 68.4408 26.6338 68.8338 25.6927C69.1375 24.9663 69.1045 24.9469 67.0765 24.6504C65.6279 24.4386 65.0902 24.3575 63.1587 24.0593C62.8156 24.0064 62.2205 23.9165 61.8362 23.8596C61.4519 23.8027 60.7107 23.6894 60.1892 23.6076C59.6677 23.526 58.3426 23.3251 57.2446 23.1617C56.1466 22.9982 54.4847 22.7489 53.5514 22.6082C52.6181 22.4674 51.5401 22.3055 51.1558 22.2486C50.7715 22.1914 50.21 22.1066 49.9081 22.0594C48.8313 21.8917 47.8521 21.7425 47.2131 21.6492C46.8562 21.5968 46.2948 21.5119 45.9654 21.4605C45.636 21.4091 45.0745 21.3243 44.7177 21.2719C44.0786 21.1786 43.0994 21.0293 42.0226 20.8616C40.8899 20.6852 39.9577 20.5435 39.3775 20.4596C39.0481 20.4122 38.6214 20.3483 38.4292 20.3181C38.1932 20.281 37.9504 20.3261 37.6806 20.4571ZM17.201 23.0354C17.1364 23.0763 17.5476 23.1092 18.1146 23.1088C18.6816 23.108 19.0935 23.0746 19.0302 23.0341C18.8794 22.9381 17.3522 22.9391 17.201 23.0354ZM80.3868 23.0341C80.3234 23.0746 80.7601 23.1075 81.357 23.1078C81.9539 23.1078 82.3649 23.0773 82.2706 23.0399C82.0373 22.9473 80.53 22.9428 80.3868 23.0341ZM16.0214 23.2557C15.9835 23.3171 16.0841 23.3306 16.29 23.2914C16.7314 23.2073 16.7693 23.1574 16.3923 23.1574C16.2218 23.1574 16.0549 23.2016 16.0214 23.2557ZM19.672 23.1931C19.7825 23.2877 20.3667 23.3448 20.3116 23.2557C20.2781 23.2016 20.1112 23.1574 19.9407 23.1574C19.7701 23.1574 19.6493 23.1734 19.672 23.1931ZM79.2052 23.2557C79.1673 23.3171 79.2679 23.3306 79.4737 23.2914C79.9152 23.2073 79.9531 23.1574 79.576 23.1574C79.4056 23.1574 79.2386 23.2016 79.2052 23.2557ZM82.8557 23.1931C82.9663 23.2877 83.5505 23.3448 83.4953 23.2557C83.4619 23.2016 83.2949 23.1574 83.1245 23.1574C82.9538 23.1574 82.833 23.1734 82.8557 23.1931ZM15.3192 23.4609C15.2771 23.529 15.3524 23.5412 15.5378 23.4968C15.9204 23.405 15.9566 23.357 15.6436 23.357C15.5007 23.357 15.3547 23.4037 15.3192 23.4609ZM78.5055 23.4569C78.4319 23.5761 78.6275 23.5761 78.9048 23.4569C79.0829 23.3803 79.0757 23.3703 78.8359 23.364C78.6882 23.3603 78.5394 23.402 78.5055 23.4569ZM14.7727 23.6565C14.6397 23.7426 14.6397 23.7533 14.7727 23.7533C14.8551 23.7533 14.9898 23.7096 15.0722 23.6565C15.2052 23.5704 15.2052 23.5597 15.0722 23.5597C14.9898 23.5597 14.8551 23.6033 14.7727 23.6565ZM13.8744 24.0368C12.6741 24.6364 11.1382 25.9128 10.4834 26.8549C10.3516 27.0448 10.6411 26.7812 11.1269 26.2694C12.0503 25.2967 12.7522 24.7612 13.9243 24.1349C14.7303 23.7042 14.6919 23.6285 13.8744 24.0368ZM76.8857 24.1446C75.7052 24.7712 74.5657 25.7262 73.7615 26.7633C73.5753 27.0036 73.8703 26.7458 74.417 26.1906C75.4554 25.1363 76.2534 24.5379 77.1972 24.1062C77.7087 23.8723 77.8764 23.7521 77.682 23.7591C77.6408 23.7603 77.2825 23.934 76.8857 24.1446ZM85.842 24.203C85.842 24.2289 85.988 24.3215 86.1664 24.4086L86.4908 24.5668L86.2413 24.3634C86.001 24.1676 85.842 24.1037 85.842 24.203ZM23.6514 24.8251C23.8408 24.9783 24.3539 25.4407 24.7916 25.8525C25.2622 26.2954 25.4808 26.4581 25.3273 26.2512C25.0351 25.8579 24.2046 25.1206 23.6649 24.7752L23.307 24.5464L23.6514 24.8251ZM86.8402 24.8241C87.0323 24.9763 87.5441 25.4385 87.9773 25.851C88.4105 26.2634 88.6815 26.4706 88.5795 26.3111C88.3803 25.9997 87.0201 24.7976 86.6904 24.6417C86.5806 24.5895 86.648 24.6716 86.8402 24.8241ZM25.7585 26.9255C25.8908 27.0765 26.039 27.2449 26.0877 27.2998C26.2144 27.4428 25.9824 27.0343 25.8182 26.8257C25.7426 26.7296 25.644 26.651 25.5993 26.651C25.5547 26.651 25.6263 26.7745 25.7585 26.9255ZM89.0032 26.9956C89.1544 27.1853 89.2964 27.3223 89.3186 27.3C89.372 27.2466 88.9089 26.6637 88.8073 26.6565C88.7639 26.6535 88.852 26.8062 89.0032 26.9956ZM9.97357 27.5244C9.89571 27.6754 9.80912 27.8213 9.78068 27.8488C9.72378 27.9042 9.31428 28.7559 9.15707 29.1464C8.9255 29.7211 8.8958 29.8089 8.83492 30.0947C8.64551 30.9873 8.5699 31.4581 8.51875 32.066L8.46185 32.7398L4.80483 32.7413C1.24737 32.7428 0.623022 32.7914 0.998082 33.0377C1.13109 33.1251 1.13109 33.1366 0.998082 33.1403C0.907749 33.1428 0.952417 33.2089 1.11063 33.307C1.25486 33.3966 1.449 33.6424 1.54208 33.8535C1.63516 34.0643 1.75294 34.237 1.8036 34.237C1.85451 34.237 2.02245 34.4402 2.17691 34.6882C2.33138 34.9365 2.48884 35.1087 2.52652 35.071C2.5642 35.0331 2.59514 35.0772 2.59514 35.1686C2.59514 35.2601 2.64006 35.335 2.69496 35.335C2.74986 35.335 2.79478 35.4323 2.79478 35.5514C2.79478 35.6701 2.82323 35.739 2.85816 35.7041C2.93901 35.6235 3.50672 36.3309 3.44333 36.4335C3.41713 36.4757 3.48526 36.5336 3.59431 36.562C3.70361 36.5904 3.79294 36.6855 3.79294 36.7731C3.79294 36.8605 3.83262 36.9321 3.88103 36.9321C3.92969 36.9321 3.99282 37.0219 4.02152 37.1317C4.07867 37.3506 9.59427 37.4541 9.72752 37.2388C9.75897 37.1881 9.65441 36.8624 9.49495 36.5151C8.82818 35.0625 8.51675 33.5488 8.62256 32.2786C8.7326 30.9598 8.79898 30.4982 8.89331 30.3991C8.94272 30.3469 8.98339 30.2005 8.98339 30.0734C8.98339 29.9464 9.02482 29.7645 9.07522 29.6692C9.12563 29.5739 9.26188 29.2467 9.37792 28.9423C9.49395 28.6381 9.74324 28.1328 9.9319 27.8193C10.1206 27.5062 10.2391 27.2499 10.1952 27.2499C10.151 27.2499 10.0514 27.3734 9.97357 27.5244ZM73.09 27.6661C72.7855 28.2268 72.8576 28.247 73.1915 27.6943C73.339 27.4498 73.4273 27.2501 73.3874 27.2506C73.3477 27.2511 73.2137 27.438 73.09 27.6661ZM26.2416 27.5992C26.4098 27.9249 26.5481 28.1053 26.5473 27.9985C26.5468 27.9436 26.4548 27.7864 26.3425 27.6491C26.207 27.4835 26.173 27.4667 26.2416 27.5992ZM89.7146 28.1417C89.918 28.5225 90.0974 28.797 90.1139 28.7516C90.1301 28.7062 90.0271 28.4734 89.8848 28.2341C89.7426 27.9948 89.6006 27.7203 89.5692 27.6242C89.5377 27.5281 89.4743 27.4495 89.4286 27.4495C89.3827 27.4495 89.5115 27.7609 89.7146 28.1417ZM26.9573 29.0156C26.9798 29.2749 27.136 29.4948 27.143 29.2772C27.1467 29.1569 27.1051 29.0306 27.0502 28.9967C26.9953 28.9627 26.9536 28.9712 26.9573 29.0156ZM90.2309 29.2193C90.5017 30.1089 90.6242 30.5453 90.7225 30.9695C90.8668 31.5909 90.8643 33.6042 90.7188 34.2106C90.4825 35.1953 90.1927 36.0991 89.9677 36.5545C89.5539 37.3912 89.3059 37.3313 93.1785 37.3313H96.6222V35.0356V32.7398H93.7774H90.9326V32.0925C90.9326 31.7364 90.8832 31.2311 90.8226 30.9695C90.6057 30.0313 90.5124 29.6926 90.4238 29.522C90.3742 29.4266 90.3337 29.2834 90.3337 29.2035C90.3337 29.1237 90.2918 29.0324 90.2404 29.0007C90.1835 28.9655 90.1798 29.0508 90.2309 29.2193ZM72.267 29.3899C72.267 29.5239 72.2271 29.6585 72.1781 29.6886C72.1295 29.7188 72.0606 29.9122 72.0252 30.1186C71.8759 30.9908 71.7639 31.7247 71.7058 32.2157L71.6434 32.7398H49.7037H27.7641L27.7134 31.9662C27.6461 30.9416 27.549 30.3157 27.4392 30.1995C27.39 30.1473 27.3496 30.0041 27.3496 29.881C27.3496 29.758 27.3094 29.6325 27.2605 29.6021C27.2106 29.5714 27.2141 29.7124 27.268 29.9207C27.5143 30.8727 27.5719 31.2702 27.6179 32.3368C27.6812 33.8028 27.3479 35.4363 26.737 36.6536C26.6347 36.8572 26.5511 37.093 26.5511 37.1776C26.5511 37.3156 28.9294 37.3313 49.7584 37.3313C62.6799 37.3313 72.9657 37.2932 72.9657 37.2452C72.9657 37.1981 72.8359 36.8724 72.6772 36.5216C71.6663 34.2867 71.5633 32.0458 72.3531 29.4708C72.413 29.2754 72.4157 29.1464 72.3598 29.1464C72.3086 29.1464 72.267 29.2559 72.267 29.3899Z" fill="#001B39"/>
</svg>
