<svg width="100" height="52" viewBox="0 0 100 52" fill="none" xmlns="http://www.w3.org/2000/svg">
<path fill-rule="evenodd" clip-rule="evenodd" d="M15.9707 18.7913C15.9707 18.8522 15.8135 18.9019 15.6213 18.9019C15.4292 18.9019 15.272 18.9468 15.272 19.0017C15.272 19.0566 15.1372 19.1015 14.9725 19.1015C14.8078 19.1015 14.6731 19.1464 14.6731 19.2013C14.6731 19.2562 14.5159 19.3011 14.3237 19.3011C14.1316 19.3011 13.9744 19.351 13.9744 19.4119C13.9744 19.4793 13.8401 19.507 13.632 19.4826C13.4291 19.4588 13.2969 19.4851 13.3076 19.5467C13.3176 19.6038 13.1796 19.6645 13.0012 19.6817C12.8227 19.6989 12.6768 19.7551 12.6768 19.8065C12.6768 19.8579 12.542 19.9 12.3773 19.9C12.2126 19.9 12.0779 19.945 12.0779 19.9999C12.0779 20.0548 11.9458 20.0997 11.7844 20.0997C11.6229 20.0997 11.4602 20.1488 11.4231 20.209C11.3859 20.2694 11.2277 20.2998 11.0717 20.2768C10.896 20.2511 10.7685 20.2856 10.7373 20.3672C10.7094 20.4395 10.5756 20.4989 10.4399 20.4989C10.3041 20.4989 10.1654 20.5439 10.1314 20.5988C10.0975 20.6537 9.96275 20.6986 9.83199 20.6986C9.70123 20.6986 9.56647 20.7435 9.53254 20.7984C9.4986 20.8533 9.34139 20.8982 9.18318 20.8982C9.02497 20.8982 8.86776 20.9431 8.83382 20.998C8.79988 21.0529 8.63993 21.0978 8.47848 21.0978C8.31702 21.0978 8.18502 21.1428 8.18502 21.1977C8.18502 21.2525 8.05301 21.2975 7.89156 21.2975C7.7301 21.2975 7.5679 21.3461 7.53122 21.4053C7.49454 21.4647 7.36178 21.4876 7.23626 21.4559C7.08554 21.4182 6.98872 21.4494 6.95079 21.5478C6.88191 21.7277 6.39107 21.7484 6.38208 21.572C6.37859 21.5033 6.33317 21.553 6.28152 21.6825C6.2074 21.8672 6.13604 21.9049 5.94888 21.8577C5.78244 21.816 5.69185 21.8465 5.64893 21.9583C5.60826 22.0641 5.51518 22.0997 5.37593 22.0633C5.25441 22.0316 5.10069 22.0718 5.01485 22.1576C4.93275 22.2397 4.79999 22.2822 4.72039 22.2515C4.64054 22.2208 4.48407 22.2599 4.37253 22.3381C4.26074 22.4162 4.10278 22.4546 4.02118 22.4234C3.93958 22.392 3.83751 22.4234 3.79434 22.4933C3.75117 22.5629 3.58972 22.62 3.4355 22.62C3.28129 22.62 3.09713 22.6777 3.02651 22.7483C2.95614 22.8189 2.80766 22.8531 2.69686 22.8242C2.57758 22.793 2.49548 22.8202 2.49548 22.891C2.49548 23.0415 2.7827 23.0208 6.48814 22.6026C7.64925 22.4716 8.07721 22.3892 8.14184 22.2847C8.17204 22.2357 8.3038 22.1958 8.43456 22.1958C8.56532 22.1958 8.70007 22.1509 8.73401 22.096C8.76794 22.0411 8.88348 21.9962 8.99078 21.9962C9.09809 21.9962 9.26378 21.9553 9.35911 21.9051C9.50958 21.826 12.952 20.7018 15.8709 19.7785C16.3924 19.6136 16.8972 19.4386 16.9926 19.3897C17.0879 19.3411 17.2536 19.3011 17.3609 19.3011C17.4682 19.3011 17.5837 19.2562 17.6177 19.2013C17.6516 19.1464 17.7801 19.1015 17.9031 19.1015C18.0262 19.1015 18.1694 19.0603 18.2215 19.0102C18.2737 18.9598 18.4287 18.8986 18.5659 18.8739C18.7032 18.8495 18.2465 18.823 17.551 18.8155C16.8556 18.8083 16.2155 18.7749 16.1287 18.7414C16.0418 18.7082 15.9707 18.7307 15.9707 18.7913ZM26.4015 18.9243C26.2368 18.9797 26.0239 19.0648 25.9286 19.1132C25.8333 19.1616 25.6644 19.2013 25.5531 19.2013C25.4418 19.2013 25.2728 19.2417 25.1775 19.2914C25.0822 19.3411 24.8019 19.4369 24.5549 19.5045C23.7406 19.7276 23.5131 19.7937 22.9079 19.9844C22.5785 20.0879 22.1069 20.2289 21.8599 20.2976C21.6128 20.3662 21.2984 20.4573 21.1611 20.5002C20.8914 20.5843 19.8738 20.8785 18.9153 21.1492C18.5859 21.2423 18.2575 21.3359 18.1854 21.3571C17.8717 21.4499 18.2275 21.5969 18.7655 21.5969C19.0885 21.5969 19.3804 21.6418 19.4144 21.6967C19.4483 21.7516 19.734 21.7965 20.0492 21.7965C20.3644 21.7965 20.6648 21.8375 20.717 21.8876C20.7691 21.9375 21.0701 22.0049 21.3857 22.0374C21.7014 22.0695 22.2179 22.1225 22.5336 22.1546C22.8493 22.1871 23.1502 22.2545 23.2024 22.3044C23.2545 22.3545 23.555 22.3954 23.8702 22.3954C24.1853 22.3954 24.4711 22.4404 24.505 22.4953C24.5389 22.5502 24.8247 22.5951 25.1398 22.5951C25.455 22.5951 25.7554 22.636 25.8076 22.6862C25.8597 22.7361 26.1607 22.8034 26.4764 22.8359C26.792 22.8681 27.3086 22.921 27.6243 22.9532C27.9399 22.9856 28.2409 23.053 28.293 23.1029C28.3452 23.1531 28.6456 23.194 28.9608 23.194C29.276 23.194 29.5617 23.2389 29.5956 23.2938C29.6296 23.3487 29.9046 23.3936 30.207 23.3936C30.5092 23.3936 30.8323 23.4325 30.9247 23.48C31.0173 23.5276 31.3808 23.5915 31.7329 23.6217L32.373 23.6771L29.937 21.2396C27.2577 18.5588 27.3353 18.6094 26.4015 18.9243ZM32.4988 20.1224C34.1537 21.7322 34.1373 21.703 34.1373 23.0348V24.0833L34.4617 24.1315C34.6401 24.158 35.37 24.2717 36.0837 24.3848C36.7974 24.4976 37.8265 24.6166 38.3705 24.649C38.9145 24.6817 39.4675 24.7494 39.5997 24.7995C40.424 25.1129 40.3443 24.9086 39.1785 23.72L38.0301 22.5489V20.6756V18.8021H34.5857H31.1413L32.4988 20.1224ZM45.4452 22.5322C48.279 25.3378 49.2969 26.286 49.5377 26.3447C49.7141 26.3874 53.1096 26.4378 57.0836 26.4565L64.3088 26.4904L63.6215 26.0228C63.2435 25.7652 62.6199 25.3238 62.2356 25.0416C59.3601 22.9295 54.5881 20.3984 53.4827 20.3991C53.3899 20.3991 53.2893 20.3594 53.2593 20.3108C53.2291 20.2621 53.0807 20.1985 52.9289 20.1693C52.7772 20.1401 52.4735 20.0645 52.2539 20.0014C52.0343 19.9385 51.6862 19.8449 51.4804 19.7935C51.2745 19.7423 50.9152 19.6522 50.6818 19.5936C48.9727 19.1634 46.7164 18.9203 43.7695 18.8487L41.6734 18.7978L45.4452 22.5322ZM17.2186 31.4585C16.7797 31.4747 16.3777 31.5309 16.3253 31.5833C16.2731 31.6354 16.1349 31.6784 16.0181 31.6784C15.673 31.6784 14.3931 32.1485 13.6846 32.5355C9.18443 34.9938 7.40121 40.1695 9.48687 44.7196C9.64982 45.0747 9.74539 45.4221 9.7137 45.5431C9.68226 45.6634 9.70647 45.7525 9.77035 45.7525C9.83174 45.7525 9.88189 45.8323 9.88189 45.9301C9.88189 46.0277 9.97173 46.1725 10.0815 46.2516C10.1913 46.3307 10.2812 46.4577 10.2812 46.5335C10.2812 46.7227 12.2313 48.6472 12.423 48.6472C12.5076 48.6472 12.5769 48.6846 12.5769 48.73C12.5769 48.7757 12.7005 48.8765 12.8514 48.9541C13.0024 49.0314 13.1985 49.1739 13.2874 49.2703C13.3762 49.3668 13.5222 49.4457 13.6118 49.4457C13.7014 49.4457 13.7747 49.4906 13.7747 49.5455C13.7747 49.6004 13.8618 49.6453 13.9684 49.6453C14.0749 49.6453 14.19 49.6902 14.2239 49.7451C14.2578 49.8 14.3953 49.8449 14.5293 49.8449C14.6633 49.8449 14.7729 49.8899 14.7729 49.9448C14.7729 49.9997 14.8824 50.0446 15.0164 50.0446C15.1505 50.0446 15.2879 50.0895 15.3219 50.1444C15.3558 50.1993 15.5355 50.2442 15.7212 50.2442C15.9068 50.2442 16.0865 50.2891 16.1204 50.344C16.1581 50.4052 16.9531 50.4438 18.1726 50.4438C19.4331 50.4438 20.163 50.4072 20.163 50.344C20.163 50.2891 20.3426 50.2442 20.5622 50.2442C20.7818 50.2442 20.9615 50.1993 20.9615 50.1444C20.9615 50.0895 21.0963 50.0446 21.261 50.0446C21.4257 50.0446 21.5604 49.9997 21.5604 49.9448C21.5604 49.8899 21.646 49.8449 21.7506 49.8449C21.9173 49.8449 22.722 49.4821 22.858 49.3456C22.8855 49.3182 23.0315 49.2321 23.1824 49.1542C23.3334 49.0764 23.4569 48.9753 23.4569 48.9296C23.4569 48.8842 23.5278 48.8468 23.6144 48.8468C23.7012 48.8468 23.937 48.6783 24.1384 48.4725C24.34 48.2666 24.627 48.0353 24.776 47.9584C24.9252 47.8816 25.0235 47.7805 24.9948 47.7338C24.9659 47.6872 25.0123 47.649 25.0979 47.649C25.1835 47.649 25.2536 47.6128 25.2536 47.5686C25.2536 47.5245 25.4148 47.3124 25.612 47.097C25.8091 46.8819 26.0349 46.5812 26.1135 46.4287C26.1924 46.2765 26.3007 46.1517 26.3541 46.1517C26.4077 46.1517 26.4514 46.0619 26.4514 45.9521C26.4514 45.8423 26.4851 45.7525 26.5263 45.7525C26.5674 45.7525 26.6054 45.6065 26.6106 45.4281C26.6159 45.2497 26.7361 44.8342 26.8776 44.5048C27.1219 43.9361 27.2974 43.3027 27.5571 42.0515C27.6662 41.5265 27.651 40.9059 27.4912 39.3877C27.4551 39.0436 27.3859 38.7376 27.3375 38.7079C27.2894 38.6782 27.2499 38.5243 27.2499 38.3661C27.2499 38.2079 27.205 38.0506 27.1501 38.0167C27.0952 37.9828 27.0503 37.848 27.0503 37.7173C27.0503 37.5865 27.0054 37.4517 26.9505 37.4178C26.8956 37.3839 26.8507 37.2688 26.8507 37.1623C26.8507 37.0557 26.8058 36.9686 26.7509 36.9686C26.696 36.9686 26.651 36.8788 26.651 36.769C26.651 36.6592 26.6061 36.5694 26.5512 36.5694C26.4963 36.5694 26.4514 36.4795 26.4514 36.3697C26.4514 36.2599 26.4065 36.1701 26.3516 36.1701C26.2967 36.1701 26.2518 36.1212 26.2518 36.0616C26.2518 35.8826 25.6416 35.0631 25.0041 34.3864C24.1324 33.4608 23.3414 32.8869 22.1593 32.3224C21.8574 32.1782 21.5322 32.0192 21.4369 31.9691C21.3416 31.9189 21.1759 31.878 21.0686 31.878C20.9613 31.878 20.8457 31.8331 20.8118 31.7782C20.7778 31.7233 20.6151 31.6784 20.4499 31.6784C20.285 31.6784 20.0741 31.6392 19.9818 31.5915C19.7804 31.4872 18.3271 31.4173 17.2186 31.4585ZM80.4024 31.4585C79.9635 31.4747 79.5614 31.5309 79.509 31.5833C79.4569 31.6354 79.3186 31.6784 79.2019 31.6784C77.8202 31.6784 74.8713 33.6433 73.5096 35.4714C71.6937 37.9092 71.3436 41.8032 72.6766 44.7428C72.8371 45.0969 72.9439 45.4645 72.9139 45.5591C72.8837 45.6539 72.9169 45.7924 72.9873 45.8668C73.0579 45.9411 73.1792 46.1255 73.2573 46.2765C73.3352 46.4275 73.4362 46.551 73.4819 46.551C73.5273 46.551 73.5647 46.6159 73.5647 46.695C73.5647 46.7743 73.7332 46.9969 73.939 47.1896C74.1449 47.3822 74.5776 47.789 74.9008 48.0934C75.2237 48.3981 75.5396 48.6472 75.6022 48.6472C75.6651 48.6472 75.7797 48.7345 75.8568 48.8415C75.9336 48.9483 76.0297 49.0152 76.0704 48.9903C76.1108 48.9653 76.2036 49.004 76.2767 49.0766C76.3496 49.149 76.5555 49.2727 76.7339 49.3514C76.9123 49.43 77.0583 49.5283 77.0583 49.57C77.0583 49.6114 77.1481 49.6453 77.2579 49.6453C77.3677 49.6453 77.4576 49.6902 77.4576 49.7451C77.4576 49.8 77.5447 49.8449 77.6512 49.8449C77.7578 49.8449 77.8728 49.8899 77.9067 49.9448C77.9407 49.9997 78.0754 50.0446 78.2062 50.0446C78.337 50.0446 78.4717 50.0895 78.5056 50.1444C78.5396 50.1993 78.7193 50.2442 78.9049 50.2442C79.0906 50.2442 79.2702 50.2891 79.3042 50.344C79.3419 50.4052 80.1369 50.4438 81.3564 50.4438C82.6168 50.4438 83.3467 50.4072 83.3467 50.344C83.3467 50.2891 83.5264 50.2442 83.746 50.2442C83.9656 50.2442 84.1453 50.1993 84.1453 50.1444C84.1453 50.0895 84.28 50.0446 84.4447 50.0446C84.6094 50.0446 84.7442 49.9997 84.7442 49.9448C84.7442 49.8899 84.8565 49.8449 84.9937 49.8449C85.131 49.8449 85.2432 49.8 85.2432 49.7451C85.2432 49.6902 85.3331 49.6453 85.4429 49.6453C85.5527 49.6453 85.6425 49.6004 85.6425 49.5455C85.6425 49.4906 85.7323 49.4457 85.8421 49.4457C85.9519 49.4457 86.0418 49.4008 86.0418 49.3459C86.0418 49.291 86.1216 49.246 86.2194 49.246C86.317 49.246 86.4617 49.1562 86.5409 49.0464C86.62 48.9366 86.7547 48.8468 86.8403 48.8468C86.9259 48.8468 87.0607 48.7569 87.1398 48.6472C87.2189 48.5374 87.3411 48.4475 87.4113 48.4475C87.4816 48.4475 87.539 48.4026 87.539 48.3477C87.539 48.2928 87.5872 48.2479 87.6461 48.2479C87.7938 48.2479 88.0426 47.9861 87.9667 47.9105C87.9328 47.8763 87.9595 47.8486 88.0261 47.8486C88.0925 47.8486 88.2592 47.7363 88.3964 47.5991C88.5337 47.4618 88.625 47.3495 88.5993 47.3495C88.5739 47.3495 88.7288 47.1606 88.9442 46.9298C89.1595 46.6987 89.3357 46.4392 89.3357 46.3529C89.3357 46.2665 89.4255 46.131 89.5353 46.0519C89.6659 45.9578 89.735 45.7936 89.735 45.5768C89.735 45.3946 89.8283 45.0625 89.9424 44.8389C90.4102 43.9218 90.7219 42.6532 90.7968 41.3606C90.8467 40.5006 90.5749 38.4966 90.3264 37.8919C90.2755 37.7684 90.1949 37.5663 90.147 37.4428C89.9648 36.9736 89.5823 36.2188 89.5104 36.1868C89.4692 36.1684 89.4355 36.1092 89.4355 36.0551C89.4355 35.8674 88.7972 35.019 88.1447 34.3397C87.2271 33.3845 86.5581 32.9026 85.3431 32.3224C85.0411 32.1782 84.716 32.0192 84.6206 31.9691C84.5253 31.9189 84.3596 31.878 84.2523 31.878C84.145 31.878 84.0295 31.8331 83.9955 31.7782C83.9616 31.7233 83.7989 31.6784 83.6337 31.6784C83.4688 31.6784 83.2579 31.6387 83.1656 31.5903C82.9657 31.486 81.5218 31.4169 80.4024 31.4585ZM19.3774 36.2425C20.6493 36.5966 22.4588 38.1582 22.4588 38.9021C22.4588 38.9852 22.5037 39.0808 22.5586 39.1147C22.6135 39.1486 22.6584 39.2834 22.6584 39.4141C22.6584 39.5449 22.7033 39.6796 22.7582 39.7136C22.9381 39.8249 22.8707 41.246 22.6497 41.9986C22.3115 43.15 21.7456 43.981 20.9061 44.5584L20.4824 44.8501L20.4974 44.3438C20.5143 43.7704 20.162 43.3584 19.6539 43.3574C17.8879 43.3539 15.5807 40.9875 15.5724 39.1711C15.5707 38.7656 15.2021 38.4659 14.7055 38.4659C13.5397 38.4659 15.6725 36.5379 17.0959 36.3054C17.303 36.2714 17.4986 36.2013 17.5306 36.1494C17.6004 36.0366 18.8669 36.1002 19.3774 36.2425ZM82.5627 36.2427C84.4911 36.7792 86.0418 38.7536 86.0418 40.6723C86.0418 42.0989 85.1863 43.8041 84.0939 44.5557L83.6661 44.8501L83.6811 44.3438C83.6986 43.7557 83.3442 43.3596 82.7977 43.3559C82.494 43.3539 81.8101 43.151 81.685 43.026C81.6474 42.9883 81.5455 42.9571 81.4585 42.9566C80.9289 42.9534 79.401 41.373 79.0881 40.5049C78.8498 39.8438 78.7552 39.4863 78.7552 39.2459C78.7552 38.788 78.4018 38.4659 77.8995 38.4659C76.7134 38.4659 78.8325 36.5354 80.2709 36.3054C80.4828 36.2714 80.6824 36.2013 80.7143 36.1494C80.7842 36.0364 82.0506 36.1005 82.5627 36.2427Z" fill="#363E2E"/>
<path fill-rule="evenodd" clip-rule="evenodd" d="M24.2061 16.0065C24.1719 16.0619 24.0144 16.1071 23.8562 16.1071C23.698 16.1071 23.5408 16.152 23.5068 16.2069C23.4729 16.2618 23.3354 16.3067 23.2014 16.3067C23.0674 16.3067 22.9579 16.3517 22.9579 16.4066C22.9579 16.4615 22.8231 16.5064 22.6584 16.5064C22.4937 16.5064 22.359 16.5513 22.359 16.6062C22.359 16.6611 22.2045 16.706 22.0156 16.706C21.8267 16.706 21.6443 16.7509 21.6103 16.8058C21.5764 16.8607 21.4416 16.9056 21.3109 16.9056C21.1801 16.9056 21.0454 16.9506 21.0114 17.0055C20.9775 17.0604 20.8175 17.1053 20.6561 17.1053C20.4946 17.1053 20.3626 17.1502 20.3626 17.2051C20.3626 17.26 20.2306 17.3049 20.0692 17.3049C19.9077 17.3049 19.7478 17.3498 19.7138 17.4047C19.6799 17.4596 19.5199 17.5045 19.3585 17.5045C19.197 17.5045 19.065 17.5495 19.065 17.6044C19.065 17.6593 18.9303 17.7042 18.7656 17.7042C18.6009 17.7042 18.4661 17.7491 18.4661 17.804C18.4661 17.8589 18.3314 17.9038 18.1667 17.9038C18.002 17.9038 17.8672 17.9487 17.8672 18.0036C17.8672 18.0585 17.7128 18.1034 17.5239 18.1034C17.3349 18.1034 17.1525 18.1484 17.1186 18.2033C17.0847 18.2582 16.9247 18.3031 16.7633 18.3031C16.6018 18.3031 16.4698 18.348 16.4698 18.4029C16.4698 18.4578 16.3602 18.5027 16.2262 18.5027C16.0922 18.5027 15.9555 18.5466 15.9223 18.6C15.8844 18.6614 16.4556 18.7076 17.4637 18.7248C18.8961 18.7493 19.6212 18.884 18.8654 18.9853C18.7281 19.0035 18.5732 19.0597 18.521 19.1101C18.4689 19.1602 18.3256 19.2014 18.2026 19.2014C18.0796 19.2014 17.9511 19.2463 17.9171 19.3012C17.8832 19.3561 17.7677 19.4011 17.6604 19.4011C17.553 19.4011 17.3874 19.442 17.292 19.4921C17.1967 19.542 16.0406 19.9291 14.723 20.3518C13.4054 20.7745 11.474 21.4029 10.4309 21.7482C7.796 22.6204 7.82869 22.6136 4.39201 22.9974C3.87047 23.0558 3.12634 23.1449 2.7383 23.1953C2.02786 23.2879 1.33588 23.237 1.24206 23.0853C1.00549 22.7022 0.898438 23.1784 0.898438 24.6155V26.1152L2.57036 26.077L4.24229 26.0388V30.1812V34.3236L2.57036 34.2854L0.898438 34.2472V37.665C0.898438 40.7403 0.914159 41.0764 1.0564 41.022C1.14324 40.9886 2.84486 40.9614 4.83819 40.9614H8.46202L8.51892 40.2876C8.59203 39.4195 8.82236 38.203 8.99105 37.7922C9.04196 37.6687 9.12256 37.4666 9.17047 37.343C9.35264 36.8739 9.73518 36.119 9.80705 36.0871C9.84822 36.0686 9.88191 35.9985 9.88191 35.9311C9.88191 35.8638 9.96052 35.7215 10.0566 35.615C10.1527 35.5084 10.3648 35.2417 10.5277 35.0223C11.5142 33.6945 13.3089 32.3779 14.8228 31.8711C15.0424 31.7977 15.2648 31.7017 15.3169 31.658C15.3691 31.6143 15.5285 31.5787 15.6713 31.5787C15.814 31.5787 15.9735 31.538 16.0256 31.4881C16.3333 31.1939 20.0015 31.1936 20.3077 31.4876C20.3599 31.5377 20.5256 31.5787 20.6761 31.5787C20.8265 31.5787 20.9775 31.6236 21.0114 31.6785C21.0454 31.7334 21.1609 31.7783 21.2682 31.7783C21.3755 31.7783 21.5412 31.8182 21.6365 31.8671C21.7319 31.916 22.0346 32.062 22.309 32.1915C22.5835 32.321 22.8231 32.4608 22.8413 32.502C22.8598 32.5431 22.9184 32.5768 22.9716 32.5768C23.3135 32.5768 24.9597 33.9785 25.6564 34.8624C26.2588 35.6267 27.1501 37.2457 27.1501 37.5756C27.1501 37.6744 27.1951 37.7832 27.25 37.8172C27.3049 37.8511 27.3498 37.9796 27.3498 38.1026C27.3498 38.2257 27.3902 38.3689 27.4394 38.4211C27.5492 38.5373 27.6462 39.1632 27.7136 40.1878L27.7643 40.9614H49.7039H71.6435L71.7059 40.4374C71.7641 39.9463 71.8761 39.2124 72.0253 38.3402C72.0608 38.1338 72.1296 37.9404 72.1783 37.9103C72.2272 37.8801 72.2671 37.7456 72.2671 37.6116C72.2671 37.4775 72.3121 37.368 72.367 37.368C72.4219 37.368 72.4668 37.2557 72.4668 37.1185C72.4668 36.9812 72.5117 36.8689 72.5666 36.8689C72.6215 36.8689 72.6664 36.7828 72.6664 36.6775C72.6664 36.5725 72.7001 36.4714 72.7413 36.4529C72.7824 36.4347 72.9252 36.2176 73.0582 35.9706C73.1914 35.7235 73.3262 35.4989 73.3576 35.4715C73.3893 35.444 73.5947 35.1972 73.8143 34.923C74.928 33.5326 76.3352 32.5134 78.0565 31.8511C78.1937 31.7982 78.3841 31.7154 78.4795 31.6667C78.5748 31.6183 78.7567 31.5787 78.8837 31.5787C79.0107 31.5787 79.1572 31.538 79.2094 31.4881C79.5225 31.1886 83.3188 31.1914 83.504 31.4911C83.5337 31.5392 83.6876 31.5787 83.8458 31.5787C84.0041 31.5787 84.1613 31.6236 84.1952 31.6785C84.2291 31.7334 84.3447 31.7783 84.452 31.7783C84.5593 31.7783 84.725 31.8182 84.8203 31.8671C84.9156 31.916 85.2183 32.0608 85.4928 32.1885C86.867 32.8286 89.032 34.7056 89.3258 35.5117C89.3477 35.5718 89.3926 35.6437 89.4256 35.6711C89.5434 35.7694 90.0696 36.7748 90.2483 37.2432C90.2955 37.3668 90.3736 37.5689 90.4222 37.6924C90.5141 37.9252 90.6341 38.3746 90.8228 39.1911C90.8834 39.4527 90.9328 39.958 90.9328 40.3141V40.9614H93.8307C96.5016 40.9614 96.7329 40.9477 96.7868 40.7867C96.9308 40.3568 97.0762 40.063 97.1459 40.063C97.1873 40.063 97.2212 40.0012 97.2212 39.9255C97.2212 39.8499 97.2983 39.6141 97.3929 39.4015C97.4872 39.1889 97.5723 38.9701 97.5818 38.9152C97.627 38.6584 97.7505 38.3662 97.8136 38.3662C97.8523 38.3662 97.9449 38.1416 98.0198 37.8671C98.0946 37.5926 98.1924 37.368 98.2374 37.368C98.2825 37.368 98.3192 37.2782 98.3192 37.1684C98.3192 37.0586 98.3641 36.9687 98.419 36.9687C98.5817 36.9687 98.5326 36.5962 98.3609 36.5303C98.274 36.4969 96.9939 36.4697 95.5161 36.4697H92.8293V35.5294V34.5889L95.2167 34.5562C97.3475 34.5267 98.0622 34.4496 97.6285 34.2959C97.5504 34.2682 97.361 34.1172 97.2075 33.9603C97.054 33.8033 96.9021 33.6748 96.8699 33.6748C96.7331 33.6748 96.1302 33.2022 96.1904 33.142C96.2266 33.1056 96.1881 33.0759 96.1048 33.0759C96.0214 33.0759 95.8123 32.9411 95.6399 32.7764C95.4675 32.6117 95.286 32.477 95.2364 32.477C95.1867 32.477 95.0046 32.3445 94.8314 32.1828C94.658 32.0211 94.4997 31.8976 94.4793 31.9083C94.4591 31.919 94.3288 31.8294 94.1903 31.7087C93.9453 31.4958 93.3848 31.1709 93.2772 31.1796C93.248 31.1819 93.1143 31.0741 92.98 30.9398C92.8458 30.8056 92.6447 30.6668 92.5331 30.6314C92.4216 30.596 92.3302 30.5251 92.3302 30.4739C92.3302 30.4228 92.2609 30.3809 92.1763 30.3809C92.0917 30.3809 91.926 30.291 91.8082 30.1812C91.6904 30.0714 91.5349 29.9816 91.4631 29.9816C91.391 29.9816 91.3321 29.9367 91.3321 29.8818C91.3321 29.8269 91.2422 29.782 91.1324 29.782C91.0226 29.782 90.9328 29.737 90.9328 29.6821C90.9328 29.6272 90.843 29.5823 90.7332 29.5823C90.6234 29.5823 90.5335 29.5374 90.5335 29.4825C90.5335 29.4276 90.4437 29.3827 90.3339 29.3827C90.2241 29.3827 90.1343 29.3378 90.1343 29.2829C90.1343 29.228 90.0444 29.1831 89.9346 29.1831C89.8248 29.1831 89.735 29.1381 89.735 29.0832C89.735 29.0283 89.6227 28.9834 89.4855 28.9834C89.3482 28.9834 89.2359 28.9385 89.2359 28.8836C89.2359 28.8287 89.1236 28.7838 88.9864 28.7838C88.8491 28.7838 88.7368 28.7486 88.7368 28.7057C88.7368 28.6628 88.5347 28.5679 88.2877 28.4951C88.0406 28.4222 87.8385 28.3226 87.8385 28.2737C87.8385 28.2248 87.7037 28.1849 87.539 28.1849C87.3743 28.1849 87.2396 28.14 87.2396 28.0851C87.2396 28.0302 87.1086 27.9853 86.9484 27.9853C86.7884 27.9853 86.6424 27.9423 86.624 27.8899C86.6058 27.8373 86.4223 27.7831 86.2165 27.7697C86.0106 27.7559 85.8422 27.709 85.8422 27.6653C85.8422 27.6217 85.7102 27.586 85.5487 27.586C85.3873 27.586 85.2303 27.5458 85.1998 27.4967C85.1697 27.4475 84.976 27.3821 84.7699 27.3509C84.5635 27.3197 84.1253 27.2449 83.7959 27.1845C83.4665 27.1238 82.9864 27.0652 82.7291 27.0537C82.4719 27.0422 82.2298 27.0013 82.1914 26.9629C82.153 26.9245 79.3316 26.8918 75.9217 26.8903C72.5117 26.8885 69.1848 26.8576 68.5285 26.8212L67.3352 26.7553L65.9832 25.8432C65.2396 25.3414 64.0128 24.5064 63.2572 23.9876C61.8139 22.9967 59.4547 21.3827 57.1609 19.8168C55.5753 18.7348 55.5696 18.7023 56.9571 18.7023C57.6303 18.7023 57.9832 18.6667 57.9435 18.6025C57.9096 18.5476 57.792 18.5027 57.6822 18.5027C57.5724 18.5027 57.5103 18.4578 57.5442 18.4029C57.5792 18.3465 57.4973 18.3031 57.3563 18.3031C57.2191 18.3031 57.0791 18.2582 57.0451 18.2033C57.0112 18.1484 56.8962 18.1034 56.7896 18.1034C56.6831 18.1034 56.596 18.0585 56.596 18.0036C56.596 17.9487 56.4837 17.9038 56.3464 17.9038C56.2092 17.9038 56.0969 17.8589 56.0969 17.804C56.0969 17.7491 55.9846 17.7042 55.8473 17.7042C55.7101 17.7042 55.5978 17.6593 55.5978 17.6044C55.5978 17.5495 55.4603 17.5045 55.2924 17.5045C55.1144 17.5045 55.0129 17.4629 55.0488 17.4047C55.0855 17.3451 54.9647 17.3049 54.7494 17.3049C54.534 17.3049 54.4132 17.2647 54.4499 17.2051C54.4859 17.1469 54.3863 17.1053 54.2121 17.1053C54.0474 17.1053 53.885 17.0604 53.851 17.0055C53.8171 16.9506 53.6347 16.9056 53.4458 16.9056C53.2569 16.9056 53.1024 16.8607 53.1024 16.8058C53.1024 16.7509 52.9227 16.706 52.7031 16.706C52.4835 16.706 52.3039 16.6696 52.3039 16.6249C52.3039 16.5802 52.0905 16.5328 51.8297 16.5196C51.569 16.5064 51.3406 16.4532 51.3224 16.4013C51.304 16.3492 51.0933 16.3067 50.854 16.3067C50.615 16.3067 50.3914 16.2618 50.3574 16.2069C50.3235 16.152 49.9839 16.1071 49.6028 16.1071C49.2148 16.1071 48.9101 16.0639 48.9101 16.0088C48.9101 15.8713 24.2909 15.8691 24.2061 16.0065ZM47.862 18.884C48.3012 18.9429 48.7953 19.0173 48.96 19.0497C49.1247 19.0819 49.5065 19.155 49.8085 19.2122C50.895 19.4178 52.2899 19.7806 53.5004 20.1721C54.9438 20.6388 57.2301 21.6457 58.5174 22.3813C58.7233 22.4989 59.0525 22.6863 59.2488 22.7976C60.9425 23.7568 64.616 26.4426 64.3659 26.5387C64.0989 26.641 49.2917 26.5175 48.6606 26.4077C48.3312 26.3503 47.7472 26.2547 47.363 26.1956C46.686 26.091 46.236 26.0199 44.7677 25.7843C44.3834 25.7227 43.822 25.6346 43.52 25.5884C41.9579 25.3501 41.5274 25.2815 41.0246 25.1912C39.8328 24.977 39.1423 24.8745 38.3296 24.7911C37.8629 24.7432 37.1892 24.6579 36.8323 24.601C36.4755 24.5443 35.8916 24.454 35.5347 24.4004C35.1779 24.3467 34.6389 24.2559 34.3369 24.1987C33.6779 24.0737 32.1207 23.8132 31.2925 23.6892C30.0201 23.4988 29.272 23.3835 28.6474 23.2822C28.2905 23.2243 27.7515 23.1392 27.4496 23.093C26.403 22.9333 25.5002 22.7933 24.9043 22.698C24.5749 22.6456 23.991 22.5543 23.6067 22.4954C23.2224 22.4365 22.6384 22.3451 22.309 22.2927C21.9797 22.2401 21.4182 22.1532 21.0613 22.0998C20.7045 22.0464 20.1206 21.9566 19.7637 21.9002C19.4069 21.8438 18.8167 21.7582 18.4524 21.7101C17.5358 21.589 17.2593 21.3744 17.8423 21.2364C17.9932 21.2007 18.8804 20.9485 19.8136 20.6762C20.7469 20.4037 21.6677 20.1377 21.8599 20.0848C22.5596 19.8924 22.8186 19.818 23.3571 19.6546C24.3558 19.3514 25.0982 19.132 25.5531 19.0055C25.8001 18.9369 26.0921 18.8433 26.2019 18.7974C26.5001 18.6726 46.8923 18.7545 47.862 18.884ZM7.56417 26.4631C7.68121 26.7238 7.85115 27.1169 7.94148 27.3365C8.03156 27.5561 8.21323 27.9728 8.34499 28.2627C8.4765 28.5525 8.5843 28.8097 8.5843 28.8342C8.5843 28.8587 8.71106 29.1603 8.86628 29.505C9.36087 30.6044 9.41377 30.7716 9.30946 30.9049C9.25581 30.9735 9.07739 31.2767 8.91294 31.5787C8.74825 31.8806 8.51717 32.2961 8.39939 32.502C8.1748 32.894 7.89731 33.3831 7.67048 33.7858C7.36105 34.3353 7.28943 34.3735 6.5725 34.3735H5.88926V30.1812V25.9889H6.62016H7.35082L7.56417 26.4631ZM39.3776 28.6812C39.9578 28.7651 40.8901 28.9068 42.0228 29.0832C43.0995 29.2509 44.0787 29.4002 44.7178 29.4935C45.0747 29.5459 45.6361 29.6307 45.9655 29.6821C46.2949 29.7335 46.8564 29.8184 47.2132 29.8708C47.8523 29.9641 48.8315 30.1133 49.9083 30.281C50.2102 30.3282 50.7717 30.413 51.156 30.4702C51.5403 30.5271 52.6183 30.689 53.5516 30.8298C54.4849 30.9705 56.1468 31.2198 57.2448 31.3833C58.3428 31.5467 59.6678 31.7476 60.1894 31.8292C60.7109 31.911 61.452 32.0243 61.8363 32.0812C62.2206 32.1381 62.8158 32.228 63.1589 32.2809C65.0903 32.5791 65.6281 32.6602 67.0767 32.872C69.1047 33.1685 69.1376 33.1879 68.834 33.9144C68.4409 34.8554 67.7799 34.9879 65.0305 34.6765C63.9874 34.5584 62.7521 34.4197 62.2855 34.3685C61.8189 34.3174 61.0553 34.2298 60.5886 34.1739C60.122 34.118 59.3135 34.0254 58.7919 33.968C58.2704 33.9109 57.4619 33.8198 56.9952 33.7661C56.5286 33.7122 55.765 33.6266 55.2984 33.576C54.8317 33.5253 54.0681 33.4362 53.6015 33.3778C53.1348 33.3197 52.3488 33.2294 51.8547 33.1772C50.8418 33.0702 49.7059 32.9416 48.3112 32.7764C47.1406 32.6377 45.9308 32.4995 44.8176 32.3772C44.351 32.326 43.5425 32.2352 43.0209 32.1753C42.4994 32.1157 41.7133 32.0273 41.2742 31.9792L40.4756 31.8913L39.3527 32.4458C38.1571 33.036 38.0728 33.1385 38.5043 33.4752C38.6552 33.5929 39.2284 34.124 39.7782 34.6552C41.4935 36.3132 41.3021 36.1894 42.2933 36.2815C43.1577 36.3619 44.1486 36.4684 45.8158 36.6608C46.2824 36.7145 47.1134 36.8083 47.6624 36.8689C48.2114 36.9296 49.0199 37.0194 49.4591 37.0686C49.8983 37.1177 50.7068 37.2075 51.2558 37.2682C51.8048 37.3288 52.6358 37.4214 53.1024 37.4738C53.569 37.5262 54.3776 37.6148 54.8991 37.6707C56.1263 37.8022 57.3321 37.936 58.3927 38.0582C59.2221 38.1538 60.0174 38.2429 62.036 38.466C69.0134 39.2373 68.5782 39.1669 69.0575 39.6014C69.9928 40.4491 69.784 40.8049 68.3993 40.7228C67.7542 40.6846 66.5077 40.6118 65.6293 40.5609C64.751 40.51 63.2912 40.4211 62.3853 40.3635C60.6238 40.2514 58.3852 40.1184 55.6477 39.963C54.7144 39.9101 51.3232 39.7099 48.1116 39.5188C44.9 39.3274 41.4189 39.124 40.3758 39.0669C37.6977 38.9199 37.8712 38.9658 37.3174 38.2554C37.02 37.8736 34.6708 34.9098 34.2406 34.3735C34.0866 34.1814 33.4802 33.418 32.8933 32.6769L31.8263 31.3299L32.5597 30.98C32.9629 30.7879 33.4942 30.5448 33.74 30.4402C33.9861 30.3357 34.4118 30.1498 34.6863 30.0273C35.2375 29.781 35.8978 29.4872 36.7325 29.1167C37.0345 28.9824 37.4612 28.7855 37.6808 28.6787C37.9505 28.5477 38.1933 28.5026 38.4294 28.5397C38.6215 28.5699 39.0483 28.6338 39.3776 28.6812Z" fill="#41479B"/>
<path fill-rule="evenodd" clip-rule="evenodd" d="M15.4584 18.7489C15.4329 18.7746 15.2552 18.8147 15.0636 18.8387C14.8719 18.8624 14.543 18.9537 14.3327 19.0416C14.1221 19.1297 13.8847 19.2015 13.8054 19.2015C13.7258 19.2015 13.5973 19.2649 13.5197 19.3423C13.4423 19.4199 13.2883 19.4596 13.1775 19.4306C13.0643 19.4009 12.9762 19.4266 12.9762 19.4892C12.9762 19.5506 12.8264 19.6008 12.6435 19.6008C12.4604 19.6008 12.2797 19.632 12.2415 19.6699C12.2036 19.7078 12.0746 19.754 11.9548 19.7722C11.835 19.7904 11.7127 19.8399 11.6828 19.882C11.6531 19.9242 11.4939 19.9684 11.3292 19.9801C11.1645 19.9921 10.8393 20.0911 10.6065 20.2004C10.374 20.31 10.0508 20.3993 9.88885 20.3993C9.72689 20.3993 9.56644 20.4442 9.5325 20.4991C9.49856 20.554 9.36107 20.599 9.22706 20.599C9.09306 20.599 8.98351 20.6439 8.98351 20.6988C8.98351 20.7537 8.8263 20.7986 8.63415 20.7986C8.44201 20.7986 8.2848 20.8435 8.2848 20.8984C8.2848 20.9533 8.11636 20.999 7.91049 20.9997C7.632 21.001 7.5746 21.0262 7.6859 21.098C7.79545 21.1689 7.72208 21.1951 7.4114 21.1964C7.17808 21.1971 6.98718 21.2398 6.98718 21.2909C6.98718 21.3423 6.86716 21.3985 6.72043 21.4157C6.5737 21.4332 6.4352 21.5035 6.41274 21.5722C6.35285 21.7543 6.88063 21.7306 6.95075 21.548C6.98868 21.4496 7.0855 21.4184 7.23623 21.4561C7.36175 21.4878 7.4945 21.4649 7.53118 21.4055C7.56787 21.3463 7.73007 21.2977 7.89152 21.2977C8.05297 21.2977 8.18498 21.2528 8.18498 21.1979C8.18498 21.143 8.31699 21.098 8.47844 21.098C8.63989 21.098 8.79985 21.0531 8.83379 20.9982C8.86773 20.9433 9.02494 20.8984 9.18314 20.8984C9.34135 20.8984 9.49856 20.8535 9.5325 20.7986C9.56644 20.7437 9.70119 20.6988 9.83195 20.6988C9.96271 20.6988 10.0975 20.6539 10.1314 20.599C10.1653 20.5441 10.3041 20.4991 10.4398 20.4991C10.5756 20.4991 10.7093 20.4397 10.7373 20.3674C10.7685 20.2858 10.896 20.2513 11.0717 20.277C11.2276 20.3 11.3858 20.2696 11.423 20.2092C11.4602 20.149 11.6229 20.0999 11.7844 20.0999C11.9458 20.0999 12.0778 20.055 12.0778 20.0001C12.0778 19.9452 12.2126 19.9002 12.3773 19.9002C12.542 19.9002 12.6767 19.8553 12.6767 19.8004C12.6767 19.7455 12.8087 19.7006 12.9702 19.7006C13.1316 19.7006 13.2916 19.6557 13.3255 19.6008C13.3595 19.5459 13.5194 19.501 13.6809 19.501C13.8423 19.501 13.9743 19.4561 13.9743 19.4012C13.9743 19.3463 14.1315 19.3013 14.3237 19.3013C14.5158 19.3013 14.673 19.2564 14.673 19.2015C14.673 19.1466 14.8078 19.1017 14.9725 19.1017C15.1372 19.1017 15.2719 19.0568 15.2719 19.0019C15.2719 18.947 15.4292 18.9021 15.6213 18.9021C15.8134 18.9021 15.9707 18.8572 15.9707 18.8023C15.9707 18.7034 15.5479 18.6595 15.4584 18.7489ZM16.2951 18.7713C16.3911 18.7963 16.5483 18.7963 16.6444 18.7713C16.7405 18.7461 16.6619 18.7257 16.4697 18.7257C16.2776 18.7257 16.199 18.7461 16.2951 18.7713ZM17.2932 18.7758C17.554 18.7963 17.9807 18.7963 18.2415 18.7758C18.5023 18.7553 18.2889 18.7384 17.7674 18.7384C17.2458 18.7384 17.0325 18.7553 17.2932 18.7758ZM27.1558 18.7823C27.4722 18.8087 27.7737 19.0753 29.9417 21.2445L32.373 23.6773L31.7329 23.6219C31.3808 23.5917 31.0172 23.5278 30.9246 23.4802C30.8323 23.4327 30.5092 23.3938 30.207 23.3938C29.9045 23.3938 29.6295 23.3489 29.5956 23.294C29.5617 23.2391 29.2759 23.1942 28.9608 23.1942C28.6456 23.1942 28.3451 23.1533 28.293 23.1031C28.2408 23.0532 27.9287 22.9851 27.5993 22.9519C26.089 22.8004 25.8966 22.7717 25.8076 22.6864C25.7554 22.6362 25.455 22.5953 25.1398 22.5953C24.8246 22.5953 24.5389 22.5504 24.505 22.4955C24.471 22.4406 24.1853 22.3956 23.8701 22.3956C23.555 22.3956 23.2545 22.3547 23.2024 22.3046C23.1502 22.2547 22.8493 22.1873 22.5336 22.1548C22.2179 22.1227 21.7014 22.0697 21.3857 22.0376C21.07 22.0051 20.7691 21.9377 20.7169 21.8878C20.6648 21.8377 20.3706 21.7967 20.0631 21.7967C19.7557 21.7967 19.4615 21.7543 19.4093 21.7024C19.3572 21.6505 19.045 21.5944 18.7156 21.5777C18.3021 21.5567 18.1244 21.5085 18.1417 21.4224C18.1554 21.3538 18.0768 21.2977 17.967 21.2977C17.8572 21.2977 17.7674 21.3643 17.7674 21.4454C17.7674 21.6014 17.9078 21.6463 18.7156 21.7481C18.9901 21.7828 19.4617 21.8494 19.7637 21.8963C20.0656 21.9432 20.6496 22.0331 21.0613 22.0962C21.473 22.1593 22.057 22.2492 22.3589 22.2958C22.6609 22.3425 23.2448 22.4323 23.6565 22.4955C24.0683 22.5586 24.6634 22.6517 24.9791 22.7026C25.2948 22.7532 25.8113 22.8366 26.127 22.8872C26.653 22.9718 27.2581 23.0657 28.7472 23.2927C29.0491 23.3389 29.5993 23.4255 29.9699 23.4851C30.3405 23.5448 30.9244 23.6351 31.2675 23.6863C31.6106 23.7372 32.3405 23.854 32.8895 23.9455C34.0534 24.1399 34.558 24.2058 34.3119 24.131C34.1599 24.0848 34.1372 23.9413 34.1372 23.0322C34.1372 21.7037 34.1532 21.7319 32.4988 20.1226L31.1412 18.8023H34.5857H38.0301V20.6758V22.5491L39.1785 23.7202C40.3456 24.9103 40.4242 25.1134 39.5959 24.7982C39.3122 24.6904 37.1504 24.5439 37.2455 24.639C37.2807 24.6742 37.7523 24.7446 38.2936 24.7957C39.2224 24.8833 39.7275 24.9562 41.0246 25.1908C41.5271 25.2816 41.9514 25.3492 43.52 25.5885C43.8219 25.6347 44.3834 25.7228 44.7677 25.7844C46.236 26.02 46.6859 26.0911 47.3629 26.1957C47.7472 26.2548 48.3311 26.3504 48.6605 26.4078C49.3727 26.5318 64.175 26.6349 64.293 26.5168C64.3362 26.4736 61.1061 26.435 57.115 26.431C53.1238 26.4272 49.7143 26.3886 49.5384 26.3456C49.2993 26.287 48.2642 25.3265 45.4579 22.5596L41.6978 18.8522L43.083 18.8023C43.8449 18.7748 40.493 18.7524 35.6345 18.7524C30.7759 18.7524 26.9604 18.7658 27.1558 18.7823ZM56.5587 18.7768L55.7732 18.811L56.8083 19.5354C57.3777 19.9337 58.989 21.0414 60.3889 21.9969C61.7889 22.9524 63.8234 24.3426 64.9099 25.0862C65.9966 25.8298 67.0073 26.5136 67.1557 26.6054C67.4956 26.816 70.67 26.9929 70.67 26.8015C70.67 26.7389 70.5999 26.6878 70.5143 26.6878C70.4222 26.6878 70.3878 26.6408 70.43 26.5725C70.4726 26.5036 70.4577 26.4844 70.3925 26.5246C70.3327 26.5615 70.1685 26.4766 70.0277 26.3357C69.887 26.1949 69.7717 26.1315 69.7717 26.1947C69.7717 26.2578 69.6369 26.1655 69.4722 25.989C69.3075 25.8126 69.1728 25.6981 69.1728 25.734C69.1728 25.7702 69.0226 25.6851 68.8389 25.5449C68.6552 25.4049 68.4631 25.2903 68.4119 25.2903C68.3605 25.2903 68.2537 25.2005 68.1746 25.0907C68.0955 24.9809 67.9707 24.8911 67.8971 24.8911C67.8238 24.8911 67.7913 24.8461 67.8253 24.7912C67.8592 24.7363 67.8238 24.6914 67.7469 24.6914C67.6698 24.6914 67.5253 24.6016 67.426 24.4918C67.3267 24.382 67.1849 24.2922 67.1111 24.2922C67.0372 24.2922 66.9768 24.2502 66.9768 24.1991C66.9768 24.1479 66.8872 24.0776 66.7777 24.0429C66.6684 24.0082 66.5164 23.9171 66.4401 23.841C66.2898 23.6908 65.8215 23.3961 65.3049 23.1268C65.1265 23.0337 64.9805 22.9209 64.9805 22.8763C64.9805 22.8316 64.9126 22.7949 64.8298 22.7949C64.7469 22.7949 64.5383 22.6602 64.3659 22.4955C64.1934 22.3308 63.9891 22.196 63.9117 22.196C63.8344 22.196 63.7987 22.1511 63.8326 22.0962C63.8665 22.0413 63.8249 21.9964 63.7398 21.9964C63.603 21.9964 63.4356 21.8878 63.0478 21.5472C62.9854 21.4923 62.8115 21.384 62.6615 21.3067C62.5113 21.2293 62.2999 21.0833 62.1914 20.9822C62.0831 20.8812 61.9588 20.7986 61.9154 20.7986C61.872 20.7983 61.707 20.687 61.5488 20.551C61.3906 20.415 61.2304 20.323 61.1927 20.3462C61.1548 20.3696 61.061 20.3013 60.9841 20.1944C60.907 20.0874 60.764 20.0001 60.6664 20.0001C60.5686 20.0001 60.4888 19.9626 60.4888 19.9172C60.4888 19.8715 60.3652 19.7705 60.2143 19.6926C60.0633 19.6148 59.9173 19.5287 59.8899 19.5012C59.824 19.4348 58.6611 18.8661 58.5755 18.8584C58.5391 18.8549 58.4755 18.8185 58.4343 18.7773C58.3931 18.7361 58.1311 18.7114 57.8519 18.7224C57.5729 18.7336 56.9909 18.7581 56.5587 18.7768ZM26.2018 18.9021L26.0022 18.9879L26.2018 18.9934C26.3116 18.9964 26.4688 18.9552 26.5512 18.9021C26.7496 18.7738 26.5003 18.7738 26.2018 18.9021ZM45.7658 18.9021C45.9305 18.944 46.4471 18.9767 46.9137 18.9749L47.7622 18.9714L47.1134 18.8986C46.203 18.7963 45.3586 18.7985 45.7658 18.9021ZM18.2165 19.0019C18.1437 19.1199 18.2412 19.1199 18.516 19.0019C18.7084 18.9193 18.7079 18.9158 18.497 18.9091C18.3767 18.9053 18.2505 18.947 18.2165 19.0019ZM25.5031 19.1017C25.3249 19.1783 25.3322 19.1883 25.572 19.1945C25.7197 19.1983 25.8685 19.1566 25.9024 19.1017C25.976 18.9824 25.7804 18.9824 25.5031 19.1017ZM47.9119 19.0957C48.0464 19.1881 49.1017 19.2542 49.0016 19.1641C48.9787 19.1436 48.6905 19.0967 48.3611 19.0598C47.9378 19.0126 47.8061 19.0234 47.9119 19.0957ZM17.6176 19.2015C17.5448 19.3196 17.6423 19.3196 17.9171 19.2015C18.1095 19.1189 18.109 19.1154 17.8981 19.1087C17.7778 19.105 17.6516 19.1466 17.6176 19.2015ZM23.7563 19.616C23.0152 19.8361 22.2741 20.0537 22.1094 20.0996C21.9447 20.1455 21.3383 20.3255 20.7618 20.4991C20.1854 20.6728 19.5643 20.8522 19.3814 20.8979C18.9637 21.0022 18.8084 21.1504 19.2147 21.0576C19.4884 20.995 20.551 20.6908 21.1611 20.5004C21.2984 20.4575 21.6128 20.3664 21.8598 20.2978C22.1069 20.2291 22.556 20.0951 22.858 20.0001C23.1599 19.905 23.6091 19.7715 23.8562 19.7036C24.1032 19.6357 24.4084 19.5397 24.5347 19.4905C24.6607 19.4413 24.8491 19.4012 24.9529 19.4012C25.0569 19.4012 25.1697 19.3562 25.2037 19.3013C25.2895 19.1626 25.2676 19.1673 23.7563 19.616ZM49.2095 19.2939C49.2919 19.3512 49.5132 19.3989 49.7016 19.3997C49.8898 19.4004 50.1817 19.4431 50.3504 19.4942C50.5188 19.5454 50.859 19.639 51.106 19.7021C52.5389 20.0684 53.015 20.2052 53.2259 20.3117C53.3212 20.3599 53.4587 20.3993 53.5313 20.3993C53.6042 20.3993 54.1726 20.6027 54.7945 20.851C55.4166 21.0995 55.9481 21.2802 55.9756 21.2525C56.003 21.2251 55.9406 21.1741 55.8366 21.1395C55.7328 21.1048 55.4573 20.9915 55.2244 20.8877C54.9919 20.7839 54.7553 20.6988 54.6992 20.6988C54.643 20.6988 54.519 20.6561 54.4237 20.6037C53.6097 20.157 48.665 18.9151 49.2095 19.2939ZM17.0187 19.4012C16.9459 19.5192 17.0434 19.5192 17.3182 19.4012C17.5106 19.3186 17.5101 19.3151 17.2992 19.3083C17.1789 19.3046 17.0527 19.3463 17.0187 19.4012ZM16.3699 19.6008C16.2369 19.6869 16.2369 19.6976 16.3699 19.6976C16.4523 19.6976 16.587 19.6539 16.6694 19.6008C16.8024 19.5147 16.8024 19.504 16.6694 19.504C16.587 19.504 16.4523 19.5476 16.3699 19.6008ZM15.771 19.8004C15.638 19.8865 15.638 19.8972 15.771 19.8972C15.8534 19.8972 15.9881 19.8536 16.0705 19.8004C16.2035 19.7143 16.2035 19.7036 16.0705 19.7036C15.9881 19.7036 15.8534 19.7473 15.771 19.8004ZM15.1721 20.0001C15.0391 20.0861 15.0391 20.0969 15.1721 20.0969C15.2545 20.0969 15.3892 20.0532 15.4716 20.0001C15.6046 19.914 15.6046 19.9032 15.4716 19.9032C15.3892 19.9032 15.2545 19.9469 15.1721 20.0001ZM12.1277 20.965C10.7004 21.4319 9.4544 21.8551 9.35907 21.9053C9.26375 21.9555 9.09805 21.9964 8.99075 21.9964C8.88345 21.9964 8.76791 22.0413 8.73397 22.0962C8.70003 22.1511 8.56528 22.196 8.43452 22.196C8.30376 22.196 8.172 22.2359 8.14181 22.2849C8.11162 22.3335 7.91822 22.4036 7.71185 22.4403C7.36 22.503 7.00939 22.5451 4.74132 22.7992C3.02123 22.9918 2.49545 23.016 2.49545 22.903C2.49545 22.7864 2.07198 22.7527 1.96393 22.8605C1.92774 22.8967 1.9492 22.9876 2.01134 23.0624C2.10067 23.1702 2.08994 23.1854 1.96068 23.1358C1.87035 23.1014 1.79673 23.0297 1.79673 22.9768C1.79673 22.9242 1.70515 22.8952 1.59311 22.9127C1.48106 22.9302 1.39223 22.9896 1.39547 23.0445C1.4062 23.2304 1.94346 23.2942 2.69508 23.1989C3.10682 23.1468 3.87042 23.0564 4.39196 22.998C4.9135 22.9394 5.76693 22.8438 6.28847 22.7852C6.98868 22.7068 7.8506 22.4817 9.58241 21.9258C12.9585 20.8418 14.9104 20.1954 14.9613 20.1443C15.0863 20.0193 14.4986 20.1895 12.1277 20.965ZM18.3663 21.1979C18.2422 21.278 18.251 21.2947 18.4162 21.2947C18.526 21.2947 18.6832 21.251 18.7655 21.1979C18.8895 21.1177 18.8808 21.101 18.7156 21.101C18.6058 21.101 18.4486 21.1447 18.3663 21.1979ZM56.1051 21.3378C56.128 21.3598 56.7082 21.666 57.3945 22.0181C59.3047 22.9983 59.9146 23.3826 62.5849 25.2893C64.0642 26.3454 64.182 26.4237 64.182 26.3496C64.182 26.2655 60.5025 23.6745 59.5278 23.0722C58.3836 22.3652 55.8266 21.0693 56.1051 21.3378ZM5.68957 21.6969C5.68957 21.7518 5.55756 21.7967 5.39611 21.7967C5.23466 21.7967 5.0747 21.8417 5.04077 21.8966C5.00683 21.9515 4.84687 21.9964 4.68542 21.9964C4.52397 21.9964 4.39196 22.0413 4.39196 22.0962C4.39196 22.1511 4.28241 22.196 4.14841 22.196C4.0144 22.196 3.87691 22.2409 3.84297 22.2958C3.80903 22.3507 3.64359 22.3956 3.4754 22.3956C3.22511 22.3956 3.19067 22.4209 3.28549 22.5351C3.40977 22.6849 3.79306 22.6372 3.79306 22.4723C3.79306 22.4174 3.8799 22.3951 3.98621 22.4228C4.09251 22.4505 4.27218 22.4084 4.38572 22.329C4.49901 22.2494 4.63277 22.2097 4.68267 22.2404C4.82217 22.3268 5.09067 22.1913 5.09067 22.0348C5.09067 21.9195 5.12686 21.9168 5.2963 22.0206C5.46798 22.1254 5.52188 22.1197 5.6212 21.9859C5.68683 21.8976 5.84803 21.8302 5.97929 21.8362C6.1108 21.8419 6.23781 21.7905 6.26177 21.7219C6.29022 21.6398 6.20013 21.5971 5.99726 21.5971C5.82807 21.5971 5.68957 21.642 5.68957 21.6969ZM2.86976 22.5741C2.68759 22.6115 2.63744 22.7475 2.77468 22.8323C2.88448 22.9002 3.12729 22.7388 3.08162 22.6282C3.06116 22.5788 2.96583 22.5544 2.86976 22.5741ZM34.836 24.2922C34.9732 24.3361 35.2652 24.3713 35.4848 24.3703C35.8646 24.3685 35.8696 24.3645 35.5846 24.2922C35.1504 24.1816 34.4911 24.1816 34.836 24.2922ZM36.1336 24.4918C36.2708 24.5357 36.5403 24.5709 36.7325 24.5699L37.0818 24.5679L36.7824 24.4918C36.3429 24.38 35.7845 24.38 36.1336 24.4918ZM17.1185 31.3754C16.8201 31.4141 17.2413 31.4408 18.1666 31.4415C19.2352 31.4428 19.5438 31.421 19.1648 31.3711C18.5112 31.2853 17.802 31.2868 17.1185 31.3754ZM80.2524 31.3759C79.9899 31.4146 80.4465 31.443 81.3504 31.4438C82.4329 31.445 82.7326 31.4233 82.3485 31.3721C81.6873 31.284 80.8623 31.2855 80.2524 31.3759ZM16.0206 31.5788C15.8282 31.6614 15.8287 31.6648 16.0395 31.6716C16.1598 31.6753 16.2861 31.6337 16.32 31.5788C16.3929 31.4607 16.2953 31.4607 16.0206 31.5788ZM19.9633 31.5788C20.0457 31.6319 20.2253 31.6718 20.3626 31.6671L20.6121 31.6586L20.3626 31.5788C19.9778 31.4555 19.7727 31.4555 19.9633 31.5788ZM79.2043 31.5788C79.0119 31.6614 79.0124 31.6648 79.2233 31.6716C79.3436 31.6753 79.4698 31.6337 79.5038 31.5788C79.5766 31.4607 79.4791 31.4607 79.2043 31.5788ZM83.1471 31.5788C83.2294 31.6319 83.4091 31.6718 83.5463 31.6671L83.7959 31.6586L83.5463 31.5788C83.1615 31.4555 82.9564 31.4555 83.1471 31.5788ZM20.8118 31.7784C20.8457 31.8333 20.972 31.875 21.0922 31.8712C21.3031 31.8645 21.3036 31.861 21.1112 31.7784C20.8365 31.6604 20.7389 31.6604 20.8118 31.7784ZM83.9955 31.7784C84.0295 31.8333 84.1557 31.875 84.276 31.8712C84.4869 31.8645 84.4874 31.861 84.295 31.7784C84.0202 31.6604 83.9227 31.6604 83.9955 31.7784ZM21.8598 32.1285C21.8598 32.1527 22.0507 32.2645 22.284 32.3765C23.3087 32.8689 24.1701 33.5007 24.9791 34.3532C25.2948 34.6855 25.553 34.9261 25.553 34.8877C25.553 34.692 23.6775 33.0268 23.1085 32.7174C22.9982 32.6573 22.7507 32.5195 22.5585 32.411C22.1568 32.1844 21.8598 32.0641 21.8598 32.1285ZM85.0436 32.1285C85.0436 32.1527 85.2345 32.2645 85.4678 32.3765C86.5286 32.8863 87.269 33.4264 88.1129 34.3055C88.4561 34.6628 88.7368 34.9243 88.7368 34.8864C88.7368 34.7874 87.3611 33.4623 86.8902 33.1082C86.3155 32.6757 85.0436 32.001 85.0436 32.1285ZM25.7334 35.2221C25.7958 35.3319 25.9416 35.534 26.0576 35.6712L26.2685 35.9208L26.0853 35.5886C25.9847 35.406 25.839 35.2038 25.7614 35.1395C25.6426 35.0411 25.6381 35.0541 25.7334 35.2221ZM89.0824 35.4466C89.2364 35.68 89.3814 35.8709 89.4046 35.8709C89.4764 35.8709 89.0944 35.2635 88.9444 35.1395C88.8666 35.0751 88.9284 35.2133 89.0824 35.4466ZM17.5305 36.1496C17.4986 36.2015 17.303 36.2716 17.0958 36.3056C16.4278 36.4146 15.5242 36.9222 14.8859 37.5468C14.14 38.2767 14.1028 38.4661 14.7055 38.4661C15.2021 38.4661 15.5706 38.7658 15.5724 39.1713C15.5806 40.9877 17.8879 43.3541 19.6539 43.3576C20.1619 43.3586 20.5143 43.7706 20.4973 44.344L20.4824 44.8503L20.9061 44.5586C21.7455 43.9812 22.3115 43.1502 22.6496 41.9988C22.8707 41.2462 22.9381 39.8251 22.7582 39.7138C22.7033 39.6798 22.6584 39.5451 22.6584 39.4143C22.6584 39.2836 22.6134 39.1488 22.5585 39.1149C22.5036 39.081 22.4587 38.9854 22.4587 38.9023C22.4587 38.4109 21.1619 37.0392 20.2974 36.6165C19.3969 36.1758 17.6922 35.8881 17.5305 36.1496ZM80.7143 36.1496C80.6824 36.2015 80.4827 36.2716 80.2709 36.3056C79.5826 36.4156 78.5106 37.0307 77.9634 37.6291C77.3273 38.3253 77.3166 38.4661 77.8995 38.4661C78.4018 38.4661 78.7552 38.7882 78.7552 39.2462C78.7552 39.4865 78.8497 39.844 79.088 40.5051C79.401 41.3732 80.9289 42.9536 81.4584 42.9568C81.5455 42.9573 81.6473 42.9885 81.685 43.0262C81.81 43.1512 82.494 43.3541 82.7977 43.3561C83.3442 43.3598 83.6986 43.7559 83.6811 44.344L83.6661 44.8503L84.0938 44.5559C85.1863 43.8043 86.0417 42.0992 86.0417 40.6725C86.0417 38.7538 84.4911 36.7794 82.5627 36.2429C82.0506 36.1007 80.7842 36.0366 80.7143 36.1496ZM19.6639 36.493C21.5062 37.2029 22.5885 38.6782 22.7275 40.6685C22.8123 41.8853 22.2439 41.899 21.9527 40.6872C21.4893 38.7585 20.0794 37.3873 18.1352 36.9748C17.5513 36.8511 17.3935 36.7078 17.5093 36.4061C17.5857 36.2072 19.0784 36.2674 19.6639 36.493ZM83.2758 36.7061C84.8482 37.4622 85.9527 39.173 85.9387 40.831C85.9305 41.8252 85.3825 41.754 85.1294 40.7259C84.6556 38.7977 83.1244 37.2658 81.4218 37.0153C80.7847 36.9217 80.4505 36.6622 80.6532 36.4181C80.9092 36.1094 82.369 36.2699 83.2758 36.7061ZM90.4367 38.3663C90.4367 38.4486 90.4803 38.5834 90.5335 38.6657C90.6196 38.7987 90.6303 38.7987 90.6303 38.6657C90.6303 38.5834 90.5866 38.4486 90.5335 38.3663C90.4474 38.2333 90.4367 38.2333 90.4367 38.3663ZM90.7002 39.6639C90.7331 39.9658 90.7765 40.2316 90.7965 40.2545C90.8739 40.3429 90.8142 39.5034 90.7296 39.3145C90.6712 39.1843 90.6612 39.3053 90.7002 39.6639ZM27.4665 39.4642C27.4713 39.876 27.6285 40.3017 27.6322 39.9134C27.6337 39.7487 27.5965 39.5241 27.5494 39.4143C27.4713 39.2329 27.4638 39.2374 27.4665 39.4642ZM71.7912 40.662C71.7912 40.8542 71.8117 40.9328 71.8369 40.8367C71.8618 40.7406 71.8618 40.5834 71.8369 40.4874C71.8117 40.3913 71.7912 40.4699 71.7912 40.662Z" fill="#747868"/>
<path fill-rule="evenodd" clip-rule="evenodd" d="M95.0501 34.5483L92.8292 34.577V35.5235V36.4697H95.4105C96.8301 36.4697 98.2001 36.4982 98.4549 36.5331L98.918 36.5967V35.5349V34.4734L98.0946 34.4963C97.6416 34.5091 96.2717 34.5323 95.0501 34.5483ZM17.5093 36.4061C17.3935 36.7078 17.5512 36.851 18.1352 36.9748C20.0793 37.3873 21.4892 38.7585 21.9526 40.6872C22.2438 41.899 22.8123 41.8853 22.7275 40.6685C22.5885 38.6782 21.5062 37.2029 19.6638 36.4929C19.0784 36.2673 17.5857 36.2072 17.5093 36.4061ZM80.6531 36.4181C80.4505 36.6621 80.7846 36.9216 81.4217 37.0152C83.1243 37.2658 84.6555 38.7977 85.1294 40.7259C85.3824 41.754 85.9304 41.8251 85.9387 40.8309C85.9526 39.173 84.8482 37.4621 83.2758 36.706C82.369 36.2698 80.9092 36.1094 80.6531 36.4181Z" fill="#D1D1BD"/>
<path fill-rule="evenodd" clip-rule="evenodd" d="M18.8154 18.7905L19.0151 18.8751L18.8154 18.932C18.661 18.9759 18.6722 18.9846 18.8653 18.9704C19.0026 18.9602 19.1149 18.907 19.1149 18.8521C19.1149 18.7972 19.0026 18.7418 18.8653 18.7291C18.6447 18.7086 18.639 18.7156 18.8154 18.7905ZM26.2517 18.8037C26.1464 18.8726 26.2056 18.8828 26.4514 18.8377C26.8818 18.7586 26.9632 18.7019 26.6428 18.7039C26.51 18.7047 26.3341 18.7496 26.2517 18.8037ZM28.5226 18.7768C28.9755 18.7952 29.7166 18.7952 30.1695 18.7768C30.6225 18.7581 30.2519 18.7431 29.3461 18.7431C28.4402 18.7431 28.0697 18.7581 28.5226 18.7768ZM39.0033 18.7768C39.4562 18.7952 40.1973 18.7952 40.6503 18.7768C41.1032 18.7581 40.7326 18.7431 39.8268 18.7431C38.9209 18.7431 38.5504 18.7581 39.0033 18.7768ZM44.4682 18.7521C44.5231 18.7708 45.1744 18.8052 45.9156 18.8287C46.6567 18.8521 47.1508 18.8377 47.0135 18.7967C46.7755 18.7256 44.2609 18.6817 44.4682 18.7521ZM56.2216 18.775C56.4275 18.7967 56.7644 18.7967 56.9702 18.775C57.1761 18.7536 57.0077 18.7359 56.5959 18.7359C56.1842 18.7359 56.0157 18.7536 56.2216 18.775ZM25.553 19.0064C25.4437 19.0805 25.4842 19.0897 25.7028 19.0408C26.0698 18.9587 26.1494 18.9015 25.8942 18.9035C25.7888 18.9043 25.6354 18.9507 25.553 19.0064ZM48.0616 19.0076C48.2812 19.053 48.5507 19.0897 48.6605 19.089L48.8602 19.0877L48.6605 19.0019C48.5507 18.9547 48.2812 18.918 48.0616 18.9205L47.6624 18.925L48.0616 19.0076ZM18.2165 19.1017C18.0241 19.1843 18.0246 19.1878 18.2355 19.1945C18.3558 19.1982 18.482 19.1566 18.516 19.1017C18.5888 18.9836 18.4913 18.9836 18.2165 19.1017ZM24.8543 19.2015C24.6559 19.3298 24.9052 19.3298 25.2037 19.2015L25.4033 19.1157L25.2037 19.1102C25.0939 19.1072 24.9367 19.1483 24.8543 19.2015ZM49.2594 19.2015C49.4241 19.2434 49.6487 19.2798 49.7585 19.2826L49.9581 19.2873L49.7585 19.2015C49.6487 19.1543 49.4241 19.1179 49.2594 19.1204L48.96 19.1254L49.2594 19.2015ZM17.6176 19.3013C17.4252 19.3839 17.4257 19.3874 17.6366 19.3941C17.7569 19.3979 17.8831 19.3562 17.9171 19.3013C17.9899 19.1833 17.8924 19.1833 17.6176 19.3013ZM50.3574 19.4011C50.6559 19.5294 50.9051 19.5294 50.7068 19.4011C50.6244 19.348 50.4672 19.3068 50.3574 19.3098L50.1578 19.3153L50.3574 19.4011ZM15.6937 19.9194C14.855 20.1989 14.1867 20.4452 14.2084 20.4672C14.2304 20.4889 14.8585 20.303 15.6043 20.0539C16.3502 19.8046 17.027 19.6008 17.1083 19.6008C17.1899 19.6008 17.2842 19.5558 17.3182 19.5009C17.41 19.3525 17.3476 19.3684 15.6937 19.9194ZM23.4569 19.6008C23.2585 19.729 23.5078 19.729 23.8062 19.6008L24.0059 19.5149L23.8062 19.5094C23.6964 19.5064 23.5392 19.5476 23.4569 19.6008ZM51.9545 19.8004C52.2529 19.9287 52.5022 19.9287 52.3038 19.8004C52.2215 19.7472 52.0643 19.7061 51.9545 19.7091L51.7548 19.7146L51.9545 19.8004ZM22.1593 20C22.0263 20.0861 22.0263 20.0968 22.1593 20.0968C22.2416 20.0968 22.3764 20.0532 22.4587 20C22.5917 19.9139 22.5917 19.9032 22.4587 19.9032C22.3764 19.9032 22.2416 19.9469 22.1593 20ZM52.6532 20C52.9516 20.1283 53.2009 20.1283 53.0025 20C52.9202 19.9469 52.763 19.9057 52.6532 19.9087L52.4535 19.9142L52.6532 20ZM21.4606 20.1997C21.3276 20.2857 21.3276 20.2965 21.4606 20.2965C21.5429 20.2965 21.6777 20.2528 21.76 20.1997C21.893 20.1136 21.893 20.1028 21.76 20.1028C21.6777 20.1028 21.5429 20.1465 21.4606 20.1997ZM53.302 20.1997C53.3843 20.2528 53.5191 20.2965 53.6014 20.2965C53.7344 20.2965 53.7344 20.2857 53.6014 20.1997C53.5191 20.1465 53.3843 20.1028 53.302 20.1028C53.169 20.1028 53.169 20.1136 53.302 20.1997ZM20.8118 20.3993C20.686 20.4534 20.6675 20.4851 20.7618 20.4851C20.8442 20.4851 21.0014 20.4465 21.1112 20.3993C21.237 20.3451 21.2554 20.3134 21.1611 20.3134C21.0788 20.3134 20.9216 20.3521 20.8118 20.3993ZM53.9009 20.3993C53.9832 20.4524 54.118 20.4961 54.2003 20.4961C54.3333 20.4961 54.3333 20.4854 54.2003 20.3993C54.118 20.3461 53.9832 20.3025 53.9009 20.3025C53.7679 20.3025 53.7679 20.3132 53.9009 20.3993ZM20.113 20.5989C19.9873 20.6531 19.9688 20.6848 20.0631 20.6848C20.1455 20.6848 20.3027 20.6461 20.4125 20.5989C20.5383 20.5448 20.5567 20.5131 20.4624 20.5131C20.3801 20.5131 20.2228 20.5518 20.113 20.5989ZM19.4143 20.7986L19.2147 20.8844L19.4143 20.8899C19.5241 20.8929 19.6813 20.8517 19.7637 20.7986C19.9621 20.6703 19.7128 20.6703 19.4143 20.7986ZM18.7156 20.9982L18.516 21.084L18.7156 21.0895C18.8254 21.0925 18.9826 21.0513 19.065 20.9982C19.2634 20.8699 19.0141 20.8699 18.7156 20.9982ZM17.987 21.1966C17.5765 21.2936 17.4986 21.3683 17.6493 21.519C17.7402 21.6098 17.7674 21.5981 17.7674 21.4673C17.7674 21.3583 17.8477 21.2971 17.9919 21.2961C18.1155 21.2954 18.2839 21.251 18.3663 21.1978C18.5382 21.0868 18.4516 21.0865 17.987 21.1966ZM55.9047 21.1387C55.9339 21.1681 56.5171 21.4663 57.2003 21.8017C57.8836 22.1368 58.3976 22.3662 58.3427 22.311C58.2878 22.2556 57.8242 22.0028 57.3124 21.7488C56.3891 21.2909 55.8024 21.0366 55.9047 21.1387ZM9.38278 21.9964C9.24977 22.0824 9.24977 22.0932 9.38278 22.0932C9.46513 22.0932 9.59988 22.0495 9.68223 21.9964C9.81523 21.9103 9.81523 21.8995 9.68223 21.8995C9.59988 21.8995 9.46513 21.9432 9.38278 21.9964ZM8.78388 22.196C8.65088 22.2821 8.65088 22.2928 8.78388 22.2928C8.86623 22.2928 9.00098 22.2491 9.08333 22.196C9.21634 22.1099 9.21634 22.0992 9.08333 22.0992C9.00098 22.0992 8.86623 22.1428 8.78388 22.196ZM58.5923 22.5004C58.9384 22.7352 59.1358 22.8036 58.8917 22.6042C58.7545 22.4919 58.5972 22.3999 58.5423 22.3994C58.4874 22.3989 58.5099 22.4445 58.5923 22.5004ZM59.1912 22.8348C59.1912 22.857 59.3411 22.9633 59.5243 23.0714C59.7075 23.1794 59.977 23.3464 60.1232 23.4422C60.2694 23.538 60.3889 23.5952 60.3889 23.5692C60.3889 23.5156 59.3219 22.7949 59.2426 22.7949C59.2144 22.7949 59.1912 22.8128 59.1912 22.8348ZM60.4888 23.6284C60.4888 23.6528 61.3614 24.2936 62.4277 25.052C63.4942 25.8106 64.3407 26.4734 64.309 26.525C64.2766 26.5774 64.305 26.5854 64.3736 26.543C64.5381 26.4414 64.421 26.3414 62.7845 25.1822C61.0385 23.9455 60.4888 23.5737 60.4888 23.6284ZM3.04219 26.1088C3.01474 26.1804 3.00401 28.058 3.01824 30.2814L3.04444 34.3237H3.64334H4.24224V30.1813V26.0389L3.66704 26.009C3.26429 25.988 3.07688 26.018 3.04219 26.1088ZM5.88921 30.1813V34.3736H6.57245C7.28938 34.3736 7.361 34.3354 7.67043 33.7859C7.89726 33.3832 8.17475 32.8941 8.39934 32.502C8.51712 32.2962 8.7482 31.8807 8.91289 31.5787C9.07734 31.2768 9.25576 30.9736 9.30941 30.905C9.41372 30.7717 9.36082 30.6045 8.86623 29.505C8.71102 29.1604 8.58425 28.8587 8.58425 28.8343C8.58425 28.8098 8.47645 28.5525 8.34494 28.2628C8.21318 27.9729 8.03152 27.5561 7.94143 27.3365C7.8511 27.1169 7.68116 26.7239 7.56413 26.4631L7.35077 25.989H6.62011H5.88921V30.1813ZM37.6807 28.6788C37.4611 28.7856 37.0344 28.9825 36.7325 29.1168C35.8978 29.4873 35.2375 29.781 34.6862 30.0273C34.4117 30.1499 33.986 30.3358 33.74 30.4403C33.4942 30.5449 32.9629 30.7879 32.5596 30.9801L31.8262 31.3299L32.8933 32.677C33.4802 33.4181 34.0866 34.1814 34.2406 34.3736C34.6708 34.9098 37.0199 37.8736 37.3174 38.2554C37.8711 38.9659 37.6977 38.92 40.3758 39.0669C41.4188 39.1241 44.8999 39.3275 48.1115 39.5189C51.3231 39.71 54.7144 39.9101 55.6477 39.9631C58.3851 40.1185 60.6238 40.2515 62.3853 40.3636C63.2911 40.4212 64.7509 40.51 65.6293 40.5609C66.5077 40.6119 67.7542 40.6847 68.3992 40.7229C69.7839 40.805 69.9928 40.4492 69.0575 39.6015C68.5781 39.167 69.0133 39.2374 62.0359 38.4661C60.0174 38.243 59.2221 38.1539 58.3926 38.0583C57.3321 37.936 56.1263 37.8023 54.899 37.6708C54.3775 37.6149 53.569 37.5263 53.1024 37.4739C52.6357 37.4215 51.8047 37.3289 51.2557 37.2683C50.7068 37.2076 49.8982 37.1178 49.4591 37.0686C49.0199 37.0195 48.2113 36.9296 47.6624 36.869C47.1134 36.8084 46.2824 36.7145 45.8158 36.6609C44.1486 36.4685 43.1576 36.3619 42.2932 36.2816C41.3021 36.1895 41.4935 36.3133 39.7781 34.6553C39.2284 34.124 38.6552 33.593 38.5042 33.4752C38.0728 33.1386 38.1571 33.036 39.3526 32.4459L40.4756 31.8914L41.2741 31.9792C41.7133 32.0274 42.4994 32.1157 43.0209 32.1754C43.5424 32.2353 44.351 32.3261 44.8176 32.3773C45.9308 32.4995 47.1406 32.6378 48.3112 32.7765C49.7059 32.9417 50.8418 33.0702 51.8546 33.1773C52.3487 33.2294 53.1348 33.3198 53.6014 33.3779C54.0681 33.4363 54.8317 33.5254 55.2983 33.5761C55.765 33.6267 56.5285 33.7123 56.9952 33.7662C57.4618 33.8199 58.2703 33.9109 58.7919 33.9681C59.3134 34.0255 60.1219 34.1181 60.5886 34.174C61.0552 34.2298 61.8188 34.3174 62.2855 34.3686C62.7521 34.4197 63.9873 34.5585 65.0304 34.6765C67.7799 34.988 68.4409 34.8554 68.8339 33.9144C69.1376 33.188 69.1047 33.1686 67.0766 32.8721C65.6281 32.6602 65.0903 32.5791 63.1589 32.2809C62.8157 32.228 62.2206 32.1382 61.8363 32.0813C61.452 32.0244 60.7109 31.9111 60.1893 31.8293C59.6678 31.7477 58.3427 31.5468 57.2447 31.3833C56.1467 31.2199 54.4848 30.9706 53.5515 30.8299C52.6182 30.6891 51.5402 30.5272 51.1559 30.4703C50.7716 30.4131 50.2102 30.3283 49.9082 30.2811C48.8315 30.1134 47.8523 29.9642 47.2132 29.8709C46.8563 29.8185 46.2949 29.7336 45.9655 29.6822C45.6361 29.6308 45.0746 29.546 44.7178 29.4936C44.0787 29.4002 43.0995 29.251 42.0227 29.0833C40.8901 28.9069 39.9578 28.7652 39.3776 28.6813C39.0482 28.6339 38.6215 28.57 38.4293 28.5398C38.1933 28.5026 37.9505 28.5478 37.6807 28.6788ZM17.2011 31.2571C17.1365 31.298 17.5478 31.3309 18.1147 31.3304C18.6817 31.3297 19.0937 31.2962 19.0303 31.2558C18.8796 31.1597 17.3524 31.1607 17.2011 31.2571ZM80.3869 31.2558C80.3235 31.2962 80.7602 31.3292 81.3571 31.3294C81.954 31.3294 82.365 31.299 82.2707 31.2616C82.0374 31.169 80.5302 31.1645 80.3869 31.2558ZM16.0216 31.4774C15.9836 31.5388 16.0842 31.5523 16.2901 31.5131C16.7315 31.429 16.7694 31.3791 16.3924 31.3791C16.2219 31.3791 16.055 31.4233 16.0216 31.4774ZM19.6721 31.4148C19.7826 31.5093 20.3668 31.5665 20.3117 31.4774C20.2782 31.4233 20.1113 31.3791 19.9409 31.3791C19.7702 31.3791 19.6494 31.3951 19.6721 31.4148ZM79.2053 31.4774C79.1674 31.5388 79.268 31.5523 79.4738 31.5131C79.9153 31.429 79.9532 31.3791 79.5762 31.3791C79.4057 31.3791 79.2388 31.4233 79.2053 31.4774ZM82.8559 31.4148C82.9664 31.5093 83.5506 31.5665 83.4954 31.4774C83.462 31.4233 83.2951 31.3791 83.1246 31.3791C82.9539 31.3791 82.8332 31.3951 82.8559 31.4148ZM15.3194 31.6825C15.2772 31.7507 15.3525 31.7629 15.538 31.7185C15.9205 31.6266 15.9567 31.5787 15.6438 31.5787C15.5008 31.5787 15.3548 31.6254 15.3194 31.6825ZM78.5056 31.6785C78.432 31.7978 78.6277 31.7978 78.9049 31.6785C79.0831 31.6019 79.0758 31.592 78.836 31.5857C78.6883 31.582 78.5396 31.6236 78.5056 31.6785ZM14.7729 31.8782C14.6399 31.9643 14.6399 31.975 14.7729 31.975C14.8552 31.975 14.99 31.9313 15.0723 31.8782C15.2053 31.7921 15.2053 31.7814 15.0723 31.7814C14.99 31.7814 14.8552 31.825 14.7729 31.8782ZM13.8745 32.2585C12.6742 32.8581 11.1383 34.1345 10.4835 35.0765C10.3517 35.2664 10.6412 35.0029 11.1271 34.4911C12.0504 33.5184 12.7523 32.9829 13.9244 32.3565C14.7304 31.9258 14.692 31.8502 13.8745 32.2585ZM76.8859 32.3663C75.7053 32.9929 74.5659 33.9479 73.7616 34.985C73.5754 35.2253 73.8704 34.9675 74.4171 34.4123C75.4555 33.358 76.2535 32.7596 77.1973 32.3278C77.7088 32.094 77.8765 31.9737 77.6821 31.9807C77.641 31.982 77.2826 32.1557 76.8859 32.3663ZM85.8421 32.4247C85.8421 32.4506 85.9881 32.5432 86.1665 32.6303L86.4909 32.7885L86.2414 32.5851C86.0011 32.3892 85.8421 32.3254 85.8421 32.4247ZM23.6515 33.0468C23.8409 33.2 24.354 33.6624 24.7917 34.0741C25.2623 34.5171 25.4809 34.6798 25.3274 34.4729C25.0352 34.0796 24.2048 33.3422 23.665 32.9969L23.3072 32.768L23.6515 33.0468ZM86.8403 33.0458C87.0324 33.198 87.5443 33.6601 87.9774 34.0726C88.4107 34.4851 88.6817 34.6922 88.5796 34.5328C88.3805 34.2214 87.0202 33.0193 86.6906 32.8634C86.5808 32.8112 86.6481 32.8933 86.8403 33.0458ZM25.7587 35.1472C25.8909 35.2981 26.0391 35.4666 26.0878 35.5215C26.2146 35.6645 25.9825 35.256 25.8183 35.0473C25.7427 34.9513 25.6441 34.8727 25.5994 34.8727C25.5548 34.8727 25.6264 34.9962 25.7587 35.1472ZM89.0033 35.2173C89.1545 35.4069 89.2965 35.5439 89.3187 35.5217C89.3721 35.4683 88.909 34.8854 88.8074 34.8782C88.764 34.8752 88.8521 35.0279 89.0033 35.2173ZM9.97369 35.7461C9.89584 35.897 9.80925 36.043 9.7808 36.0705C9.7239 36.1259 9.31441 36.9775 9.1572 37.3681C8.92562 37.9428 8.89593 38.0306 8.83504 38.3163C8.64564 39.2089 8.57003 39.6798 8.51887 40.2877L8.46197 40.9615L4.80495 40.963C1.2475 40.9645 0.623145 41.0131 0.998205 41.2594C1.13121 41.3468 1.13121 41.3582 0.998205 41.362C0.907871 41.3645 0.952539 41.4306 1.11075 41.5287C1.25498 41.6183 1.44912 41.8641 1.5422 42.0752C1.63528 42.286 1.75307 42.4587 1.80372 42.4587C1.85463 42.4587 2.02257 42.6618 2.17704 42.9099C2.3315 43.1582 2.48896 43.3304 2.52664 43.2927C2.56432 43.2547 2.59527 43.2989 2.59527 43.3902C2.59527 43.4818 2.64018 43.5567 2.69508 43.5567C2.74998 43.5567 2.7949 43.654 2.7949 43.773C2.7949 43.8918 2.82335 43.9607 2.85828 43.9258C2.93913 43.8452 3.50684 44.5526 3.44346 44.6552C3.41725 44.6973 3.48538 44.7552 3.59443 44.7837C3.70373 44.8121 3.79306 44.9072 3.79306 44.9948C3.79306 45.0821 3.83274 45.1538 3.88115 45.1538C3.92981 45.1538 3.99295 45.2436 4.02164 45.3534C4.07879 45.5722 9.59439 45.6758 9.72764 45.4604C9.75909 45.4098 9.65453 45.0841 9.49507 44.7368C8.8283 43.2842 8.51687 41.7705 8.62268 40.5003C8.73273 39.1815 8.7991 38.7198 8.89343 38.6208C8.94284 38.5686 8.98351 38.4221 8.98351 38.2951C8.98351 38.1681 9.02494 37.9862 9.07535 37.8909C9.12575 37.7955 9.262 37.4684 9.37804 37.1639C9.49408 36.8598 9.74337 36.3544 9.93202 36.041C10.1207 35.7278 10.2392 35.4716 10.1953 35.4716C10.1511 35.4716 10.0515 35.5951 9.97369 35.7461ZM73.0901 35.8878C72.7856 36.4485 72.8578 36.4687 73.1917 35.916C73.3391 35.6714 73.4275 35.4718 73.3875 35.4723C73.3479 35.4728 73.2139 35.6597 73.0901 35.8878ZM26.2418 35.8209C26.41 36.1466 26.5482 36.327 26.5475 36.2202C26.547 36.1653 26.4549 36.0081 26.3426 35.8708C26.2071 35.7051 26.1731 35.6884 26.2418 35.8209ZM89.7148 36.3634C89.9181 36.7442 90.0975 37.0187 90.114 36.9733C90.1302 36.9279 90.0272 36.6951 89.8849 36.4558C89.7427 36.2164 89.6007 35.9419 89.5693 35.8459C89.5378 35.7498 89.4744 35.6712 89.4288 35.6712C89.3829 35.6712 89.5116 35.9826 89.7148 36.3634ZM26.9575 37.2373C26.9799 37.4966 27.1361 37.7164 27.1431 37.4988C27.1469 37.3786 27.1052 37.2523 27.0503 37.2183C26.9954 37.1844 26.9537 37.1929 26.9575 37.2373ZM90.2311 37.4409C90.5018 38.3306 90.6243 38.767 90.7226 39.1912C90.8669 39.8126 90.8644 41.8259 90.7189 42.4323C90.4826 43.4169 90.1929 44.3208 89.9678 44.7762C89.554 45.6129 89.306 45.553 93.1786 45.553H96.6223V43.2572V40.9615H93.7775H90.9328V40.3142C90.9328 39.9581 90.8834 39.4527 90.8227 39.1912C90.6059 38.2529 90.5125 37.9143 90.4239 37.7436C90.3743 37.6483 90.3339 37.5051 90.3339 37.4252C90.3339 37.3454 90.2919 37.254 90.2405 37.2223C90.1836 37.1872 90.1799 37.2725 90.2311 37.4409ZM72.2671 37.6116C72.2671 37.7456 72.2272 37.8801 72.1783 37.9103C72.1296 37.9405 72.0607 38.1339 72.0253 38.3403C71.8761 39.2124 71.764 39.9463 71.7059 40.4374L71.6435 40.9615H49.7039H27.7642L27.7136 40.1879C27.6462 39.1633 27.5491 38.5374 27.4393 38.4211C27.3902 38.369 27.3497 38.2257 27.3497 38.1027C27.3497 37.9797 27.3096 37.8542 27.2606 37.8237C27.2107 37.793 27.2142 37.934 27.2681 38.1424C27.5144 39.0944 27.5721 39.4919 27.618 40.5585C27.6814 42.0245 27.348 43.658 26.7371 44.8753C26.6348 45.0789 26.5512 45.3147 26.5512 45.3993C26.5512 45.5373 28.9296 45.553 49.7585 45.553C62.68 45.553 72.9658 45.5148 72.9658 45.4669C72.9658 45.4198 72.8361 45.0941 72.6773 44.7433C71.6665 42.5084 71.5634 40.2675 72.3532 37.6925C72.4131 37.4971 72.4158 37.3681 72.3599 37.3681C72.3088 37.3681 72.2671 37.4776 72.2671 37.6116Z" fill="#001B39"/>
</svg>
