<svg width="101" height="52" viewBox="0 0 101 52" fill="none" xmlns="http://www.w3.org/2000/svg">
<path fill-rule="evenodd" clip-rule="evenodd" d="M16.5624 10.7913C16.5624 10.8522 16.4052 10.9019 16.213 10.9019C16.0209 10.9019 15.8637 10.9468 15.8637 11.0017C15.8637 11.0566 15.7289 11.1015 15.5642 11.1015C15.3995 11.1015 15.2648 11.1464 15.2648 11.2013C15.2648 11.2562 15.1075 11.3011 14.9154 11.3011C14.7233 11.3011 14.566 11.351 14.566 11.4119C14.566 11.4793 14.4318 11.507 14.2237 11.4826C14.0208 11.4588 13.8885 11.4851 13.8993 11.5467C13.9092 11.6038 13.7713 11.6645 13.5928 11.6817C13.4144 11.6989 13.2684 11.7551 13.2684 11.8065C13.2684 11.8579 13.1337 11.9 12.969 11.9C12.8043 11.9 12.6695 11.945 12.6695 11.9999C12.6695 12.0548 12.5375 12.0997 12.3761 12.0997C12.2146 12.0997 12.0519 12.1488 12.0147 12.209C11.9776 12.2694 11.8193 12.2998 11.6634 12.2768C11.4877 12.2511 11.3602 12.2856 11.329 12.3672C11.301 12.4395 11.1673 12.4989 11.0315 12.4989C10.8958 12.4989 10.757 12.5439 10.7231 12.5988C10.6892 12.6537 10.5544 12.6986 10.4237 12.6986C10.2929 12.6986 10.1581 12.7435 10.1242 12.7984C10.0903 12.8533 9.93306 12.8982 9.77485 12.8982C9.61664 12.8982 9.45943 12.9431 9.4255 12.998C9.39156 13.0529 9.2316 13.0978 9.07015 13.0978C8.9087 13.0978 8.77669 13.1428 8.77669 13.1977C8.77669 13.2525 8.64468 13.2975 8.48323 13.2975C8.32178 13.2975 8.15958 13.3461 8.12289 13.4053C8.08621 13.4647 7.95345 13.4876 7.82794 13.4559C7.67721 13.4182 7.58039 13.4494 7.54246 13.5478C7.47359 13.7277 6.98274 13.7484 6.97376 13.572C6.97026 13.5033 6.92485 13.553 6.87319 13.6825C6.79908 13.8672 6.72771 13.9049 6.54055 13.8577C6.37411 13.816 6.28353 13.8465 6.24061 13.9583C6.19993 14.0641 6.10685 14.0997 5.96761 14.0633C5.84608 14.0316 5.69237 14.0718 5.60652 14.1576C5.52442 14.2397 5.39167 14.2822 5.31206 14.2515C5.23221 14.2208 5.07575 14.2599 4.9642 14.3381C4.85241 14.4162 4.69445 14.4546 4.61285 14.4234C4.53125 14.392 4.42919 14.4234 4.38602 14.4933C4.34285 14.5629 4.1814 14.62 4.02718 14.62C3.87296 14.62 3.6888 14.6777 3.61818 14.7483C3.54781 14.8189 3.39933 14.8531 3.28854 14.8242C3.16926 14.793 3.08716 14.8202 3.08716 14.891C3.08716 15.0415 3.37438 15.0208 7.07981 14.6026C8.24093 14.4716 8.66889 14.3892 8.73352 14.2847C8.76371 14.2357 8.89547 14.1958 9.02623 14.1958C9.15699 14.1958 9.29174 14.1509 9.32568 14.096C9.35962 14.0411 9.47516 13.9962 9.58246 13.9962C9.68976 13.9962 9.85546 13.9553 9.95078 13.9051C10.1013 13.826 13.5437 12.7018 16.4626 11.7785C16.9841 11.6136 17.4889 11.4386 17.5842 11.3897C17.6796 11.3411 17.8453 11.3011 17.9526 11.3011C18.0599 11.3011 18.1754 11.2562 18.2093 11.2013C18.2433 11.1464 18.3718 11.1015 18.4948 11.1015C18.6178 11.1015 18.7611 11.0603 18.8132 11.0102C18.8654 10.9598 19.0203 10.8986 19.1576 10.8739C19.2948 10.8495 18.8382 10.823 18.1427 10.8155C17.4472 10.8083 16.8072 10.7749 16.7203 10.7414C16.6335 10.7082 16.5624 10.7307 16.5624 10.7913ZM26.9932 10.9243C26.8285 10.9797 26.6156 11.0648 26.5203 11.1132C26.425 11.1616 26.256 11.2013 26.1447 11.2013C26.0334 11.2013 25.8645 11.2417 25.7692 11.2914C25.6739 11.3411 25.3936 11.4369 25.1466 11.5045C24.3323 11.7276 24.1047 11.7937 23.4996 11.9844C23.1702 12.0879 22.6986 12.2289 22.4515 12.2976C22.2045 12.3662 21.8901 12.4573 21.7528 12.5002C21.4831 12.5843 20.4654 12.8785 19.507 13.1492C19.1776 13.2423 18.8492 13.3359 18.777 13.3571C18.4634 13.4499 18.8192 13.5969 19.3572 13.5969C19.6801 13.5969 19.9721 13.6418 20.006 13.6967C20.04 13.7516 20.3257 13.7965 20.6409 13.7965C20.956 13.7965 21.2565 13.8375 21.3086 13.8876C21.3608 13.9375 21.6617 14.0049 21.9774 14.0374C22.2931 14.0695 22.8096 14.1225 23.1253 14.1546C23.441 14.1871 23.7419 14.2545 23.7941 14.3044C23.8462 14.3545 24.1467 14.3954 24.4618 14.3954C24.777 14.3954 25.0627 14.4404 25.0967 14.4953C25.1306 14.5502 25.4163 14.5951 25.7315 14.5951C26.0467 14.5951 26.3471 14.636 26.3993 14.6862C26.4514 14.7361 26.7524 14.8034 27.068 14.8359C27.3837 14.8681 27.9003 14.921 28.2159 14.9532C28.5316 14.9856 28.8325 15.053 28.8847 15.1029C28.9368 15.1531 29.2373 15.194 29.5525 15.194C29.8676 15.194 30.1534 15.2389 30.1873 15.2938C30.2212 15.3487 30.4962 15.3936 30.7987 15.3936C31.1009 15.3936 31.424 15.4325 31.5164 15.48C31.6089 15.5276 31.9725 15.5915 32.3246 15.6217L32.9647 15.6771L30.5287 13.2396C27.8494 10.5588 27.927 10.6094 26.9932 10.9243ZM33.0905 12.1224C34.7454 13.7322 34.7289 13.703 34.7289 15.0348V16.0833L35.0533 16.1315C35.2318 16.158 35.9617 16.2717 36.6754 16.3848C37.389 16.4976 38.4182 16.6166 38.9622 16.649C39.5062 16.6817 40.0591 16.7494 40.1914 16.7995C41.0156 17.1129 40.936 16.9086 39.7702 15.72L38.6218 14.5489V12.6756V10.8021H35.1774H31.733L33.0905 12.1224ZM46.0369 14.5322C48.8707 17.3378 49.8886 18.286 50.1294 18.3447C50.3058 18.3874 53.7013 18.4378 57.6752 18.4565L64.9004 18.4904L64.2132 18.0228C63.8351 17.7652 63.2115 17.3238 62.8272 17.0416C59.9518 14.9295 55.1798 12.3984 54.0744 12.3991C53.9815 12.3991 53.881 12.3594 53.851 12.3108C53.8208 12.2621 53.6723 12.1985 53.5206 12.1693C53.3689 12.1401 53.0652 12.0645 52.8456 12.0014C52.626 11.9385 52.2779 11.8449 52.072 11.7935C51.8662 11.7423 51.5068 11.6522 51.2735 11.5936C49.5644 11.1634 47.308 10.9203 44.3612 10.8487L42.2651 10.7978L46.0369 14.5322ZM17.8103 23.4585C17.3714 23.4747 16.9694 23.5309 16.917 23.5833C16.8648 23.6354 16.7266 23.6784 16.6098 23.6784C16.2647 23.6784 14.9848 24.1485 14.2763 24.5355C9.7761 26.9938 7.99288 32.1695 10.0785 36.7196C10.2415 37.0747 10.3371 37.4221 10.3054 37.5431C10.2739 37.6634 10.2981 37.7525 10.362 37.7525C10.4234 37.7525 10.4736 37.8323 10.4736 37.9301C10.4736 38.0277 10.5634 38.1725 10.6732 38.2516C10.783 38.3307 10.8728 38.4577 10.8728 38.5335C10.8728 38.7227 12.823 40.6472 13.0146 40.6472C13.0992 40.6472 13.1686 40.6846 13.1686 40.73C13.1686 40.7757 13.2921 40.8765 13.4431 40.9541C13.5941 41.0314 13.7902 41.1739 13.8791 41.2703C13.9679 41.3668 14.1139 41.4457 14.2035 41.4457C14.293 41.4457 14.3664 41.4906 14.3664 41.5455C14.3664 41.6004 14.4535 41.6453 14.5601 41.6453C14.6666 41.6453 14.7816 41.6902 14.8156 41.7451C14.8495 41.8 14.987 41.8449 15.121 41.8449C15.255 41.8449 15.3646 41.8899 15.3646 41.9448C15.3646 41.9997 15.4741 42.0446 15.6081 42.0446C15.7421 42.0446 15.8796 42.0895 15.9136 42.1444C15.9475 42.1993 16.1272 42.2442 16.3128 42.2442C16.4985 42.2442 16.6782 42.2891 16.7121 42.344C16.7498 42.4052 17.5448 42.4438 18.7643 42.4438C20.0247 42.4438 20.7547 42.4072 20.7547 42.344C20.7547 42.2891 20.9343 42.2442 21.1539 42.2442C21.3735 42.2442 21.5532 42.1993 21.5532 42.1444C21.5532 42.0895 21.6879 42.0446 21.8526 42.0446C22.0173 42.0446 22.1521 41.9997 22.1521 41.9448C22.1521 41.8899 22.2377 41.8449 22.3422 41.8449C22.5089 41.8449 23.3137 41.4821 23.4497 41.3456C23.4771 41.3182 23.6231 41.2321 23.7741 41.1542C23.9251 41.0764 24.0486 40.9753 24.0486 40.9296C24.0486 40.8842 24.1195 40.8468 24.2061 40.8468C24.2929 40.8468 24.5287 40.6783 24.7301 40.4725C24.9317 40.2666 25.2187 40.0353 25.3677 39.9584C25.5169 39.8816 25.6152 39.7805 25.5865 39.7338C25.5576 39.6872 25.604 39.649 25.6896 39.649C25.7752 39.649 25.8453 39.6128 25.8453 39.5686C25.8453 39.5245 26.0065 39.3124 26.2036 39.097C26.4008 38.8819 26.6266 38.5812 26.7052 38.4287C26.7841 38.2765 26.8924 38.1517 26.9458 38.1517C26.9994 38.1517 27.0431 38.0619 27.0431 37.9521C27.0431 37.8423 27.0768 37.7525 27.1179 37.7525C27.1591 37.7525 27.1971 37.6065 27.2023 37.4281C27.2075 37.2497 27.3278 36.8342 27.4693 36.5048C27.7136 35.9361 27.889 35.3027 28.1488 34.0515C28.2578 33.5265 28.2426 32.9059 28.0829 31.3877C28.0467 31.0436 27.9776 30.7376 27.9292 30.7079C27.881 30.6782 27.8416 30.5243 27.8416 30.3661C27.8416 30.2079 27.7967 30.0506 27.7418 30.0167C27.6869 29.9828 27.642 29.848 27.642 29.7173C27.642 29.5865 27.5971 29.4517 27.5422 29.4178C27.4873 29.3839 27.4423 29.2688 27.4423 29.1623C27.4423 29.0557 27.3974 28.9686 27.3425 28.9686C27.2876 28.9686 27.2427 28.8788 27.2427 28.769C27.2427 28.6592 27.1978 28.5694 27.1429 28.5694C27.088 28.5694 27.0431 28.4795 27.0431 28.3697C27.0431 28.2599 26.9982 28.1701 26.9433 28.1701C26.8884 28.1701 26.8435 28.1212 26.8435 28.0616C26.8435 27.8826 26.2333 27.0631 25.5957 26.3864C24.7241 25.4608 23.9331 24.8869 22.751 24.3224C22.449 24.1782 22.1239 24.0192 22.0286 23.9691C21.9332 23.9189 21.7675 23.878 21.6602 23.878C21.5529 23.878 21.4374 23.8331 21.4035 23.7782C21.3695 23.7233 21.2068 23.6784 21.0416 23.6784C20.8767 23.6784 20.6658 23.6392 20.5735 23.5915C20.3721 23.4872 18.9188 23.4173 17.8103 23.4585ZM80.9941 23.4585C80.5551 23.4747 80.1531 23.5309 80.1007 23.5833C80.0486 23.6354 79.9103 23.6784 79.7935 23.6784C78.4118 23.6784 75.463 25.6433 74.1013 27.4714C72.2853 29.9092 71.9352 33.8032 73.2683 36.7428C73.4287 37.0969 73.5355 37.4645 73.5056 37.5591C73.4754 37.6539 73.5086 37.7924 73.579 37.8668C73.6496 37.9411 73.7709 38.1255 73.849 38.2765C73.9268 38.4275 74.0279 38.551 74.0736 38.551C74.119 38.551 74.1564 38.6159 74.1564 38.695C74.1564 38.7743 74.3248 38.9969 74.5307 39.1896C74.7366 39.3822 75.1693 39.789 75.4924 40.0934C75.8154 40.3981 76.1313 40.6472 76.1939 40.6472C76.2568 40.6472 76.3713 40.7345 76.4484 40.8415C76.5253 40.9483 76.6214 41.0152 76.662 40.9903C76.7025 40.9653 76.7953 41.004 76.8684 41.0766C76.9413 41.149 77.1472 41.2727 77.3256 41.3514C77.504 41.43 77.65 41.5283 77.65 41.57C77.65 41.6114 77.7398 41.6453 77.8496 41.6453C77.9594 41.6453 78.0492 41.6902 78.0492 41.7451C78.0492 41.8 78.1363 41.8449 78.2429 41.8449C78.3494 41.8449 78.4645 41.8899 78.4984 41.9448C78.5324 41.9997 78.6671 42.0446 78.7979 42.0446C78.9286 42.0446 79.0634 42.0895 79.0973 42.1444C79.1313 42.1993 79.3109 42.2442 79.4966 42.2442C79.6822 42.2442 79.8619 42.2891 79.8958 42.344C79.9335 42.4052 80.7286 42.4438 81.9481 42.4438C83.2085 42.4438 83.9384 42.4072 83.9384 42.344C83.9384 42.2891 84.1181 42.2442 84.3377 42.2442C84.5573 42.2442 84.7369 42.1993 84.7369 42.1444C84.7369 42.0895 84.8717 42.0446 85.0364 42.0446C85.2011 42.0446 85.3358 41.9997 85.3358 41.9448C85.3358 41.8899 85.4481 41.8449 85.5854 41.8449C85.7226 41.8449 85.8349 41.8 85.8349 41.7451C85.8349 41.6902 85.9248 41.6453 86.0346 41.6453C86.1443 41.6453 86.2342 41.6004 86.2342 41.5455C86.2342 41.4906 86.324 41.4457 86.4338 41.4457C86.5436 41.4457 86.6334 41.4008 86.6334 41.3459C86.6334 41.291 86.7133 41.246 86.8111 41.246C86.9087 41.246 87.0534 41.1562 87.1325 41.0464C87.2116 40.9366 87.3464 40.8468 87.432 40.8468C87.5176 40.8468 87.6523 40.7569 87.7314 40.6472C87.8105 40.5374 87.9328 40.4475 88.0029 40.4475C88.0733 40.4475 88.1307 40.4026 88.1307 40.3477C88.1307 40.2928 88.1789 40.2479 88.2377 40.2479C88.3855 40.2479 88.6343 39.9861 88.5584 39.9105C88.5245 39.8763 88.5512 39.8486 88.6178 39.8486C88.6842 39.8486 88.8509 39.7363 88.9881 39.5991C89.1254 39.4618 89.2167 39.3495 89.191 39.3495C89.1655 39.3495 89.3205 39.1606 89.5359 38.9298C89.7512 38.6987 89.9274 38.4392 89.9274 38.3529C89.9274 38.2665 90.0172 38.131 90.127 38.0519C90.2575 37.9578 90.3267 37.7936 90.3267 37.5768C90.3267 37.3946 90.42 37.0625 90.534 36.8389C91.0019 35.9218 91.3136 34.6532 91.3885 33.3606C91.4384 32.5006 91.1666 30.4966 90.9181 29.8919C90.8672 29.7684 90.7866 29.5663 90.7386 29.4428C90.5565 28.9736 90.1739 28.2188 90.1021 28.1868C90.0609 28.1684 90.0272 28.1092 90.0272 28.0551C90.0272 27.8674 89.3889 27.019 88.7363 26.3397C87.8188 25.3845 87.1497 24.9026 85.9347 24.3224C85.6328 24.1782 85.3076 24.0192 85.2123 23.9691C85.117 23.9189 84.9513 23.878 84.844 23.878C84.7367 23.878 84.6212 23.8331 84.5872 23.7782C84.5533 23.7233 84.3906 23.6784 84.2254 23.6784C84.0604 23.6784 83.8496 23.6387 83.7572 23.5903C83.5574 23.486 82.1135 23.4169 80.9941 23.4585ZM19.9691 28.2425C21.241 28.5966 23.0504 30.1582 23.0504 30.9021C23.0504 30.9852 23.0953 31.0808 23.1502 31.1147C23.2051 31.1486 23.2501 31.2834 23.2501 31.4141C23.2501 31.5449 23.295 31.6796 23.3499 31.7136C23.5298 31.8249 23.4624 33.246 23.2413 33.9986C22.9032 35.15 22.3372 35.981 21.4978 36.5584L21.0741 36.8501L21.089 36.3438C21.106 35.7704 20.7537 35.3584 20.2456 35.3574C18.4796 35.3539 16.1723 32.9875 16.1641 31.1711C16.1624 30.7656 15.7938 30.4659 15.2972 30.4659C14.1313 30.4659 16.2642 28.5379 17.6875 28.3054C17.8947 28.2714 18.0903 28.2013 18.1222 28.1494C18.1921 28.0366 19.4585 28.1002 19.9691 28.2425ZM83.1544 28.2427C85.0828 28.7792 86.6334 30.7536 86.6334 32.6723C86.6334 34.0989 85.778 35.8041 84.6855 36.5557L84.2578 36.8501L84.2728 36.3438C84.2903 35.7557 83.9359 35.3596 83.3894 35.3559C83.0857 35.3539 82.4017 35.151 82.2767 35.026C82.239 34.9883 82.1372 34.9571 82.0501 34.9566C81.5206 34.9534 79.9927 33.373 79.6797 32.5049C79.4414 31.8438 79.3469 31.4863 79.3469 31.2459C79.3469 30.788 78.9935 30.4659 78.4912 30.4659C77.3051 30.4659 79.4242 28.5354 80.8626 28.3054C81.0744 28.2714 81.2741 28.2013 81.306 28.1494C81.3759 28.0364 82.6423 28.1005 83.1544 28.2427Z" fill="#363E2E"/>
<path fill-rule="evenodd" clip-rule="evenodd" d="M24.7979 8.00655C24.7637 8.06195 24.6062 8.10711 24.448 8.10711C24.2898 8.10711 24.1326 8.15203 24.0986 8.20693C24.0647 8.26183 23.9272 8.30674 23.7932 8.30674C23.6592 8.30674 23.5497 8.35166 23.5497 8.40656C23.5497 8.46146 23.4149 8.50638 23.2502 8.50638C23.0855 8.50638 22.9508 8.5513 22.9508 8.6062C22.9508 8.6611 22.7963 8.70601 22.6074 8.70601C22.4185 8.70601 22.2361 8.75093 22.2021 8.80583C22.1682 8.86072 22.0334 8.90564 21.9027 8.90564C21.7719 8.90564 21.6372 8.95056 21.6032 9.00546C21.5693 9.06036 21.4093 9.10528 21.2479 9.10528C21.0864 9.10528 20.9544 9.15019 20.9544 9.20509C20.9544 9.25999 20.8224 9.30491 20.661 9.30491C20.4995 9.30491 20.3396 9.34983 20.3056 9.40473C20.2717 9.45963 20.1117 9.50454 19.9503 9.50454C19.7888 9.50454 19.6568 9.54946 19.6568 9.60436C19.6568 9.65926 19.5221 9.70417 19.3574 9.70417C19.1927 9.70417 19.0579 9.74909 19.0579 9.80399C19.0579 9.85889 18.9232 9.90381 18.7585 9.90381C18.5938 9.90381 18.459 9.94872 18.459 10.0036C18.459 10.0585 18.3046 10.1034 18.1156 10.1034C17.9267 10.1034 17.7443 10.1484 17.7104 10.2033C17.6765 10.2582 17.5165 10.3031 17.355 10.3031C17.1936 10.3031 17.0616 10.348 17.0616 10.4029C17.0616 10.4578 16.952 10.5027 16.818 10.5027C16.684 10.5027 16.5473 10.5466 16.5141 10.6C16.4762 10.6614 17.0474 10.7076 18.0555 10.7248C19.4879 10.7493 20.213 10.884 19.4572 10.9853C19.3199 11.0035 19.165 11.0597 19.1128 11.1101C19.0607 11.1602 18.9174 11.2014 18.7944 11.2014C18.6714 11.2014 18.5429 11.2463 18.5089 11.3012C18.475 11.3561 18.3595 11.4011 18.2521 11.4011C18.1448 11.4011 17.9792 11.442 17.8838 11.4921C17.7885 11.542 16.6324 11.9291 15.3148 12.3518C13.9972 12.7745 12.0658 13.4029 11.0227 13.7482C8.3878 14.6204 8.42049 14.6136 4.98381 14.9974C4.46227 15.0558 3.71814 15.1449 3.3301 15.1953C2.61966 15.2879 1.92768 15.237 1.83385 15.0853C1.59729 14.7022 1.49023 15.1784 1.49023 16.6155V18.1152L3.16216 18.077L4.83408 18.0388V22.1812V26.3236L3.16216 26.2854L1.49023 26.2472V29.665C1.49023 32.7403 1.50596 33.0764 1.64819 33.022C1.73503 32.9886 3.43665 32.9614 5.42999 32.9614H9.05382L9.11072 32.2876C9.18383 31.4195 9.41416 30.203 9.58285 29.7922C9.63375 29.6687 9.71436 29.4666 9.76227 29.343C9.94443 28.8739 10.327 28.119 10.3988 28.0871C10.44 28.0686 10.4737 27.9985 10.4737 27.9311C10.4737 27.8638 10.5523 27.7215 10.6484 27.615C10.7445 27.5084 10.9566 27.2417 11.1195 27.0223C12.106 25.6945 13.9007 24.3779 15.4146 23.8711C15.6342 23.7977 15.8566 23.7017 15.9087 23.658C15.9609 23.6143 16.1203 23.5787 16.2631 23.5787C16.4058 23.5787 16.5653 23.538 16.6174 23.4881C16.9251 23.1939 20.5933 23.1936 20.8995 23.4876C20.9517 23.5377 21.1174 23.5787 21.2679 23.5787C21.4183 23.5787 21.5693 23.6236 21.6032 23.6785C21.6372 23.7334 21.7527 23.7783 21.86 23.7783C21.9673 23.7783 22.133 23.8182 22.2283 23.8671C22.3237 23.916 22.6264 24.062 22.9008 24.1915C23.1753 24.321 23.4149 24.4608 23.4331 24.502C23.4516 24.5431 23.5102 24.5768 23.5634 24.5768C23.9052 24.5768 25.5515 25.9785 26.2482 26.8624C26.8506 27.6267 27.7419 29.2457 27.7419 29.5756C27.7419 29.6744 27.7869 29.7832 27.8418 29.8172C27.8967 29.8511 27.9416 29.9796 27.9416 30.1026C27.9416 30.2257 27.982 30.3689 28.0312 30.4211C28.141 30.5373 28.238 31.1632 28.3054 32.1878L28.3561 32.9614H50.2957H72.2353L72.2977 32.4374C72.3559 31.9463 72.4679 31.2124 72.6171 30.3402C72.6526 30.1338 72.7214 29.9404 72.7701 29.9103C72.819 29.8801 72.8589 29.7456 72.8589 29.6116C72.8589 29.4775 72.9039 29.368 72.9588 29.368C73.0136 29.368 73.0586 29.2557 73.0586 29.1185C73.0586 28.9812 73.1035 28.8689 73.1584 28.8689C73.2133 28.8689 73.2582 28.7828 73.2582 28.6775C73.2582 28.5725 73.2919 28.4714 73.3331 28.4529C73.3742 28.4347 73.517 28.2176 73.65 27.9706C73.7832 27.7235 73.918 27.4989 73.9494 27.4715C73.9811 27.444 74.1865 27.1972 74.4061 26.923C75.5198 25.5326 76.9269 24.5134 78.6483 23.8511C78.7855 23.7982 78.9759 23.7154 79.0713 23.6667C79.1666 23.6183 79.3485 23.5787 79.4755 23.5787C79.6025 23.5787 79.749 23.538 79.8012 23.4881C80.1143 23.1886 83.9106 23.1914 84.0958 23.4911C84.1255 23.5392 84.2794 23.5787 84.4376 23.5787C84.5958 23.5787 84.7531 23.6236 84.787 23.6785C84.8209 23.7334 84.9365 23.7783 85.0438 23.7783C85.1511 23.7783 85.3168 23.8182 85.4121 23.8671C85.5074 23.916 85.8101 24.0608 86.0846 24.1885C87.4588 24.8286 89.6238 26.7056 89.9175 27.5117C89.9395 27.5718 89.9844 27.6437 90.0174 27.6711C90.1352 27.7694 90.6614 28.7748 90.8401 29.2432C90.8873 29.3668 90.9654 29.5689 91.014 29.6924C91.1059 29.9252 91.2259 30.3746 91.4146 31.1911C91.4752 31.4527 91.5246 31.958 91.5246 32.3141V32.9614H94.4225C97.0934 32.9614 97.3247 32.9477 97.3786 32.7867C97.5226 32.3568 97.668 32.063 97.7377 32.063C97.7791 32.063 97.813 32.0012 97.813 31.9255C97.813 31.8499 97.8901 31.6141 97.9847 31.4015C98.079 31.1889 98.1641 30.9701 98.1736 30.9152C98.2188 30.6584 98.3423 30.3662 98.4054 30.3662C98.4441 30.3662 98.5367 30.1416 98.6116 29.8671C98.6864 29.5926 98.7842 29.368 98.8292 29.368C98.8743 29.368 98.911 29.2782 98.911 29.1684C98.911 29.0586 98.9559 28.9687 99.0108 28.9687C99.1735 28.9687 99.1244 28.5962 98.9527 28.5303C98.8658 28.4969 97.5857 28.4697 96.1079 28.4697H93.4211V27.5294V26.5889L95.8085 26.5562C97.9393 26.5267 98.654 26.4496 98.2203 26.2959C98.1422 26.2682 97.9528 26.1172 97.7993 25.9603C97.6458 25.8033 97.4939 25.6748 97.4617 25.6748C97.3249 25.6748 96.722 25.2022 96.7822 25.142C96.8184 25.1056 96.7799 25.0759 96.6966 25.0759C96.6132 25.0759 96.4041 24.9411 96.2317 24.7764C96.0593 24.6117 95.8778 24.477 95.8282 24.477C95.7785 24.477 95.5964 24.3445 95.4232 24.1828C95.2497 24.0211 95.0915 23.8976 95.0711 23.9083C95.0509 23.919 94.9206 23.8294 94.7821 23.7087C94.5371 23.4958 93.9766 23.1709 93.869 23.1796C93.8398 23.1819 93.7061 23.0741 93.5718 22.9398C93.4376 22.8056 93.2365 22.6668 93.1249 22.6314C93.0134 22.596 92.922 22.5251 92.922 22.4739C92.922 22.4228 92.8527 22.3809 92.7681 22.3809C92.6835 22.3809 92.5178 22.291 92.4 22.1812C92.2822 22.0714 92.1267 21.9816 92.0549 21.9816C91.9828 21.9816 91.9239 21.9367 91.9239 21.8818C91.9239 21.8269 91.834 21.782 91.7242 21.782C91.6144 21.782 91.5246 21.737 91.5246 21.6821C91.5246 21.6272 91.4348 21.5823 91.325 21.5823C91.2152 21.5823 91.1253 21.5374 91.1253 21.4825C91.1253 21.4276 91.0355 21.3827 90.9257 21.3827C90.8159 21.3827 90.7261 21.3378 90.7261 21.2829C90.7261 21.228 90.6362 21.1831 90.5264 21.1831C90.4166 21.1831 90.3268 21.1381 90.3268 21.0832C90.3268 21.0283 90.2145 20.9834 90.0773 20.9834C89.94 20.9834 89.8277 20.9385 89.8277 20.8836C89.8277 20.8287 89.7154 20.7838 89.5782 20.7838C89.4409 20.7838 89.3286 20.7486 89.3286 20.7057C89.3286 20.6628 89.1265 20.5679 88.8795 20.4951C88.6324 20.4222 88.4303 20.3226 88.4303 20.2737C88.4303 20.2248 88.2955 20.1849 88.1308 20.1849C87.9661 20.1849 87.8314 20.14 87.8314 20.0851C87.8314 20.0302 87.7004 19.9853 87.5402 19.9853C87.3802 19.9853 87.2342 19.9423 87.2158 19.8899C87.1976 19.8373 87.0141 19.7831 86.8083 19.7697C86.6024 19.7559 86.434 19.709 86.434 19.6653C86.434 19.6217 86.302 19.586 86.1405 19.586C85.979 19.586 85.8221 19.5458 85.7916 19.4967C85.7615 19.4475 85.5678 19.3821 85.3617 19.3509C85.1553 19.3197 84.7171 19.2449 84.3877 19.1845C84.0583 19.1238 83.5782 19.0652 83.3209 19.0537C83.0637 19.0422 82.8216 19.0013 82.7832 18.9629C82.7448 18.9245 79.9234 18.8918 76.5135 18.8903C73.1035 18.8885 69.7766 18.8576 69.1203 18.8212L67.927 18.7553L66.575 17.8432C65.8314 17.3414 64.6046 16.5064 63.849 15.9876C62.4057 14.9967 60.0465 13.3827 57.7527 11.8168C56.1671 10.7348 56.1614 10.7023 57.5489 10.7023C58.2221 10.7023 58.575 10.6667 58.5353 10.6025C58.5014 10.5476 58.3838 10.5027 58.274 10.5027C58.1642 10.5027 58.1021 10.4578 58.136 10.4029C58.171 10.3465 58.0891 10.3031 57.9481 10.3031C57.8109 10.3031 57.6709 10.2582 57.6369 10.2033C57.603 10.1484 57.488 10.1034 57.3814 10.1034C57.2749 10.1034 57.1878 10.0585 57.1878 10.0036C57.1878 9.94872 57.0755 9.90381 56.9382 9.90381C56.801 9.90381 56.6887 9.85889 56.6887 9.80399C56.6887 9.74909 56.5764 9.70417 56.4391 9.70417C56.3019 9.70417 56.1896 9.65926 56.1896 9.60436C56.1896 9.54946 56.0521 9.50454 55.8842 9.50454C55.7062 9.50454 55.6047 9.46287 55.6406 9.40473C55.6773 9.34509 55.5565 9.30491 55.3412 9.30491C55.1258 9.30491 55.005 9.26473 55.0417 9.20509C55.0776 9.14695 54.9781 9.10528 54.8039 9.10528C54.6392 9.10528 54.4768 9.06036 54.4428 9.00546C54.4089 8.95056 54.2265 8.90564 54.0376 8.90564C53.8487 8.90564 53.6942 8.86072 53.6942 8.80583C53.6942 8.75093 53.5145 8.70601 53.2949 8.70601C53.0753 8.70601 52.8957 8.66958 52.8957 8.62491C52.8957 8.58024 52.6823 8.53283 52.4215 8.51961C52.1608 8.50638 51.9324 8.45323 51.9142 8.40132C51.8958 8.34917 51.6851 8.30674 51.4458 8.30674C51.2068 8.30674 50.9832 8.26183 50.9492 8.20693C50.9153 8.15203 50.5757 8.10711 50.1946 8.10711C49.8066 8.10711 49.5019 8.06394 49.5019 8.00879C49.5019 7.87129 24.8827 7.86905 24.7979 8.00655ZM48.4538 10.884C48.893 10.9429 49.3871 11.0173 49.5518 11.0497C49.7165 11.0819 50.0983 11.155 50.4003 11.2122C51.4868 11.4178 52.8817 11.7806 54.0922 12.1721C55.5356 12.6388 57.8218 13.6457 59.1092 14.3813C59.3151 14.4989 59.6442 14.6863 59.8406 14.7976C61.5343 15.7568 65.2078 18.4426 64.9577 18.5387C64.6907 18.641 49.8835 18.5175 49.2524 18.4077C48.923 18.3503 48.339 18.2547 47.9548 18.1956C47.2777 18.091 46.8278 18.0199 45.3595 17.7843C44.9752 17.7227 44.4138 17.6346 44.1118 17.5884C42.5497 17.3501 42.1192 17.2815 41.6164 17.1912C40.4246 16.977 39.7341 16.8745 38.9214 16.7911C38.4547 16.7432 37.781 16.6579 37.4241 16.601C37.0673 16.5443 36.4834 16.454 36.1265 16.4004C35.7697 16.3467 35.2307 16.2559 34.9287 16.1987C34.2697 16.0737 32.7125 15.8132 31.8843 15.6892C30.6119 15.4988 29.8638 15.3835 29.2392 15.2822C28.8823 15.2243 28.3433 15.1392 28.0414 15.093C26.9948 14.9333 26.092 14.7933 25.4961 14.698C25.1667 14.6456 24.5828 14.5543 24.1985 14.4954C23.8142 14.4365 23.2302 14.3451 22.9008 14.2927C22.5715 14.2401 22.01 14.1532 21.6531 14.0998C21.2963 14.0464 20.7124 13.9566 20.3555 13.9002C19.9987 13.8438 19.4085 13.7582 19.0442 13.7101C18.1276 13.589 17.8511 13.3744 18.4341 13.2364C18.585 13.2007 19.4722 12.9485 20.4054 12.6762C21.3387 12.4037 22.2595 12.1377 22.4517 12.0848C23.1514 11.8924 23.4104 11.818 23.9489 11.6546C24.9476 11.3514 25.69 11.132 26.1449 11.0055C26.3919 10.9369 26.6839 10.8433 26.7937 10.7974C27.0919 10.6726 47.4841 10.7545 48.4538 10.884ZM8.15597 18.4631C8.27301 18.7238 8.44294 19.1169 8.53328 19.3365C8.62336 19.5561 8.80503 19.9728 8.93679 20.2627C9.06829 20.5525 9.1761 20.8097 9.1761 20.8342C9.1761 20.8587 9.30286 21.1603 9.45808 21.505C9.95267 22.6044 10.0056 22.7716 9.90126 22.9049C9.84761 22.9735 9.66919 23.2767 9.50474 23.5787C9.34004 23.8806 9.10897 24.2961 8.99119 24.502C8.7666 24.894 8.48911 25.3831 8.26228 25.7858C7.95285 26.3353 7.88123 26.3735 7.1643 26.3735H6.48105V22.1812V17.9889H7.21196H7.94261L8.15597 18.4631ZM39.9694 20.6812C40.5496 20.7651 41.4819 20.9068 42.6146 21.0832C43.6913 21.2509 44.6705 21.4002 45.3096 21.4935C45.6665 21.5459 46.2279 21.6307 46.5573 21.6821C46.8867 21.7335 47.4482 21.8184 47.805 21.8708C48.4441 21.9641 49.4233 22.1133 50.5001 22.281C50.802 22.3282 51.3635 22.413 51.7478 22.4702C52.1321 22.5271 53.2101 22.689 54.1434 22.8298C55.0767 22.9705 56.7386 23.2198 57.8366 23.3833C58.9346 23.5467 60.2596 23.7476 60.7812 23.8292C61.3027 23.911 62.0438 24.0243 62.4281 24.0812C62.8124 24.1381 63.4076 24.228 63.7507 24.2809C65.6821 24.5791 66.2199 24.6602 67.6685 24.872C69.6965 25.1685 69.7294 25.1879 69.4258 25.9144C69.0327 26.8554 68.3717 26.9879 65.6223 26.6765C64.5792 26.5584 63.3439 26.4197 62.8773 26.3685C62.4107 26.3174 61.6471 26.2298 61.1804 26.1739C60.7138 26.118 59.9053 26.0254 59.3837 25.968C58.8622 25.9109 58.0537 25.8198 57.587 25.7661C57.1204 25.7122 56.3568 25.6266 55.8902 25.576C55.4235 25.5253 54.6599 25.4362 54.1933 25.3778C53.7266 25.3197 52.9406 25.2294 52.4465 25.1772C51.4336 25.0702 50.2977 24.9416 48.903 24.7764C47.7324 24.6377 46.5226 24.4995 45.4094 24.3772C44.9428 24.326 44.1343 24.2352 43.6127 24.1753C43.0912 24.1157 42.3051 24.0273 41.866 23.9792L41.0674 23.8913L39.9445 24.4458C38.7489 25.036 38.6646 25.1385 39.0961 25.4752C39.247 25.5929 39.8202 26.124 40.37 26.6552C42.0853 28.3132 41.8939 28.1894 42.8851 28.2815C43.7495 28.3619 44.7404 28.4684 46.4076 28.6608C46.8742 28.7145 47.7052 28.8083 48.2542 28.8689C48.8032 28.9296 49.6117 29.0194 50.0509 29.0686C50.4901 29.1177 51.2986 29.2075 51.8476 29.2682C52.3966 29.3288 53.2276 29.4214 53.6942 29.4738C54.1608 29.5262 54.9693 29.6148 55.4909 29.6707C56.7181 29.8022 57.9239 29.936 58.9845 30.0582C59.8139 30.1538 60.6092 30.2429 62.6278 30.466C69.6052 31.2373 69.17 31.1669 69.6493 31.6014C70.5846 32.4491 70.3758 32.8049 68.9911 32.7228C68.346 32.6846 67.0995 32.6118 66.2211 32.5609C65.3428 32.51 63.8829 32.4211 62.9771 32.3635C61.2156 32.2514 58.977 32.1184 56.2395 31.963C55.3062 31.9101 51.915 31.7099 48.7034 31.5188C45.4918 31.3274 42.0107 31.124 40.9676 31.0669C38.2895 30.9199 38.463 30.9658 37.9092 30.2554C37.6118 29.8736 35.2626 26.9098 34.8324 26.3735C34.6784 26.1814 34.072 25.418 33.4851 24.6769L32.4181 23.3299L33.1515 22.98C33.5547 22.7879 34.086 22.5448 34.3318 22.4402C34.5779 22.3357 35.0036 22.1498 35.2781 22.0273C35.8293 21.781 36.4896 21.4872 37.3243 21.1167C37.6263 20.9824 38.053 20.7855 38.2726 20.6787C38.5423 20.5477 38.7851 20.5026 39.0212 20.5397C39.2133 20.5699 39.64 20.6338 39.9694 20.6812Z" fill="#41479B"/>
<path fill-rule="evenodd" clip-rule="evenodd" d="M16.05 10.7489C16.0246 10.7746 15.8469 10.8147 15.6553 10.8387C15.4636 10.8624 15.1347 10.9537 14.9243 11.0416C14.7137 11.1297 14.4764 11.2015 14.3971 11.2015C14.3175 11.2015 14.1889 11.2649 14.1113 11.3423C14.034 11.4199 13.88 11.4596 13.7692 11.4306C13.6559 11.4009 13.5678 11.4266 13.5678 11.4892C13.5678 11.5506 13.4181 11.6008 13.2352 11.6008C13.052 11.6008 12.8714 11.632 12.8332 11.6699C12.7953 11.7078 12.6663 11.754 12.5465 11.7722C12.4267 11.7904 12.3044 11.8399 12.2745 11.882C12.2448 11.9242 12.0856 11.9684 11.9209 11.9801C11.7562 11.9921 11.431 12.0911 11.1982 12.2004C10.9656 12.31 10.6425 12.3993 10.4805 12.3993C10.3186 12.3993 10.1581 12.4442 10.1242 12.4991C10.0902 12.554 9.95274 12.599 9.81874 12.599C9.68474 12.599 9.57519 12.6439 9.57519 12.6988C9.57519 12.7537 9.41798 12.7986 9.22583 12.7986C9.03368 12.7986 8.87647 12.8435 8.87647 12.8984C8.87647 12.9533 8.70803 12.999 8.50216 12.9997C8.22367 13.001 8.16628 13.0262 8.27757 13.098C8.38712 13.1689 8.31376 13.1951 8.00308 13.1964C7.76976 13.1971 7.57886 13.2398 7.57886 13.2909C7.57886 13.3423 7.45883 13.3985 7.3121 13.4157C7.16537 13.4332 7.02688 13.5035 7.00442 13.5722C6.94453 13.7543 7.47231 13.7306 7.54243 13.548C7.58036 13.4496 7.67718 13.4184 7.8279 13.4561C7.95342 13.4878 8.08618 13.4649 8.12286 13.4055C8.15954 13.3463 8.32174 13.2977 8.4832 13.2977C8.64465 13.2977 8.77666 13.2528 8.77666 13.1979C8.77666 13.143 8.90866 13.098 9.07012 13.098C9.23157 13.098 9.39153 13.0531 9.42546 12.9982C9.4594 12.9433 9.61661 12.8984 9.77482 12.8984C9.93303 12.8984 10.0902 12.8535 10.1242 12.7986C10.1581 12.7437 10.2929 12.6988 10.4236 12.6988C10.5544 12.6988 10.6891 12.6539 10.7231 12.599C10.757 12.5441 10.8958 12.4991 11.0315 12.4991C11.1673 12.4991 11.301 12.4397 11.329 12.3674C11.3602 12.2858 11.4877 12.2513 11.6633 12.277C11.8193 12.3 11.9775 12.2696 12.0147 12.2092C12.0519 12.149 12.2146 12.0999 12.376 12.0999C12.5375 12.0999 12.6695 12.055 12.6695 12.0001C12.6695 11.9452 12.8042 11.9002 12.9689 11.9002C13.1336 11.9002 13.2684 11.8553 13.2684 11.8004C13.2684 11.7455 13.4004 11.7006 13.5619 11.7006C13.7233 11.7006 13.8833 11.6557 13.9172 11.6008C13.9511 11.5459 14.1111 11.501 14.2725 11.501C14.434 11.501 14.566 11.4561 14.566 11.4012C14.566 11.3463 14.7232 11.3013 14.9154 11.3013C15.1075 11.3013 15.2647 11.2564 15.2647 11.2015C15.2647 11.1466 15.3995 11.1017 15.5642 11.1017C15.7289 11.1017 15.8636 11.0568 15.8636 11.0019C15.8636 10.947 16.0208 10.9021 16.213 10.9021C16.4051 10.9021 16.5623 10.8572 16.5623 10.8023C16.5623 10.7034 16.1396 10.6595 16.05 10.7489ZM16.8867 10.7713C16.9828 10.7963 17.14 10.7963 17.2361 10.7713C17.3322 10.7461 17.2536 10.7257 17.0614 10.7257C16.8693 10.7257 16.7907 10.7461 16.8867 10.7713ZM17.8849 10.7758C18.1457 10.7963 18.5724 10.7963 18.8332 10.7758C19.0939 10.7553 18.8806 10.7384 18.359 10.7384C17.8375 10.7384 17.6241 10.7553 17.8849 10.7758ZM27.7475 10.7823C28.0639 10.8087 28.3654 11.0753 30.5334 13.2445L32.9647 15.6773L32.3246 15.6219C31.9725 15.5917 31.6089 15.5278 31.5163 15.4802C31.424 15.4327 31.1008 15.3938 30.7986 15.3938C30.4962 15.3938 30.2212 15.3489 30.1873 15.294C30.1533 15.2391 29.8676 15.1942 29.5524 15.1942C29.2373 15.1942 28.9368 15.1533 28.8847 15.1031C28.8325 15.0532 28.5203 14.9851 28.1909 14.9519C26.6807 14.8004 26.4883 14.7717 26.3992 14.6864C26.3471 14.6362 26.0466 14.5953 25.7315 14.5953C25.4163 14.5953 25.1306 14.5504 25.0966 14.4955C25.0627 14.4406 24.777 14.3956 24.4618 14.3956C24.1466 14.3956 23.8462 14.3547 23.794 14.3046C23.7419 14.2547 23.4409 14.1873 23.1253 14.1548C22.8096 14.1227 22.293 14.0697 21.9774 14.0376C21.6617 14.0051 21.3608 13.9377 21.3086 13.8878C21.2564 13.8377 20.9622 13.7967 20.6548 13.7967C20.3474 13.7967 20.0532 13.7543 20.001 13.7024C19.9489 13.6505 19.6367 13.5944 19.3073 13.5777C18.8938 13.5567 18.7161 13.5085 18.7333 13.4224C18.7471 13.3538 18.6685 13.2977 18.5587 13.2977C18.4489 13.2977 18.359 13.3643 18.359 13.4454C18.359 13.6014 18.4995 13.6463 19.3073 13.7481C19.5818 13.7828 20.0534 13.8494 20.3554 13.8963C20.6573 13.9432 21.2412 14.0331 21.653 14.0962C22.0647 14.1593 22.6486 14.2492 22.9506 14.2958C23.2525 14.3425 23.8365 14.4323 24.2482 14.4955C24.6599 14.5586 25.2551 14.6517 25.5708 14.7026C25.8864 14.7532 26.403 14.8366 26.7186 14.8872C27.2447 14.9718 27.8498 15.0657 29.3388 15.2927C29.6408 15.3389 30.191 15.4255 30.5616 15.4851C30.9321 15.5448 31.5161 15.6351 31.8592 15.6863C32.2023 15.7372 32.9322 15.854 33.4812 15.9455C34.6451 16.1399 35.1496 16.2058 34.9036 16.131C34.7516 16.0848 34.7289 15.9413 34.7289 15.0322C34.7289 13.7037 34.7449 13.7319 33.0904 12.1226L31.7329 10.8023H35.1773H38.6217V12.6758V14.5491L39.7701 15.7202C40.9372 16.9103 41.0158 17.1134 40.1876 16.7982C39.9039 16.6904 37.7421 16.5439 37.8372 16.639C37.8724 16.6742 38.344 16.7446 38.8853 16.7957C39.8141 16.8833 40.3191 16.9562 41.6162 17.1908C42.1188 17.2816 42.543 17.3492 44.1116 17.5885C44.4136 17.6347 44.9751 17.7228 45.3594 17.7844C46.8277 18.02 47.2776 18.0911 47.9546 18.1957C48.3389 18.2548 48.9228 18.3504 49.2522 18.4078C49.9644 18.5318 64.7666 18.6349 64.8847 18.5168C64.9279 18.4736 61.6978 18.435 57.7066 18.431C53.7155 18.4272 50.306 18.3886 50.1301 18.3456C49.891 18.287 48.8559 17.3265 46.0496 14.5596L42.2895 10.8522L43.6747 10.8023C44.4366 10.7748 41.0847 10.7524 36.2262 10.7524C31.3676 10.7524 27.5521 10.7658 27.7475 10.7823ZM57.1504 10.7768L56.3649 10.811L57.4 11.5354C57.9694 11.9337 59.5807 13.0414 60.9806 13.9969C62.3805 14.9524 64.4151 16.3426 65.5015 17.0862C66.5883 17.8298 67.5989 18.5136 67.7474 18.6054C68.0873 18.816 71.2617 18.9929 71.2617 18.8015C71.2617 18.7389 71.1916 18.6878 71.106 18.6878C71.0139 18.6878 70.9795 18.6408 71.0217 18.5725C71.0643 18.5036 71.0493 18.4844 70.9842 18.5246C70.9243 18.5615 70.7601 18.4766 70.6194 18.3357C70.4786 18.1949 70.3634 18.1315 70.3634 18.1947C70.3634 18.2578 70.2286 18.1655 70.0639 17.989C69.8992 17.8126 69.7645 17.6981 69.7645 17.734C69.7645 17.7702 69.6142 17.6851 69.4306 17.5449C69.2469 17.4049 69.0548 17.2903 69.0036 17.2903C68.9522 17.2903 68.8454 17.2005 68.7663 17.0907C68.6872 16.9809 68.5624 16.8911 68.4888 16.8911C68.4154 16.8911 68.383 16.8461 68.4169 16.7912C68.4509 16.7363 68.4154 16.6914 68.3386 16.6914C68.2615 16.6914 68.117 16.6016 68.0177 16.4918C67.9184 16.382 67.7766 16.2922 67.7028 16.2922C67.6289 16.2922 67.5685 16.2502 67.5685 16.1991C67.5685 16.1479 67.4789 16.0776 67.3694 16.0429C67.2601 16.0082 67.1081 15.9171 67.0317 15.841C66.8815 15.6908 66.4131 15.3961 65.8966 15.1268C65.7182 15.0337 65.5722 14.9209 65.5722 14.8763C65.5722 14.8316 65.5043 14.7949 65.4214 14.7949C65.3386 14.7949 65.13 14.6602 64.9576 14.4955C64.7851 14.3308 64.5807 14.196 64.5034 14.196C64.426 14.196 64.3903 14.1511 64.4243 14.0962C64.4582 14.0413 64.4165 13.9964 64.3315 13.9964C64.1947 13.9964 64.0273 13.8878 63.6395 13.5472C63.5771 13.4923 63.4032 13.384 63.2532 13.3067C63.103 13.2293 62.8916 13.0833 62.7831 12.9822C62.6748 12.8812 62.5505 12.7986 62.5071 12.7986C62.4636 12.7983 62.2987 12.687 62.1405 12.551C61.9823 12.415 61.8221 12.323 61.7844 12.3462C61.7465 12.3696 61.6526 12.3013 61.5758 12.1944C61.4987 12.0874 61.3557 12.0001 61.2581 12.0001C61.1603 12.0001 61.0804 11.9626 61.0804 11.9172C61.0804 11.8715 60.9569 11.7705 60.8059 11.6926C60.655 11.6148 60.509 11.5287 60.4815 11.5012C60.4157 11.4348 59.2528 10.8661 59.1672 10.8584C59.1308 10.8549 59.0671 10.8185 59.026 10.7773C58.9848 10.7361 58.7228 10.7114 58.4435 10.7224C58.1645 10.7336 57.5826 10.7581 57.1504 10.7768ZM26.7935 10.9021L26.5939 10.9879L26.7935 10.9934C26.9033 10.9964 27.0605 10.9552 27.1429 10.9021C27.3413 10.7738 27.092 10.7738 26.7935 10.9021ZM46.3575 10.9021C46.5222 10.944 47.0388 10.9767 47.5054 10.9749L48.3538 10.9714L47.705 10.8986C46.7947 10.7963 45.9503 10.7985 46.3575 10.9021ZM18.8082 11.0019C18.7353 11.1199 18.8329 11.1199 19.1077 11.0019C19.3 10.9193 19.2995 10.9158 19.0887 10.9091C18.9684 10.9053 18.8421 10.947 18.8082 11.0019ZM26.0948 11.1017C25.9166 11.1783 25.9239 11.1883 26.1637 11.1945C26.3114 11.1983 26.4601 11.1566 26.4941 11.1017C26.5677 10.9824 26.372 10.9824 26.0948 11.1017ZM48.5036 11.0957C48.6381 11.1881 49.6934 11.2542 49.5933 11.1641C49.5704 11.1436 49.2821 11.0967 48.9527 11.0598C48.5295 11.0126 48.3978 11.0234 48.5036 11.0957ZM18.2093 11.2015C18.1364 11.3196 18.234 11.3196 18.5088 11.2015C18.7011 11.1189 18.7006 11.1154 18.4898 11.1087C18.3695 11.105 18.2432 11.1466 18.2093 11.2015ZM24.348 11.616C23.6069 11.8361 22.8657 12.0537 22.701 12.0996C22.5363 12.1455 21.93 12.3255 21.3535 12.4991C20.7771 12.6728 20.156 12.8522 19.9731 12.8979C19.5553 13.0022 19.4001 13.1504 19.8064 13.0576C20.0801 12.995 21.1427 12.6908 21.7528 12.5004C21.89 12.4575 22.2045 12.3664 22.4515 12.2978C22.6985 12.2291 23.1477 12.0951 23.4497 12.0001C23.7516 11.905 24.2008 11.7715 24.4478 11.7036C24.6949 11.6357 25.0001 11.5397 25.1263 11.4905C25.2523 11.4413 25.4408 11.4012 25.5446 11.4012C25.6486 11.4012 25.7614 11.3562 25.7953 11.3013C25.8812 11.1626 25.8592 11.1673 24.348 11.616ZM49.8012 11.2939C49.8835 11.3512 50.1049 11.3989 50.2933 11.3997C50.4814 11.4004 50.7734 11.4431 50.9421 11.4942C51.1105 11.5454 51.4506 11.639 51.6977 11.7021C53.1306 12.0684 53.6067 12.2052 53.8175 12.3117C53.9129 12.3599 54.0504 12.3993 54.123 12.3993C54.1958 12.3993 54.7643 12.6027 55.3862 12.851C56.0083 13.0995 56.5398 13.2802 56.5672 13.2525C56.5947 13.2251 56.5323 13.1741 56.4282 13.1395C56.3244 13.1048 56.0489 12.9915 55.8161 12.8877C55.5835 12.7839 55.347 12.6988 55.2908 12.6988C55.2347 12.6988 55.1107 12.6561 55.0153 12.6037C54.2013 12.157 49.2567 10.9151 49.8012 11.2939ZM17.6104 11.4012C17.5375 11.5192 17.6351 11.5192 17.9099 11.4012C18.1023 11.3186 18.1017 11.3151 17.8909 11.3083C17.7706 11.3046 17.6443 11.3463 17.6104 11.4012ZM16.9616 11.6008C16.8286 11.6869 16.8286 11.6976 16.9616 11.6976C17.0439 11.6976 17.1787 11.6539 17.261 11.6008C17.3941 11.5147 17.3941 11.504 17.261 11.504C17.1787 11.504 17.0439 11.5476 16.9616 11.6008ZM16.3627 11.8004C16.2297 11.8865 16.2297 11.8972 16.3627 11.8972C16.445 11.8972 16.5798 11.8536 16.6621 11.8004C16.7952 11.7143 16.7952 11.7036 16.6621 11.7036C16.5798 11.7036 16.445 11.7473 16.3627 11.8004ZM15.7638 12.0001C15.6308 12.0861 15.6308 12.0969 15.7638 12.0969C15.8462 12.0969 15.9809 12.0532 16.0633 12.0001C16.1963 11.914 16.1963 11.9032 16.0633 11.9032C15.9809 11.9032 15.8462 11.9469 15.7638 12.0001ZM12.7194 12.965C11.292 13.4319 10.0461 13.8551 9.95075 13.9053C9.85542 13.9555 9.68973 13.9964 9.58242 13.9964C9.47512 13.9964 9.35958 14.0413 9.32565 14.0962C9.29171 14.1511 9.15696 14.196 9.0262 14.196C8.89544 14.196 8.76368 14.2359 8.73349 14.2849C8.70329 14.3335 8.5099 14.4036 8.30353 14.4403C7.95167 14.503 7.60107 14.5451 5.33299 14.7992C3.61291 14.9918 3.08712 15.016 3.08712 14.903C3.08712 14.7864 2.66365 14.7527 2.5556 14.8605C2.51942 14.8967 2.54088 14.9876 2.60301 15.0624C2.69235 15.1702 2.68162 15.1854 2.55236 15.1358C2.46202 15.1014 2.38841 15.0297 2.38841 14.9768C2.38841 14.9242 2.29683 14.8952 2.18478 14.9127C2.07274 14.9302 1.9839 14.9896 1.98715 15.0445C1.99788 15.2304 2.53514 15.2942 3.28676 15.1989C3.6985 15.1468 4.46209 15.0564 4.98363 14.998C5.50517 14.9394 6.3586 14.8438 6.88015 14.7852C7.58036 14.7068 8.44227 14.4817 10.1741 13.9258C13.5501 12.8418 15.502 12.1954 15.5529 12.1443C15.678 12.0193 15.0903 12.1895 12.7194 12.965ZM18.9579 13.1979C18.8339 13.278 18.8426 13.2947 19.0078 13.2947C19.1176 13.2947 19.2748 13.251 19.3572 13.1979C19.4812 13.1177 19.4725 13.101 19.3073 13.101C19.1975 13.101 19.0403 13.1447 18.9579 13.1979ZM56.6967 13.3378C56.7197 13.3598 57.2999 13.666 57.9861 14.0181C59.8964 14.9983 60.5062 15.3826 63.1766 17.2893C64.6559 18.3454 64.7736 18.4237 64.7736 18.3496C64.7736 18.2655 61.0942 15.6745 60.1194 15.0722C58.9753 14.3652 56.4183 13.0693 56.6967 13.3378ZM6.28125 13.6969C6.28125 13.7518 6.14924 13.7967 5.98779 13.7967C5.82633 13.7967 5.66638 13.8417 5.63244 13.8966C5.5985 13.9515 5.43855 13.9964 5.27709 13.9964C5.11564 13.9964 4.98363 14.0413 4.98363 14.0962C4.98363 14.1511 4.87409 14.196 4.74008 14.196C4.60608 14.196 4.46858 14.2409 4.43464 14.2958C4.40071 14.3507 4.23526 14.3956 4.06707 14.3956C3.81678 14.3956 3.78234 14.4209 3.87717 14.5351C4.00144 14.6849 4.38474 14.6372 4.38474 14.4723C4.38474 14.4174 4.47158 14.3951 4.57788 14.4228C4.68419 14.4505 4.86385 14.4084 4.9774 14.329C5.09069 14.2494 5.22444 14.2097 5.27435 14.2404C5.41384 14.3268 5.68235 14.1913 5.68235 14.0348C5.68235 13.9195 5.71853 13.9168 5.88797 14.0206C6.05965 14.1254 6.11355 14.1197 6.21287 13.9859C6.2785 13.8976 6.43971 13.8302 6.57096 13.8362C6.70247 13.8419 6.82949 13.7905 6.85344 13.7219C6.88189 13.6398 6.79181 13.5971 6.58893 13.5971C6.41974 13.5971 6.28125 13.642 6.28125 13.6969ZM3.46143 14.5741C3.27927 14.6115 3.22911 14.7475 3.36636 14.8323C3.47616 14.9002 3.71896 14.7388 3.67329 14.6282C3.65283 14.5788 3.55751 14.5544 3.46143 14.5741ZM35.4276 16.2922C35.5649 16.3361 35.8568 16.3713 36.0764 16.3703C36.4562 16.3685 36.4612 16.3645 36.1763 16.2922C35.7421 16.1816 35.0828 16.1816 35.4276 16.2922ZM36.7252 16.4918C36.8625 16.5357 37.132 16.5709 37.3241 16.5699L37.6735 16.5679L37.374 16.4918C36.9346 16.38 36.3761 16.38 36.7252 16.4918ZM17.7102 23.3754C17.4118 23.4141 17.833 23.4408 18.7583 23.4415C19.8268 23.4428 20.1355 23.421 19.7565 23.3711C19.1029 23.2853 18.3937 23.2868 17.7102 23.3754ZM80.8441 23.3759C80.5816 23.4146 81.0382 23.443 81.9421 23.4438C83.0246 23.445 83.3243 23.4233 82.9402 23.3721C82.2789 23.284 81.454 23.2855 80.8441 23.3759ZM16.6122 23.5788C16.4198 23.6614 16.4203 23.6648 16.6312 23.6716C16.7515 23.6753 16.8778 23.6337 16.9117 23.5788C16.9846 23.4607 16.887 23.4607 16.6122 23.5788ZM20.555 23.5788C20.6373 23.6319 20.817 23.6718 20.9543 23.6671L21.2038 23.6586L20.9543 23.5788C20.5695 23.4555 20.3643 23.4555 20.555 23.5788ZM79.796 23.5788C79.6036 23.6614 79.6041 23.6648 79.815 23.6716C79.9353 23.6753 80.0615 23.6337 80.0955 23.5788C80.1683 23.4607 80.0707 23.4607 79.796 23.5788ZM83.7388 23.5788C83.8211 23.6319 84.0008 23.6718 84.138 23.6671L84.3876 23.6586L84.138 23.5788C83.7532 23.4555 83.5481 23.4555 83.7388 23.5788ZM21.4034 23.7784C21.4374 23.8333 21.5636 23.875 21.6839 23.8712C21.8948 23.8645 21.8953 23.861 21.7029 23.7784C21.4281 23.6604 21.3306 23.6604 21.4034 23.7784ZM84.5872 23.7784C84.6211 23.8333 84.7474 23.875 84.8677 23.8712C85.0785 23.8645 85.079 23.861 84.8866 23.7784C84.6119 23.6604 84.5143 23.6604 84.5872 23.7784ZM22.4515 24.1285C22.4515 24.1527 22.6424 24.2645 22.8757 24.3765C23.9003 24.8689 24.7617 25.5007 25.5708 26.3532C25.8864 26.6855 26.1447 26.9261 26.1447 26.8877C26.1447 26.692 24.2692 25.0268 23.7002 24.7174C23.5899 24.6573 23.3424 24.5195 23.1502 24.411C22.7485 24.1844 22.4515 24.0641 22.4515 24.1285ZM85.6353 24.1285C85.6353 24.1527 85.8262 24.2645 86.0595 24.3765C87.1203 24.8863 87.8607 25.4264 88.7046 26.3055C89.0477 26.6628 89.3285 26.9243 89.3285 26.8864C89.3285 26.7874 87.9528 25.4623 87.4819 25.1082C86.9072 24.6757 85.6353 24.001 85.6353 24.1285ZM26.3251 27.2221C26.3875 27.3319 26.5332 27.534 26.6493 27.6712L26.8601 27.9208L26.677 27.5886C26.5764 27.406 26.4307 27.2038 26.3531 27.1395C26.2343 27.0411 26.2298 27.0541 26.3251 27.2221ZM89.6741 27.4466C89.828 27.68 89.973 27.8709 89.9962 27.8709C90.0681 27.8709 89.6861 27.2635 89.5361 27.1395C89.4582 27.0751 89.5201 27.2133 89.6741 27.4466ZM18.1222 28.1496C18.0903 28.2015 17.8946 28.2716 17.6875 28.3056C17.0195 28.4146 16.1159 28.9222 15.4776 29.5468C14.7317 30.2767 14.6945 30.4661 15.2972 30.4661C15.7937 30.4661 16.1623 30.7658 16.1641 31.1713C16.1723 32.9877 18.4796 35.3541 20.2456 35.3576C20.7536 35.3586 21.106 35.7706 21.089 36.344L21.074 36.8503L21.4978 36.5586C22.3372 35.9812 22.9032 35.1502 23.2413 33.9988C23.4624 33.2462 23.5298 31.8251 23.3498 31.7138C23.2949 31.6798 23.25 31.5451 23.25 31.4143C23.25 31.2836 23.2051 31.1488 23.1502 31.1149C23.0953 31.081 23.0504 30.9854 23.0504 30.9023C23.0504 30.4109 21.7535 29.0392 20.8891 28.6165C19.9885 28.1758 18.2839 27.8881 18.1222 28.1496ZM81.306 28.1496C81.274 28.2015 81.0744 28.2716 80.8625 28.3056C80.1743 28.4156 79.1023 29.0307 78.555 29.6291C77.919 30.3253 77.9082 30.4661 78.4912 30.4661C78.9935 30.4661 79.3468 30.7882 79.3468 31.2462C79.3468 31.4865 79.4414 31.844 79.6797 32.5051C79.9926 33.3732 81.5206 34.9536 82.0501 34.9568C82.1372 34.9573 82.239 34.9885 82.2767 35.0262C82.4017 35.1512 83.0857 35.3541 83.3894 35.3561C83.9359 35.3598 84.2902 35.7559 84.2728 36.344L84.2578 36.8503L84.6855 36.5559C85.778 35.8043 86.6334 34.0992 86.6334 32.6725C86.6334 30.7538 85.0828 28.7794 83.1543 28.2429C82.6423 28.1007 81.3758 28.0366 81.306 28.1496ZM20.2555 28.493C22.0979 29.2029 23.1802 30.6782 23.3192 32.6685C23.404 33.8853 22.8355 33.899 22.5443 32.6872C22.0809 30.7585 20.671 29.3873 18.7269 28.9748C18.1429 28.8511 17.9852 28.7078 18.101 28.4061C18.1774 28.2072 19.6701 28.2674 20.2555 28.493ZM83.8675 28.7061C85.4399 29.4622 86.5443 31.173 86.5304 32.831C86.5221 33.8252 85.9741 33.754 85.7211 32.7259C85.2472 30.7977 83.716 29.2658 82.0134 29.0153C81.3764 28.9217 81.0422 28.6622 81.2448 28.4181C81.5009 28.1094 82.9607 28.2699 83.8675 28.7061ZM91.0283 30.3663C91.0283 30.4486 91.072 30.5834 91.1252 30.6657C91.2113 30.7987 91.222 30.7987 91.222 30.6657C91.222 30.5834 91.1783 30.4486 91.1252 30.3663C91.0391 30.2333 91.0283 30.2333 91.0283 30.3663ZM91.2919 31.6639C91.3248 31.9658 91.3682 32.2316 91.3882 32.2545C91.4655 32.3429 91.4059 31.5034 91.3213 31.3145C91.2629 31.1843 91.2529 31.3053 91.2919 31.6639ZM28.0582 31.4642C28.0629 31.876 28.2201 32.3017 28.2239 31.9134C28.2254 31.7487 28.1882 31.5241 28.141 31.4143C28.0629 31.2329 28.0554 31.2374 28.0582 31.4642ZM72.3829 32.662C72.3829 32.8542 72.4034 32.9328 72.4286 32.8367C72.4535 32.7406 72.4535 32.5834 72.4286 32.4874C72.4034 32.3913 72.3829 32.4699 72.3829 32.662Z" fill="#747868"/>
<path fill-rule="evenodd" clip-rule="evenodd" d="M95.6419 26.5483L93.421 26.577V27.5235V28.4697H96.0023C97.4219 28.4697 98.7919 28.4982 99.0467 28.5331L99.5098 28.5967V27.5349V26.4734L98.6863 26.4963C98.2334 26.5091 96.8634 26.5323 95.6419 26.5483ZM18.1011 28.4061C17.9853 28.7078 18.143 28.851 18.727 28.9748C20.6711 29.3873 22.081 30.7585 22.5444 32.6872C22.8356 33.899 23.4041 33.8853 23.3193 32.6685C23.1803 30.6782 22.098 29.2029 20.2556 28.4929C19.6702 28.2673 18.1775 28.2072 18.1011 28.4061ZM81.2449 28.4181C81.0423 28.6621 81.3764 28.9216 82.0135 29.0152C83.7161 29.2658 85.2473 30.7977 85.7212 32.7259C85.9742 33.754 86.5222 33.8251 86.5305 32.8309C86.5444 31.173 85.44 29.4621 83.8676 28.706C82.9608 28.2698 81.501 28.1094 81.2449 28.4181Z" fill="#D1D1BD"/>
<path fill-rule="evenodd" clip-rule="evenodd" d="M19.4072 10.7905L19.6069 10.8751L19.4072 10.932C19.2528 10.9759 19.264 10.9846 19.4571 10.9704C19.5944 10.9602 19.7067 10.907 19.7067 10.8521C19.7067 10.7972 19.5944 10.7418 19.4571 10.7291C19.2365 10.7086 19.2308 10.7156 19.4072 10.7905ZM26.8435 10.8037C26.7382 10.8726 26.7974 10.8828 27.0432 10.8377C27.4736 10.7586 27.555 10.7019 27.2346 10.7039C27.1018 10.7047 26.9259 10.7496 26.8435 10.8037ZM29.1144 10.7768C29.5673 10.7952 30.3084 10.7952 30.7613 10.7768C31.2143 10.7581 30.8437 10.7431 29.9379 10.7431C29.032 10.7431 28.6615 10.7581 29.1144 10.7768ZM39.5951 10.7768C40.048 10.7952 40.7891 10.7952 41.2421 10.7768C41.695 10.7581 41.3244 10.7431 40.4186 10.7431C39.5127 10.7431 39.1422 10.7581 39.5951 10.7768ZM45.06 10.7521C45.1149 10.7708 45.7662 10.8052 46.5074 10.8287C47.2485 10.8521 47.7426 10.8377 47.6053 10.7967C47.3673 10.7256 44.8527 10.6817 45.06 10.7521ZM56.8134 10.775C57.0193 10.7967 57.3562 10.7967 57.562 10.775C57.7679 10.7536 57.5995 10.7359 57.1877 10.7359C56.776 10.7359 56.6075 10.7536 56.8134 10.775ZM26.1448 11.0064C26.0355 11.0805 26.076 11.0897 26.2946 11.0408C26.6616 10.9587 26.7412 10.9015 26.486 10.9035C26.3806 10.9043 26.2272 10.9507 26.1448 11.0064ZM48.6534 11.0076C48.873 11.053 49.1425 11.0897 49.2523 11.089L49.452 11.0877L49.2523 11.0019C49.1425 10.9547 48.873 10.918 48.6534 10.9205L48.2542 10.925L48.6534 11.0076ZM18.8083 11.1017C18.6159 11.1843 18.6164 11.1878 18.8273 11.1945C18.9476 11.1982 19.0738 11.1566 19.1078 11.1017C19.1806 10.9836 19.0831 10.9836 18.8083 11.1017ZM25.4461 11.2015C25.2477 11.3298 25.497 11.3298 25.7955 11.2015L25.9951 11.1157L25.7955 11.1102C25.6857 11.1072 25.5285 11.1483 25.4461 11.2015ZM49.8512 11.2015C50.0159 11.2434 50.2405 11.2798 50.3503 11.2826L50.5499 11.2873L50.3503 11.2015C50.2405 11.1543 50.0159 11.1179 49.8512 11.1204L49.5518 11.1254L49.8512 11.2015ZM18.2094 11.3013C18.017 11.3839 18.0175 11.3874 18.2284 11.3941C18.3487 11.3979 18.4749 11.3562 18.5089 11.3013C18.5817 11.1833 18.4842 11.1833 18.2094 11.3013ZM50.9492 11.4011C51.2477 11.5294 51.4969 11.5294 51.2986 11.4011C51.2162 11.348 51.059 11.3068 50.9492 11.3098L50.7496 11.3153L50.9492 11.4011ZM16.2855 11.9194C15.4468 12.1989 14.7785 12.4452 14.8002 12.4672C14.8222 12.4889 15.4503 12.303 16.1961 12.0539C16.942 11.8046 17.6188 11.6008 17.7001 11.6008C17.7817 11.6008 17.876 11.5558 17.91 11.5009C18.0018 11.3525 17.9394 11.3684 16.2855 11.9194ZM24.0487 11.6008C23.8503 11.729 24.0996 11.729 24.398 11.6008L24.5977 11.5149L24.398 11.5094C24.2882 11.5064 24.131 11.5476 24.0487 11.6008ZM52.5463 11.8004C52.8447 11.9287 53.094 11.9287 52.8956 11.8004C52.8133 11.7472 52.6561 11.7061 52.5463 11.7091L52.3466 11.7146L52.5463 11.8004ZM22.7511 12C22.6181 12.0861 22.6181 12.0968 22.7511 12.0968C22.8334 12.0968 22.9682 12.0532 23.0505 12C23.1835 11.9139 23.1835 11.9032 23.0505 11.9032C22.9682 11.9032 22.8334 11.9469 22.7511 12ZM53.245 12C53.5434 12.1283 53.7927 12.1283 53.5943 12C53.512 11.9469 53.3548 11.9057 53.245 11.9087L53.0453 11.9142L53.245 12ZM22.0524 12.1997C21.9194 12.2857 21.9194 12.2965 22.0524 12.2965C22.1347 12.2965 22.2695 12.2528 22.3518 12.1997C22.4848 12.1136 22.4848 12.1028 22.3518 12.1028C22.2695 12.1028 22.1347 12.1465 22.0524 12.1997ZM53.8938 12.1997C53.9761 12.2528 54.1109 12.2965 54.1932 12.2965C54.3262 12.2965 54.3262 12.2857 54.1932 12.1997C54.1109 12.1465 53.9761 12.1028 53.8938 12.1028C53.7608 12.1028 53.7608 12.1136 53.8938 12.1997ZM21.4036 12.3993C21.2778 12.4534 21.2593 12.4851 21.3536 12.4851C21.436 12.4851 21.5932 12.4465 21.703 12.3993C21.8288 12.3451 21.8472 12.3134 21.7529 12.3134C21.6706 12.3134 21.5134 12.3521 21.4036 12.3993ZM54.4927 12.3993C54.575 12.4524 54.7098 12.4961 54.7921 12.4961C54.9251 12.4961 54.9251 12.4854 54.7921 12.3993C54.7098 12.3461 54.575 12.3025 54.4927 12.3025C54.3597 12.3025 54.3597 12.3132 54.4927 12.3993ZM20.7048 12.5989C20.5791 12.6531 20.5606 12.6848 20.6549 12.6848C20.7373 12.6848 20.8945 12.6461 21.0043 12.5989C21.1301 12.5448 21.1485 12.5131 21.0542 12.5131C20.9718 12.5131 20.8146 12.5518 20.7048 12.5989ZM20.0061 12.7986L19.8065 12.8844L20.0061 12.8899C20.1159 12.8929 20.2731 12.8517 20.3555 12.7986C20.5539 12.6703 20.3046 12.6703 20.0061 12.7986ZM19.3074 12.9982L19.1078 13.084L19.3074 13.0895C19.4172 13.0925 19.5744 13.0513 19.6568 12.9982C19.8552 12.8699 19.6059 12.8699 19.3074 12.9982ZM18.5788 13.1966C18.1683 13.2936 18.0904 13.3683 18.2411 13.519C18.332 13.6098 18.3592 13.5981 18.3592 13.4673C18.3592 13.3583 18.4395 13.2971 18.5837 13.2961C18.7073 13.2954 18.8757 13.251 18.9581 13.1978C19.13 13.0868 19.0434 13.0865 18.5788 13.1966ZM56.4965 13.1387C56.5257 13.1681 57.1089 13.4663 57.7921 13.8017C58.4754 14.1368 58.9894 14.3662 58.9345 14.311C58.8796 14.2556 58.416 14.0028 57.9042 13.7488C56.9809 13.2909 56.3942 13.0366 56.4965 13.1387ZM9.97458 13.9964C9.84157 14.0824 9.84157 14.0932 9.97458 14.0932C10.0569 14.0932 10.1917 14.0495 10.274 13.9964C10.407 13.9103 10.407 13.8995 10.274 13.8995C10.1917 13.8995 10.0569 13.9432 9.97458 13.9964ZM9.37568 14.196C9.24267 14.2821 9.24267 14.2928 9.37568 14.2928C9.45803 14.2928 9.59278 14.2491 9.67513 14.196C9.80813 14.1099 9.80813 14.0992 9.67513 14.0992C9.59278 14.0992 9.45803 14.1428 9.37568 14.196ZM59.1841 14.5004C59.5302 14.7352 59.7276 14.8036 59.4835 14.6042C59.3463 14.4919 59.189 14.3999 59.1341 14.3994C59.0792 14.3989 59.1017 14.4445 59.1841 14.5004ZM59.7829 14.8348C59.7829 14.857 59.9329 14.9633 60.1161 15.0714C60.2992 15.1794 60.5688 15.3464 60.715 15.4422C60.8612 15.538 60.9807 15.5952 60.9807 15.5692C60.9807 15.5156 59.9137 14.7949 59.8344 14.7949C59.8062 14.7949 59.7829 14.8128 59.7829 14.8348ZM61.0806 15.6284C61.0806 15.6528 61.9532 16.2936 63.0195 17.052C64.086 17.8106 64.9325 18.4734 64.9008 18.525C64.8683 18.5774 64.8968 18.5854 64.9654 18.543C65.1299 18.4414 65.0128 18.3414 63.3763 17.1822C61.6303 15.9455 61.0806 15.5737 61.0806 15.6284ZM3.63399 18.1088C3.60654 18.1804 3.59581 20.058 3.61004 22.2814L3.63624 26.3237H4.23514H4.83403V22.1813V18.0389L4.25884 18.009C3.85608 17.988 3.66868 18.018 3.63399 18.1088ZM6.481 22.1813V26.3736H7.16425C7.88118 26.3736 7.9528 26.3354 8.26223 25.7859C8.48906 25.3832 8.76655 24.8941 8.99114 24.502C9.10892 24.2962 9.33999 23.8807 9.50469 23.5787C9.66914 23.2768 9.84756 22.9736 9.90121 22.905C10.0055 22.7717 9.95262 22.6045 9.45803 21.505C9.30281 21.1604 9.17605 20.8587 9.17605 20.8343C9.17605 20.8098 9.06824 20.5525 8.93674 20.2628C8.80498 19.9729 8.62331 19.5561 8.53323 19.3365C8.44289 19.1169 8.27296 18.7239 8.15592 18.4631L7.94257 17.989H7.21191H6.481V22.1813ZM38.2725 20.6788C38.0529 20.7856 37.6262 20.9825 37.3243 21.1168C36.4895 21.4873 35.8293 21.781 35.278 22.0273C35.0035 22.1499 34.5778 22.3358 34.3318 22.4403C34.086 22.5449 33.5547 22.7879 33.1514 22.9801L32.418 23.3299L33.4851 24.677C34.072 25.4181 34.6784 26.1814 34.8323 26.3736C35.2626 26.9098 37.6117 29.8736 37.9092 30.2554C38.4629 30.9659 38.2895 30.92 40.9676 31.0669C42.0106 31.1241 45.4917 31.3275 48.7033 31.5189C51.9149 31.71 55.3062 31.9101 56.2395 31.9631C58.9769 32.1185 61.2156 32.2515 62.9771 32.3636C63.8829 32.4212 65.3427 32.51 66.2211 32.5609C67.0995 32.6119 68.3459 32.6847 68.991 32.7229C70.3757 32.805 70.5846 32.4492 69.6493 31.6015C69.1699 31.167 69.6051 31.2374 62.6277 30.4661C60.6092 30.243 59.8139 30.1539 58.9844 30.0583C57.9239 29.936 56.7181 29.8023 55.4908 29.6708C54.9693 29.6149 54.1608 29.5263 53.6941 29.4739C53.2275 29.4215 52.3965 29.3289 51.8475 29.2683C51.2986 29.2076 50.49 29.1178 50.0508 29.0686C49.6117 29.0195 48.8031 28.9296 48.2542 28.869C47.7052 28.8084 46.8742 28.7145 46.4076 28.6609C44.7404 28.4685 43.7494 28.3619 42.885 28.2816C41.8939 28.1895 42.0853 28.3133 40.3699 26.6553C39.8202 26.124 39.247 25.593 39.096 25.4752C38.6645 25.1386 38.7489 25.036 39.9444 24.4459L41.0674 23.8914L41.8659 23.9792C42.3051 24.0274 43.0912 24.1157 43.6127 24.1754C44.1342 24.2353 44.9427 24.3261 45.4094 24.3773C46.5226 24.4995 47.7324 24.6378 48.903 24.7765C50.2976 24.9417 51.4336 25.0702 52.4464 25.1773C52.9405 25.2294 53.7266 25.3198 54.1932 25.3779C54.6599 25.4363 55.4235 25.5254 55.8901 25.5761C56.3568 25.6267 57.1203 25.7123 57.587 25.7662C58.0536 25.8199 58.8621 25.9109 59.3837 25.9681C59.9052 26.0255 60.7137 26.1181 61.1804 26.174C61.647 26.2298 62.4106 26.3174 62.8773 26.3686C63.3439 26.4197 64.5791 26.5585 65.6222 26.6765C68.3717 26.988 69.0327 26.8554 69.4257 25.9144C69.7294 25.188 69.6965 25.1686 67.6684 24.8721C66.2199 24.6602 65.6821 24.5791 63.7506 24.2809C63.4075 24.228 62.8124 24.1382 62.4281 24.0813C62.0438 24.0244 61.3027 23.9111 60.7811 23.8293C60.2596 23.7477 58.9345 23.5468 57.8365 23.3833C56.7385 23.2199 55.0766 22.9706 54.1433 22.8299C53.21 22.6891 52.132 22.5272 51.7477 22.4703C51.3634 22.4131 50.802 22.3283 50.5 22.2811C49.4233 22.1134 48.4441 21.9642 47.805 21.8709C47.4481 21.8185 46.8867 21.7336 46.5573 21.6822C46.2279 21.6308 45.6664 21.546 45.3096 21.4936C44.6705 21.4002 43.6913 21.251 42.6145 21.0833C41.4819 20.9069 40.5496 20.7652 39.9694 20.6813C39.64 20.6339 39.2133 20.57 39.0211 20.5398C38.7851 20.5026 38.5423 20.5478 38.2725 20.6788ZM17.7929 23.2571C17.7283 23.298 18.1396 23.3309 18.7065 23.3304C19.2735 23.3297 19.6855 23.2962 19.6221 23.2558C19.4714 23.1597 17.9442 23.1607 17.7929 23.2571ZM80.9787 23.2558C80.9153 23.2962 81.352 23.3292 81.9489 23.3294C82.5458 23.3294 82.9568 23.299 82.8625 23.2616C82.6292 23.169 81.1219 23.1645 80.9787 23.2558ZM16.6134 23.4774C16.5754 23.5388 16.676 23.5523 16.8819 23.5131C17.3233 23.429 17.3612 23.3791 16.9842 23.3791C16.8137 23.3791 16.6468 23.4233 16.6134 23.4774ZM20.2639 23.4148C20.3744 23.5093 20.9586 23.5665 20.9035 23.4774C20.87 23.4233 20.7031 23.3791 20.5327 23.3791C20.362 23.3791 20.2412 23.3951 20.2639 23.4148ZM79.7971 23.4774C79.7592 23.5388 79.8598 23.5523 80.0656 23.5131C80.5071 23.429 80.545 23.3791 80.168 23.3791C79.9975 23.3791 79.8306 23.4233 79.7971 23.4774ZM83.4477 23.4148C83.5582 23.5093 84.1424 23.5665 84.0872 23.4774C84.0538 23.4233 83.8869 23.3791 83.7164 23.3791C83.5457 23.3791 83.425 23.3951 83.4477 23.4148ZM15.9112 23.6825C15.869 23.7507 15.9443 23.7629 16.1298 23.7185C16.5123 23.6266 16.5485 23.5787 16.2356 23.5787C16.0926 23.5787 15.9466 23.6254 15.9112 23.6825ZM79.0974 23.6785C79.0238 23.7978 79.2195 23.7978 79.4967 23.6785C79.6749 23.6019 79.6676 23.592 79.4278 23.5857C79.2801 23.582 79.1314 23.6236 79.0974 23.6785ZM15.3647 23.8782C15.2317 23.9643 15.2317 23.975 15.3647 23.975C15.447 23.975 15.5818 23.9313 15.6641 23.8782C15.7971 23.7921 15.7971 23.7814 15.6641 23.7814C15.5818 23.7814 15.447 23.825 15.3647 23.8782ZM14.4663 24.2585C13.266 24.8581 11.7301 26.1345 11.0753 27.0765C10.9435 27.2664 11.233 27.0029 11.7189 26.4911C12.6422 25.5184 13.3441 24.9829 14.5162 24.3565C15.3222 23.9258 15.2838 23.8502 14.4663 24.2585ZM77.4777 24.3663C76.2971 24.9929 75.1577 25.9479 74.3534 26.985C74.1672 27.2253 74.4622 26.9675 75.0089 26.4123C76.0473 25.358 76.8453 24.7596 77.7891 24.3278C78.3006 24.094 78.4683 23.9737 78.2739 23.9807C78.2328 23.982 77.8744 24.1557 77.4777 24.3663ZM86.4339 24.4247C86.4339 24.4506 86.5799 24.5432 86.7583 24.6303L87.0827 24.7885L86.8332 24.5851C86.5929 24.3892 86.4339 24.3254 86.4339 24.4247ZM24.2433 25.0468C24.4327 25.2 24.9458 25.6624 25.3835 26.0741C25.8541 26.5171 26.0727 26.6798 25.9192 26.4729C25.627 26.0796 24.7966 25.3422 24.2568 24.9969L23.899 24.768L24.2433 25.0468ZM87.4321 25.0458C87.6242 25.198 88.136 25.6601 88.5692 26.0726C89.0024 26.4851 89.2735 26.6922 89.1714 26.5328C88.9723 26.2214 87.612 25.0193 87.2824 24.8634C87.1726 24.8112 87.2399 24.8933 87.4321 25.0458ZM26.3505 27.1472C26.4827 27.2981 26.6309 27.4666 26.6796 27.5215C26.8064 27.6645 26.5743 27.256 26.4101 27.0473C26.3345 26.9513 26.2359 26.8727 26.1912 26.8727C26.1466 26.8727 26.2182 26.9962 26.3505 27.1472ZM89.5951 27.2173C89.7463 27.4069 89.8883 27.5439 89.9105 27.5217C89.9639 27.4683 89.5008 26.8854 89.3992 26.8782C89.3558 26.8752 89.4439 27.0279 89.5951 27.2173ZM10.5655 27.7461C10.4876 27.897 10.401 28.043 10.3726 28.0705C10.3157 28.1259 9.9062 28.9775 9.74899 29.3681C9.51742 29.9428 9.48772 30.0306 9.42683 30.3163C9.23743 31.2089 9.16182 31.6798 9.11067 32.2877L9.05377 32.9615L5.39675 32.963C1.83929 32.9645 1.21494 33.0131 1.59 33.2594C1.72301 33.3468 1.72301 33.3582 1.59 33.362C1.49967 33.3645 1.54434 33.4306 1.70254 33.5287C1.84678 33.6183 2.04092 33.8641 2.134 34.0752C2.22708 34.286 2.34486 34.4587 2.39552 34.4587C2.44643 34.4587 2.61437 34.6618 2.76883 34.9099C2.9233 35.1582 3.08076 35.3304 3.11844 35.2927C3.15612 35.2547 3.18706 35.2989 3.18706 35.3902C3.18706 35.4818 3.23198 35.5567 3.28688 35.5567C3.34178 35.5567 3.3867 35.654 3.3867 35.773C3.3867 35.8918 3.41514 35.9607 3.45008 35.9258C3.53093 35.8452 4.09864 36.5526 4.03525 36.6552C4.00905 36.6973 4.07718 36.7552 4.18623 36.7837C4.29552 36.8121 4.38486 36.9072 4.38486 36.9948C4.38486 37.0821 4.42454 37.1538 4.47295 37.1538C4.52161 37.1538 4.58474 37.2436 4.61344 37.3534C4.67058 37.5722 10.1862 37.6758 10.3194 37.4604C10.3509 37.4098 10.2463 37.0841 10.0869 36.7368C9.4201 35.2842 9.10867 33.7705 9.21448 32.5003C9.32452 31.1815 9.3909 30.7198 9.48523 30.6208C9.53464 30.5686 9.57531 30.4221 9.57531 30.2951C9.57531 30.1681 9.61674 29.9862 9.66714 29.8909C9.71755 29.7955 9.8538 29.4684 9.96984 29.1639C10.0859 28.8598 10.3352 28.3544 10.5238 28.041C10.7125 27.7278 10.831 27.4716 10.7871 27.4716C10.7429 27.4716 10.6433 27.5951 10.5655 27.7461ZM73.6819 27.8878C73.3774 28.4485 73.4496 28.4687 73.7834 27.916C73.9309 27.6714 74.0193 27.4718 73.9793 27.4723C73.9397 27.4728 73.8057 27.6597 73.6819 27.8878ZM26.8336 27.8209C27.0018 28.1466 27.14 28.327 27.1393 28.2202C27.1388 28.1653 27.0467 28.0081 26.9344 27.8708C26.7989 27.7051 26.7649 27.6884 26.8336 27.8209ZM90.3065 28.3634C90.5099 28.7442 90.6893 29.0187 90.7058 28.9733C90.722 28.9279 90.619 28.6951 90.4767 28.4558C90.3345 28.2164 90.1925 27.9419 90.1611 27.8459C90.1296 27.7498 90.0662 27.6712 90.0206 27.6712C89.9747 27.6712 90.1034 27.9826 90.3065 28.3634ZM27.5492 29.2373C27.5717 29.4966 27.7279 29.7164 27.7349 29.4988C27.7386 29.3786 27.697 29.2523 27.6421 29.2183C27.5872 29.1844 27.5455 29.1929 27.5492 29.2373ZM90.8229 29.4409C91.0936 30.3306 91.2161 30.767 91.3144 31.1912C91.4587 31.8126 91.4562 33.8259 91.3107 34.4323C91.0744 35.4169 90.7847 36.3208 90.5596 36.7762C90.1458 37.6129 89.8978 37.553 93.7704 37.553H97.2141V35.2572V32.9615H94.3693H91.5246V32.3142C91.5246 31.9581 91.4752 31.4527 91.4145 31.1912C91.1977 30.2529 91.1043 29.9143 91.0157 29.7436C90.9661 29.6483 90.9257 29.5051 90.9257 29.4252C90.9257 29.3454 90.8837 29.254 90.8323 29.2223C90.7754 29.1872 90.7717 29.2725 90.8229 29.4409ZM72.8589 29.6116C72.8589 29.7456 72.819 29.8801 72.7701 29.9103C72.7214 29.9405 72.6525 30.1339 72.6171 30.3403C72.4679 31.2124 72.3558 31.9463 72.2977 32.4374L72.2353 32.9615H50.2957H28.356L28.3054 32.1879C28.238 31.1633 28.1409 30.5374 28.0311 30.4211C27.982 30.369 27.9415 30.2257 27.9415 30.1027C27.9415 29.9797 27.9013 29.8542 27.8524 29.8237C27.8025 29.793 27.806 29.934 27.8599 30.1424C28.1062 31.0944 28.1639 31.4919 28.2098 32.5585C28.2732 34.0245 27.9398 35.658 27.3289 36.8753C27.2266 37.0789 27.143 37.3147 27.143 37.3993C27.143 37.5373 29.5214 37.553 50.3503 37.553C63.2718 37.553 73.5576 37.5148 73.5576 37.4669C73.5576 37.4198 73.4278 37.0941 73.2691 36.7433C72.2582 34.5084 72.1552 32.2675 72.945 29.6925C73.0049 29.4971 73.0076 29.3681 72.9517 29.3681C72.9006 29.3681 72.8589 29.4776 72.8589 29.6116Z" fill="#001B39"/>
</svg>
