<svg width="16" height="17" viewBox="0 0 16 17" fill="none" xmlns="http://www.w3.org/2000/svg">
<path fill-rule="evenodd" clip-rule="evenodd" d="M13.3621 6.34008L9.96896 6.04563L8.64395 2.9259C8.40559 2.35803 7.59236 2.35803 7.35399 2.9259L6.02898 6.05264L2.64285 6.34008C2.02591 6.38915 1.77353 7.16032 2.24324 7.56694L4.81614 9.79632L4.04497 13.1053C3.90476 13.7083 4.55675 14.185 5.08956 13.8625L7.99897 12.1098L10.9084 13.8695C11.4412 14.192 12.0932 13.7153 11.953 13.1124L11.1818 9.79632L13.7547 7.56694C14.2244 7.16032 13.979 6.38915 13.3621 6.34008ZM7.99897 10.7988L5.36297 12.3903L6.06404 9.3897L3.73651 7.37064L6.80716 7.10424L7.99897 4.27895L9.19779 7.11125L12.2685 7.37765L9.94092 9.39672L10.642 12.3973L7.99897 10.7988Z" fill="#5F6368"/>
</svg>
