<svg width="14" height="14" viewBox="0 0 14 14" fill="none" xmlns="http://www.w3.org/2000/svg">
<g clip-path="url(#clip0_3372_2320)">
<path d="M13.8596 7.42238C13.8596 6.94654 13.8202 6.46812 13.7363 6H7V8.69557H10.8575C10.6975 9.56495 10.1831 10.334 9.42999 10.8227V12.5717H11.7314C13.0828 11.3526 13.8596 9.55209 13.8596 7.42238Z" fill="#4285F4"/>
<path d="M7.14031 14C9.06645 14 10.6908 13.3801 11.8743 12.3101L9.57292 10.561C8.93262 10.988 8.10601 11.2298 7.14293 11.2298C5.27976 11.2298 3.70001 9.99775 3.13318 8.34131H0.758301V10.1444C1.97067 12.5081 4.44003 14 7.14031 14Z" fill="#34A853"/>
<path d="M3.13062 8.34134C2.83146 7.47197 2.83146 6.53058 3.13062 5.6612V3.85815H0.758357C-0.254576 5.83611 -0.254576 8.16644 0.758357 10.1444L3.13062 8.34134Z" fill="#FBBC04"/>
<path d="M7.14031 2.77015C8.15849 2.75471 9.14256 3.13024 9.87995 3.81957L11.9189 1.82104C10.6278 0.632723 8.91425 -0.0205934 7.14031 -1.65594e-05C4.44003 -1.65594e-05 1.97067 1.49181 0.758301 3.85815L3.13056 5.6612C3.69476 4.00219 5.27714 2.77015 7.14031 2.77015Z" fill="#EA4335"/>
</g>
<defs>
<clipPath id="clip0_3372_2320">
<rect width="14" height="14" fill="white"/>
</clipPath>
</defs>
</svg>
