<svg width="16" height="16" viewBox="0 0 16 16" fill="none" xmlns="http://www.w3.org/2000/svg">
<path fill-rule="evenodd" clip-rule="evenodd" d="M13.3357 2.65C13.3357 2.29101 13.0447 2 12.6857 2C12.3267 2 12.0357 2.29101 12.0357 2.65V4.86246C11.4664 4.14741 10.7426 3.56194 9.91162 3.15396C8.64994 2.53452 7.21561 2.36081 5.84254 2.66116C4.46947 2.96151 3.23865 3.71819 2.35082 4.80782C1.46298 5.89745 0.970504 7.25573 0.953692 8.66117C0.93688 10.0666 1.39673 11.4363 2.25824 12.5468C3.11976 13.6574 4.33212 14.4433 5.69761 14.7764C7.06311 15.1095 8.50118 14.9702 9.77732 14.3811C11.0535 13.792 12.0924 12.7879 12.7246 11.5326C12.8861 11.212 12.7571 10.8212 12.4365 10.6597C12.1159 10.4982 11.7251 10.6272 11.5636 10.9478C11.0635 11.9407 10.2418 12.7348 9.23247 13.2008C8.22313 13.6667 7.08572 13.7769 6.00571 13.5134C4.9257 13.25 3.96681 12.6284 3.28541 11.75C2.60401 10.8716 2.2403 9.78832 2.2536 8.67672C2.2669 7.56511 2.65641 6.49081 3.35863 5.62899C4.06084 4.76717 5.03433 4.16868 6.12033 3.93113C7.20634 3.69358 8.34079 3.83097 9.33869 4.3209C10.1819 4.73488 10.8855 5.37993 11.3707 6.17601H8.9737C8.61472 6.17601 8.3237 6.46702 8.3237 6.82601C8.3237 7.18499 8.61472 7.47601 8.9737 7.47601H12.6857C13.0447 7.47601 13.3357 7.18499 13.3357 6.82601V2.65Z" fill="#5F6368"/>
</svg>
